<svg width="438" height="516.99956" xmlns="http://www.w3.org/2000/svg">

 <g>
  <title>background</title>
  <rect fill="none" id="canvas_background" height="518.99956" width="440" y="-1" x="-1"/>
 </g>
 <g>
  <title>Layer 1</title>
  <path id="svg_1" fill-rule="nonzero" fill="rgb(0%,86.666667%,50.196078%)" d="m413.47656,341.91016c-13.76172,37.29687 -34.57422,69.72656 -61.86718,96.3789c-31.06641,30.33594 -71.7461,54.44141 -120.91016,71.63672c-1.61328,0.5625 -3.29688,1.02344 -4.98828,1.36328c-2.23438,0.44141 -4.50781,0.67969 -6.76172,0.71094l-0.44141,0c-2.40234,0 -4.8164,-0.24219 -7.21093,-0.71094c-1.69141,-0.33984 -3.35157,-0.80078 -4.95704,-1.35156c-49.22265,-17.16797 -89.95312,-41.26172 -121.05078,-71.59766c-27.30468,-26.65234 -48.11328,-59.0625 -61.85547,-96.35937c-24.98828,-67.8125 -23.5664,-142.51563 -22.42187,-202.54688l0.01953,-0.92187c0.23047,-4.95703 0.37891,-10.16406 0.46094,-15.91406c0.41797,-28.23047 22.86328,-51.58594 51.09765,-53.16016c58.86719,-3.28516 104.40625,-22.48437 143.31641,-60.41016l0.33984,-0.3125c6.46094,-5.92578 14.60157,-8.83203 22.70313,-8.71093c7.8125,0.10156 15.59375,3.0039 21.82422,8.71093l0.33203,0.3125c38.91797,37.92579 84.45703,57.125 143.32422,60.41016c28.23437,1.57422 50.67969,24.92969 51.09765,53.16016c0.08204,5.78906 0.23047,10.98828 0.46094,15.91406l0.01172,0.39062c1.14063,60.14454 2.55469,134.9961 -22.52344,203.00782zm0,0"/>
  <path id="svg_2" fill-rule="nonzero" fill="rgb(0%,66.666667%,38.823529%)" d="m413.47656,341.91016c-13.76172,37.29687 -34.57422,69.72656 -61.86718,96.3789c-31.06641,30.33594 -71.7461,54.44141 -120.91016,71.63672c-1.61328,0.5625 -3.29688,1.02344 -4.98828,1.36328c-2.23438,0.44141 -4.50781,0.67969 -6.76172,0.71094l0,-511.99609c7.8125,0.10156 15.59375,3.0039 21.82422,8.71093l0.33203,0.3125c38.91797,37.92579 84.45703,57.125 143.32422,60.41016c28.23437,1.57422 50.67969,24.92969 51.09765,53.16016c0.08204,5.78906 0.23047,10.98828 0.46094,15.91406l0.01172,0.39062c1.14063,60.14454 2.55469,134.9961 -22.52344,203.00782zm0,0"/>
  <path id="svg_3" fill-rule="nonzero" fill="rgb(100%,100%,100%)" d="m346.10156,256c0,70.20703 -57.0039,127.35547 -127.15234,127.60547l-0.44922,0c-70.35547,0 -127.60547,-57.24609 -127.60547,-127.60547c0,-70.35547 57.25,-127.60156 127.60547,-127.60156l0.44922,0c70.14844,0.25 127.15234,57.39844 127.15234,127.60156zm0,0"/>
  <path id="svg_4" fill-rule="nonzero" fill="rgb(88.235294%,92.156863%,94.117647%)" d="m346.10156,256c0,70.20703 -57.0039,127.35547 -127.15234,127.60547l0,-255.20703c70.14844,0.25 127.15234,57.39844 127.15234,127.60156zm0,0"/>
  <g transform="matrix(0.5861879360052995,0,0,0.5861879360052995,-144.08531673079963,-265.1902479812934) " id="svg_18" stroke="null">
   <path d="m549.894545,997.155514c-15.80062,0 -28.58475,12.92778 -28.58475,28.7284s12.78413,28.72839 28.58475,28.72839s28.72839,-12.92778 28.72839,-28.72839s-12.92777,-28.7284 -28.72839,-28.7284zm-86.18518,-229.82713l0,28.72839l28.7284,0l51.7111,109.02425l-19.39166,35.19228c-2.29827,4.02197 -3.59105,8.76216 -3.59105,13.78963c0,15.80061 12.92777,28.72839 28.72839,28.72839l172.37035,0l0,-28.72839l-166.33739,0c-2.01098,0 -3.59105,-1.58007 -3.59105,-3.59105l0.43093,-1.72371l12.92778,-23.41363l107.01326,0c10.77314,0 20.25351,-5.88932 25.13734,-14.79513l51.42382,-93.22363c1.14914,-2.01098 1.7237,-4.4529 1.7237,-6.89481c0,-7.90031 -6.46388,-14.3642 -14.36419,-14.3642l-212.44646,0l-13.50234,-28.72839l-46.97092,0l-0.00001,0zm229.82714,229.82713c-15.80062,0 -28.58475,12.92778 -28.58475,28.7284s12.78413,28.72839 28.58475,28.72839s28.72839,-12.92778 28.72839,-28.72839s-12.92778,-28.7284 -28.72839,-28.7284z" id="svg_20" stroke="null" fill="#0F9D58" stroke-dasharray="5,2,2,2,2,2"/>
   <path d="m449.345175,738.599994l344.7407,0l0,344.7407l-344.7407,0l0,-344.7407z" fill="none" id="svg_19" stroke="null" stroke-dasharray="5,2,2,2,2,2"/>
  </g>
 </g>
</svg>