<svg xmlns="http://www.w3.org/2000/svg" xmlns:xlink="http://www.w3.org/1999/xlink" xmlns:fi="http://pattern.flaticon.com/" x="0" y="0" width="700" height="350" viewBox="0 0 1633.3333333333335 816.6666666666667"><rect x="0px" y="0px" width="100%" height="100%" opacity="1" fill="#fcfdfb"/><defs><g transform="matrix(0.1697916491523753 0.04549553527192747 -0.04549553527192747 0.1697916491523753 -31.819805153394643 -55.11351921262151)" id="L1_408"><path d="M448.43,375.123H26.917c-10.122,0-18.327-8.205-18.327-18.327V81.897  c0-10.122,8.205-18.327,18.327-18.327H448.43c10.122,0,18.327,8.205,18.327,18.327v274.899  C466.756,366.918,458.552,375.123,448.43,375.123z" fill="#ff6991"/><path d="M466.756,301.817H365.96c-20.243,0-36.653,16.41-36.653,36.653v36.653H448.43  c10.122,0,18.327-8.205,18.327-18.327V301.817z" fill="#ff507d"/><path d="M146.04,201.02H72.734c-5.06,0-9.163-4.103-9.163-9.163v-54.98c0-5.06,4.103-9.163,9.163-9.163  h73.306c5.06,0,9.163,4.103,9.163,9.163v54.98C155.204,196.917,151.101,201.02,146.04,201.02z" fill="#ffc850"/><circle cx="315" cy="159" r="41" fill="#ff507d"/><circle cx="370" cy="159" r="41" fill="#ffc850"/><path d="M329.306,159.785c0,12.164,5.366,22.986,13.745,30.533c8.379-7.547,13.745-18.369,13.745-30.533  s-5.366-22.986-13.745-30.533C334.673,136.799,329.306,147.621,329.306,159.785z" fill="#ff8c66"/><path d="M485.083,448.43h-109.96c-10.122,0-18.327-8.205-18.327-18.327v-82.47  c0-10.122,8.205-18.327,18.327-18.327h109.96c10.122,0,18.327,8.205,18.327,18.327v82.47  C503.409,440.225,495.205,448.43,485.083,448.43z" fill="#ffdc64"/><path d="M393.45,384.286v-54.98h-18.327c-10.122,0-18.327,8.205-18.327,18.327v82.47  c0,10.122,8.205,18.327,18.327,18.327h109.96c10.121,0,18.327-8.206,18.327-18.327v-9.163h-73.306  C409.86,420.94,393.45,404.529,393.45,384.286z" fill="#ffc850"/><circle cx="430" cy="379" r="13" fill="#464655"/><path d="M320.143,366.532H26.917c-5.369,0-9.736-4.367-9.736-9.736V81.897c0-5.369,4.367-9.736,9.736-9.736H448.43  c5.369,0,9.736,4.367,9.736,9.736v119.125c0,4.744,3.846,8.591,8.591,8.591c4.744,0,8.591-3.846,8.591-8.591V81.897  c0-14.842-12.075-26.917-26.917-26.917H26.917C12.075,54.98,0,67.055,0,81.897v274.899c0,14.842,12.075,26.917,26.917,26.917  h293.226c4.744,0,8.591-3.846,8.591-8.591S324.887,366.532,320.143,366.532z"/><path d="M163.794,191.857v-54.98c0-9.79-7.964-17.754-17.754-17.754H72.734c-9.79,0-17.754,7.964-17.754,17.754v54.98  c0,9.79,7.964,17.754,17.754,17.754h73.306C155.83,209.611,163.794,201.647,163.794,191.857z M146.613,136.877v54.98  c0,0.316-0.257,0.573-0.573,0.573h-37.226v-19.472h9.736c4.744,0,8.591-3.846,8.591-8.591c0-4.744-3.846-8.591-8.591-8.591h-9.736  v-19.472h37.226C146.356,136.304,146.613,136.561,146.613,136.877z M72.161,191.857v-54.98c0-0.316,0.257-0.573,0.573-0.573h18.899  v56.125H72.734C72.418,192.43,72.161,192.173,72.161,191.857z"/><path d="M343.074,118.242c-8.113-5.377-17.668-8.282-27.513-8.282c-27.474,0-49.826,22.352-49.826,49.826  s22.352,49.826,49.826,49.826c10.148,0,19.593-3.057,27.476-8.288c8.114,5.372,17.681,8.288,27.504,8.288  c27.474,0,49.826-22.352,49.826-49.826s-22.352-49.826-49.826-49.826C360.396,109.96,350.955,113.015,343.074,118.242z   M282.917,159.785c0-18,14.644-32.644,32.644-32.644c5.123,0,10.124,1.207,14.629,3.466c-5.953,8.208-9.475,18.287-9.475,29.178  c0,10.593,3.37,20.765,9.455,29.179c-4.4,2.212-9.359,3.465-14.61,3.465C297.561,192.43,282.917,177.785,282.917,159.785z   M403.186,159.785c0,18-14.644,32.644-32.644,32.644c-5.114,0-10.12-1.21-14.628-3.468c5.952-8.208,9.474-18.285,9.474-29.176  c0-4.744-3.846-8.591-8.591-8.591s-8.591,3.846-8.591,8.591c0,6.469-1.899,12.501-5.159,17.579  c-3.324-5.196-5.15-11.273-5.15-17.579c0-18,14.644-32.644,32.644-32.644S403.186,141.785,403.186,159.785z"/><path d="M63.57,256.573c-4.744,0-8.591,3.846-8.591,8.591c0,4.744,3.846,8.591,8.591,8.591h73.306c4.744,0,8.591-3.846,8.591-8.591  c0-4.744-3.846-8.591-8.591-8.591H63.57z"/><path d="M329.306,311.553H63.57c-4.744,0-8.591,3.846-8.591,8.591c0,4.744,3.846,8.591,8.591,8.591h265.736  c4.744,0,8.591-3.846,8.591-8.591C337.897,315.399,334.051,311.553,329.306,311.553z"/><path d="M173.53,256.573c-4.744,0-8.591,3.846-8.591,8.591c0,4.744,3.846,8.591,8.591,8.591h73.306c4.744,0,8.591-3.846,8.591-8.591  c0-4.744-3.846-8.591-8.591-8.591H173.53z"/><path d="M338.47,256.573h-54.98c-4.744,0-8.591,3.846-8.591,8.591c0,4.744,3.846,8.591,8.591,8.591h54.98  c4.744,0,8.591-3.846,8.591-8.591C347.06,260.419,343.214,256.573,338.47,256.573z"/><path d="M493.673,322.129V283.49c0-35.053-28.517-63.57-63.57-63.57s-63.57,28.517-63.57,63.57v38.639  c-10.641,3.594-18.327,13.665-18.327,25.504v82.47c0,14.842,12.075,26.917,26.917,26.917h109.96  c14.842,0,26.917-12.075,26.917-26.917v-82.47C512,335.794,504.314,325.724,493.673,322.129z M430.103,237.101  c25.579,0,46.389,20.81,46.389,46.389v37.226h-92.779V283.49C383.714,257.911,404.524,237.101,430.103,237.101z M494.819,430.103  c0,5.369-4.367,9.736-9.736,9.736h-109.96c-5.369,0-9.736-4.367-9.736-9.736v-82.47c0-5.369,4.367-9.736,9.736-9.736h109.96  c5.369,0,9.736,4.367,9.736,9.736V430.103z"/><path d="M430.103,357.369c-12.315,0-22.336,10.02-22.336,22.336c0,9.273,5.681,17.24,13.745,20.613v11.459  c0,4.744,3.846,8.591,8.591,8.591s8.591-3.846,8.591-8.591v-11.459c8.064-3.373,13.745-11.34,13.745-20.613  C452.438,367.389,442.418,357.369,430.103,357.369z M430.103,374.55c2.842,0,5.154,2.313,5.154,5.154  c0,2.842-2.313,5.154-5.154,5.154s-5.154-2.313-5.154-5.154C424.949,376.863,427.261,374.55,430.103,374.55z"/></g><g transform="matrix(0.17578125 0 0 0.17578125 217.5 217.5)" id="L1_409"><path d="M497,369.534h-17.134V31.067c0-8.284-6.716-15-15-15H47.134c-8.284,0-15,6.716-15,15v338.467H15c-8.284,0-15,6.716-15,15    v16.065c0,52.567,42.767,95.334,95.334,95.334h321.332c52.567,0,95.334-42.767,95.334-95.334v-16.065    C512,376.25,505.284,369.534,497,369.534z M62.134,46.067h387.732v323.467H62.134V46.067z M482,400.599    c0,36.025-29.309,65.334-65.334,65.334H95.334C59.309,465.933,30,436.625,30,400.599v-1.065h17.134h417.732H482V400.599z"/><path d="M329.662,302.213l-7.972-100.671c-0.495-6.266-4.797-11.372-10.524-13.142v-37.891c0-30.418-24.747-55.166-55.166-55.166    s-55.166,24.747-55.166,55.166V188.4c-5.727,1.77-10.027,6.877-10.523,13.142l-8.033,101.474c-0.33,4.171,1.097,8.29,3.936,11.363    c2.84,3.073,6.834,4.82,11.018,4.82h117.54c0.008,0,0.016,0,0.02,0c8.285,0,15-6.716,15-15    C329.792,303.526,329.748,302.863,329.662,302.213z M256,125.343c13.877,0,25.166,11.289,25.166,25.166v37.217h-50.332v-37.217h0    C230.834,136.633,242.123,125.343,256,125.343z M213.465,289.2l5.658-71.474h73.755l5.658,71.474H213.465z"/></g><g transform="matrix(0.0416666679084301 0 0 0.0416666679084301 77.5 340)" id="L1_410"><path d="m440 200v72h8v-240h-384v152h360c8.835938 0 16 7.164062 16 16zm-352-144h336v48h-336zm0 0" fill="#9bc9ff"/><path d="m440 200c0-8.835938-7.164062-16-16-16h-400c-8.835938 0-16 7.164062-16 16v256c0 8.835938 7.164062 16 16 16h400c8.835938 0 16-7.164062 16-16zm-24 248h-384v-240h384zm0 0" fill="#9bc9ff"/><path d="m160 288c0 26.507812-21.492188 48-48 48s-48-21.492188-48-48 21.492188-48 48-48 48 21.492188 48 48zm0 0" fill="#9bc9ff"/><g fill="#57a4ff"><path d="m416 200h-384c-4.417969 0-8 3.582031-8 8v240c0 4.417969 3.582031 8 8 8h384c4.417969 0 8-3.582031 8-8v-240c0-4.417969-3.582031-8-8-8zm-8 240h-368v-224h368zm0 0"/><path d="m456 0h-400c-13.253906 0-24 10.746094-24 24v152h-8c-13.253906 0-24 10.746094-24 24v256c0 13.253906 10.746094 24 24 24h400c13.253906 0 24-10.746094 24-24v-152h8c13.253906 0 24-10.746094 24-24v-256c0-13.253906-10.746094-24-24-24zm-24 456c0 4.417969-3.582031 8-8 8h-400c-4.417969 0-8-3.582031-8-8v-256c0-4.417969 3.582031-8 8-8h400c4.417969 0 8 3.582031 8 8zm8-273.761719c-4.375-3.992187-10.078125-6.21875-16-6.238281h-352v-136h368zm24 97.761719c0 4.417969-3.582031 8-8 8h-8v-8c4.417969 0 8-3.582031 8-8v-240c0-4.417969-3.582031-8-8-8h-384c-4.417969 0-8 3.582031-8 8v144h-8v-152c0-4.417969 3.582031-8 8-8h400c4.417969 0 8 3.582031 8 8zm0 0"/><path d="m112 344c14.347656-.003906 28.140625-5.535156 38.511719-15.449219 20.097656 12.730469 46.488281 8.816407 62.027343-9.199219 15.539063-18.011718 15.539063-44.691406 0-62.703124-15.539062-18.015626-41.929687-21.929688-62.027343-9.199219-18.242188-17.375-45.835938-20.429688-67.4375-7.464844-21.597657 12.960937-31.882813 38.75-25.136719 63.019531 6.75 24.269532 28.871094 41.042969 54.0625 40.996094zm96-56c0 17.671875-14.328125 32-32 32-5.441406 0-10.785156-1.417969-15.511719-4.113281 10.015625-17.242188 10.015625-38.53125 0-55.773438 4.726563-2.695312 10.070313-4.113281 15.511719-4.113281 17.671875 0 32 14.328125 32 32zm-96-40c22.089844 0 40 17.910156 40 40s-17.910156 40-40 40-40-17.910156-40-40c.027344-22.082031 17.917969-39.972656 40-40zm0 0"/><path d="m64 408h32v16h-32zm0 0"/><path d="m120 408h32v16h-32zm0 0"/><path d="m176 408h32v16h-32zm0 0"/><path d="m240 408h32v16h-32zm0 0"/><path d="m296 408h32v16h-32zm0 0"/><path d="m352 408h32v16h-32zm0 0"/><path d="m88 112h336c4.417969 0 8-3.582031 8-8v-48c0-4.417969-3.582031-8-8-8h-336c-4.417969 0-8 3.582031-8 8v48c0 4.417969 3.582031 8 8 8zm8-48h320v32h-320zm0 0"/></g></g><g transform="matrix(0.0390625 0 0 0.0390625 252.5 340)" id="L1_411"><rect x="0px" y="290px" width="300px" height="41px"/><path d="M331.156,361.53h-30.419H0v99.528c0,19.358,18.879,36.34,40.4,36.34h330.024c21.521,0,40.4-16.982,40.4-36.34V361.53    H331.156z M342.285,426.178L342.285,426.178H68.54V395.76h273.745V426.178z"/><path d="M40.4,199.478c-23.032,0-40.4,19.113-40.4,44.459v15.712h300.737v-60.171H40.4z"/><path d="M421.578,14.602c-41.597,0-75.438,33.841-75.438,75.437v50.105h30.418V90.039c0-24.823,20.196-45.018,45.019-45.018    c24.823,0,45.019,20.196,45.019,45.018v50.105h30.419V90.039C497.016,48.442,463.175,14.602,421.578,14.602z"/><path d="M331.156,170.563v160.549h79.667H512V170.563H331.156z M410.291,299.342l-51.543-51.543l21.509-21.509l30.034,30.034    l52.609-52.609l21.509,21.509L410.291,299.342z"/></g><g transform="matrix(0.078125 0 0 0.078125 67.5 67.5)" id="L1_412"><path d="M273.067,0h-204.8C44.74,0,25.6,19.14,25.6,42.667v426.667C25.6,492.86,44.74,512,68.267,512h204.8  c23.526,0,42.667-19.14,42.667-42.667V42.667C315.733,19.14,296.593,0,273.067,0z" fill="#ebebec"/><path d="M51.2,469.333V42.667C51.2,19.14,70.34,0,93.867,0h-25.6C44.74,0,25.6,19.14,25.6,42.667v426.667  C25.6,492.86,44.74,512,68.267,512h25.6C70.34,512,51.2,492.86,51.2,469.333z" fill="#d7d8d9"/><g><path d="M25.6,469.333C25.6,492.86,44.74,512,68.267,512h204.8c23.526,0,42.667-19.14,42.667-42.667v-25.6   H25.6V469.333z" fill="#f58f6c"/><path d="M273.067,0h-204.8C44.74,0,25.6,19.14,25.6,42.667v25.6h290.133v-25.6   C315.733,19.14,296.593,0,273.067,0z" fill="#f58f6c"/></g><g><path d="M51.2,469.333v-25.6H25.6v25.6C25.6,492.86,44.74,512,68.267,512h25.6   C70.34,512,51.2,492.86,51.2,469.333z" fill="#f07b52"/><path d="M93.867,0h-25.6C44.74,0,25.6,19.14,25.6,42.667v25.6h25.6v-25.6C51.2,19.14,70.34,0,93.867,0z" fill="#f07b52"/></g><g><path d="M170.667,42.667c-3.531,0-6.786-2.266-8.004-5.58c-1.213-3.3-0.235-7.165,2.461-9.444   c2.789-2.358,6.879-2.692,10-0.783c3.011,1.842,4.605,5.475,3.907,8.938C178.235,39.738,174.7,42.667,170.667,42.667z" fill="#d45740"/><path d="M204.8,42.667c-3.531,0-6.786-2.266-8.004-5.58c-1.213-3.3-0.235-7.165,2.461-9.444   c2.789-2.358,6.879-2.692,10-0.783c3.011,1.842,4.605,5.475,3.907,8.938C212.368,39.738,208.833,42.667,204.8,42.667z" fill="#d45740"/><path d="M136.533,42.667c-3.531,0-6.786-2.266-8.004-5.58c-1.213-3.3-0.235-7.165,2.461-9.444   c2.789-2.358,6.879-2.692,10-0.783c3.011,1.842,4.605,5.475,3.907,8.938C144.101,39.738,140.566,42.667,136.533,42.667z" fill="#d45740"/><path d="M187.733,486.4H153.6c-4.713,0-8.533-3.821-8.533-8.533c0-4.713,3.821-8.533,8.533-8.533h34.133   c4.713,0,8.533,3.821,8.533,8.533C196.267,482.579,192.446,486.4,187.733,486.4z" fill="#d45740"/></g><path d="M256,247.467H85.333c-14.115,0-25.6,11.485-25.6,25.6V384c0,14.115,11.485,25.6,25.6,25.6H256  c14.115,0,25.6-11.485,25.6-25.6V273.067C281.6,258.951,270.115,247.467,256,247.467z" fill="#c3c4c6"/><g><path d="M136.533,358.4H93.867c-4.713,0-8.533-3.821-8.533-8.533c0-4.713,3.821-8.533,8.533-8.533h42.667   c4.713,0,8.533,3.821,8.533,8.533C145.067,354.579,141.246,358.4,136.533,358.4z" fill="#88898e"/><path d="M162.133,384H93.867c-4.713,0-8.533-3.821-8.533-8.533c0-4.713,3.821-8.533,8.533-8.533h68.267   c4.713,0,8.533,3.821,8.533,8.533C170.667,380.179,166.846,384,162.133,384z" fill="#88898e"/></g><rect x="59px" y="290px" width="221px" height="34px" fill="#e5563c"/><circle cx="170" cy="204" r="17" fill="#f2c127"/><path d="M206.293,153.839c-1.337,0-2.692-0.315-3.958-0.979  c-9.852-5.171-20.507-7.793-31.668-7.793s-21.817,2.622-31.668,7.793c-4.174,2.189-9.332,0.583-11.522-3.589  s-0.583-9.332,3.589-11.522c12.151-6.378,25.844-9.748,39.601-9.748s27.45,3.371,39.6,9.748c3.298,1.731,5.124,5.527,4.412,9.184  C213.906,150.898,210.333,153.839,206.293,153.839z" id="SVGCleanerId_0" fill="#f2c127"/><g><path d="M218.18,131.148c-1.337,0-2.692-0.315-3.958-0.979c-13.529-7.102-28.182-10.702-43.555-10.702   s-30.027,3.6-43.555,10.702c-4.174,2.189-9.331,0.583-11.522-3.589c-2.19-4.173-0.583-9.331,3.589-11.522   c15.776-8.281,33.58-12.657,51.488-12.657s35.712,4.377,51.487,12.657c3.298,1.731,5.124,5.527,4.412,9.184   C225.793,128.206,222.219,131.148,218.18,131.148z" fill="#f2c127"/><path d="M194.416,176.515c-1.337,0-2.692-0.315-3.958-0.979c-6.157-3.231-12.815-4.869-19.791-4.869   c-6.976,0-13.634,1.638-19.79,4.869c-4.173,2.191-9.332,0.582-11.522-3.589c-2.19-4.173-0.583-9.331,3.589-11.522   c8.507-4.465,18.093-6.825,27.723-6.825s19.216,2.359,27.723,6.825c3.298,1.731,5.124,5.527,4.412,9.184   C202.028,173.574,198.454,176.515,194.416,176.515z" fill="#f2c127"/></g><path d="M206.293,153.839c-1.337,0-2.692-0.315-3.958-0.979   c-9.852-5.171-20.507-7.793-31.668-7.793s-21.817,2.622-31.668,7.793c-4.174,2.189-9.332,0.583-11.522-3.589   s-0.583-9.332,3.589-11.522c12.151-6.378,25.844-9.748,39.601-9.748s27.45,3.371,39.6,9.748c3.298,1.731,5.124,5.527,4.412,9.184   C213.906,150.898,210.333,153.839,206.293,153.839z" id="SVGCleanerId_0_1_" fill="#f2c127"/><path d="M478.302,106.708l-24.293-1.242c-11.495-0.588-52.275-8.006-80.345-22.041l-11.449-5.725  c-2.402-1.201-5.23-1.201-7.632,0l-11.449,5.725c-28.068,14.034-68.848,21.453-80.345,22.041l-24.293,1.242  c-4.538,0.233-8.098,3.979-8.098,8.523V250.49c0,31.754,21.889,61.595,40.252,81.037c22.212,23.518,49.574,42.857,75.071,53.055  l9.508,3.803c1.018,0.406,2.093,0.61,3.169,0.61c1.076,0,2.153-0.204,3.169-0.61l9.508-3.803  c25.497-10.198,52.86-29.536,75.071-53.055c18.364-19.443,40.253-49.284,40.253-81.038V115.23  C486.4,110.687,482.841,106.94,478.302,106.708z" fill="#74dbc9"/><path d="M355.231,360.811c-22.171-8.867-46.215-25.949-65.968-46.863C267.813,291.236,256,268.7,256,250.489  V131.446l8.098-0.414c15.451-0.789,59.251-9.093,90.486-24.71l3.815-1.907l3.815,1.908c31.235,15.617,75.036,23.921,90.486,24.71  l8.098,0.414V250.49c0,18.211-11.813,40.748-33.263,63.459c-19.753,20.914-43.797,37.996-65.967,46.863l-3.17,1.267L355.231,360.811  z" fill="#2db59f"/><path d="M376.533,213.155H342.4c-0.588,0-1.067-0.479-1.067-1.067v-25.6c0-0.588,0.479-1.067,1.067-1.067  h51.2c8.836,0,16-7.164,16-16c0-8.836-7.164-16-16-16h-18.133v-9.6c0-8.836-7.164-16-16-16c-8.836,0-16,7.164-16,16v9.6H342.4  c-18.233,0-33.067,14.834-33.067,33.067v25.6c0,18.233,14.834,33.067,33.067,33.067h34.133c0.588,0,1.067,0.479,1.067,1.067v25.6  c0,0.588-0.479,1.067-1.067,1.067h-51.2c-8.836,0-16,7.164-16,16s7.164,16,16,16h18.133v9.6c0,8.836,7.164,16,16,16  c8.836,0,16-7.164,16-16v-9.6h1.067c18.233,0,33.067-14.834,33.067-33.067v-25.6C409.6,227.989,394.766,213.155,376.533,213.155z" fill="#aff0e8"/></g><g transform="matrix(0.08695652335882187 0 0 0.08695652335882187 242.5 67.5)" opacity="0.95" id="L1_413"><path d="M172.758,452.82C73.426,427.377,0,337.264,0,230C0,102.975,102.975,0,230,0   c97.288,0,180.468,60.404,214.082,145.754L172.758,452.82z" fill="#c2fbff"/><path d="M444.08,145.754l-63.598-63.598L328,96.5l-15.59,43.02L83.1,254.27l40.314,40.314l-40.313,9.685   l37.5,37.5l-29.446,29.445l81.603,81.603C191.059,457.505,210.238,460,230,460c127.026,0,230-102.975,230-230   C460,200.262,454.355,171.843,444.08,145.754z" fill="#71e2f0"/><path d="M183.38,139.52 203.38,196.895 183.38,254.27 83.1,254.27 64.35,139.52z" fill="#5488a8"/><path d="M312.41,139.52 293.6,254.27 183.38,254.27 183.38,139.52z" fill="#366796"/><path d="M257.182,304.269H83.101v-20h174.081c11.657,0,23.099-9.719,24.984-21.222l23.424-142.903   c3.434-20.947,23.496-37.988,44.721-37.988h30.171v20h-30.171c-11.657,0-23.099,9.719-24.985,21.223l-23.424,142.903   C298.469,287.228,278.407,304.269,257.182,304.269z" fill="#121149"/><path d="M103.101,351.769l7.5,27.5c15.188,0,27.5-12.312,27.5-27.5s-12.312-27.5-27.5-27.5L103.101,351.769z   " fill="#121149"/><path d="M83.101,351.769c0,15.188,12.312,27.5,27.5,27.5v-55C95.413,324.269,83.101,336.581,83.101,351.769z   " fill="#273b7a"/><path d="M249.682,351.769l7.5,27.5c15.188,0,27.5-12.312,27.5-27.5s-12.312-27.5-27.5-27.5L249.682,351.769z   " fill="#121149"/><path d="M229.682,351.769c0,15.188,12.312,27.5,27.5,27.5v-55   C241.994,324.269,229.682,336.581,229.682,351.769z" fill="#273b7a"/><path d="M415.35,185.9v40.42c0,45.18-19.97,71.97-36.72,86.49c-17.96,15.57-35.96,20.5-37.96,21.01   l-4.96,1.27l-20-90.4l20-86.41L415.35,185.9z" fill="#ffedb5"/><path d="M335.71,158.28v176.81l-4.97-1.27c-1.99-0.51-20-5.44-37.95-21.01   c-16.76-14.52-36.73-41.31-36.73-86.49V185.9L335.71,158.28z" fill="#ffffff"/><path d="M395.35,200.131v26.19c0,72.844-59.643,88.125-59.643,88.125l-10.476-69.756l10.476-65.244   L395.35,200.131z" fill="#121149"/><path d="M276.064,200.131v26.19c0,72.844,59.643,88.125,59.643,88.125v-135L276.064,200.131z" fill="#d48b07"/></g><g transform="matrix(0.13671875 0 0 0.13671875 315 140)" id="L1_414"><path d="M503.983,0H84.977C80.55,0,76.96,3.588,76.96,8.017v213.779c0,4.428,3.589,8.017,8.017,8.017h419.006  c4.427,0,8.017-3.588,8.017-8.017V8.017C512,3.588,508.411,0,503.983,0z" fill="#aff078"/><g><path d="M114.906,221.795V8.017c0-4.428,3.589-8.017,8.017-8.017H84.977C80.55,0,76.96,3.588,76.96,8.017   v213.779c0,4.428,3.589,8.017,8.017,8.017h37.946C118.495,229.812,114.906,226.224,114.906,221.795z" fill="#5ac779"/><path d="M294.48,21.378c-51.572,0-93.528,41.956-93.528,93.528s41.956,93.528,93.528,93.528   s93.528-41.956,93.528-93.528S346.052,21.378,294.48,21.378z" fill="#5ac779"/></g><g><path d="M324.875,178.039c-51.572,0-93.528-41.956-93.528-93.528c0-18.016,5.125-34.856,13.988-49.146   c-26.617,16.505-44.383,45.985-44.383,79.541c0,51.572,41.956,93.528,93.528,93.528c33.556,0,63.036-17.766,79.541-44.383   C359.731,172.914,342.891,178.039,324.875,178.039z" fill="#00a085"/><path d="M478.33,50.238h-68.409c-4.427,0-8.017-3.588-8.017-8.017s3.589-8.017,8.017-8.017h68.409   c4.427,0,8.017,3.588,8.017,8.017S482.757,50.238,478.33,50.238z" fill="#00a085"/><path d="M478.33,84.443h-51.307c-4.427,0-8.017-3.588-8.017-8.017s3.589-8.017,8.017-8.017h51.307   c4.427,0,8.017,3.588,8.017,8.017S482.757,84.443,478.33,84.443z" fill="#00a085"/><path d="M179.04,50.238H110.63c-4.427,0-8.017-3.588-8.017-8.017s3.589-8.017,8.017-8.017h68.409   c4.427,0,8.017,3.588,8.017,8.017S183.467,50.238,179.04,50.238z" fill="#00a085"/><path d="M161.937,84.443H110.63c-4.427,0-8.017-3.588-8.017-8.017s3.589-8.017,8.017-8.017h51.307   c4.427,0,8.017,3.588,8.017,8.017S166.365,84.443,161.937,84.443z" fill="#00a085"/><path d="M478.33,204.159h-25.653c-4.427,0-8.017-3.588-8.017-8.017s3.589-8.017,8.017-8.017h25.653   c4.427,0,8.017,3.588,8.017,8.017S482.757,204.159,478.33,204.159z" fill="#00a085"/><path d="M418.472,204.159h-25.653c-4.427,0-8.017-3.588-8.017-8.017s3.589-8.017,8.017-8.017h25.653   c4.427,0,8.017,3.588,8.017,8.017S422.899,204.159,418.472,204.159z" fill="#00a085"/><path d="M149.111,152.852c-11.493,0-20.843-9.351-20.843-20.843c0-11.493,9.351-20.843,20.843-20.843   c11.493,0,20.843,9.351,20.843,20.843C169.954,143.501,160.603,152.852,149.111,152.852z M149.111,127.198   c-2.652,0-4.81,2.158-4.81,4.81c0,2.652,2.158,4.81,4.81,4.81c2.652,0,4.81-2.158,4.81-4.81   C153.921,129.356,151.763,127.198,149.111,127.198z" fill="#00a085"/><path d="M439.85,152.852c-11.493,0-20.843-9.351-20.843-20.843c0-11.493,9.351-20.843,20.843-20.843   s20.843,9.351,20.843,20.843C460.693,143.501,451.342,152.852,439.85,152.852z M439.85,127.198c-2.652,0-4.81,2.158-4.81,4.81   c0,2.652,2.158,4.81,4.81,4.81s4.81-2.158,4.81-4.81C444.66,129.356,442.502,127.198,439.85,127.198z" fill="#00a085"/></g><path d="M324.409,84.443c4.427,0,8.017-3.588,8.017-8.017s-3.589-8.017-8.017-8.017h-21.912v-9.086  c0-4.428-3.589-8.017-8.017-8.017c-4.427,0-8.017,3.588-8.017,8.017v9.086h-6.948c-10.314,0-18.706,8.392-18.706,18.706v17.102  c0,10.314,8.392,18.706,18.706,18.706h6.948v22.447h-21.912c-4.427,0-8.017,3.588-8.017,8.017c0,4.428,3.589,8.017,8.017,8.017  h21.912v9.086c0,4.428,3.589,8.017,8.017,8.017c4.427,0,8.017-3.588,8.017-8.017v-9.086h6.948c10.314,0,18.706-8.392,18.706-18.706  v-17.102c0-10.314-8.392-18.706-18.706-18.706h-6.948V84.443H324.409z M309.445,122.923c1.473,0,2.672,1.198,2.672,2.672v17.102  c0,1.474-1.199,2.672-2.672,2.672h-6.948v-22.447H309.445z M286.463,106.889h-6.948c-1.473,0-2.672-1.198-2.672-2.672V87.115  c0-1.474,1.199-2.672,2.672-2.672h6.948V106.889z" fill="#aff078"/><path d="M325.478,168.885H24.05c-13.262,0-24.05,10.789-24.05,24.05v185.987  c0,13.261,10.788,24.05,24.05,24.05h301.428c13.262,0,24.05-10.789,24.05-24.05V192.935  C349.528,179.675,338.74,168.885,325.478,168.885z" fill="#ffd652"/><rect x="0px" y="230px" width="349px" height="42px" fill="#5ac779"/><path d="M40.084,378.923V192.935c0-13.261,10.788-24.05,24.05-24.05H24.05  c-13.262,0-24.05,10.789-24.05,24.05v185.987c0,13.261,10.788,24.05,24.05,24.05h40.084  C50.872,402.973,40.084,392.183,40.084,378.923z" fill="#fb9d46"/><path d="M236.76,368.768h-53.445c-4.427,0-8.017-3.588-8.017-8.017c0-4.428,3.589-8.017,8.017-8.017h53.445  c4.427,0,8.017,3.588,8.017,8.017C244.777,365.18,241.187,368.768,236.76,368.768z" fill="#ff7452"/><rect x="0px" y="230px" width="40px" height="42px" fill="#00a085"/><path d="M65.203,335.098h219.123c4.427,0,8.017-3.589,8.017-8.017v-22.447c0-4.427-3.589-8.017-8.017-8.017  H65.203c-4.427,0-8.017,3.589-8.017,8.017v22.447C57.186,331.509,60.775,335.098,65.203,335.098z" fill="#ffffff"/><path d="M343.649,209.503c-50.393,0-91.39,40.997-91.39,91.39v36.342c0,11.493,9.351,20.843,20.843,20.843  c11.493,0,20.843-9.351,20.843-20.843v-36.342c0-27.408,22.297-49.704,49.704-49.704c27.406,0,49.704,22.296,49.704,49.704v34.205  c0,11.493,9.351,20.843,20.843,20.843c11.493,0,20.843-9.351,20.843-20.843v-34.205C435.04,250.501,394.042,209.503,343.649,209.503  z" fill="#e5e5e5"/><g><path d="M252.259,337.236c0,11.493,9.351,20.843,20.843,20.843c11.493,0,20.843-9.351,20.843-20.843v-29.395   h-41.687V337.236z" fill="#b2b2b2"/><path d="M393.353,307.841v27.257c0,11.493,9.351,20.843,20.843,20.843c11.493,0,20.843-9.351,20.843-20.843   v-27.257H393.353z" fill="#b2b2b2"/></g><path d="M416.334,320.668h-145.37c-22.103,0-40.083,17.981-40.083,40.084v143.232  c0,4.428,3.589,8.017,8.017,8.017h209.503c4.427,0,8.017-3.588,8.017-8.017V360.752  C456.418,338.649,438.437,320.668,416.334,320.668z" fill="#ff7452"/><path d="M271.499,503.983V360.752c0-22.103,17.981-40.084,40.083-40.084h-40.618  c-22.103,0-40.083,17.981-40.083,40.084v143.232c0,4.428,3.589,8.017,8.017,8.017h40.618  C275.088,512,271.499,508.412,271.499,503.983z" fill="#e24642"/><path d="M343.649,348.459c-37.426,0-67.875,30.449-67.875,67.875s30.448,67.875,67.875,67.875  s67.875-30.448,67.875-67.875S381.076,348.459,343.649,348.459z" fill="#5ac779"/><path d="M367.036,456.245c-33.818-2.161-61.135-29.477-63.299-63.295c-0.845-13.224,2.138-25.702,7.921-36.46  c-21.336,11.453-35.883,33.978-35.883,59.843c0,37.426,30.448,67.875,67.875,67.875c25.865,0,48.39-14.547,59.843-35.884  C392.735,454.108,380.259,457.091,367.036,456.245z" fill="#00a085"/><path d="M339.376,439.315c-2.194,0-4.379-0.897-5.961-2.653l-19.24-21.378  c-2.962-3.291-2.695-8.36,0.596-11.322c3.291-2.962,8.36-2.696,11.322,0.595l13.951,15.502l28.255-24.724  c3.333-2.915,8.396-2.578,11.312,0.755c2.916,3.332,2.578,8.396-0.755,11.312l-34.205,29.929  C343.133,438.662,341.251,439.315,339.376,439.315z" fill="#aff078"/></g><g transform="matrix(0.14386557975900793 -0.03854866591506144 0.03854866591506144 0.14386557975900793 132.7678129207901 150.14847650975113)" id="L1_415"><path d="m0 157.476562h201v22h-201zm0 0"/><path d="m35.867188 220.996094c-3.933594.003906-7.121094 3.195312-7.121094 7.128906.003906 3.9375 3.195312 7.125 7.128906 7.121094 3.9375 0 7.125-3.191406 7.125-7.125-.003906-3.9375-3.195312-7.125-7.132812-7.125zm0 0"/><path d="m201 136.304688c0-6.699219-5.917969-11.828126-12.621094-11.828126h-176.210937c-3.191407-.070312-6.273438 1.140626-8.5625 3.363282-2.289063 2.226562-3.5859378 5.273437-3.605469 8.464844v7.171874h201zm0 0"/><path d="m349.449219 241.570312c66.570312 0 120.535156-53.96875 120.535156-120.539062s-53.964844-120.539062-120.535156-120.539062c-66.574219 0-120.539063 53.96875-120.539063 120.539062.074219 66.539062 53.996094 120.460938 120.539063 120.539062zm1.039062-206.191406c47.28125 0 85.609375 38.328125 85.609375 85.609375 0 47.285157-38.328125 85.613281-85.613281 85.613281-47.28125 0-85.609375-38.332031-85.609375-85.613281.050781-47.257812 38.351562-85.558593 85.613281-85.609375zm0 0"/><path d="m69.386719 220.996094c-3.933594 0-7.125 3.191406-7.125 7.125 0 3.9375 3.191406 7.128906 7.125 7.125 3.9375 0 7.128906-3.1875 7.128906-7.125-.007813-3.933594-3.195313-7.121094-7.128906-7.125zm0 0"/><path d="m201 247.683594v-54.207032h-201v54.199219c.0195312 3.1875 1.320312 6.234375 3.609375 8.453125 2.285156 2.21875 5.371094 3.425782 8.558594 3.347656h176.210937c6.703125 0 12.621094-5.09375 12.621094-11.792968zm-131.613281 1.5625c-6.578125-.003906-12.773438-3.082032-16.757813-8.316406-5.496094 7.207031-14.972656 10.105468-23.558594 7.207031-8.585937-2.902344-14.363281-10.953125-14.363281-20.015625s5.777344-17.113282 14.363281-20.015625c8.585938-2.898438 18.0625 0 23.558594 7.207031 6.015625-7.871094 16.695313-10.5 25.675782-6.320312 8.984374 4.175781 13.851562 14.035156 11.710937 23.707031-2.144531 9.671875-10.722656 16.554687-20.628906 16.546875zm0 0"/><path d="m38 332.792969c0 12.324219 9.613281 22.683593 21.9375 22.683593h360.671875c12.410156-.167968 22.382813-10.273437 22.390625-22.683593v-29.316407h-405zm0 0"/><path d="m214.910156 120.992188c-.03125-15.519532 2.648438-30.921876 7.917969-45.515626h-162.890625c-5.890625.042969-11.519531 2.4375-15.640625 6.648438-4.117187 4.210938-6.386719 9.890625-6.296875 15.78125v12.570312h150.378906c14.421875 0 26.621094 11.40625 26.621094 25.828126v111.378906c0 14.417968-12.199219 25.796875-26.621094 25.796875h-150.378906v16h405v-71.820313c-25.03125 24.363282-58.601562 37.960938-93.53125 37.890625-74.183594 0-134.558594-60.375-134.558594-134.558593zm0 0"/><path d="m350.488281 192.605469c39.546875 0 71.609375-32.0625 71.609375-71.613281 0-39.550782-32.0625-71.613282-71.613281-71.609376-39.546875 0-71.609375 32.058594-71.609375 71.609376.042969 39.53125 32.078125 71.570312 71.613281 71.613281zm-7.488281-116.144531c0-3.867188 3.132812-7 7-7s7 3.132812 7 7v49c0 3.867187-3.132812 7-7 7s-7-3.132813-7-7zm0 76c0-3.867188 3.132812-7 7-7s7 3.132812 7 7v13c0 3.867187-3.132812 7-7 7s-7-3.132813-7-7zm0 0"/><path d="m347.367188 422.476562h-47.367188v-53h-120v53h-46.820312c-3.867188 0-7 3.132813-7 7 0 3.867188 3.132812 7 7 7h214.1875c3.867187 0 7-3.132812 7-7 0-3.867187-3.132813-7-7-7zm0 0"/></g><path d="M468.68,170.451c-5.799,0-10.5,4.701-10.5,10.5c0,4.717-2.492,9.71-6.815,14.156V38.995  c0-15.586-12.68-28.266-28.265-28.266H28.268C12.681,10.729,0,23.409,0,38.995v246.938c0,15.586,12.681,28.267,28.268,28.267  h217.483c0.226,0,0.446-0.02,0.669-0.034v37.954c0,27.804,19.319,55.846,57.42,83.349c27.099,19.56,53.807,31.569,54.931,32.071  c1.362,0.608,2.821,0.912,4.28,0.912c1.466,0,2.931-0.307,4.298-0.92c1.118-0.502,27.706-12.515,54.682-32.078  c37.922-27.503,57.149-55.541,57.149-83.334V180.951C479.18,175.152,474.478,170.451,468.68,170.451z M21,83.8h409.364v41.922H21  V83.8z M28.268,31.729H423.1c4.006,0,7.265,3.26,7.265,7.266V62.8H21V38.995C21,34.989,24.26,31.729,28.268,31.729z M256.92,170.451  c-5.799,0-10.5,4.701-10.5,10.5v112.282c-0.223-0.015-0.443-0.034-0.669-0.034H28.268c-4.008,0-7.268-3.26-7.268-7.267v-139.21  h409.364v60.225c-4.666,1.286-9.738,2.025-15.077,2.025c-24.317,0-42.488-14.794-42.488-28.021c0-5.799-4.701-10.5-10.5-10.5  c-5.799,0-10.5,4.701-10.5,10.5c0,13.228-18.171,28.021-42.489,28.021c-23.975-0.001-41.89-14.795-41.89-28.021  C267.42,175.152,262.719,170.451,256.92,170.451z M458.18,352.119c0,40.258-65.034,79.823-95.145,94.26  c-30.253-14.407-95.615-53.934-95.615-94.26V217.161c11.217,7.919,25.977,12.811,41.89,12.811c21.833,0,41.515-9.033,52.989-22.424  c11.474,13.391,31.156,22.424,52.989,22.424c16.325-0.001,31.456-4.99,42.892-13.047V352.119z" transform="matrix(0.1043449193239212 0 0 0.1043449193239212 62.5 237.5)" id="L1_416"/><g transform="matrix(0.08032011240720749 0 0 0.08032011240720749 155 330)" id="L1_417"><path d="m83.386719 220.554688c-6.578125.003906-12.773438 3.082031-16.757813 8.316406-5.496094-7.207032-14.972656-10.105469-23.558594-7.207032-8.585937 2.902344-14.367187 10.953126-14.367187 20.015626s5.78125 17.117187 14.367187 20.015624c8.585938 2.898438 18.0625 0 23.558594-7.203124 6.015625 7.867187 16.695313 10.496093 25.675782 6.320312 8.984374-4.179688 13.851562-14.039062 11.710937-23.710938-2.144531-9.671874-10.722656-16.554687-20.628906-16.546874zm-33.519531 28.25c-3.933594 0-7.121094-3.195313-7.121094-7.128907.003906-3.933593 3.195312-7.125 7.128906-7.121093 3.9375 0 7.125 3.191406 7.125 7.125-.003906 3.9375-3.195312 7.125-7.132812 7.125zm33.519531 0c-3.933594 0-7.125-3.191407-7.125-7.125 0-3.9375 3.191406-7.125 7.125-7.125 3.9375 0 7.128906 3.1875 7.128906 7.125-.007813 3.933593-3.195313 7.121093-7.128906 7.125zm0 0"/><path d="m498.007812 134.589844c0-74.183594-60.363281-134.58593775-134.550781-134.58593775-52.84375 0-98.671875 31.01562475-120.664062 75.01562475h-168.855469c-9.605469.050781-18.792969 3.921875-25.539062 10.761719-6.742188 6.835938-10.484376 16.082031-10.398438 25.683594v12.554687h-11.832031c-6.902344-.0625-13.546875 2.628907-18.457031 7.480469-4.914063 4.851562-7.6875005 11.460938-7.710938 18.363281v111.378907c.0273438 6.894531 2.804688 13.496093 7.714844 18.335937 4.914062 4.839844 11.554687 7.519531 18.453125 7.441406h11.832031v59.332031c0 20.046876 15.894531 36.667969 35.9375 36.667969h106.0625v53h-32.820312c-3.867188 0-7 3.132813-7 7 0 3.867188 3.132812 7 7 7h214.1875c3.867187 0 7-3.132812 7-7 0-3.867187-3.132813-7-7-7h-33.367188v-53h106.609375c20.042969 0 36.390625-16.621093 36.390625-36.667969v-130.972656c17.578125-23.257812 27.0625-51.632812 27.007812-80.789062zm-134.558593-120.539063c66.570312 0 120.535156 53.96875 120.535156 120.539063 0 66.570312-53.964844 120.539062-120.535156 120.539062-66.574219 0-120.539063-53.96875-120.539063-120.539062.074219-66.539063 53.996094-120.460938 120.539063-120.539063zm-337.28125 123.96875h176.210937c6.699219 0 12.621094 5.140625 12.621094 11.84375v7.15625h-201v-7.15625c.019531-3.191406 1.316406-6.242187 3.605469-8.46875 2.285156-2.226562 5.371093-3.441406 8.5625-3.375zm-12.167969 33h201v22h-201zm0 90.222657v-54.222657h201v54.222657c0 6.699218-5.917969 11.777343-12.621094 11.777343h-176.210937c-3.183594.082031-6.269531-1.121093-8.554688-3.335937-2.289062-2.214844-3.589843-5.257813-3.613281-8.441406zm300 174.777343h-120v-53h120zm143-89.667969c-.007812 12.410157-9.984375 22.507813-22.390625 22.667969h-360.671875c-12.324219 0-21.9375-10.34375-21.9375-22.667969v-29.332031h405zm-405-43.332031v-16h150.378906c14.421875 0 26.621094-11.355469 26.621094-25.777343v-111.378907c0-14.421875-12.199219-25.84375-26.621094-25.84375h-150.378906v-12.554687c-.089844-5.890625 2.175781-11.574219 6.292969-15.789063 4.121093-4.214843 9.753906-6.609375 15.644531-6.65625h162.890625c-5.269531 14.597657-7.949219 30.003907-7.917969 45.523438 0 74.183593 60.375 134.5625 134.558594 134.5625 34.929688.074219 68.5-13.523438 93.53125-37.886719v71.800781zm0 0"/><path d="m297 125.710938v21.25c-.984375.609374-1.796875 1.46875-2.351562 2.484374-1.398438 2.289063-1.367188 5.171876.078124 7.429688l2.273438 3.59375v34.949219c.054688 6.777343 3.585938 13.054687 9.347656 16.617187l47.550782 29.976563c6.445312 4.027343 14.621093 4.027343 21.0625 0l47.671874-29.96875c5.765626-3.566407 9.304688-9.84375 9.367188-16.625v-34.949219l2.167969-3.59375c1.503906-2.21875 1.609375-5.105469.273437-7.429688-.589844-1.023437-1.429687-1.878906-2.441406-2.488281v-21.042969c14-6.851562 17.664062-14.882812 17.664062-20.847656 0-12.867187-15.070312-23.011718-42.253906-28.582031l-1.339844-7.464844c-2.191406-14.332031-11.664062-26.503906-25.023437-32.140625-10.664063-4.496094-22.695313-4.484375-33.347656.039063-13.222657 5.742187-22.613281 17.820312-24.910157 32.050781l-1.28125 7.390625c-.171874.039063-.339843.070313-.515624.113281-26.746094 5.605469-41.664063 15.691406-41.664063 28.40625-.003906 8.613282 6.671875 15.578125 17.671875 20.832032zm67.59375 11.875c19.601562 0 38.40625-2.316407 53.40625-6.546876v15.847657l-42.382812 3.574219c-7.449219-4.800782-14.699219-4.800782-22.148438 0l-42.46875-3.574219v-15.96875c16 4.414062 34.667969 6.667969 53.59375 6.667969zm49.742188 23.632812-11.636719 17.648438-14.40625-15.449219zm-73.652344 2.199219-14.414063 15.449219-11.632812-17.648438zm77.316406 32c-.074219 1.972656-1.144531 3.773437-2.835938 4.785156l-47.558593 29.96875c-1.863281 1.160156-4.222657 1.160156-6.085938 0l-47.671875-29.972656c-1.695312-1.007813-2.769531-2.804688-2.847656-4.78125v-13.707031l8.289062 12.289062c1.21875 1.796875 3.1875 2.945312 5.351563 3.121094.199219.015625.4375.023437.632813.023437 1.949218 0 3.808593-.804687 5.144531-2.222656l30.308593-32.476563c2.945313-2.117187 4.558594-2.117187 7.5 0l30.300782 32.476563c1.324218 1.417969 3.175781 2.222656 5.117187 2.222656.199219 0 .390625-.007812.589844-.023437 2.195313-.175782 4.195313-1.320313 5.457031-3.121094l8.308594-12.289062zm-81.410156-124.164063c1.34375-8.597656 6.589844-16.089844 14.210937-20.292968 7.621094-4.203126 16.757813-4.644532 24.75-1.195313 8.910157 3.769531 15.214844 11.90625 16.648438 21.472656.007812.039063.011719.074219.019531.113281l3.269531 18.90625-5.660156 1.761719c-16.550781 5.40625-34.394531 5.398438-50.941406-.023437l-5.585938-1.738282zm-17.679688 20.054688-.449218 2.613281c-.601563 3.460937 1.460937 6.832031 4.816406 7.875l11.355468 3.539063c9.589844 3.136718 19.613282 4.738281 29.703126 4.742187 10.089843-.007813 20.121093-1.597656 29.722656-4.714844l11.445312-3.566406c3.355469-1.042969 5.414063-4.414063 4.816406-7.875l-.433593-2.5c19.171875 4.730469 25.570312 11.085937 25.570312 13.648437 0 5.539063-24.113281 18.519532-70.882812 18.519532-46.890625 0-71.066407-13.113282-71.066407-18.710938.003907-2.421875 6.53125-8.851562 25.402344-13.570312zm0 0"/></g></defs><g fi:class="KUsePattern"><pattern id="pattern_L1_408" width="350" height="350" patternUnits="userSpaceOnUse"><use xlink:href="#L1_408" x="-350" y="-350"/><use xlink:href="#L1_408" x="0" y="-350"/><use xlink:href="#L1_408" x="350" y="-350"/><use xlink:href="#L1_408" x="-350" y="0"/><use xlink:href="#L1_408" x="0" y="0"/><use xlink:href="#L1_408" x="350" y="0"/><use xlink:href="#L1_408" x="-350" y="350"/><use xlink:href="#L1_408" x="0" y="350"/><use xlink:href="#L1_408" x="350" y="350"/></pattern><rect x="0" y="0" width="100%" height="100%" fill="url(#pattern_L1_408)"/></g><g fi:class="KUsePattern"><pattern id="pattern_L1_409" width="350" height="350" patternUnits="userSpaceOnUse"><use xlink:href="#L1_409" x="-350" y="-350"/><use xlink:href="#L1_409" x="0" y="-350"/><use xlink:href="#L1_409" x="350" y="-350"/><use xlink:href="#L1_409" x="-350" y="0"/><use xlink:href="#L1_409" x="0" y="0"/><use xlink:href="#L1_409" x="350" y="0"/><use xlink:href="#L1_409" x="-350" y="350"/><use xlink:href="#L1_409" x="0" y="350"/><use xlink:href="#L1_409" x="350" y="350"/></pattern><rect x="0" y="0" width="100%" height="100%" fill="url(#pattern_L1_409)"/></g><g fi:class="KUsePattern"><pattern id="pattern_L1_410" width="350" height="350" patternUnits="userSpaceOnUse"><use xlink:href="#L1_410" x="-350" y="-350"/><use xlink:href="#L1_410" x="0" y="-350"/><use xlink:href="#L1_410" x="350" y="-350"/><use xlink:href="#L1_410" x="-350" y="0"/><use xlink:href="#L1_410" x="0" y="0"/><use xlink:href="#L1_410" x="350" y="0"/><use xlink:href="#L1_410" x="-350" y="350"/><use xlink:href="#L1_410" x="0" y="350"/><use xlink:href="#L1_410" x="350" y="350"/></pattern><rect x="0" y="0" width="100%" height="100%" fill="url(#pattern_L1_410)"/></g><g fi:class="KUsePattern"><pattern id="pattern_L1_411" width="350" height="350" patternUnits="userSpaceOnUse"><use xlink:href="#L1_411" x="-350" y="-350"/><use xlink:href="#L1_411" x="0" y="-350"/><use xlink:href="#L1_411" x="350" y="-350"/><use xlink:href="#L1_411" x="-350" y="0"/><use xlink:href="#L1_411" x="0" y="0"/><use xlink:href="#L1_411" x="350" y="0"/><use xlink:href="#L1_411" x="-350" y="350"/><use xlink:href="#L1_411" x="0" y="350"/><use xlink:href="#L1_411" x="350" y="350"/></pattern><rect x="0" y="0" width="100%" height="100%" fill="url(#pattern_L1_411)"/></g><g fi:class="KUsePattern"><pattern id="pattern_L1_412" width="350" height="350" patternUnits="userSpaceOnUse"><use xlink:href="#L1_412" x="-350" y="-350"/><use xlink:href="#L1_412" x="0" y="-350"/><use xlink:href="#L1_412" x="350" y="-350"/><use xlink:href="#L1_412" x="-350" y="0"/><use xlink:href="#L1_412" x="0" y="0"/><use xlink:href="#L1_412" x="350" y="0"/><use xlink:href="#L1_412" x="-350" y="350"/><use xlink:href="#L1_412" x="0" y="350"/><use xlink:href="#L1_412" x="350" y="350"/></pattern><rect x="0" y="0" width="100%" height="100%" fill="url(#pattern_L1_412)"/></g><g fi:class="KUsePattern"><pattern id="pattern_L1_413" width="350" height="350" patternUnits="userSpaceOnUse"><use xlink:href="#L1_413" x="-350" y="-350"/><use xlink:href="#L1_413" x="0" y="-350"/><use xlink:href="#L1_413" x="350" y="-350"/><use xlink:href="#L1_413" x="-350" y="0"/><use xlink:href="#L1_413" x="0" y="0"/><use xlink:href="#L1_413" x="350" y="0"/><use xlink:href="#L1_413" x="-350" y="350"/><use xlink:href="#L1_413" x="0" y="350"/><use xlink:href="#L1_413" x="350" y="350"/></pattern><rect x="0" y="0" width="100%" height="100%" fill="url(#pattern_L1_413)"/></g><g fi:class="KUsePattern"><pattern id="pattern_L1_414" width="350" height="350" patternUnits="userSpaceOnUse"><use xlink:href="#L1_414" x="-350" y="-350"/><use xlink:href="#L1_414" x="0" y="-350"/><use xlink:href="#L1_414" x="350" y="-350"/><use xlink:href="#L1_414" x="-350" y="0"/><use xlink:href="#L1_414" x="0" y="0"/><use xlink:href="#L1_414" x="350" y="0"/><use xlink:href="#L1_414" x="-350" y="350"/><use xlink:href="#L1_414" x="0" y="350"/><use xlink:href="#L1_414" x="350" y="350"/></pattern><rect x="0" y="0" width="100%" height="100%" fill="url(#pattern_L1_414)"/></g><g fi:class="KUsePattern"><pattern id="pattern_L1_415" width="350" height="350" patternUnits="userSpaceOnUse"><use xlink:href="#L1_415" x="-350" y="-350"/><use xlink:href="#L1_415" x="0" y="-350"/><use xlink:href="#L1_415" x="350" y="-350"/><use xlink:href="#L1_415" x="-350" y="0"/><use xlink:href="#L1_415" x="0" y="0"/><use xlink:href="#L1_415" x="350" y="0"/><use xlink:href="#L1_415" x="-350" y="350"/><use xlink:href="#L1_415" x="0" y="350"/><use xlink:href="#L1_415" x="350" y="350"/></pattern><rect x="0" y="0" width="100%" height="100%" fill="url(#pattern_L1_415)"/></g><g fi:class="KUsePattern"><pattern id="pattern_L1_416" width="350" height="350" patternUnits="userSpaceOnUse"><use xlink:href="#L1_416" x="-350" y="-350"/><use xlink:href="#L1_416" x="0" y="-350"/><use xlink:href="#L1_416" x="350" y="-350"/><use xlink:href="#L1_416" x="-350" y="0"/><use xlink:href="#L1_416" x="0" y="0"/><use xlink:href="#L1_416" x="350" y="0"/><use xlink:href="#L1_416" x="-350" y="350"/><use xlink:href="#L1_416" x="0" y="350"/><use xlink:href="#L1_416" x="350" y="350"/></pattern><rect x="0" y="0" width="100%" height="100%" fill="url(#pattern_L1_416)"/></g><g fi:class="KUsePattern"><pattern id="pattern_L1_417" width="350" height="350" patternUnits="userSpaceOnUse"><use xlink:href="#L1_417" x="-350" y="-350"/><use xlink:href="#L1_417" x="0" y="-350"/><use xlink:href="#L1_417" x="350" y="-350"/><use xlink:href="#L1_417" x="-350" y="0"/><use xlink:href="#L1_417" x="0" y="0"/><use xlink:href="#L1_417" x="350" y="0"/><use xlink:href="#L1_417" x="-350" y="350"/><use xlink:href="#L1_417" x="0" y="350"/><use xlink:href="#L1_417" x="350" y="350"/></pattern><rect x="0" y="0" width="100%" height="100%" fill="url(#pattern_L1_417)"/></g></svg>