<svg xmlns="http://www.w3.org/2000/svg" xmlns:xlink="http://www.w3.org/1999/xlink" xmlns:fi="http://pattern.flaticon.com/" x="0" y="0" width="1600" height="800" viewBox="0 0 933.3333333333334 466.6666666666667"><rect x="0px" y="0px" width="100%" height="100%" opacity="1" fill="#f2dee9"/><defs><g transform="matrix(0.17456139706554183 0.04677358537336048 -0.04677358537336048 0.17456139706554183 316.49653743236496 294.6650614610239)" id="L1_446"><path d="m247.160156 82.125c26.789063-59.507812 94.160156-89.214844 156.164063-68.863281 62.007812 20.347656 98.667969 84.199219 84.988281 148.007812-13.683594 63.8125-73.296875 107.019531-138.195312 100.160157-64.898438-6.859376-114.167969-61.574219-114.207032-126.835938-.011718-18.089844 3.820313-35.972656 11.25-52.46875zm195.941406 52.429688c0-43.417969-35.195312-78.617188-78.613281-78.621094-43.421875 0-78.621093 35.199218-78.617187 78.617187 0 43.421875 35.199218 78.617188 78.617187 78.613281 43.414063-.003906 78.609375-35.195312 78.613281-78.609374zm0 0" fill="#00acea"/><path d="m463.960938 309.675781v36.679688c0 16.210937-13.140626 29.351562-29.351563 29.351562h-360.667969c-16.210937 0-29.351562-13.140625-29.351562-29.351562v-36.679688zm0 0" fill="#00acea"/><path d="m463.960938 213.125v96.550781h-419.371094v-29.28125h157.789062c10.578125.003907 19.152344-8.570312 19.152344-19.148437v-111.382813c-.003906-10.574219-8.574219-19.148437-19.152344-19.148437h-157.789062v-19.238282c0-16.210937 13.140625-29.351562 29.351562-29.351562h173.21875c-26.535156 58.847656-4.933594 128.242188 50.316406 161.625s126.730469 20.234375 166.484376-30.625zm0 0" fill="#00efd1"/><path d="m364.488281 55.945312c43.414063.003907 78.605469 35.203126 78.601563 78.617188s-35.199219 78.605469-78.613282 78.601562c-43.414062 0-78.605468-35.195312-78.605468-78.609374.003906-43.417969 35.203125-78.609376 78.617187-78.609376zm0 0" fill="#fedb41"/><path d="m187.199219 375.707031h134.152343v67.289063h-134.152343zm0 0" fill="#00efd1"/><path d="m221.53125 199.546875v61.699219c0 10.578125-8.574219 19.152344-19.152344 19.148437h-176.207031c-10.582031.003907-19.160156-8.570312-19.160156-19.148437v-61.699219zm-124.019531 42.136719c-.003907-7.800782-6.332031-14.121094-14.132813-14.117188-7.800781 0-14.121094 6.328125-14.117187 14.128906 0 7.800782 6.328125 14.121094 14.128906 14.121094 7.800781-.003906 14.121094-6.332031 14.121094-14.132812zm-33.511719 0c0-7.800782-6.328125-14.128906-14.128906-14.128906-7.804688 0-14.132813 6.328124-14.132813 14.128906 0 7.804687 6.328125 14.132812 14.132813 14.132812 7.800781-.003906 14.125-6.328125 14.128906-14.132812zm0 0" fill="#fedb41"/><path d="m7.011719 164.234375h214.519531v35.3125h-214.519531zm0 0" fill="#00acea"/><path d="m221.53125 149.863281v14.371094h-214.519531v-14.371094c.003906-10.574219 8.582031-19.148437 19.160156-19.148437h176.207031c10.578125 0 19.148438 8.574218 19.152344 19.148437zm0 0" fill="#fedb41"/><path d="m83.390625 227.554688c7.804687 0 14.128906 6.328124 14.128906 14.128906 0 7.804687-6.324219 14.132812-14.128906 14.132812s-14.128906-6.328125-14.128906-14.132812c-.003907-7.804688 6.324219-14.128906 14.128906-14.128906zm0 0" fill="#00efd1"/><path d="m64 241.683594c0 7.804687-6.328125 14.132812-14.128906 14.132812-7.804688 0-14.132813-6.328125-14.132813-14.132812 0-7.800782 6.328125-14.128906 14.132813-14.128906 7.800781 0 14.128906 6.328124 14.128906 14.128906zm0 0" fill="#00efd1"/><g fill="#083863"><path d="m83.390625 220.554688c-6.578125.007812-12.777344 3.082031-16.761719 8.3125-5.496094-7.203126-14.976562-10.101563-23.5625-7.199219-8.585937 2.902343-14.367187 10.953125-14.367187 20.015625s5.78125 17.117187 14.367187 20.019531c8.585938 2.902344 18.066406.003906 23.5625-7.199219 6.019532 7.863282 16.699219 10.488282 25.675782 6.308594 8.980468-4.179688 13.847656-14.039062 11.707031-23.710938-2.140625-9.667968-10.71875-16.550781-20.621094-16.546874zm-33.519531 28.261718c-3.9375 0-7.132813-3.195312-7.132813-7.132812s3.195313-7.128906 7.132813-7.128906 7.128906 3.191406 7.128906 7.128906c-.003906 3.9375-3.195312 7.128906-7.128906 7.132812zm33.519531 0c-3.941406.003906-7.136719-3.1875-7.140625-7.125s3.1875-7.132812 7.125-7.136718c3.941406 0 7.136719 3.191406 7.136719 7.128906-.003907 3.933594-3.1875 7.121094-7.121094 7.132812zm0 0"/><path d="m363.449219.00390625c-51.25-.05859375-98.074219 29.03906275-120.714844 75.01953175h-168.792969c-20.042968 0-35.941406 16.40625-35.941406 36.453124v12.546876h-11.828125c-6.90625-.0625-13.546875 2.628906-18.460937 7.480468-4.910157 4.847656-7.6875005 11.457032-7.710938 18.359375v111.382813c.0273438 6.894531 2.804688 13.496094 7.71875 18.335937 4.914062 4.84375 11.554688 7.519531 18.453125 7.441407h11.828125v59.332031c0 20.042969 15.898438 36.667969 35.941406 36.667969h106.058594v53h-32.820312c-3.867188 0-7 3.136718-7 7 0 3.867187 3.132812 7 7 7h214.191406c3.863281 0 7-3.132813 7-7 0-3.863282-3.136719-7-7-7h-33.371094v-53h106.609375c20.042969 0 36.390625-16.625 36.390625-36.667969v-130.859375c18-23.449219 27.011719-51.390625 27.011719-80.925782 0-74.183593-60.375-134.56640575-134.5625-134.56640575zm0 14.05078175c66.542969.074218 120.464843 54 120.539062 120.539062.101563 26.914062-8.902343 53.066406-25.542969 74.21875-34.710937 44.457031-95.609374 58.90625-146.597656 34.777344-50.984375-24.128906-78.425781-80.382813-66.054687-135.414063 12.371093-55.035156 61.246093-94.132812 117.652343-94.121093zm-337.277344 123.96875h176.207031c6.699219 0 12.621094 5.144531 12.621094 11.839843v7.160157h-201v-7.160157c.019531-3.191406 1.320312-6.238281 3.605469-8.464843 2.289062-2.226563 5.375-3.441407 8.566406-3.375zm-12.171875 33h201v22h-201zm0 90.222656v-54.222656h201v54.222656c0 6.699218-5.921875 11.777344-12.621094 11.777344h-176.207031c-3.1875.082031-6.269531-1.117188-8.558594-3.335938-2.289062-2.214844-3.589843-5.257812-3.613281-8.441406zm300 174.777344h-120v-53h120zm143-89.667969c-.007812 12.40625-9.984375 22.507812-22.390625 22.667969h-360.667969c-12.324218 0-21.941406-10.34375-21.941406-22.667969v-29.332031h405zm-405-43.332031v-16h150.378906c14.421875 0 26.621094-11.359376 26.621094-25.777344v-111.382813c0-14.417969-12.199219-25.839843-26.621094-25.839843h-150.378906v-12.546876c-.089844-5.894531 2.175781-11.578124 6.296875-15.792968 4.117187-4.214844 9.75-6.613282 15.644531-6.660156h162.835938c-5.199219 14.617187-7.859375 30.011718-7.867188 45.523437 0 74.183594 60.375 134.5625 134.558594 134.5625 34.910156.101563 68.476562-13.449219 93.53125-37.757813v71.671876zm0 0"/><path d="m364 146.023438c3.867188 0 7-3.132813 7-7v-49c0-3.863282-3.132812-7-7-7s-7 3.136718-7 7v49c0 3.867187 3.132812 7 7 7zm0 0"/><path d="m364 186.023438c3.867188 0 7-3.132813 7-7v-13c0-3.863282-3.132812-7-7-7s-7 3.136718-7 7v13c0 3.867187 3.132812 7 7 7zm0 0"/><path d="m364.488281 220.164062c47.28125-.003906 85.605469-38.335937 85.601563-85.617187-.003906-47.277344-38.332032-85.605469-85.613282-85.601563-47.28125 0-85.605468 38.328126-85.605468 85.609376.050781 47.261718 38.355468 85.5625 85.617187 85.609374zm0-157.21875c39.550781.003907 71.605469 32.070313 71.601563 71.617188s-32.066406 71.605469-71.613282 71.601562c-39.546874 0-71.605468-32.0625-71.605468-71.609374.042968-39.535157 32.085937-71.570313 71.617187-71.609376zm0 0"/></g></g><g transform="matrix(0.0416666679084301 0 0 0.0416666679084301 77.5 340)" id="L1_447"><path d="M472,240h-8v-40c0-52.128-33.464-96.472-80-113V64V40c0-22.056-17.944-40-40-40H40C17.944,0,0,17.944,0,40v24v48v104    c0,22.056,17.944,40,40,40h168v40v32v32v32v32v16c0,22.056,17.944,40,40,40h192c22.056,0,40-17.944,40-40V248    C480,243.584,476.424,240,472,240z M448,200v40h-24v-40c0-31.272-18.072-58.328-44.288-71.48c-0.056-0.032-0.096-0.08-0.152-0.104    c-0.192-0.096-0.392-0.16-0.584-0.256c-2.312-1.128-4.68-2.144-7.104-3.056c-0.544-0.208-1.088-0.408-1.632-0.6    c-2.128-0.744-4.304-1.384-6.512-1.944c-0.752-0.192-1.496-0.408-2.248-0.584c-2.088-0.464-4.208-0.816-6.352-1.12    c-0.792-0.112-1.568-0.272-2.36-0.36C349.88,120.192,346.96,120,344,120c-44.112,0-80,35.888-80,80v40h-24v-40    c0-33.944,16.424-64.048,41.656-83.04c1.704-1.288,3.408-2.568,5.176-3.744c0.96-0.632,1.976-1.192,2.96-1.8    c2.288-1.416,4.616-2.736,6.984-3.96c2.008-1.032,4.024-2.048,6.112-2.944c0.904-0.392,1.832-0.72,2.744-1.088    c2.08-0.832,4.184-1.624,6.328-2.32c0.96-0.312,1.936-0.592,2.904-0.872c2.152-0.632,4.328-1.192,6.536-1.68    c1-0.224,2-0.44,3.008-0.632c2.288-0.44,4.608-0.776,6.952-1.064c0.936-0.112,1.856-0.264,2.792-0.352    C337.4,96.192,340.672,96,344,96c3.12,0,6.192,0.2,9.24,0.472c1.096,0.096,2.184,0.224,3.272,0.36    c1.952,0.232,3.88,0.544,5.8,0.888c1.24,0.224,2.48,0.416,3.712,0.68C412.824,108.536,448,150.216,448,200z M408,200v40h-32.208    c5.08-6.704,8.208-14.96,8.208-24v-65.88C398.608,161.864,408,179.84,408,200z M368,140.728V216c0,13.232-10.768,24-24,24h-64v-40    c0-35.288,28.712-64,64-64c2.136,0,4.248,0.112,6.328,0.32c1.08,0.104,2.144,0.312,3.216,0.472c0.96,0.144,1.928,0.256,2.872,0.44    c1.744,0.352,3.464,0.792,5.176,1.288c0.216,0.064,0.432,0.104,0.648,0.168C364.184,139.272,366.104,139.952,368,140.728z M16,40    c0-13.232,10.768-24,24-24h304c13.232,0,24,10.768,24,24v16H16V40z M16,72h352v10.416C360.24,80.84,352.216,80,344,80    c-3.792,0-7.536,0.224-11.264,0.568c-1.048,0.096-2.072,0.248-3.112,0.376c-2.736,0.328-5.456,0.736-8.144,1.248    c-1.056,0.2-2.104,0.416-3.152,0.64c-2.768,0.608-5.512,1.32-8.224,2.12c-0.824,0.24-1.656,0.456-2.472,0.712    c-6.84,2.184-13.488,4.976-19.864,8.392c-1.344,0.72-2.632,1.52-3.952,2.288c-1.656,0.968-3.312,1.944-4.936,3    c-1.608,1.04-3.16,2.136-4.712,3.256c-0.664,0.48-1.36,0.904-2.024,1.4H16V72z M216,240H40c-13.232,0-24-10.768-24-24v-96h238.808    c-5.848,6.512-11.032,13.616-15.36,21.288C238.336,138.216,235.456,136,232,136H56c-4.424,0-8,3.584-8,8v48c0,4.416,3.576,8,8,8    h168v40H216z M224,152v32H64v-32H224z M224,384v-16h40v16H224z M264,400v16h-40v-16H264z M224,352v-16h40v16H224z M224,320v-16h40    v16H224z M464,440c0,13.232-10.768,24-24,24H248c-13.232,0-24-10.768-24-24v-8h48c4.424,0,8-3.584,8-8v-32v-32v-32v-32    c0-4.416-3.576-8-8-8h-48v-32h8h40h72h72h40h8V440z"/><path d="M344,312c-22.056,0-40,17.944-40,40c0,12.504,6.032,24.328,16,31.832V424c0,4.416,3.576,8,8,8h32c4.424,0,8-3.584,8-8    v-40.168c9.968-7.512,16-19.328,16-31.832C384,329.944,366.056,312,344,312z M355.976,372.648    c-2.464,1.432-3.976,4.064-3.976,6.912V416h-16v-36.44c0-2.848-1.512-5.48-3.976-6.912C324.496,368.264,320,360.544,320,352    c0-13.232,10.768-24,24-24s24,10.768,24,24C368,360.544,363.504,368.264,355.976,372.648z"/><rect x="80px" y="304px" width="16px" height="16px"/><rect x="80px" y="336px" width="16px" height="16px"/><rect x="80px" y="368px" width="16px" height="16px"/><rect x="112px" y="368px" width="16px" height="16px"/><rect x="144px" y="368px" width="16px" height="16px"/><rect x="144px" y="400px" width="16px" height="16px"/><rect x="176px" y="368px" width="16px" height="16px"/><rect x="176px" y="400px" width="16px" height="16px"/><rect x="112px" y="400px" width="16px" height="16px"/><rect x="80px" y="400px" width="16px" height="16px"/><rect x="48px" y="400px" width="16px" height="16px"/><rect x="48px" y="368px" width="16px" height="16px"/><rect x="48px" y="336px" width="16px" height="16px"/><rect x="48px" y="304px" width="16px" height="16px"/><rect x="80px" y="272px" width="16px" height="16px"/><rect x="48px" y="272px" width="16px" height="16px"/><rect x="432px" y="272px" width="16px" height="16px"/><rect x="432px" y="304px" width="16px" height="16px"/><rect x="400px" y="272px" width="16px" height="16px"/></g><g transform="matrix(0.078125 0 0 0.078125 67.5 67.5)" id="L1_448"><path d="M381.467,108.66c-0.336-8.075-6.979-14.448-15.06-14.448h-78.375V15.074  c0-8.325-6.75-15.074-15.074-15.074H141.815c-8.324,0-15.074,6.749-15.074,15.074v79.138H48.366c-8.081,0-14.726,6.375-15.06,14.448  L18.223,471.97c-0.17,4.103,1.34,8.098,4.183,11.06c2.843,2.964,6.77,4.638,10.877,4.638h194.705  c8.324,0,15.074-6.749,15.074-15.074s-6.75-15.074-15.074-15.074H48.996l13.832-333.16h63.913v39.385  c0,8.325,6.75,15.074,15.074,15.074s15.074-6.749,15.074-15.074V124.36h100.995v39.385c0,8.325,6.75,15.074,15.074,15.074  c8.324,0,15.074-6.749,15.074-15.074V124.36h63.913l1.833,44.138c0.336,8.105,7.012,14.45,15.05,14.448  c0.211,0,0.422-0.005,0.636-0.014c8.318-0.345,14.781-7.368,14.435-15.686L381.467,108.66z M156.889,94.212V30.148h100.995v64.064  H156.889z" fill="#b3404a"/><path d="M449.821,271.638c-27.694,0-51.58-16.242-62.694-39.712h-32.57  c-11.114,23.47-35,39.712-62.694,39.712c-10.314,0-20.098-2.255-28.895-6.292v132.836c0,54.31,107.873,98.746,107.873,98.746  s107.873-44.435,107.873-98.746V265.346C469.919,269.383,460.135,271.638,449.821,271.638z" fill="#f4b2b0"/><path d="M370.845,512c-1.951,0-3.903-0.378-5.742-1.137c-1.158-0.476-28.654-11.883-56.532-30.384  c-40.261-26.72-60.675-54.409-60.675-82.299V265.344c0-5.136,2.614-9.917,6.937-12.688c4.323-2.772,9.756-3.155,14.426-1.011  c7.11,3.263,14.715,4.919,22.606,4.919c20.867,0,40.127-12.204,49.07-31.09c2.493-5.265,7.798-8.622,13.624-8.622h32.569  c5.826,0,11.131,3.357,13.624,8.622c8.943,18.886,28.203,31.09,49.07,31.09c7.89,0,15.496-1.655,22.606-4.919  c4.667-2.142,10.103-1.761,14.426,1.011c4.322,2.772,6.937,7.554,6.937,12.688V398.18c0,27.89-20.415,55.579-60.675,82.299  c-27.876,18.5-55.372,29.908-56.53,30.384C374.746,511.622,372.795,512,370.845,512z M278.044,285.59v112.59  c0,33.672,63.514,69.164,92.793,82.325c29.278-13.191,92.805-48.738,92.805-82.325V285.59c-4.533,0.746-9.145,1.121-13.821,1.121  c-29.159,0-56.298-15.311-71.593-39.712h-14.769c-15.296,24.402-42.435,39.712-71.593,39.712  C287.189,286.712,282.577,286.336,278.044,285.59z" fill="#b3404a"/></g><g transform="matrix(0.0833333358168602 0 0 0.0833333358168602 242.5 67.5)" id="L1_449"><path d="m128 240c0 61.855469 50.144531 112 112 112s112-50.144531 112-112-50.144531-112-112-112c-61.828125.066406-111.933594 50.171875-112 112zm208 0c0 53.019531-42.980469 96-96 96s-96-42.980469-96-96 42.980469-96 96-96c52.996094.058594 95.941406 43.003906 96 96zm0 0"/><path d="m232 160v16h-24c-13.253906 0-24 10.746094-24 24v24c0 13.253906 10.746094 24 24 24h24v40h-24c-4.417969 0-8-3.582031-8-8h-16c0 13.253906 10.746094 24 24 24h24v16h16v-16h24c13.253906 0 24-10.746094 24-24v-24c0-13.253906-10.746094-24-24-24h-24v-40h24c4.417969 0 8 3.582031 8 8h16c0-13.253906-10.746094-24-24-24h-24v-16zm40 88c4.417969 0 8 3.582031 8 8v24c0 4.417969-3.582031 8-8 8h-24v-40zm-40-16h-24c-4.417969 0-8-3.582031-8-8v-24c0-4.417969 3.582031-8 8-8h24zm0 0"/><path d="m160 232h8v16h-8zm0 0"/><path d="m312 232h8v16h-8zm0 0"/><path d="m64 232h16v16h-16zm0 0"/><path d="m80 248h16v16h-16zm0 0"/><path d="m96 232h16v16h-16zm0 0"/><path d="m80 216h16v16h-16zm0 0"/><path d="m368 232h16v16h-16zm0 0"/><path d="m384 248h16v16h-16zm0 0"/><path d="m400 232h16v16h-16zm0 0"/><path d="m384 216h16v16h-16zm0 0"/><path d="m32 96h40v16h-40zm0 0"/><path d="m32 128h40v16h-40zm0 0"/><path d="m32 408h40v-16h-24v-24h-16zm0 0"/><path d="m448 136v-40h-40v16h24v24zm0 0"/><path d="m0 0v480h480v-24h-16v8h-448v-24h464v-24h-16v8h-448v-344h448v288h16v-368zm16 64v-48h448v48zm0 0"/><path d="m32 32h16v16h-16zm0 0"/><path d="m64 32h16v16h-16zm0 0"/><path d="m96 32h16v16h-16zm0 0"/><path d="m128 32h16v16h-16zm0 0"/><path d="m464 384h16v16h-16zm0 0"/><path d="m416 352c.050781-12.21875-9.085938-22.523438-21.222656-23.9375-12.132813-1.414062-23.394532 6.511719-26.15625 18.414062-2.761719 11.902344 3.859375 23.980469 15.378906 28.050782v33.472656h24v-16h-8v-17.472656c9.554688-3.378906 15.957031-12.394532 16-22.527344zm-24-8c4.417969 0 8 3.582031 8 8s-3.582031 8-8 8-8-3.582031-8-8 3.582031-8 8-8zm0 0"/></g><g transform="matrix(0.13205963900655032 -0.035385273624550746 0.035385273624550746 0.13205963900655032 132.24191395193918 150.23700910615506)" id="L1_450"><path d="m502.335938 324.695312-183.335938 183.203126h-53.441406l-265.558594-265.722657v-45.195312l187.457031-187.324219c12.882813-12.882812 33.765625-12.867188 46.648438.015625l268.230469 268.378906c12.898437 12.882813 12.878906 33.78125 0 46.644531zm0 0" fill="#c9ef3f"/><path d="m82.414062 114.683594 69.976563-69.980469 314.90625 314.90625-69.980469 69.980469zm0 0" fill="#3c3c47"/><path d="m478.335938 254.019531-108.945313-108.996093h-317.402344l-51.988281 51.957031v45.195312l265.558594 265.722657h53.441406l159.335938-159.21875zm0 0" fill="#badb31"/><path d="m112.753906 145.023438 284.578125 284.558593 69.96875-69.96875-214.589843-214.589843zm0 0" fill="#202026"/><path d="m412.359375 507.898438h-379.371094c-18.226562 0-32.988281-14.761719-32.988281-32.988282v-263.910156c0-18.226562 14.761719-32.988281 32.988281-32.988281h379.371094c18.226563 0 32.988281 14.761719 32.988281 32.988281v263.910156c0 18.210938-14.761718 32.988282-32.988281 32.988282zm0 0" fill="#48c8ef"/><path d="m0 260.484375h445.347656v98.964844h-445.347656zm0 0" fill="#3c3c47"/><g fill="#ffffff"><path d="m65.976562 408.933594h49.484376v32.988281h-49.484376zm0 0"/><path d="m148.449219 408.933594h65.976562v32.988281h-65.976562zm0 0"/><path d="m247.414062 408.933594h49.484376v32.988281h-49.484376zm0 0"/><path d="m329.886719 408.933594h49.484375v32.988281h-49.484375zm0 0"/><path d="m197.933594 46.058594h32.988281v32.988281h-32.988281zm0 0"/><path d="m247.414062 95.539062h32.988282v32.988282h-32.988282zm0 0"/></g></g><g transform="matrix(0.10638614743947983 0 0 0.10638614743947983 62.5 237.5)" id="L1_451"><path d="m0 157.476562h201v22h-201zm0 0"/><path d="m35.867188 220.996094c-3.933594.003906-7.121094 3.195312-7.121094 7.128906.003906 3.9375 3.195312 7.125 7.128906 7.121094 3.9375 0 7.125-3.191406 7.125-7.125-.003906-3.9375-3.195312-7.125-7.132812-7.125zm0 0"/><path d="m201 136.304688c0-6.699219-5.917969-11.828126-12.621094-11.828126h-176.210937c-3.191407-.070312-6.273438 1.140626-8.5625 3.363282-2.289063 2.226562-3.5859378 5.273437-3.605469 8.464844v7.171874h201zm0 0"/><path d="m349.449219 241.570312c66.570312 0 120.535156-53.96875 120.535156-120.539062s-53.964844-120.539062-120.535156-120.539062c-66.574219 0-120.539063 53.96875-120.539063 120.539062.074219 66.539062 53.996094 120.460938 120.539063 120.539062zm1.039062-206.191406c47.28125 0 85.609375 38.328125 85.609375 85.609375 0 47.285157-38.328125 85.613281-85.613281 85.613281-47.28125 0-85.609375-38.332031-85.609375-85.613281.050781-47.257812 38.351562-85.558593 85.613281-85.609375zm0 0"/><path d="m69.386719 220.996094c-3.933594 0-7.125 3.191406-7.125 7.125 0 3.9375 3.191406 7.128906 7.125 7.125 3.9375 0 7.128906-3.1875 7.128906-7.125-.007813-3.933594-3.195313-7.121094-7.128906-7.125zm0 0"/><path d="m201 247.683594v-54.207032h-201v54.199219c.0195312 3.1875 1.320312 6.234375 3.609375 8.453125 2.285156 2.21875 5.371094 3.425782 8.558594 3.347656h176.210937c6.703125 0 12.621094-5.09375 12.621094-11.792968zm-131.613281 1.5625c-6.578125-.003906-12.773438-3.082032-16.757813-8.316406-5.496094 7.207031-14.972656 10.105468-23.558594 7.207031-8.585937-2.902344-14.363281-10.953125-14.363281-20.015625s5.777344-17.113282 14.363281-20.015625c8.585938-2.898438 18.0625 0 23.558594 7.207031 6.015625-7.871094 16.695313-10.5 25.675782-6.320312 8.984374 4.175781 13.851562 14.035156 11.710937 23.707031-2.144531 9.671875-10.722656 16.554687-20.628906 16.546875zm0 0"/><path d="m38 332.792969c0 12.324219 9.613281 22.683593 21.9375 22.683593h360.671875c12.410156-.167968 22.382813-10.273437 22.390625-22.683593v-29.316407h-405zm0 0"/><path d="m214.910156 120.992188c-.03125-15.519532 2.648438-30.921876 7.917969-45.515626h-162.890625c-5.890625.042969-11.519531 2.4375-15.640625 6.648438-4.117187 4.210938-6.386719 9.890625-6.296875 15.78125v12.570312h150.378906c14.421875 0 26.621094 11.40625 26.621094 25.828126v111.378906c0 14.417968-12.199219 25.796875-26.621094 25.796875h-150.378906v16h405v-71.820313c-25.03125 24.363282-58.601562 37.960938-93.53125 37.890625-74.183594 0-134.558594-60.375-134.558594-134.558593zm0 0"/><path d="m350.488281 192.605469c39.546875 0 71.609375-32.0625 71.609375-71.613281 0-39.550782-32.0625-71.613282-71.613281-71.609376-39.546875 0-71.609375 32.058594-71.609375 71.609376.042969 39.53125 32.078125 71.570312 71.613281 71.613281zm-7.488281-116.144531c0-3.867188 3.132812-7 7-7s7 3.132812 7 7v49c0 3.867187-3.132812 7-7 7s-7-3.132813-7-7zm0 76c0-3.867188 3.132812-7 7-7s7 3.132812 7 7v13c0 3.867187-3.132812 7-7 7s-7-3.132813-7-7zm0 0"/><path d="m347.367188 422.476562h-47.367188v-53h-120v53h-46.820312c-3.867188 0-7 3.132813-7 7 0 3.867188 3.132812 7 7 7h214.1875c3.867187 0 7-3.132812 7-7 0-3.867187-3.132813-7-7-7zm0 0"/></g><g transform="matrix(0.17578125 0 0 0.17578125 217.5 217.5)" id="L1_452"><path d="M330.667,362.667H181.333c-5.891,0-10.667,4.776-10.667,10.667v85.333c0,5.891,4.776,10.667,10.667,10.667h149.333    c5.891,0,10.667-4.776,10.667-10.667v-85.333C341.333,367.442,336.558,362.667,330.667,362.667z M320,448H192v-64h128V448z"/><path d="M362.667,448H149.333c-5.891,0-10.667,4.776-10.667,10.667v32c0,11.782,9.551,21.333,21.333,21.333h192    c11.782,0,21.333-9.551,21.333-21.333v-32C373.333,452.776,368.558,448,362.667,448z M352,490.667H160v-21.333h192V490.667z"/><path d="M480,0h-96v21.333h96c5.891,0,10.667,4.776,10.667,10.667v320c0,5.891-4.776,10.667-10.667,10.667H32    c-5.891,0-10.667-4.776-10.667-10.667v-53.333H0V352c0,17.673,14.327,32,32,32h448c17.673,0,32-14.327,32-32V32    C512,14.327,497.673,0,480,0z"/><rect x="117px" y="490px" width="277px" height="21px"/><path d="M448,53.333h-64v21.333h53.333v234.667H416v21.333h32c5.891,0,10.667-4.776,10.667-10.667V64    C458.667,58.109,453.891,53.333,448,53.333z"/><path d="M74.667,309.333v-10.667H53.333V320c0,5.891,4.776,10.667,10.667,10.667h117.333v-21.333H74.667z"/><path d="M341.333,0h-320C9.551,0,0,9.551,0,21.333V256c0,11.782,9.551,21.333,21.333,21.333h160V256h-160V21.333h320v53.333    h21.333V21.333C362.667,9.551,353.115,0,341.333,0z"/><rect x="10px" y="42px" width="341px" height="21px"/><path d="M384,170.667H213.333c-5.891,0-10.667,4.776-10.667,10.667v117.333c0,17.673,14.327,32,32,32h128    c17.673,0,32-14.327,32-32V181.333C394.667,175.442,389.891,170.667,384,170.667z M373.333,298.667    c0,5.891-4.776,10.667-10.667,10.667h-128c-5.891,0-10.667-4.776-10.667-10.667V192h149.333V298.667z"/><path d="M341.333,96H256c-11.673,0.26-21.074,9.661-21.333,21.333v64H256v-63.168c0.096-0.384,0.192-0.779,0.096-0.853h84.565    c0.011,0,0.491,0.181,0.672,0.096v63.925h21.333v-64C362.568,105.592,353.074,96.099,341.333,96z"/><rect x="181px" y="213px" width="234px" height="21px"/><rect x="288px" y="256px" width="21px" height="21px"/><path d="M160,138.667V128c0-11.782-9.551-21.333-21.333-21.333H96c-11.782,0-21.333,9.551-21.333,21.333v21.333    c0,11.782,9.551,21.333,21.333,21.333h42.667V192H96v-10.667H74.667V192c0,11.782,9.551,21.333,21.333,21.333h42.667    c11.782,0,21.333-9.551,21.333-21.333v-21.333c0-11.782-9.551-21.333-21.333-21.333H96V128h42.667v10.667H160z"/><rect x="106px" y="85px" width="21px" height="32px"/><rect x="106px" y="202px" width="21px" height="32px"/></g><g transform="matrix(0.07807742059230804 0 0 0.07807742059230804 155 330)" id="L1_453"><path d="M467.356,235.277c-12.651,6.864-25.654,13.06-38.955,18.56c-7.896,3.301-16.786,3.301-24.683,0  c-47.787-19.947-104.896-52.373-104.896-93.525v-53.333H96.156c-5.891,0.005-10.662,4.785-10.657,10.677  c0.001,0.655,0.062,1.309,0.182,1.953l32,170.667c0.944,5.043,5.344,8.699,10.475,8.704h292.992  c26.9,0.003,49.592-20.027,52.928-46.72c0.264-2.134-0.122-4.298-1.109-6.208L467.356,235.277z" fill="#ffc107"/><g><circle cx="394" cy="458" r="53" fill="#455a64"/><circle cx="181" cy="458" r="53" fill="#455a64"/><path d="M191.281,384.312h246.208c5.891,0,10.667-4.776,10.667-10.667c0-5.891-4.776-10.667-10.667-10.667   H191.281c-25.408-0.053-47.272-17.976-52.309-42.88L85.276,51.512c-1.014-4.967-5.384-8.534-10.453-8.533h-64   c-5.891,0-10.667,4.776-10.667,10.667s4.776,10.667,10.667,10.667h55.253l51.989,259.968   C125.11,359.143,155.713,384.236,191.281,384.312z" fill="#455a64"/></g><path d="M504.071,21.645L418.737,0.312c-1.696-0.416-3.467-0.416-5.163,0l-85.333,21.333  c-4.712,1.175-8.035,5.384-8.085,10.24v128c0,32.981,70.4,64.853,91.904,73.856c2.628,1.096,5.585,1.096,8.213,0  c21.483-8.981,91.883-40.875,91.883-73.856v-128C512.106,27.029,508.782,22.82,504.071,21.645z" fill="#2196f3"/><g><path d="M416.156,43.875 362.823,54.541 362.823,117.219 416.156,117.219z" fill="#fafafa"/><path d="M416.156,117.219 416.156,187.704 469.489,161.699 469.489,117.219z" fill="#fafafa"/></g></g><g transform="matrix(0.039062727242708206 0 0 0.039062727242708206 252.5 340)" id="L1_454"><path d="M82.951,305.458c3.233,7.685,10.756,12.681,19.093,12.681h256.995v41.426h20.714  c11.44,0,20.714,9.274,20.714,20.714v-82.854V173.142V69.575h-20.714c-11.44,0-20.714-9.274-20.714-20.714v34.522H20.713  c-6.938,0-13.416,3.476-17.255,9.254c-3.838,5.781-4.528,13.097-1.838,19.493L82.951,305.458z" fill="#81e5ee"/><g><path d="M379.753,69.575h20.714h34.523c11.44,0,20.714-9.274,20.714-20.714   c0-11.438-9.274-20.714-20.714-20.714h-55.237c-11.44,0-20.714,9.276-20.714,20.714C359.039,60.3,368.313,69.575,379.753,69.575z" fill="#8cb7e8"/><path d="M379.753,359.565h-20.714h-48.332h-164.33H63.522c-11.44,0-20.714,9.274-20.714,20.714   s9.274,20.714,20.714,20.714h24.277h22.706h35.872h35.872h22.706h47.172h22.706h35.872h35.872h22.707h10.467   c11.44,0,20.714-9.274,20.714-20.714S391.192,359.565,379.753,359.565z" fill="#8cb7e8"/></g><path d="M125.663,421.707c0,11.42,9.291,20.714,20.714,20.714c11.422,0,20.714-9.294,20.714-20.714  c0-11.422-9.292-20.714-20.714-20.714C134.954,400.993,125.663,410.285,125.663,421.707z" fill="#898890"/><path d="M146.377,400.993c11.422,0,20.714,9.292,20.714,20.714c0,11.42-9.292,20.714-20.714,20.714  c-11.423,0-20.714-9.294-20.714-20.714C125.663,410.285,134.954,400.993,146.377,400.993h-35.872H87.798  c-2.299,6.483-3.563,13.453-3.563,20.714c0,34.265,27.875,62.141,62.141,62.141s62.141-27.877,62.141-62.141  c0-7.261-1.264-14.23-3.563-20.714h-22.706H146.377z" fill="#57565c"/><path d="M379.753,69.575c-11.44,0-20.714-9.274-20.714-20.714v34.522H227.851v234.757h131.188v41.426h20.714  c11.44,0,20.714,9.274,20.714,20.714v-82.854V173.142V69.575H379.753z" fill="#bdfdff"/><path d="M125.663,421.707c0,11.42,9.292,20.714,20.714,20.714c11.422,0,20.714-9.294,20.714-20.714  c0-11.422-9.291-20.714-20.714-20.714C134.954,400.993,125.663,410.285,125.663,421.707z" fill="#ffffff"/><path d="M503.732,253.991c-5.223-3.923-11.988-5.155-18.256-3.324c-6.135,1.791-12.392,2.701-18.595,2.701  c-39.927,0-66.415-23.353-66.415-38.798c0-11.44-9.274-20.714-20.714-20.714c-11.441,0-20.714,9.274-20.714,20.714  c0,15.446-26.49,38.798-66.415,38.798c-6.202,0-12.457-0.91-18.597-2.702c-6.267-1.831-13.033-0.599-18.254,3.325  c-5.22,3.925-8.284,10.079-8.268,16.611c0.006,2.049,0.04,4.086,0.098,6.109c0.202,7.08,0.729,13.983,1.512,20.714  c0.829,7.112,1.942,14.025,3.305,20.714c3.052,14.98,7.301,28.853,12.115,41.426c6.152,16.077,13.217,30.031,19.859,41.428  c3.941,6.761,7.732,12.627,11.092,17.503c21.762,31.594,55.325,65.352,84.267,65.352s62.506-33.758,84.267-65.352  c17.844-25.906,47.806-79.567,47.98-147.894C512.016,264.07,508.952,257.914,503.732,253.991z" fill="#a78966"/><path d="M125.663,421.707c0,11.42,9.292,20.714,20.714,20.714c11.422,0,20.714-9.294,20.714-20.714  c0-11.422-9.291-20.714-20.714-20.714C134.954,400.993,125.663,410.285,125.663,421.707z" fill="#ffffff"/><g><path d="M359.039,214.57c0,15.446-26.49,38.798-66.415,38.798c-6.202,0-12.457-0.91-18.597-2.701   c-6.267-1.831-13.035-0.599-18.254,3.325c-5.22,3.925-8.284,10.079-8.268,16.611c0.006,2.049,0.04,4.086,0.098,6.109   c0.202,7.08,0.729,13.983,1.512,20.714c0.829,7.112,1.942,14.025,3.305,20.714c3.052,14.98,7.301,28.854,12.115,41.426   c6.152,16.077,13.217,30.031,19.859,41.428c3.941,6.76,7.732,12.627,11.092,17.503c21.762,31.594,55.325,65.352,84.267,65.352   V193.856C368.312,193.856,359.039,203.13,359.039,214.57z" fill="#806749"/><path d="M359.039,214.57c0,15.446-26.49,38.798-66.415,38.798c-6.202,0-12.457-0.91-18.597-2.701   c-6.267-1.831-13.035-0.599-18.254,3.325c-5.22,3.925-8.284,10.079-8.268,16.611c0.006,2.049,0.04,4.086,0.098,6.109   c0.202,7.08,0.729,13.983,1.512,20.714c0.829,7.112,1.942,14.025,3.305,20.714c3.052,14.98,7.301,28.854,12.115,41.426   c6.152,16.077,13.217,30.031,19.859,41.428c3.941,6.76,7.732,12.627,11.092,17.503c21.762,31.594,55.325,65.352,84.267,65.352   V193.856C368.312,193.856,359.039,203.13,359.039,214.57z" fill="#806749"/></g></g><g transform="matrix(0.13671875 0 0 0.13671875 315 140)" id="L1_455"><path d="M 0 52.964844 L 300.136719 52.964844 L 300.136719 459.035156 L 0 459.035156 Z M 0 52.964844 " fill="#ccfdff" fill-opacity="1" stroke="none"/><path d="M 88.277344 459.035156 L 300.136719 459.035156 L 300.136719 247.171875 C 300.207031 364.113281 205.464844 458.964844 88.523438 459.035156 C 88.441406 459.035156 88.359375 459.035156 88.277344 459.035156 Z M 88.277344 459.035156 " fill="#9bfbff" fill-opacity="1" stroke="none"/><path d="M 300.136719 35.308594 C 300.136719 15.808594 284.328125 0 264.828125 0 L 35.308594 0 C 15.808594 0 0 15.808594 0 35.308594 L 0 52.964844 L 300.136719 52.964844 Z M 300.136719 35.308594 " fill="#bebec2" fill-opacity="1" stroke="none"/><path d="M 35.308594 512 L 264.828125 512 C 284.328125 512 300.136719 496.191406 300.136719 476.691406 L 300.136719 459.035156 L 0 459.035156 L 0 476.691406 C 0 496.191406 15.808594 512 35.308594 512 Z M 35.308594 512 " fill="#bebec2" fill-opacity="1" stroke="none"/><path d="M 229.519531 291.308594 L 141.878906 291.945312 L 175.035156 325.101562 L 141.242188 291.308594 L 175.035156 257.519531 L 141.242188 291.308594 L 141.878906 291.945312 L 229.519531 291.308594 L 229.519531 220.691406 C 229.519531 210.9375 237.421875 203.035156 247.171875 203.035156 L 414.898438 203.035156 L 414.898438 167.839844 L 70.621094 167.839844 L 70.621094 397.242188 L 414.898438 397.242188 L 414.898438 361.929688 L 247.171875 361.929688 C 237.421875 361.929688 229.519531 354.027344 229.519531 344.273438 Z M 229.519531 291.308594 " fill="#c2dff6" fill-opacity="1" stroke="none"/><path d="M 414.898438 114.757812 L 70.621094 114.757812 L 70.621094 167.839844 L 414.898438 167.839844 Z M 414.898438 114.757812 " fill="#398df3" fill-opacity="1" stroke="none"/><path d="M 229.519531 291.308594 L 229.519531 344.277344 C 229.519531 354.027344 237.421875 361.929688 247.171875 361.929688 L 441.378906 361.929688 C 451.128906 361.929688 459.035156 354.027344 459.035156 344.277344 L 459.035156 238.34375 L 229.519531 238.34375 Z M 379.585938 300.136719 C 389.335938 300.136719 397.242188 308.042969 397.242188 317.792969 C 397.242188 308.042969 405.144531 300.136719 414.898438 300.136719 C 424.648438 300.136719 432.550781 308.042969 432.550781 317.792969 C 432.550781 327.542969 424.648438 335.449219 414.898438 335.449219 C 405.144531 335.449219 397.242188 327.542969 397.242188 317.792969 C 397.242188 327.542969 389.335938 335.449219 379.585938 335.449219 C 369.835938 335.449219 361.929688 327.542969 361.929688 317.792969 C 361.929688 308.042969 369.835938 300.136719 379.585938 300.136719 Z M 379.585938 300.136719 " fill="#d1d3d4" fill-opacity="1" stroke="none"/><path d="M 229.519531 220.691406 L 229.519531 238.34375 L 459.035156 238.34375 L 459.035156 220.691406 C 459.035156 210.9375 451.128906 203.035156 441.378906 203.035156 L 247.171875 203.035156 C 237.421875 203.035156 229.519531 210.9375 229.519531 220.691406 Z M 229.519531 220.691406 " fill="#d1d3d4" fill-opacity="1" stroke="none"/><path d="M 397.242188 317.792969 C 397.242188 327.542969 389.335938 335.449219 379.585938 335.449219 C 369.835938 335.449219 361.929688 327.542969 361.929688 317.792969 C 361.929688 308.042969 369.835938 300.136719 379.585938 300.136719 C 389.335938 300.136719 397.242188 308.042969 397.242188 317.792969 Z M 397.242188 317.792969 " fill="#d1d3d4" fill-opacity="1" stroke="none"/><path d="M 432.550781 317.792969 C 432.550781 327.542969 424.648438 335.449219 414.898438 335.449219 C 405.144531 335.449219 397.242188 327.542969 397.242188 317.792969 C 397.242188 308.042969 405.144531 300.136719 414.898438 300.136719 C 424.648438 300.136719 432.550781 308.042969 432.550781 317.792969 Z M 432.550781 317.792969 " fill="#d1d3d4" fill-opacity="1" stroke="none"/><path d="M 176.550781 35.308594 L 158.898438 35.308594 C 154.019531 35.308594 150.070312 31.359375 150.070312 26.484375 C 150.070312 21.609375 154.023438 17.65625 158.898438 17.65625 L 176.550781 17.65625 C 181.425781 17.65625 185.378906 21.609375 185.378906 26.484375 C 185.378906 31.359375 181.425781 35.308594 176.550781 35.308594 Z M 176.550781 35.308594 " fill="#f1f2f2" fill-opacity="1" stroke="none"/><path d="M 167.722656 494.34375 L 132.414062 494.34375 C 127.539062 494.34375 123.585938 490.390625 123.585938 485.519531 C 123.585938 480.640625 127.539062 476.691406 132.414062 476.691406 L 167.722656 476.691406 C 172.597656 476.691406 176.550781 480.644531 176.550781 485.519531 C 176.550781 490.390625 172.597656 494.34375 167.722656 494.34375 Z M 167.722656 494.34375 " fill="#f1f2f2" fill-opacity="1" stroke="none"/><path d="M 132.414062 35.308594 L 123.585938 35.308594 C 118.710938 35.308594 114.761719 31.359375 114.761719 26.484375 C 114.761719 21.609375 118.710938 17.65625 123.585938 17.65625 L 132.414062 17.65625 C 137.289062 17.65625 141.242188 21.609375 141.242188 26.484375 C 141.242188 31.359375 137.289062 35.308594 132.414062 35.308594 Z M 132.414062 35.308594 " fill="#f1f2f2" fill-opacity="1" stroke="none"/><path d="M 44.136719 123.585938 L 26.484375 123.585938 L 26.484375 79.449219 L 70.621094 79.449219 L 70.621094 97.101562 L 44.136719 97.101562 Z M 44.136719 123.585938 " fill="#9bfbff" fill-opacity="1" stroke="none"/><path d="M 70.621094 432.550781 L 26.484375 432.550781 L 26.484375 388.414062 L 44.136719 388.414062 L 44.136719 414.894531 L 70.621094 414.894531 Z M 70.621094 432.550781 " fill="#9bfbff" fill-opacity="1" stroke="none"/><path d="M 97.105469 132.414062 L 114.757812 132.414062 L 114.757812 150.070312 L 97.105469 150.070312 Z M 97.105469 132.414062 " fill="#f1f2f2" fill-opacity="1" stroke="none"/><path d="M 132.414062 132.414062 L 150.070312 132.414062 L 150.070312 150.070312 L 132.414062 150.070312 Z M 132.414062 132.414062 " fill="#f1f2f2" fill-opacity="1" stroke="none"/><path d="M 167.722656 132.414062 L 185.378906 132.414062 L 185.378906 150.070312 L 167.722656 150.070312 Z M 167.722656 132.414062 " fill="#f1f2f2" fill-opacity="1" stroke="none"/><path d="M 388.414062 317.792969 C 388.4375 325.28125 391.648438 332.410156 397.242188 337.390625 C 392.417969 341.804688 386.121094 344.257812 379.585938 344.277344 C 364.960938 344.277344 353.101562 332.417969 353.101562 317.792969 C 353.101562 303.167969 364.960938 291.3125 379.585938 291.3125 C 386.121094 291.328125 392.417969 293.785156 397.242188 298.195312 C 391.648438 303.175781 388.4375 310.304688 388.414062 317.792969 C 388.414062 312.917969 384.460938 308.964844 379.585938 308.964844 C 374.710938 308.964844 370.757812 312.917969 370.757812 317.792969 C 370.757812 322.667969 374.710938 326.621094 379.585938 326.621094 C 384.460938 326.621094 388.414062 322.667969 388.414062 317.792969 Z M 388.414062 317.792969 " fill="#ff6243" fill-opacity="1" stroke="none"/><path d="M 441.378906 317.792969 C 441.335938 332.398438 429.503906 344.230469 414.898438 344.273438 C 408.359375 344.257812 402.0625 341.804688 397.242188 337.390625 C 402.835938 332.40625 406.042969 325.28125 406.070312 317.792969 C 406.070312 322.667969 410.019531 326.617188 414.894531 326.617188 C 419.769531 326.617188 423.722656 322.667969 423.722656 317.792969 C 423.722656 312.917969 419.769531 308.964844 414.894531 308.964844 C 410.019531 308.964844 406.070312 312.917969 406.070312 317.792969 C 406.042969 310.300781 402.835938 303.175781 397.242188 298.195312 C 402.0625 293.78125 408.359375 291.328125 414.898438 291.308594 C 429.503906 291.355469 441.335938 303.183594 441.378906 317.792969 Z M 441.378906 317.792969 " fill="#ffcd00" fill-opacity="1" stroke="none"/><path d="M 406.070312 317.792969 C 406.042969 325.28125 402.835938 332.410156 397.242188 337.390625 C 386.417969 327.816406 385.40625 311.28125 394.980469 300.457031 C 395.6875 299.65625 396.441406 298.902344 397.242188 298.195312 C 402.835938 303.175781 406.042969 310.304688 406.070312 317.792969 Z M 406.070312 317.792969 " fill="#ff7956" fill-opacity="1" stroke="none"/><path d="M 229.519531 229.515625 L 459.035156 229.515625 L 459.035156 247.171875 L 229.519531 247.171875 Z M 229.519531 229.515625 " fill="#414042" fill-opacity="1" stroke="none"/><path d="M 141.171875 283.113281 L 229.449219 282.515625 L 229.570312 300.167969 L 141.292969 300.769531 Z M 141.171875 283.113281 " fill="#ff6243" fill-opacity="1" stroke="none"/><path d="M 168.792969 331.351562 L 128.761719 291.308594 L 168.792969 251.269531 L 181.273438 263.75 L 153.722656 291.308594 L 181.273438 318.871094 Z M 168.792969 331.351562 " fill="#ff6243" fill-opacity="1" stroke="none"/></g></defs><g fi:class="KUsePattern"><pattern id="pattern_L1_446" width="350" height="350" patternUnits="userSpaceOnUse"><use xlink:href="#L1_446" x="-350" y="-350"/><use xlink:href="#L1_446" x="0" y="-350"/><use xlink:href="#L1_446" x="350" y="-350"/><use xlink:href="#L1_446" x="-350" y="0"/><use xlink:href="#L1_446" x="0" y="0"/><use xlink:href="#L1_446" x="350" y="0"/><use xlink:href="#L1_446" x="-350" y="350"/><use xlink:href="#L1_446" x="0" y="350"/><use xlink:href="#L1_446" x="350" y="350"/></pattern><rect x="0" y="0" width="100%" height="100%" fill="url(#pattern_L1_446)"/></g><g fi:class="KUsePattern"><pattern id="pattern_L1_447" width="350" height="350" patternUnits="userSpaceOnUse"><use xlink:href="#L1_447" x="-350" y="-350"/><use xlink:href="#L1_447" x="0" y="-350"/><use xlink:href="#L1_447" x="350" y="-350"/><use xlink:href="#L1_447" x="-350" y="0"/><use xlink:href="#L1_447" x="0" y="0"/><use xlink:href="#L1_447" x="350" y="0"/><use xlink:href="#L1_447" x="-350" y="350"/><use xlink:href="#L1_447" x="0" y="350"/><use xlink:href="#L1_447" x="350" y="350"/></pattern><rect x="0" y="0" width="100%" height="100%" fill="url(#pattern_L1_447)"/></g><g fi:class="KUsePattern"><pattern id="pattern_L1_448" width="350" height="350" patternUnits="userSpaceOnUse"><use xlink:href="#L1_448" x="-350" y="-350"/><use xlink:href="#L1_448" x="0" y="-350"/><use xlink:href="#L1_448" x="350" y="-350"/><use xlink:href="#L1_448" x="-350" y="0"/><use xlink:href="#L1_448" x="0" y="0"/><use xlink:href="#L1_448" x="350" y="0"/><use xlink:href="#L1_448" x="-350" y="350"/><use xlink:href="#L1_448" x="0" y="350"/><use xlink:href="#L1_448" x="350" y="350"/></pattern><rect x="0" y="0" width="100%" height="100%" fill="url(#pattern_L1_448)"/></g><g fi:class="KUsePattern"><pattern id="pattern_L1_449" width="350" height="350" patternUnits="userSpaceOnUse"><use xlink:href="#L1_449" x="-350" y="-350"/><use xlink:href="#L1_449" x="0" y="-350"/><use xlink:href="#L1_449" x="350" y="-350"/><use xlink:href="#L1_449" x="-350" y="0"/><use xlink:href="#L1_449" x="0" y="0"/><use xlink:href="#L1_449" x="350" y="0"/><use xlink:href="#L1_449" x="-350" y="350"/><use xlink:href="#L1_449" x="0" y="350"/><use xlink:href="#L1_449" x="350" y="350"/></pattern><rect x="0" y="0" width="100%" height="100%" fill="url(#pattern_L1_449)"/></g><g fi:class="KUsePattern"><pattern id="pattern_L1_450" width="350" height="350" patternUnits="userSpaceOnUse"><use xlink:href="#L1_450" x="-350" y="-350"/><use xlink:href="#L1_450" x="0" y="-350"/><use xlink:href="#L1_450" x="350" y="-350"/><use xlink:href="#L1_450" x="-350" y="0"/><use xlink:href="#L1_450" x="0" y="0"/><use xlink:href="#L1_450" x="350" y="0"/><use xlink:href="#L1_450" x="-350" y="350"/><use xlink:href="#L1_450" x="0" y="350"/><use xlink:href="#L1_450" x="350" y="350"/></pattern><rect x="0" y="0" width="100%" height="100%" fill="url(#pattern_L1_450)"/></g><g fi:class="KUsePattern"><pattern id="pattern_L1_451" width="350" height="350" patternUnits="userSpaceOnUse"><use xlink:href="#L1_451" x="-350" y="-350"/><use xlink:href="#L1_451" x="0" y="-350"/><use xlink:href="#L1_451" x="350" y="-350"/><use xlink:href="#L1_451" x="-350" y="0"/><use xlink:href="#L1_451" x="0" y="0"/><use xlink:href="#L1_451" x="350" y="0"/><use xlink:href="#L1_451" x="-350" y="350"/><use xlink:href="#L1_451" x="0" y="350"/><use xlink:href="#L1_451" x="350" y="350"/></pattern><rect x="0" y="0" width="100%" height="100%" fill="url(#pattern_L1_451)"/></g><g fi:class="KUsePattern"><pattern id="pattern_L1_452" width="350" height="350" patternUnits="userSpaceOnUse"><use xlink:href="#L1_452" x="-350" y="-350"/><use xlink:href="#L1_452" x="0" y="-350"/><use xlink:href="#L1_452" x="350" y="-350"/><use xlink:href="#L1_452" x="-350" y="0"/><use xlink:href="#L1_452" x="0" y="0"/><use xlink:href="#L1_452" x="350" y="0"/><use xlink:href="#L1_452" x="-350" y="350"/><use xlink:href="#L1_452" x="0" y="350"/><use xlink:href="#L1_452" x="350" y="350"/></pattern><rect x="0" y="0" width="100%" height="100%" fill="url(#pattern_L1_452)"/></g><g fi:class="KUsePattern"><pattern id="pattern_L1_453" width="350" height="350" patternUnits="userSpaceOnUse"><use xlink:href="#L1_453" x="-350" y="-350"/><use xlink:href="#L1_453" x="0" y="-350"/><use xlink:href="#L1_453" x="350" y="-350"/><use xlink:href="#L1_453" x="-350" y="0"/><use xlink:href="#L1_453" x="0" y="0"/><use xlink:href="#L1_453" x="350" y="0"/><use xlink:href="#L1_453" x="-350" y="350"/><use xlink:href="#L1_453" x="0" y="350"/><use xlink:href="#L1_453" x="350" y="350"/></pattern><rect x="0" y="0" width="100%" height="100%" fill="url(#pattern_L1_453)"/></g><g fi:class="KUsePattern"><pattern id="pattern_L1_454" width="350" height="350" patternUnits="userSpaceOnUse"><use xlink:href="#L1_454" x="-350" y="-350"/><use xlink:href="#L1_454" x="0" y="-350"/><use xlink:href="#L1_454" x="350" y="-350"/><use xlink:href="#L1_454" x="-350" y="0"/><use xlink:href="#L1_454" x="0" y="0"/><use xlink:href="#L1_454" x="350" y="0"/><use xlink:href="#L1_454" x="-350" y="350"/><use xlink:href="#L1_454" x="0" y="350"/><use xlink:href="#L1_454" x="350" y="350"/></pattern><rect x="0" y="0" width="100%" height="100%" fill="url(#pattern_L1_454)"/></g><g fi:class="KUsePattern"><pattern id="pattern_L1_455" width="350" height="350" patternUnits="userSpaceOnUse"><use xlink:href="#L1_455" x="-350" y="-350"/><use xlink:href="#L1_455" x="0" y="-350"/><use xlink:href="#L1_455" x="350" y="-350"/><use xlink:href="#L1_455" x="-350" y="0"/><use xlink:href="#L1_455" x="0" y="0"/><use xlink:href="#L1_455" x="350" y="0"/><use xlink:href="#L1_455" x="-350" y="350"/><use xlink:href="#L1_455" x="0" y="350"/><use xlink:href="#L1_455" x="350" y="350"/></pattern><rect x="0" y="0" width="100%" height="100%" fill="url(#pattern_L1_455)"/></g></svg>