<svg xmlns="http://www.w3.org/2000/svg" xmlns:xlink="http://www.w3.org/1999/xlink" xmlns:fi="http://pattern.flaticon.com/" x="0" y="0" width="800" height="400" viewBox="0 0 811.5942028985506 405.7971014492753"><rect x="0px" y="0px" width="100%" height="100%" opacity="1" fill="#ffffff"/><defs><g transform="matrix(0.17578125 0 0 0.17578125 305 305)" id="L1_544"><path d="M503.983,0h-87.649c-4.427,0-8.017,3.588-8.017,8.017c0,4.428,3.589,8.017,8.017,8.017h79.633v197.745H373.578    c-0.598,0-1.178,0.071-1.738,0.195c-7.1-2.309-14.575-3.767-22.312-4.261v-16.777c0-0.789-0.041-1.568-0.115-2.338    c24.24-17.601,38.596-45.582,38.596-75.692c0-51.572-41.956-93.528-93.528-93.528s-93.528,41.956-93.528,93.528    c0,19.589,6.023,38.292,17.153,53.979H92.994V16.033h284.86c4.427,0,8.017-3.588,8.017-8.017c0-4.428-3.589-8.017-8.017-8.017    H84.977C80.55,0,76.96,3.588,76.96,8.017v160.868H24.05c-13.262,0-24.05,10.789-24.05,24.05v185.987    c0,13.261,10.788,24.05,24.05,24.05h97.269c4.427,0,8.017-3.588,8.017-8.017c0-4.428-3.589-8.017-8.017-8.017H24.05    c-4.421,0-8.017-3.596-8.017-8.017v-97.804h238.405c-1.412,6.373-2.18,12.984-2.18,19.775v23.516c0,0.298,0.019,0.591,0.05,0.881    c-10.456,5.523-18.193,15.528-20.622,27.445h-48.372c-4.427,0-8.017,3.588-8.017,8.017c0,4.428,3.589,8.017,8.017,8.017h47.566    v18.171h-73.219c-4.427,0-8.017,3.588-8.017,8.017c0,4.428,3.589,8.017,8.017,8.017h73.219v101.01    c0,4.428,3.589,8.017,8.017,8.017h209.503c4.427,0,8.017-3.588,8.017-8.017V360.752c0-15.349-8.676-28.704-21.378-35.436v-24.422    c0-28.686-13.296-54.314-34.037-71.081h102.98c4.427,0,8.017-3.588,8.017-8.017V8.017C512,3.588,508.411,0,503.983,0z     M216.985,114.906c0-42.731,34.764-77.495,77.495-77.495s77.495,34.764,77.495,77.495c0,23.949-10.962,46.272-29.608,60.927    c-4.346-4.293-10.313-6.948-16.888-6.948h-22.981v-7.482h6.948c10.314,0,18.706-8.392,18.706-18.706v-17.102    c0-10.314-8.392-18.706-18.706-18.706h-6.948V84.443h21.912c4.427,0,8.017-3.588,8.017-8.017c0-4.428-3.589-8.017-8.017-8.017    h-21.912v-9.086c0-4.428-3.589-8.017-8.017-8.017s-8.017,3.588-8.017,8.017v9.086h-6.948c-10.314,0-18.706,8.392-18.706,18.706    v17.102c0,10.314,8.392,18.706,18.706,18.706h6.948v22.447h-21.912c-4.427,0-8.017,3.588-8.017,8.017    c0,4.428,3.589,8.017,8.017,8.017h21.912v7.482h-47.575C224.765,154.345,216.985,135.194,216.985,114.906z M302.497,145.37    v-22.447h6.948c1.473,0,2.672,1.198,2.672,2.672v17.102c0,1.474-1.199,2.672-2.672,2.672H302.497z M286.464,84.443v22.447h-6.948    c-1.473,0-2.672-1.198-2.672-2.672V87.115c0-1.474,1.199-2.672,2.672-2.672H286.464z M16.033,192.935    c0-4.421,3.596-8.017,8.017-8.017h301.428c4.421,0,8.017,3.596,8.017,8.017v17.146c-13.216,1.469-25.586,5.762-36.497,12.268    c-0.126-0.005-0.251-0.019-0.379-0.019H16.033V192.935z M16.033,265.086v-26.722H277.09c-7.298,7.763-13.269,16.787-17.517,26.722    H16.033z M440.384,360.752v135.215h-193.47V360.752c0-13.261,10.788-24.05,24.05-24.05h145.37    C429.596,336.701,440.384,347.491,440.384,360.752z M333.495,281.119v39.549h-39.549v-19.775c0-7.039,1.479-13.735,4.129-19.809    c0.224,0.019,0.451,0.034,0.681,0.034H333.495z M309.232,265.086c6.609-6.355,14.959-10.91,24.263-12.849v12.849H309.232z     M349.528,320.668v-69.119c24.644,2.919,43.825,23.927,43.825,49.344v19.775H349.528z M419.006,300.894v19.874    c-0.884-0.059-9.62-0.099-9.62-0.099v-19.775c0-36.247-29.49-65.737-65.737-65.737s-65.737,29.49-65.737,65.737v19.775    c0,0-8.736,0.041-9.62,0.099v-19.874c0-41.552,33.805-75.357,75.357-75.357C385.201,225.537,419.006,259.341,419.006,300.894z"/><path d="M478.33,34.205h-68.409c-4.427,0-8.017,3.588-8.017,8.017c0,4.428,3.589,8.017,8.017,8.017h68.409    c4.427,0,8.017-3.588,8.017-8.017C486.347,37.793,482.757,34.205,478.33,34.205z"/><path d="M478.33,68.409h-51.307c-4.427,0-8.017,3.588-8.017,8.017c0,4.428,3.589,8.017,8.017,8.017h51.307    c4.427,0,8.017-3.588,8.017-8.017C486.347,71.997,482.757,68.409,478.33,68.409z"/><path d="M179.04,34.205H110.63c-4.427,0-8.017,3.588-8.017,8.017c0,4.428,3.589,8.017,8.017,8.017h68.409    c4.427,0,8.017-3.588,8.017-8.017C187.056,37.793,183.467,34.205,179.04,34.205z"/><path d="M161.937,68.409H110.63c-4.427,0-8.017,3.588-8.017,8.017c0,4.428,3.589,8.017,8.017,8.017h51.307    c4.427,0,8.017-3.588,8.017-8.017C169.954,71.997,166.365,68.409,161.937,68.409z"/><path d="M478.33,188.125h-25.653c-4.427,0-8.017,3.588-8.017,8.017s3.589,8.017,8.017,8.017h25.653    c4.427,0,8.017-3.588,8.017-8.017S482.757,188.125,478.33,188.125z"/><path d="M418.472,188.125h-25.653c-4.427,0-8.017,3.588-8.017,8.017s3.589,8.017,8.017,8.017h25.653    c4.427,0,8.017-3.588,8.017-8.017S422.899,188.125,418.472,188.125z"/><path d="M149.111,111.165c-11.493,0-20.843,9.351-20.843,20.843s9.351,20.843,20.843,20.843s20.843-9.351,20.843-20.843    S160.603,111.165,149.111,111.165z M149.111,136.818c-2.652,0-4.81-2.158-4.81-4.81s2.158-4.81,4.81-4.81s4.81,2.158,4.81,4.81    S151.763,136.818,149.111,136.818z"/><path d="M439.85,111.165c-11.493,0-20.843,9.351-20.843,20.843s9.351,20.843,20.843,20.843c11.493,0,20.843-9.351,20.843-20.843    S451.342,111.165,439.85,111.165z M439.85,136.818c-2.652,0-4.81-2.158-4.81-4.81s2.158-4.81,4.81-4.81    c2.652,0,4.81,2.158,4.81,4.81S442.502,136.818,439.85,136.818z"/><path d="M343.649,348.459c-37.426,0-67.875,30.448-67.875,67.875s30.448,67.875,67.875,67.875    c37.426,0,67.875-30.448,67.875-67.875S381.076,348.459,343.649,348.459z M343.649,468.175c-28.585,0-51.841-23.256-51.841-51.841    s23.256-51.841,51.841-51.841c28.585,0,51.841,23.256,51.841,51.841S372.235,468.175,343.649,468.175z"/><path d="M379.612,396.09c-2.916-3.333-7.98-3.668-11.313-0.755l-28.255,24.724l-13.951-15.502    c-2.962-3.291-8.031-3.557-11.322-0.595s-3.558,8.031-0.596,11.322l19.24,21.378c1.582,1.757,3.767,2.653,5.961,2.653    c1.875,0,3.757-0.653,5.277-1.983l34.205-29.929C382.189,404.486,382.527,399.422,379.612,396.09z"/></g><g transform="matrix(0.10869564861059189 0 0 0.10869564861059189 150 325)" opacity="0.95" id="L1_545"><path d="M172.758,452.82C73.426,427.377,0,337.264,0,230C0,102.975,102.975,0,230,0   c97.288,0,180.468,60.404,214.082,145.754L172.758,452.82z" fill="#c2fbff"/><path d="M444.08,145.754l-63.598-63.598L328,96.5l-15.59,43.02L83.1,254.27l40.314,40.314l-40.313,9.685   l37.5,37.5l-29.446,29.445l81.603,81.603C191.059,457.505,210.238,460,230,460c127.026,0,230-102.975,230-230   C460,200.262,454.355,171.843,444.08,145.754z" fill="#71e2f0"/><path d="M183.38,139.52 203.38,196.895 183.38,254.27 83.1,254.27 64.35,139.52z" fill="#5488a8"/><path d="M312.41,139.52 293.6,254.27 183.38,254.27 183.38,139.52z" fill="#366796"/><path d="M257.182,304.269H83.101v-20h174.081c11.657,0,23.099-9.719,24.984-21.222l23.424-142.903   c3.434-20.947,23.496-37.988,44.721-37.988h30.171v20h-30.171c-11.657,0-23.099,9.719-24.985,21.223l-23.424,142.903   C298.469,287.228,278.407,304.269,257.182,304.269z" fill="#121149"/><path d="M103.101,351.769l7.5,27.5c15.188,0,27.5-12.312,27.5-27.5s-12.312-27.5-27.5-27.5L103.101,351.769z   " fill="#121149"/><path d="M83.101,351.769c0,15.188,12.312,27.5,27.5,27.5v-55C95.413,324.269,83.101,336.581,83.101,351.769z   " fill="#273b7a"/><path d="M249.682,351.769l7.5,27.5c15.188,0,27.5-12.312,27.5-27.5s-12.312-27.5-27.5-27.5L249.682,351.769z   " fill="#121149"/><path d="M229.682,351.769c0,15.188,12.312,27.5,27.5,27.5v-55   C241.994,324.269,229.682,336.581,229.682,351.769z" fill="#273b7a"/><path d="M415.35,185.9v40.42c0,45.18-19.97,71.97-36.72,86.49c-17.96,15.57-35.96,20.5-37.96,21.01   l-4.96,1.27l-20-90.4l20-86.41L415.35,185.9z" fill="#ffedb5"/><path d="M335.71,158.28v176.81l-4.97-1.27c-1.99-0.51-20-5.44-37.95-21.01   c-16.76-14.52-36.73-41.31-36.73-86.49V185.9L335.71,158.28z" fill="#ffffff"/><path d="M395.35,200.131v26.19c0,72.844-59.643,88.125-59.643,88.125l-10.476-69.756l10.476-65.244   L395.35,200.131z" fill="#121149"/><path d="M276.064,200.131v26.19c0,72.844,59.643,88.125,59.643,88.125v-135L276.064,200.131z" fill="#d48b07"/></g><g transform="matrix(0.05859111621975899 0 0 0.05859111621975899 335 160)" id="L1_546"><path d="M472.417,64.449l-213.333-64c-1.997-0.598-4.126-0.598-6.123,0l-213.333,64  c-4.518,1.349-7.615,5.504-7.616,10.219v234.667c0,94.336,143.829,178.219,220.843,202.197c2.083,0.655,4.317,0.655,6.4,0  c76.928-23.979,220.757-107.861,220.757-202.197V74.667C480.013,69.958,476.926,65.805,472.417,64.449z" fill="#cfd8dc"/><path d="M392.417,174.763c-2.022-2.586-5.123-4.097-8.405-4.096h-224  c-5.891-0.001-10.668,4.773-10.669,10.664c0,0.717,0.072,1.433,0.216,2.136l21.333,106.667c1.014,4.967,5.384,8.534,10.453,8.533  c0.419,0.026,0.84,0.026,1.259,0l181.333-21.333c4.396-0.522,8.012-3.706,9.088-8l21.333-85.333  C395.183,180.787,394.465,177.373,392.417,174.763z" fill="#2196f3"/><g><path d="M159.691,157.419c-1.185-4.75-5.451-8.084-10.347-8.085h-42.667   c-5.891,0-10.667,4.776-10.667,10.667s4.776,10.667,10.667,10.667h34.325l40.661,162.581c1.558,5.681,7.426,9.024,13.108,7.466   c5.496-1.507,8.837-7.069,7.586-12.629L159.691,157.419z" fill="#1976d2"/><circle cx="234" cy="352" r="32" fill="#1976d2"/><circle cx="320" cy="352" r="32" fill="#1976d2"/></g></g><g transform="matrix(0.15086206793785095 0 0 0.15086206793785095 140 140)" id="L1_547"><path d="M 130.800781 64 L 16 64 C 7.164062 64 0 71.164062 0 80 L 0 112 L 120 112 C 119.96875 95.394531 123.65625 78.992188 130.800781 64 Z M 130.800781 64 " fill="#c6c5ca" fill-opacity="1" stroke="none"/><path d="M 120 112 L 0 112 L 0 176 L 140.160156 176 C 127.011719 157.25 119.96875 134.898438 120 112 Z M 120 112 " fill="#787680" fill-opacity="1" stroke="none"/><path d="M 32 304 L 112 304 L 112 336 L 32 336 Z M 32 304 " fill="#787680" fill-opacity="1" stroke="none"/><path d="M 144 304 L 224 304 L 224 336 L 144 336 Z M 144 304 " fill="#787680" fill-opacity="1" stroke="none"/><path d="M 448 64 L 333.199219 64 C 340.34375 78.992188 344.03125 95.394531 344 112 L 464 112 L 464 80 C 464 71.164062 456.835938 64 448 64 Z M 448 64 " fill="#e0e0e2" fill-opacity="1" stroke="none"/><path d="M 232 224 L 232 368 L 448 368 C 456.835938 368 464 360.835938 464 352 L 464 176 L 323.839844 176 C 302.957031 206.101562 268.636719 224.039062 232 224 Z M 232 224 " fill="#e0e0e2" fill-opacity="1" stroke="none"/><path d="M 140.160156 176 L 0 176 L 0 352 C 0 360.835938 7.164062 368 16 368 L 232 368 L 232 224 C 195.363281 224.039062 161.042969 206.101562 140.160156 176 Z M 112 336 L 32 336 L 32 304 L 112 304 Z M 144 336 L 144 304 L 224 304 L 224 336 Z M 144 336 " fill="#c6c5ca" fill-opacity="1" stroke="none"/><path d="M 323.839844 176 L 464 176 L 464 112 L 344 112 C 344.03125 134.898438 336.988281 157.25 323.839844 176 Z M 323.839844 176 " fill="#787680" fill-opacity="1" stroke="none"/><path d="M 272 88 L 288 88 L 288 168 L 232 168 L 232 224 C 293.855469 224 344 173.855469 344 112 C 344 50.144531 293.855469 0 232 0 L 232 48 C 254.089844 48 272 65.910156 272 88 Z M 272 88 " fill="#ffbcab" fill-opacity="1" stroke="none"/><path d="M 232 224 L 232 168 L 176 168 L 176 88 L 192 88 C 192 65.910156 209.910156 48 232 48 L 232 0 C 170.144531 0 120 50.144531 120 112 C 120 173.855469 170.144531 224 232 224 Z M 232 224 " fill="#ff9478" fill-opacity="1" stroke="none"/><path d="M 272 88 C 272 65.910156 254.089844 48 232 48 L 232 88 Z M 272 88 " fill="#ffbcab" fill-opacity="1" stroke="none"/><path d="M 232 48 C 209.910156 48 192 65.910156 192 88 L 232 88 Z M 232 48 " fill="#ff9478" fill-opacity="1" stroke="none"/><path d="M 288 88 L 232 88 L 232 168 L 288 168 Z M 288 88 " fill="#cd2a00" fill-opacity="1" stroke="none"/><path d="M 232 120 L 232 88 L 176 88 L 176 168 L 232 168 Z M 232 120 " fill="#cd2a00" fill-opacity="1" stroke="none"/><path d="M 232 48 C 208.582031 47.992188 188.589844 64.90625 184.71875 88 L 201.039062 88 C 204.722656 73.917969 217.445312 64.09375 232 64.09375 C 246.554688 64.09375 259.277344 73.917969 262.960938 88 L 279.28125 88 C 275.410156 64.90625 255.417969 47.992188 232 48 Z M 232 48 " fill="#f1f2f2" fill-opacity="1" stroke="none"/><path d="M 232 144 C 227.582031 144 224 140.417969 224 136 L 224 120 C 224 115.582031 227.582031 112 232 112 C 236.417969 112 240 115.582031 240 120 L 240 136 C 240 140.417969 236.417969 144 232 144 Z M 232 144 " fill="#f1f2f2" fill-opacity="1" stroke="none"/><path d="M 432 304 C 432 321.671875 417.671875 336 400 336 C 382.328125 336 368 321.671875 368 304 C 368 286.328125 382.328125 272 400 272 C 417.671875 272 432 286.328125 432 304 Z M 432 304 " fill="#ffaf46" fill-opacity="1" stroke="none"/><path d="M 376 304 C 376 321.671875 361.671875 336 344 336 C 326.328125 336 312 321.671875 312 304 C 312 286.328125 326.328125 272 344 272 C 361.671875 272 376 286.328125 376 304 Z M 376 304 " fill="#ff7956" fill-opacity="1" stroke="none"/></g><path d="M165,0C74.019,0,0,74.019,0,165s74.019,165,165,165c90.982,0,165-74.019,165-165S255.982,0,165,0z" transform="matrix(0.03030303120613098 0 0 0.03030303120613098 257.5 257.5)" id="L1_548" fill="#2a1ea9"/></defs><g fi:class="KUsePattern"><pattern id="pattern_L1_544" width="350" height="350" patternUnits="userSpaceOnUse"><use xlink:href="#L1_544" x="-350" y="-350"/><use xlink:href="#L1_544" x="0" y="-350"/><use xlink:href="#L1_544" x="350" y="-350"/><use xlink:href="#L1_544" x="-350" y="0"/><use xlink:href="#L1_544" x="0" y="0"/><use xlink:href="#L1_544" x="350" y="0"/><use xlink:href="#L1_544" x="-350" y="350"/><use xlink:href="#L1_544" x="0" y="350"/><use xlink:href="#L1_544" x="350" y="350"/></pattern><rect x="0" y="0" width="100%" height="100%" fill="url(#pattern_L1_544)"/></g><g fi:class="KUsePattern"><pattern id="pattern_L1_545" width="350" height="350" patternUnits="userSpaceOnUse"><use xlink:href="#L1_545" x="-350" y="-350"/><use xlink:href="#L1_545" x="0" y="-350"/><use xlink:href="#L1_545" x="350" y="-350"/><use xlink:href="#L1_545" x="-350" y="0"/><use xlink:href="#L1_545" x="0" y="0"/><use xlink:href="#L1_545" x="350" y="0"/><use xlink:href="#L1_545" x="-350" y="350"/><use xlink:href="#L1_545" x="0" y="350"/><use xlink:href="#L1_545" x="350" y="350"/></pattern><rect x="0" y="0" width="100%" height="100%" fill="url(#pattern_L1_545)"/></g><g fi:class="KUsePattern"><pattern id="pattern_L1_546" width="350" height="350" patternUnits="userSpaceOnUse"><use xlink:href="#L1_546" x="-350" y="-350"/><use xlink:href="#L1_546" x="0" y="-350"/><use xlink:href="#L1_546" x="350" y="-350"/><use xlink:href="#L1_546" x="-350" y="0"/><use xlink:href="#L1_546" x="0" y="0"/><use xlink:href="#L1_546" x="350" y="0"/><use xlink:href="#L1_546" x="-350" y="350"/><use xlink:href="#L1_546" x="0" y="350"/><use xlink:href="#L1_546" x="350" y="350"/></pattern><rect x="0" y="0" width="100%" height="100%" fill="url(#pattern_L1_546)"/></g><g fi:class="KUsePattern"><pattern id="pattern_L1_547" width="350" height="350" patternUnits="userSpaceOnUse"><use xlink:href="#L1_547" x="-350" y="-350"/><use xlink:href="#L1_547" x="0" y="-350"/><use xlink:href="#L1_547" x="350" y="-350"/><use xlink:href="#L1_547" x="-350" y="0"/><use xlink:href="#L1_547" x="0" y="0"/><use xlink:href="#L1_547" x="350" y="0"/><use xlink:href="#L1_547" x="-350" y="350"/><use xlink:href="#L1_547" x="0" y="350"/><use xlink:href="#L1_547" x="350" y="350"/></pattern><rect x="0" y="0" width="100%" height="100%" fill="url(#pattern_L1_547)"/></g><g fi:class="KUsePattern"><pattern id="pattern_L1_548" width="350" height="350" patternUnits="userSpaceOnUse"><use xlink:href="#L1_548" x="-350" y="-350"/><use xlink:href="#L1_548" x="0" y="-350"/><use xlink:href="#L1_548" x="350" y="-350"/><use xlink:href="#L1_548" x="-350" y="0"/><use xlink:href="#L1_548" x="0" y="0"/><use xlink:href="#L1_548" x="350" y="0"/><use xlink:href="#L1_548" x="-350" y="350"/><use xlink:href="#L1_548" x="0" y="350"/><use xlink:href="#L1_548" x="350" y="350"/></pattern><rect x="0" y="0" width="100%" height="100%" fill="url(#pattern_L1_548)"/></g></svg>