<svg height="512pt" viewBox="-49 0 512 512.00001" width="512pt" xmlns="http://www.w3.org/2000/svg"><path d="m279.457031 246.273438v-102.09375c0-56.503907-45.96875-102.476563-102.476562-102.476563-56.503907 0-102.472657 45.972656-102.472657 102.476563v102.09375h-41.703124v-102.09375c0-79.5 64.675781-144.179688 144.175781-144.179688 79.503906 0 144.179687 64.679688 144.179687 144.179688v102.09375zm0 0" fill="#bebebe"/><path d="m338.050781 485.730469h-322.136719c-8.789062 0-15.914062-7.125-15.914062-15.914063v-230.386718c0-8.789063 7.125-15.914063 15.914062-15.914063h322.136719c8.789063 0 15.914063 7.125 15.914063 15.914063v230.386718c0 8.789063-7.125 15.914063-15.914063 15.914063zm0 0" fill="#676a75"/><path d="m338.050781 223.515625h-35.601562v262.214844h35.601562c8.789063 0 15.914063-7.125 15.914063-15.914063v-230.386718c0-8.789063-7.125-15.914063-15.914063-15.914063zm0 0" fill="#454851"/><g fill="#ffe471"><path d="m106.191406 416.320312h-20.183594c-5.898437 0-10.675781-4.78125-10.675781-10.675781v-103.367187c0-5.894532 4.777344-10.675782 10.675781-10.675782h20.183594c5.894532 0 10.675782 4.78125 10.675782 10.675782v103.367187c0 5.894531-4.78125 10.675781-10.675782 10.675781zm0 0"/><path d="m187.074219 416.320312h-20.1875c-5.894531 0-10.671875-4.78125-10.671875-10.675781v-103.367187c0-5.894532 4.777344-10.675782 10.671875-10.675782h20.1875c5.894531 0 10.671875 4.78125 10.671875 10.675782v103.367187c.003906 5.894531-4.777344 10.675781-10.671875 10.675781zm0 0"/><path d="m267.957031 416.320312h-20.1875c-5.894531 0-10.671875-4.78125-10.671875-10.675781v-103.367187c0-5.894532 4.777344-10.675782 10.671875-10.675782h20.1875c5.894531 0 10.675781 4.78125 10.675781 10.675782v103.367187c0 5.894531-4.78125 10.675781-10.675781 10.675781zm0 0"/></g><path d="m75.332031 334.886719h41.535157v38.148437h-41.535157zm0 0" fill="#f79f48"/><path d="m156.214844 334.886719h41.535156v38.148437h-41.535156zm0 0" fill="#f79f48"/><path d="m237.097656 334.886719h41.535156v38.148437h-41.535156zm0 0" fill="#f79f48"/><path d="m414.878906 432.980469c0 43.640625-35.378906 79.019531-79.023437 79.019531-43.640625 0-79.019531-35.378906-79.019531-79.019531s35.378906-79.019531 79.019531-79.019531c43.644531 0 79.023437 35.378906 79.023437 79.019531zm0 0" fill="#75cff2"/><path d="m335.855469 353.960938c-9.089844 0-17.8125 1.554687-25.941407 4.378906 30.890626 10.738281 53.074219 40.089844 53.074219 74.640625s-22.183593 63.902343-53.074219 74.640625c8.128907 2.824218 16.851563 4.378906 25.941407 4.378906 43.640625 0 79.023437-35.378906 79.023437-79.019531-.003906-43.640625-35.382812-79.019531-79.023437-79.019531zm0 0" fill="#53b4e4"/><path d="m372.066406 401.1875c-3.335937-2.660156-8.195312-2.113281-10.855468 1.222656l-32.851563 41.203125-20.65625-19.160156c-3.125-2.902344-8.015625-2.71875-10.917969.410156-2.902344 3.128907-2.71875 8.015625.410156 10.917969 0 0 26.75 24.816406 26.757813 24.824219 3.230469 2.996093 8.566406 2.582031 11.296875-.847657l38.042969-47.714843c2.660156-3.335938 2.109375-8.195313-1.226563-10.855469zm0 0" fill="#fff"/></svg>