<svg height="512pt" viewBox="0 0 512 512" width="512pt" xmlns="http://www.w3.org/2000/svg"><path d="m512 256c0 141.386719-114.613281 256-256 256s-256-114.613281-256-256 114.613281-256 256-256 256 114.613281 256 256zm0 0" fill="#2d5396"/><path d="m263.144531 511.894531c138.082031-3.785156 248.855469-116.898437 248.855469-255.894531 0-7.816406-.371094-15.542969-1.054688-23.179688l-96.722656-96.71875-25.726562 30.726563-117.828125-117.828125-230.214844 216.742188 165.941406 165.9375c-6.117187 7.347656-10.644531 12.820312-10.644531 12.820312zm0 0" fill="#1b3b6b"/><path d="m225.730469 456c-24.773438 0-44.933594-20.15625-44.933594-44.933594v-16.066406h30v16.066406c0 8.234375 6.699219 14.933594 14.933594 14.933594 8.238281 0 14.9375-6.699219 14.9375-14.933594v-362.066406h30v362.066406c0 24.777344-20.15625 44.933594-44.9375 44.933594zm0 0" fill="#fff"/><path d="m255.714844 49v395.5c9.171875-8.230469 14.953125-20.167969 14.953125-33.433594v-362.066406zm0 0" fill="#dbeeff"/><path d="m76.378906 252.734375c18.375 0 34.683594 8.824219 44.90625 22.453125 10.222656-13.628906 26.53125-22.453125 44.90625-22.453125 18.371094 0 34.679688 8.824219 44.902344 22.453125 10.222656-13.628906 26.53125-22.453125 44.90625-22.453125s34.683594 8.824219 44.90625 22.453125c10.222656-13.628906 26.53125-22.453125 44.902344-22.453125 18.375 0 34.683594 8.824219 44.90625 22.453125 10.222656-13.628906 26.53125-22.453125 44.90625-22.453125 13.671875 0 26.195312 4.890625 35.921875 13.003906-9.046875-111.121093-102.085938-198.484375-215.542969-198.484375s-206.496094 87.363282-215.546875 198.488282c9.730469-8.117188 22.253906-13.007813 35.925781-13.007813zm0 0" fill="#abddff"/><path d="m256 67.253906c-.09375 0-.191406 0-.285156 0v185.488282c.09375 0 .1875-.007813.285156-.007813 18.375 0 34.683594 8.824219 44.90625 22.453125 10.222656-13.632812 26.53125-22.453125 44.902344-22.453125 18.375 0 34.683594 8.820313 44.90625 22.453125 10.222656-13.632812 26.53125-22.453125 44.90625-22.453125 13.671875 0 26.195312 4.890625 35.921875 13.003906-9.046875-111.121093-102.085938-198.484375-215.542969-198.484375zm0 0" fill="#78beff"/><path d="m305.828125 163.078125h-30v-28.445313c0-10.933593-8.894531-19.828124-19.828125-19.828124s-19.828125 8.894531-19.828125 19.828124v28.445313h-30v-28.445313c0-27.476562 22.355469-49.828124 49.828125-49.828124s49.828125 22.351562 49.828125 49.828124zm0 0" fill="#4a7aff"/><path d="m256 84.804688c-.097656 0-.191406.007812-.285156.007812v30.007812c.09375-.003906.1875-.015624.285156-.015624 10.933594 0 19.828125 8.894531 19.828125 19.828124v28.445313h30v-28.445313c0-27.476562-22.351563-49.828124-49.828125-49.828124zm0 0" fill="#2864f0"/><path d="m200.179688 154.199219h111.644531v78.976562h-111.644531zm0 0" fill="#2d5396"/><path d="m255.714844 154.199219h56.105468v78.976562h-56.105468zm0 0" fill="#1b3b6b"/><path d="m246.300781 179.570312h19.394531v34.902344h-19.394531zm0 0" fill="#4a98f7"/><path d="m255.714844 179.570312h9.980468v34.902344h-9.980468zm0 0" fill="#4a7aff"/></svg>