<svg height="512pt" viewBox="-18 0 512 512" width="512pt" xmlns="http://www.w3.org/2000/svg"><path d="m459.769531 512h-443.46875c-9 0-16.300781-7.300781-16.300781-16.300781v-295.28125c0-9.003907 7.300781-16.304688 16.300781-16.304688h443.46875c9.003907 0 16.300781 7.300781 16.300781 16.304688v295.28125c0 9-7.296874 16.300781-16.300781 16.300781zm0 0" fill="#ffe471"/><path d="m459.769531 512h-443.46875c-9 0-16.300781-7.300781-16.300781-16.300781v-295.28125c0-9.003907 7.300781-16.304688 16.300781-16.304688h443.46875c9.003907 0 16.300781 7.300781 16.300781 16.304688v295.28125c0 9-7.296874 16.300781-16.300781 16.300781zm0 0" fill="#ffe471"/><path d="m16.300781 512h443.46875c9.003907 0 16.300781-7.300781 16.300781-16.300781v-295.28125c0-9.003907-7.296874-16.304688-16.300781-16.304688h-35.402343v270.089844c0 6.980469-5.660157 12.640625-12.640626 12.640625h-411.726562v28.855469c0 9 7.300781 16.300781 16.300781 16.300781zm0 0" fill="#f2ca20"/><path d="m238.035156 311.933594 233.996094 194.484375c-2.988281 3.414062-7.367188 5.582031-12.261719 5.582031h-443.46875c-4.894531 0-9.269531-2.167969-12.257812-5.582031zm0 0" fill="#ead168"/><path d="m472.066406 506.378906c-.019531-.015625-.035156-.027344-.035156-.027344l-51.703125-42.90625c-2.257813 2.105469-5.273437 3.398438-8.601563 3.398438h-360.074218l-47.601563 39.582031c2.984375 3.410157 7.359375 5.574219 12.25 5.574219h443.46875c4.914063 0 9.308594-2.183594 12.296875-5.621094zm0 0" fill="#ddc357"/><path d="m246.917969 376.800781 225.113281-187.105469c-2.988281-3.414062-7.367188-5.578124-12.261719-5.578124h-443.46875c-4.894531 0-9.269531 2.164062-12.257812 5.578124l225.109375 187.105469c5.148437 4.277344 12.617187 4.277344 17.765625 0zm0 0" fill="#f79f48"/><path d="m336.304688 0h-273.914063c-5.902344 0-10.6875 4.785156-10.6875 10.6875v218.625l177.449219 147.488281c5.148437 4.277344 12.617187 4.277344 17.765625 0l177.449219-147.488281v-141.25zm0 0" fill="#ededed"/><path d="m424.367188 88.0625h-71.003907v19.105469c0 6.523437 5.175781 11.8125 11.566407 11.8125h7.785156v153.261719l51.652344-42.929688zm0 0" fill="#d6d6d6"/><path d="m336.304688 76.25v-76.25l88.0625 88.0625h-76.25c-6.523438 0-11.8125-5.289062-11.8125-11.8125zm0 0" fill="#75cff2"/><path d="m318.671875 165.886719c-15.648437-6.605469-26.515625-21.414063-27.914063-38.601563-.191406-2.347656-2.179687-4.148437-4.539062-4.148437h-96.367188c-2.382812 0-4.34375 1.84375-4.539062 4.21875-1.425781 17.171875-12.304688 31.964843-27.957031 38.546875-2.652344 1.117187-4.253907 3.835937-3.972657 6.699218 2.066407 20.949219 14.398438 92.320313 83.730469 124.792969.578125.273438 1.269531.273438 1.847657 0 69.328124-32.472656 81.660156-103.835937 83.730468-124.792969.285156-2.875-1.351562-5.589843-4.019531-6.714843zm0 0" fill="#75cff2"/><path d="m318.671875 165.886719c-15.648437-6.605469-26.515625-21.414063-27.914063-38.601563-.191406-2.347656-2.179687-4.148437-4.539062-4.148437h-47.488281c-.152344 18.910156 11.15625 35.59375 28.03125 42.734375 2.679687 1.132812 4.339843 3.832031 4.054687 6.726562-1.789062 18.125-11.269531 74.011719-58.71875 109.777344 7.382813 5.566406 15.679688 10.648438 25.011719 15.023438.289063.132812.609375.203124.925781.203124.320313 0 .636719-.070312.925782-.203124 69.324218-32.472657 81.660156-103.839844 83.730468-124.792969.285156-2.878907-1.351562-5.59375-4.019531-6.71875zm0 0" fill="#53b4e4"/><path d="m94.785156 47.128906h74.886719c4.265625 0 7.726563-3.460937 7.726563-7.726562 0-4.269532-3.460938-7.726563-7.726563-7.726563h-74.886719c-4.265625 0-7.726562 3.457031-7.726562 7.726563 0 4.265625 3.460937 7.726562 7.726562 7.726562zm0 0" fill="#53b4e4"/><path d="m277.824219 174.085938c-3.335938-2.660157-8.195313-2.109376-10.855469 1.226562l-32.339844 40.558594-20.292968-18.824219c-3.128907-2.902344-8.019532-2.71875-10.921876.40625-2.898437 3.128906-2.71875 8.019531.410157 10.921875l26.398437 24.488281c1.433594 1.332031 3.3125 2.0625 5.253906 2.0625.195313 0 .386719-.007812.578126-.023437 2.144531-.160156 4.125-1.207032 5.464843-2.886719l37.53125-47.070313c2.660157-3.335937 2.109375-8.199218-1.226562-10.859374zm0 0" fill="#ededed"/><path d="m169.671875 62.730469h-74.886719c-4.265625 0-7.726562 3.460937-7.726562 7.726562 0 4.269531 3.460937 7.726563 7.726562 7.726563h74.886719c4.265625 0 7.726563-3.457032 7.726563-7.726563 0-4.265625-3.460938-7.726562-7.726563-7.726562zm0 0" fill="#53b4e4"/></svg>