<svg xmlns="http://www.w3.org/2000/svg" height="511pt" version="1.1" viewBox="0 1 511 511.99995" width="511pt">
<g id="surface1">
<path d="M 271.46875 15 L 271.46875 464.5 C 271.46875 478.089844 265.730469 490.359375 256.550781 499.03125 C 248.039062 507.058594 236.582031 512 223.972656 512 C 197.773438 512 176.472656 490.691406 176.472656 464.5 L 176.472656 430.003906 C 176.472656 421.714844 183.183594 415.003906 191.472656 415.003906 C 199.753906 415.003906 206.472656 421.714844 206.472656 430.003906 L 206.472656 464.5 C 206.472656 474.152344 214.320312 482 223.972656 482 C 233.609375 482 241.46875 474.152344 241.46875 464.5 L 241.46875 15 C 241.46875 6.71875 248.179688 0 256.46875 0 L 256.550781 0 C 264.789062 0.0390625 271.46875 6.75 271.46875 15 Z M 271.46875 15 " style=" stroke:none;fill-rule:nonzero;fill:rgb(41.176471%,43.137255%,45.098039%);fill-opacity:1;" />
<path d="M 271.46875 15 L 271.46875 464.5 C 271.46875 478.089844 265.730469 490.359375 256.550781 499.03125 L 256.550781 0 C 264.789062 0.0390625 271.46875 6.75 271.46875 15 Z M 271.46875 15 " style=" stroke:none;fill-rule:nonzero;fill:rgb(21.568627%,23.529412%,25.490196%);fill-opacity:1;" />
<path d="M 512.429688 235.949219 L 512.429688 236.050781 C 512.429688 242.582031 509.96875 248.5 505.300781 253.171875 C 500.628906 257.851562 494.710938 260.320312 488.171875 260.320312 C 482.441406 260.320312 476.960938 258.167969 471.890625 253.941406 L 471.242188 253.359375 C 462.8125 245.449219 454.863281 239.519531 447.632812 235.742188 C 441.332031 232.449219 433.734375 230.78125 425.035156 230.78125 C 414.644531 230.78125 405.09375 233.5625 395.835938 239.269531 C 386.035156 245.308594 377.464844 253.378906 370.367188 263.269531 C 369.304688 264.78125 367.835938 267.128906 365.996094 270.28125 C 363.195312 275.078125 362.015625 276.949219 361.375 277.910156 C 356.464844 285.429688 349.144531 289.570312 340.746094 289.570312 C 332.167969 289.570312 324.746094 285.429688 319.835938 277.910156 C 319.1875 276.9375 317.996094 275.070312 315.175781 270.230469 C 313.367188 267.140625 311.898438 264.78125 310.835938 263.269531 C 303.738281 253.371094 295.207031 245.289062 285.46875 239.242188 C 276.347656 233.570312 266.890625 230.800781 256.550781 230.78125 L 256.460938 230.78125 C 246.101562 230.78125 236.609375 233.550781 227.449219 239.242188 C 217.730469 245.28125 209.203125 253.359375 202.101562 263.238281 C 200.992188 264.839844 199.523438 267.199219 197.722656 270.269531 C 194.921875 275.089844 193.742188 276.9375 193.101562 277.898438 C 188.191406 285.429688 180.761719 289.570312 172.183594 289.570312 C 163.785156 289.570312 156.453125 285.429688 151.535156 277.890625 C 150.902344 276.9375 149.734375 275.089844 146.902344 270.238281 C 145.132812 267.199219 143.664062 264.839844 142.554688 263.25 C 135.464844 253.378906 126.90625 245.308594 117.09375 239.269531 C 107.835938 233.5625 98.285156 230.78125 87.898438 230.78125 C 79.195312 230.78125 71.597656 232.449219 65.308594 235.742188 C 58.058594 239.519531 50.109375 245.449219 41.6875 253.359375 L 41.027344 253.941406 C 35.957031 258.167969 30.488281 260.320312 24.757812 260.320312 C 18.238281 260.320312 12.320312 257.851562 7.640625 253.179688 C 2.96875 248.519531 0.5 242.601562 0.5 236.050781 C 0.5 234.402344 0.609375 232.109375 1.421875 229.621094 C 10.75 192.273438 28.699219 159.183594 54.789062 131.253906 C 80.808594 103.394531 111.65625 82.226562 146.496094 68.335938 C 181.042969 54.558594 218.042969 47.578125 256.460938 47.578125 L 256.550781 47.578125 C 284.878906 47.589844 313.039062 51.699219 340.238281 59.789062 C 367.484375 67.886719 392.835938 79.566406 415.574219 94.496094 C 438.601562 109.605469 458.871094 129.074219 475.8125 152.363281 C 492.660156 175.554688 504.671875 201.550781 511.511719 229.660156 C 512.289062 232.082031 512.421875 234.320312 512.429688 235.949219 Z M 512.429688 235.949219 " style=" stroke:none;fill-rule:nonzero;fill:rgb(100%,89.411765%,46.666667%);fill-opacity:1;" />
<path d="M 512.429688 235.949219 L 512.429688 236.050781 C 512.429688 242.582031 509.96875 248.5 505.300781 253.171875 C 500.628906 257.851562 494.710938 260.320312 488.171875 260.320312 C 482.441406 260.320312 476.960938 258.167969 471.890625 253.941406 L 471.242188 253.359375 C 462.8125 245.449219 454.863281 239.519531 447.632812 235.742188 C 441.332031 232.449219 433.734375 230.78125 425.035156 230.78125 C 414.644531 230.78125 405.09375 233.5625 395.835938 239.269531 C 386.035156 245.308594 377.464844 253.378906 370.367188 263.269531 C 369.304688 264.78125 367.835938 267.128906 365.996094 270.28125 C 363.195312 275.078125 362.015625 276.949219 361.375 277.910156 C 356.464844 285.429688 349.144531 289.570312 340.746094 289.570312 C 332.167969 289.570312 324.746094 285.429688 319.835938 277.910156 C 319.1875 276.9375 317.996094 275.070312 315.175781 270.230469 C 313.367188 267.140625 311.898438 264.78125 310.835938 263.269531 C 303.738281 253.371094 295.207031 245.289062 285.46875 239.242188 C 276.347656 233.570312 266.890625 230.800781 256.550781 230.78125 L 256.550781 47.578125 C 284.878906 47.589844 313.039062 51.699219 340.238281 59.789062 C 367.484375 67.886719 392.835938 79.566406 415.574219 94.496094 C 438.601562 109.605469 458.871094 129.074219 475.8125 152.363281 C 492.660156 175.554688 504.671875 201.550781 511.511719 229.660156 C 512.289062 232.082031 512.421875 234.320312 512.429688 235.949219 Z M 512.429688 235.949219 " style=" stroke:none;fill-rule:nonzero;fill:rgb(100%,80.392157%,0%);fill-opacity:1;" />
</g>
</svg>