<svg height="512pt" viewBox="-52 0 512 512" width="512pt" xmlns="http://www.w3.org/2000/svg"><path d="m353.214844 369.039062v85.375c0 2.046876-1.65625 3.703126-3.699219 3.703126h-291.929687c-2.046876 0-3.703126-1.65625-3.703126-3.703126v-85.375c0-12.992187-10.53125-23.519531-23.523437-23.519531h-6.839844c-12.988281 0-23.519531 10.53125-23.519531 23.519531v118.382813c0 13.574219 11.003906 24.578125 24.578125 24.578125h357.941406c13.578125 0 24.582031-11.003906 24.582031-24.578125v-118.382813c0-12.992187-10.53125-23.519531-23.523437-23.519531h-6.839844c-12.992187 0-23.523437 10.53125-23.523437 23.519531zm0 0" fill="#676a75"/><path d="m383.578125 345.519531h-6.839844c-9.578125 0-17.8125 5.726563-21.480469 13.941407v152.539062h27.261719c13.574219 0 24.582031-11.003906 24.582031-24.578125v-118.382813c-.003906-12.988281-10.535156-23.519531-23.523437-23.519531zm0 0" fill="#454851"/><path d="m235.894531 297.8125v-81.8125h-64.691406v81.8125h-55.164063c-1.867187 0-2.800781 2.261719-1.480468 3.582031l87.507812 87.507813c.816406.816406 2.144532.816406 2.964844 0l87.507812-87.507813c1.320313-1.320312.382813-3.582031-1.484374-3.582031zm0 0" fill="#f43b45"/><path d="m327.886719 124.335938c0 68.671874-55.667969 124.339843-124.335938 124.339843-68.671875 0-124.339843-55.667969-124.339843-124.339843 0-68.667969 55.667968-124.335938 124.339843-124.335938 68.667969 0 124.335938 55.667969 124.335938 124.335938zm0 0" fill="#d6d6d6"/><path d="m203.550781 0c-8.890625 0-17.5625.941406-25.921875 2.714844 56.226563 11.925781 98.414063 61.84375 98.414063 121.621094 0 59.78125-42.1875 109.699218-98.414063 121.625 8.359375 1.773437 17.03125 2.714843 25.921875 2.714843 68.667969 0 124.335938-55.667969 124.335938-124.339843 0-68.667969-55.667969-124.335938-124.335938-124.335938zm0 0" fill="#bebebe"/><g fill="#2a4d5e"><path d="m164.550781 129.355469h-27.78125c-4.265625 0-7.726562-3.457031-7.726562-7.722657 0-4.269531 3.460937-7.726562 7.726562-7.726562h27.78125c4.265625 0 7.722657 3.457031 7.722657 7.726562.003906 4.265626-3.457032 7.722657-7.722657 7.722657zm0 0"/><path d="m270.328125 129.355469h-27.777344c-4.269531 0-7.726562-3.457031-7.726562-7.722657 0-4.269531 3.457031-7.726562 7.726562-7.726562h27.777344c4.265625 0 7.726563 3.457031 7.726563 7.726562 0 4.265626-3.460938 7.722657-7.726563 7.722657zm0 0"/><path d="m141.054688 184.308594c-4.214844-.667969-7.203126-4.449219-6.640626-8.679688l1.417969-10.617187c1.570313-11.789063 9.363281-21.964844 20.332031-26.554688l6.332032-2.648437c3.9375-1.648438 8.464844.207031 10.109375 4.140625 1.648437 3.9375-.207031 8.464843-4.144531 10.113281l-6.328126 2.648438c-5.929687 2.480468-10.136718 7.972656-10.984374 14.34375l-1.414063 10.617187c-.519531 3.882813-5.089844 7.203125-8.679687 6.636719zm0 0"/><path d="m257.292969 177.144531-1.34375-10.089843c-.847657-6.367188-5.058594-11.863282-10.980469-14.34375l-6.332031-2.648438c-3.9375-1.648438-5.792969-6.175781-4.144531-10.109375 1.648437-3.9375 6.175781-5.792969 10.109374-4.144531l6.332032 2.648437c10.96875 4.589844 18.761718 14.765625 20.332031 26.554688l1.347656 10.089843c.5625 4.230469-2.402343 8.164063-6.640625 8.679688-3.863281.46875-8.160156-2.753906-8.679687-6.636719zm0 0"/><path d="m164.96875 109.941406c-.996094 0-2.003906-.195312-2.980469-.601562l-5.824219-2.4375c-10.96875-4.589844-18.761718-14.765625-20.332031-26.554688l-1.226562-9.203125c-.566407-4.230469 2.40625-8.117187 6.636719-8.679687 4.222656-.566406 8.113281 2.40625 8.679687 6.636718l1.226563 9.203126c.847656 6.367187 5.054687 11.863281 10.980468 14.34375l5.824219 2.4375c3.9375 1.644531 5.792969 6.171874 4.144531 10.109374-1.238281 2.960938-4.109375 4.746094-7.128906 4.746094zm0 0"/><path d="m242.128906 109.941406c-3.019531 0-5.890625-1.785156-7.132812-4.746094-1.644532-3.9375.210937-8.464843 4.148437-10.109374l5.820313-2.4375c5.925781-2.480469 10.136718-7.976563 10.984375-14.34375l1.226562-9.203126c.5625-4.230468 4.464844-7.203124 8.679688-6.636718 4.230469.5625 7.203125 4.449218 6.636719 8.679687l-1.226563 9.203125c-1.570313 11.789063-9.363281 21.964844-20.335937 26.554688l-5.820313 2.4375c-.972656.40625-1.988281.601562-2.980469.601562zm0 0"/></g><path d="m188.6875 66.121094c9.152344-5.46875 20.570312-5.46875 29.722656 0 14.972656 8.949218 24.140625 25.105468 24.140625 42.542968v27.320313c0 14.519531-11.773437 26.289063-26.292969 26.289063h-25.417968c-14.519532 0-26.289063-11.769532-26.289063-26.289063v-27.320313c0-17.4375 9.164063-33.59375 24.136719-42.542968zm0 0" fill="#f43b45"/><path d="m195.824219 63.070312v77.542969c5.074219 1.238281 10.375 1.238281 15.453125 0v-77.542969c-5.054688-1.398437-10.402344-1.398437-15.453125 0zm0 0" fill="#cf3735"/><path d="m190.839844 162.277344h25.417968c5.875 0 11.296876-1.925782 15.671876-5.179688 9.054687-6.734375 4.324218-21.113281-6.960938-21.113281h-42.855469c-11.035156 0-16.078125 14.050781-7.351562 20.804687 4.445312 3.4375 10.023437 5.488282 16.078125 5.488282zm0 0" fill="#676a75"/><path d="m216.257812 162.277344h-25.417968c-5.921875 0-11.386719-1.957032-15.777344-5.261719-.316406 1.707031-.476562 3.464844-.476562 5.261719 0 15.996094 12.964843 28.960937 28.964843 28.960937 15.996094 0 28.960938-12.964843 28.960938-28.960937 0-1.796875-.164063-3.554688-.476563-5.261719-4.394531 3.300781-9.855468 5.261719-15.777344 5.261719zm0 0" fill="#8c4949"/></svg>