<svg height="512pt" viewBox="0 0 512 512" width="512pt" xmlns="http://www.w3.org/2000/svg"><path d="m512 256c0 141.386719-114.613281 256-256 256s-256-114.613281-256-256 114.613281-256 256-256 256 114.613281 256 256zm0 0" fill="#a4d852"/><path d="m256 0c-8.753906 0-17.398438.441406-25.925781 1.300781 129.207031 12.996094 230.074219 122.066407 230.074219 254.699219s-100.867188 241.703125-230.074219 254.699219c8.527343.859375 17.171875 1.300781 25.925781 1.300781 141.386719 0 256-114.613281 256-256s-114.613281-256-256-256zm0 0" fill="#97c63e"/><path d="m256 174.273438c-81.949219 0-125.425781 66.261718-133.269531 79.457031-.816407 1.371093-.816407 3.167969 0 4.539062 7.84375 13.195313 51.320312 79.457031 133.269531 79.457031s125.425781-66.261718 133.269531-79.457031c.816407-1.371093.816407-3.167969 0-4.539062-7.84375-13.195313-51.320312-79.457031-133.269531-79.457031zm0 0" fill="#ededed"/><path d="m389.269531 253.730469c-7.84375-13.195313-51.320312-79.457031-133.269531-79.457031-9.117188 0-17.757812.824218-25.925781 2.300781 65.253906 11.789062 100.371093 65.429687 107.34375 77.15625.8125 1.371093.8125 3.167969 0 4.539062-6.972657 11.726563-42.089844 65.367188-107.34375 77.15625 8.167969 1.476563 16.808593 2.300781 25.925781 2.300781 81.949219 0 125.425781-66.261718 133.269531-79.457031.816407-1.371093.816407-3.167969 0-4.539062zm0 0" fill="#d6d6d6"/><path d="m301.304688 256c0 25.019531-20.285157 45.304688-45.304688 45.304688s-45.304688-20.285157-45.304688-45.304688 20.285157-45.304688 45.304688-45.304688 45.304688 20.285157 45.304688 45.304688zm0 0" fill="#75cff2"/><path d="m256 210.695312c-9.644531 0-18.578125 3.027344-25.925781 8.164063 11.710937 8.191406 19.375 21.765625 19.375 37.140625s-7.664063 28.949219-19.375 37.140625c7.347656 5.136719 16.28125 8.164063 25.925781 8.164063 25.019531 0 45.304688-20.285157 45.304688-45.304688s-20.285157-45.304688-45.304688-45.304688zm0 0" fill="#53b4e4"/><path d="m244.644531 224.0625c0 11.367188-9.214843 20.582031-20.582031 20.582031-11.363281 0-20.578125-9.214843-20.578125-20.582031 0-11.363281 9.214844-20.578125 20.578125-20.578125 11.367188 0 20.582031 9.214844 20.582031 20.578125zm0 0" fill="#fff"/><g fill="#ededed"><path d="m263.726562 88.914062v-49.253906c0-4.265625-3.460937-7.722656-7.726562-7.722656s-7.726562 3.457031-7.726562 7.722656v49.253906c0 4.269532 3.460937 7.726563 7.726562 7.726563s7.726562-3.457031 7.726562-7.726563zm0 0"/><path d="m248.273438 423.085938v49.253906c0 4.265625 3.460937 7.726562 7.726562 7.726562s7.726562-3.460937 7.726562-7.726562v-49.253906c0-4.265626-3.460937-7.726563-7.726562-7.726563s-7.726562 3.457031-7.726562 7.726563zm0 0"/><path d="m480.0625 256c0-4.265625-3.457031-7.726562-7.722656-7.726562h-49.253906c-4.269532 0-7.726563 3.460937-7.726563 7.726562s3.457031 7.726562 7.726563 7.726562h49.253906c4.265625 0 7.722656-3.460937 7.722656-7.726562zm0 0"/><path d="m31.9375 256c0 4.265625 3.457031 7.726562 7.722656 7.726562h49.253906c4.269532 0 7.726563-3.460937 7.726563-7.726562s-3.457031-7.726562-7.726563-7.726562h-49.253906c-4.265625 0-7.722656 3.460937-7.722656 7.726562zm0 0"/><path d="m75.261719 221.433594c6.890625-36.253906 24.402343-69.285156 50.648437-95.53125 26.242188-26.242188 59.277344-43.753906 95.53125-50.640625 4.191406-.796875 6.945313-4.839844 6.148438-9.035157-.800782-4.191406-4.839844-6.941406-9.035156-6.148437-39.3125 7.472656-75.125 26.453125-103.570313 54.898437-28.445313 28.445313-47.429687 64.257813-54.902344 103.570313-.796875 4.191406 1.953125 8.257813 6.148438 9.03125 3.957031.734375 8.328125-2.441406 9.03125-6.144531zm0 0"/><path d="m397.023438 114.980469c-28.445313-28.445313-64.261719-47.429688-103.570313-54.898438-4.191406-.796875-8.234375 1.953125-9.03125 6.148438-.800781 4.191406 1.953125 8.234375 6.144531 9.03125 36.253906 6.890625 69.289063 24.402343 95.53125 50.648437 26.242188 26.242188 43.753906 59.277344 50.640625 95.527344.707031 3.707031 3.945313 6.285156 7.582031 6.285156.480469 0 .964844-.042968 1.453126-.136718 4.191406-.796876 6.945312-4.839844 6.148437-9.03125-7.472656-39.3125-26.453125-75.125-54.898437-103.574219zm0 0"/><path d="m114.976562 397.019531c28.445313 28.445313 64.277344 47.332031 103.570313 54.898438 4.640625.894531 8.328125-2.441407 9.03125-6.148438.800781-4.191406-1.953125-8.234375-6.144531-9.03125-36.253906-6.890625-69.289063-24.402343-95.53125-50.648437-26.242188-26.242188-43.753906-59.277344-50.640625-95.527344-.796875-4.195312-4.839844-6.941406-9.035157-6.148438-4.191406.796876-6.945312 4.839844-6.148437 9.03125 7.472656 39.3125 26.453125 75.125 54.898437 103.574219zm0 0"/><path d="m293.445312 451.921875c39.3125-7.472656 75.125-26.453125 103.570313-54.898437 28.449219-28.445313 47.429687-64.257813 54.902344-103.570313.796875-4.191406-1.957031-8.234375-6.148438-9.03125-4.195312-.796875-8.234375 1.953125-9.03125 6.144531-6.890625 36.253906-24.402343 69.285156-50.648437 95.53125-26.242188 26.242188-59.277344 43.753906-95.53125 50.640625-4.191406.796875-6.984375 4.847657-6.148438 9.035157 1.339844 6.683593 8.546875 6.238281 9.035156 6.148437zm0 0"/></g></svg>