<svg xmlns="http://www.w3.org/2000/svg" height="512pt" version="1.1" viewBox="0 -158 512.00001 512" width="512pt">
<g id="surface1">
<path d="M 312.550781 118.464844 C 306.996094 124.617188 297.503906 125.097656 291.347656 119.535156 C 281.472656 110.609375 268.957031 106.097656 256.410156 106.046875 C 244.214844 105.996094 231.988281 110.167969 222.140625 118.585938 L 220.691406 119.816406 C 217.867188 122.226562 214.398438 123.40625 210.957031 123.40625 C 206.710938 123.40625 202.5 121.625 199.539062 118.152344 C 194.15625 111.851562 194.894531 102.375 201.199219 96.992188 L 202.640625 95.761719 C 218.089844 82.554688 237.257812 76 256.410156 76.050781 C 276.179688 76.101562 295.910156 83.195312 311.480469 97.273438 C 317.632812 102.824219 318.113281 112.320312 312.550781 118.464844 Z M 312.550781 118.464844 " style=" stroke:none;fill-rule:nonzero;fill:rgb(88.235294%,92.156863%,94.117647%);fill-opacity:1;" />
<path d="M 44.273438 91.195312 L 15.007812 91.195312 C 6.71875 91.195312 0 84.476562 0 76.1875 C 0 67.898438 6.71875 61.179688 15.007812 61.179688 L 44.273438 61.179688 C 52.5625 61.179688 59.28125 67.898438 59.28125 76.1875 C 59.28125 84.476562 52.5625 91.195312 44.273438 91.195312 Z M 44.273438 91.195312 " style=" stroke:none;fill-rule:nonzero;fill:rgb(88.235294%,92.156863%,94.117647%);fill-opacity:1;" />
<path d="M 496.992188 91.195312 L 467.726562 91.195312 C 459.4375 91.195312 452.71875 84.476562 452.71875 76.1875 C 452.71875 67.898438 459.4375 61.179688 467.726562 61.179688 L 496.992188 61.179688 C 505.28125 61.179688 512 67.898438 512 76.1875 C 512 84.476562 505.28125 91.195312 496.992188 91.195312 Z M 496.992188 91.195312 " style=" stroke:none;fill-rule:nonzero;fill:rgb(70.588235%,82.352941%,84.313725%);fill-opacity:1;" />
<path d="M 323.375 70.019531 C 318.441406 76.679688 309.046875 78.070312 302.382812 73.140625 C 289.398438 63.515625 272.910156 58.683594 256.410156 58.691406 C 240.550781 58.703125 224.664062 63.175781 211.855469 72.148438 L 210.105469 73.371094 C 207.484375 75.210938 204.480469 76.089844 201.511719 76.089844 C 196.777344 76.089844 192.125 73.859375 189.203125 69.699219 C 184.449219 62.902344 186.089844 53.550781 192.886719 48.796875 L 194.625 47.566406 C 211.964844 35.410156 233.878906 28.753906 256.410156 28.746094 C 256.851562 28.746094 257.289062 28.753906 257.730469 28.753906 C 280.773438 29.015625 302.976562 36.21875 320.253906 49.027344 C 326.917969 53.960938 328.320312 63.355469 323.375 70.019531 Z M 323.375 70.019531 " style=" stroke:none;fill-rule:nonzero;fill:rgb(88.235294%,92.156863%,94.117647%);fill-opacity:1;" />
<path d="M 312.550781 118.464844 C 306.996094 124.617188 297.503906 125.097656 291.347656 119.535156 C 281.472656 110.609375 268.957031 106.097656 256.410156 106.046875 L 256.410156 76.050781 C 276.179688 76.101562 295.910156 83.195312 311.480469 97.273438 C 317.632812 102.824219 318.113281 112.320312 312.550781 118.464844 Z M 312.550781 118.464844 " style=" stroke:none;fill-rule:nonzero;fill:rgb(70.588235%,82.352941%,84.313725%);fill-opacity:1;" />
<path d="M 323.375 70.019531 C 318.441406 76.679688 309.046875 78.070312 302.382812 73.140625 C 289.398438 63.515625 272.910156 58.683594 256.410156 58.691406 L 256.410156 28.746094 C 256.851562 28.746094 257.289062 28.753906 257.730469 28.753906 C 280.773438 29.015625 302.976562 36.21875 320.253906 49.027344 C 326.917969 53.960938 328.320312 63.355469 323.375 70.019531 Z M 323.375 70.019531 " style=" stroke:none;fill-rule:nonzero;fill:rgb(70.588235%,82.352941%,84.313725%);fill-opacity:1;" />
<path d="M 223.550781 98.082031 C 223.550781 152.164062 179.558594 196.167969 125.480469 196.167969 C 71.390625 196.167969 27.394531 152.164062 27.394531 98.082031 C 27.394531 44.003906 71.390625 0 125.480469 0 C 179.558594 0 223.550781 44.003906 223.550781 98.082031 Z M 223.550781 98.082031 " style=" stroke:none;fill-rule:nonzero;fill:rgb(41.176471%,43.137255%,45.098039%);fill-opacity:1;" />
<path d="M 484.3125 98.082031 C 484.3125 152.164062 440.320312 196.167969 386.230469 196.167969 C 332.152344 196.167969 288.15625 152.164062 288.15625 98.082031 C 288.15625 44.003906 332.152344 0 386.230469 0 C 440.320312 0 484.3125 44.003906 484.3125 98.082031 Z M 484.3125 98.082031 " style=" stroke:none;fill-rule:nonzero;fill:rgb(21.568627%,23.529412%,25.490196%);fill-opacity:1;" />
</g>
</svg>