<svg height="511pt" viewBox="-40 1 511 511.99996" width="511pt" xmlns="http://www.w3.org/2000/svg"><path d="m216.445312 451.765625c-5.542968 0-10.039062-4.496094-10.039062-10.039063v-431.6875c0-5.542968 4.496094-10.039062 10.039062-10.039062 5.542969 0 10.039063 4.496094 10.039063 10.039062v431.6875c0 5.542969-4.496094 10.039063-10.039063 10.039063zm0 0" fill="#d9d9d9"/><path d="m7.730469 311.214844c-30.488281-115.277344 38.246093-233.441406 153.523437-263.929688 10.050782-2.660156 20.285156-4.589844 30.617188-5.773437 118.554687-13.460938 225.574218 71.734375 239.039062 190.289062 3.019532 26.597657 1.070313 53.527344-5.75 79.414063v-.058594c-16.234375-27.117188-51.375-35.9375-78.492187-19.703125-7.769531 4.65625-14.328125 11.085937-19.128907 18.769531l-.660156.992188-5.964844-9.546875c-16.746093-26.804688-52.046874-34.957031-78.851562-18.210938-5.984375 3.738281-11.222656 8.550781-15.457031 14.195313l-10.160157 13.5625-10.160156-13.550782c-18.960937-25.285156-54.828125-30.40625-80.113281-11.445312-5.644531 4.234375-10.457031 9.476562-14.195313 15.457031l-5.960937 9.539063-.625-1.003906c-16.746094-26.800782-52.050781-34.953126-78.851563-18.203126-7.679687 4.800782-14.113281 11.355469-18.769531 19.128907zm0 0" fill="#99d8aa"/><path d="m216.445312 40.15625 26.996094 29.457031c53.671875 58.539063 83.441406 135.074219 83.433594 214.496094v27.105469l7.21875-9.488282c21.429688-23.144531 57.566406-24.535156 80.710938-3.105468 3.222656 2.984375 6.09375 6.332031 8.550781 9.972656l2.367187.183594c29.179688-115.546875-40.832031-232.871094-156.378906-262.050782-17.292969-4.367187-35.0625-6.574218-52.898438-6.570312zm0 0" fill="#e0632e"/><path d="m216.445312 40.15625-27.003906 29.464844c-53.667968 58.539062-83.433594 135.074218-83.425781 214.488281v27.105469l5.960937-9.546875c16.746094-26.804688 52.046876-34.957031 78.851563-18.210938 5.984375 3.738281 11.222656 8.550781 15.457031 14.195313l10.160156 13.5625zm0 0" fill="#ffb1b5"/><path d="m246.5625 512c22.179688 0 40.15625-17.980469 40.15625-40.15625v-20.078125c0-5.546875-4.492188-10.039063-10.039062-10.039063-5.542969 0-10.039063 4.492188-10.039063 10.039063v20.078125c0 11.089844-8.988281 20.078125-20.078125 20.078125s-20.078125-8.988281-20.078125-20.078125v-50.195312h-20.078125v50.195312c0 22.175781 17.980469 40.15625 40.15625 40.15625zm0 0" fill="#60a0aa"/><path d="m326.875 311.214844v-27.105469c.003906-79.410156-29.765625-155.933594-83.425781-214.46875l-27.003907-29.484375v271.058594l10.160157-13.550782c18.964843-25.285156 54.832031-30.40625 80.113281-11.445312 5.644531 4.234375 10.457031 9.476562 14.195312 15.460938v.046874z" fill="#fbd699"/><path d="m431.285156 235.066406c-.050781-.539062-.082031-1.082031-.132812-1.625-.679688-6.566406-1.707032-13.050781-2.960938-19.394531-.160156-.8125-.300781-1.628906-.472656-2.441406-1.28125-6.171875-2.871094-12.246094-4.675781-18.21875-.28125-.914063-.550781-1.847657-.84375-2.761719-1.867188-5.878906-3.976563-11.632812-6.324219-17.269531-.367188-.914063-.75-1.820313-1.144531-2.710938-2.417969-5.621093-5.058594-11.113281-7.929688-16.472656-.433593-.804687-.886719-1.597656-1.328125-2.390625-2.976562-5.398438-6.171875-10.660156-9.585937-15.78125-.410157-.613281-.84375-1.203125-1.265625-1.816406-3.574219-5.21875-7.347656-10.308594-11.355469-15.1875-.257813-.3125-.53125-.605469-.792969-.914063-4.226562-5.089843-8.664062-10.039062-13.332031-14.679687-4.648437-4.648438-9.535156-9.035156-14.585937-13.269532-.371094-.300781-.710938-.625-1.085938-.925781-4.878906-4.015625-9.957031-7.769531-15.175781-11.34375-.59375-.410156-1.1875-.832031-1.789063-1.234375-5.128906-3.445312-10.441406-6.65625-15.871094-9.648437-.753906-.410157-1.488281-.832031-2.238281-1.234375-5.429687-2.910156-10.996093-5.589844-16.707031-8.03125l-2.390625-1.003906c-5.761719-2.390626-11.632813-4.558594-17.628906-6.453126-.761719-.242187-1.535157-.464843-2.308594-.695312-6.121094-1.855469-12.355469-3.492188-18.703125-4.808594l-1.804688-.339844c-6.578124-1.304687-13.253906-2.359374-20.078124-3.011718l-.753907-.0625c-7.117187-.78125-14.285156-1.183594-21.574219-1.183594l26.996094 29.453125c53.667969 58.542969 83.441406 135.078125 83.433594 214.5v27.105469l.625-1.003906c16.75-26.800782 52.054688-34.945313 78.851562-18.195313 7.683594 4.800781 14.113282 11.355469 18.769532 19.128906v.0625c4.742187-18.023437 7.140625-36.582031 7.125-55.21875.042968-7.015625-.347656-14.042969-.960938-20.921875zm0 0" fill="#8aced8"/></svg>