<svg xmlns="http://www.w3.org/2000/svg" height="512pt" version="1.1" viewBox="-31 0 512 512.00004" width="512pt">
<g id="surface1">
<path d="M 373.449219 310.152344 C 380.167969 319.339844 381.15625 331.328125 376.019531 341.464844 C 370.351562 352.621094 358.476562 359.117188 345.96875 357.757812 L 279.410156 350.519531 C 279.351562 350.511719 279.238281 350.519531 279.191406 350.640625 L 252.179688 411.910156 C 247.300781 422.957031 236.773438 429.824219 224.695312 429.824219 L 224.625 429.824219 C 212.570312 429.796875 202.074219 422.9375 197.214844 411.910156 L 170.195312 350.640625 C 170.132812 350.519531 170.015625 350.511719 170.015625 350.511719 L 103.414062 357.757812 C 102.296875 357.878906 101.164062 357.9375 100.054688 357.9375 C 88.75 357.9375 78.523438 351.628906 73.363281 341.464844 C 68.226562 331.328125 69.207031 319.339844 75.921875 310.152344 L 115.480469 256.121094 C 115.53125 256.050781 115.53125 255.949219 115.480469 255.878906 L 75.921875 201.847656 C 69.207031 192.660156 68.226562 180.671875 73.363281 170.535156 C 78.523438 160.371094 88.75 154.0625 100.054688 154.0625 C 101.164062 154.0625 102.296875 154.121094 103.414062 154.242188 L 169.984375 161.480469 C 170.015625 161.480469 170.132812 161.480469 170.195312 161.359375 L 197.207031 100.089844 C 202.074219 89.0625 212.582031 82.195312 224.625 82.175781 L 224.6875 82.175781 C 236.773438 82.175781 247.300781 89.042969 252.167969 100.089844 L 279.191406 161.359375 C 279.238281 161.488281 279.378906 161.488281 279.378906 161.488281 L 345.96875 154.242188 C 347.089844 154.121094 348.21875 154.0625 349.328125 154.0625 C 360.632812 154.0625 370.859375 160.378906 376.019531 170.535156 C 381.15625 180.671875 380.179688 192.667969 373.460938 201.847656 L 333.902344 255.878906 C 333.851562 255.949219 333.851562 256.050781 333.902344 256.128906 Z M 373.449219 310.152344 " style=" stroke:none;fill-rule:nonzero;fill:rgb(100%,89.411765%,46.666667%);fill-opacity:1;" />
<path d="M 373.449219 310.152344 C 380.167969 319.339844 381.15625 331.328125 376.019531 341.464844 C 370.351562 352.621094 358.476562 359.117188 345.96875 357.757812 L 279.410156 350.519531 C 279.351562 350.511719 279.238281 350.519531 279.191406 350.640625 L 252.179688 411.910156 C 247.300781 422.957031 236.773438 429.824219 224.695312 429.824219 L 224.625 429.824219 L 224.625 82.175781 L 224.6875 82.175781 C 236.773438 82.175781 247.300781 89.042969 252.167969 100.089844 L 279.191406 161.359375 C 279.238281 161.488281 279.378906 161.488281 279.378906 161.488281 L 345.96875 154.242188 C 347.089844 154.121094 348.21875 154.0625 349.328125 154.0625 C 360.632812 154.0625 370.859375 160.378906 376.019531 170.535156 C 381.15625 180.671875 380.179688 192.667969 373.460938 201.847656 L 333.902344 255.878906 C 333.851562 255.949219 333.851562 256.050781 333.902344 256.128906 Z M 373.449219 310.152344 " style=" stroke:none;fill-rule:nonzero;fill:rgb(100%,80.392157%,0%);fill-opacity:1;" />
<path d="M 276.410156 51.722656 C 276.410156 80.234375 253.207031 103.4375 224.695312 103.4375 L 224.625 103.4375 C 196.136719 103.398438 172.972656 80.214844 172.972656 51.722656 C 172.972656 23.222656 196.136719 0.0390625 224.625 0 L 224.695312 0 C 253.207031 0 276.410156 23.203125 276.410156 51.722656 Z M 276.410156 51.722656 " style=" stroke:none;fill-rule:nonzero;fill:rgb(98.823529%,96.862745%,79.215686%);fill-opacity:1;" />
<path d="M 51.71875 95.609375 C 23.199219 95.609375 0 118.808594 0 147.328125 C 0 175.84375 23.199219 199.042969 51.71875 199.042969 C 80.234375 199.042969 103.433594 175.84375 103.433594 147.328125 C 103.433594 118.808594 80.234375 95.609375 51.71875 95.609375 Z M 51.71875 95.609375 " style=" stroke:none;fill-rule:nonzero;fill:rgb(98.823529%,96.862745%,79.215686%);fill-opacity:1;" />
<path d="M 397.535156 199.042969 C 426.054688 199.042969 449.253906 175.84375 449.253906 147.328125 C 449.253906 118.808594 426.054688 95.609375 397.535156 95.609375 C 369.019531 95.609375 345.820312 118.808594 345.820312 147.328125 C 345.820312 175.84375 369.019531 199.042969 397.535156 199.042969 Z M 397.535156 199.042969 " style=" stroke:none;fill-rule:nonzero;fill:rgb(100%,90.980392%,61.176471%);fill-opacity:1;" />
<path d="M 51.71875 312.871094 C 23.199219 312.871094 0 336.070312 0 364.589844 C 0 393.105469 23.199219 416.304688 51.71875 416.304688 C 80.234375 416.304688 103.433594 393.105469 103.433594 364.589844 C 103.433594 336.070312 80.234375 312.871094 51.71875 312.871094 Z M 51.71875 312.871094 " style=" stroke:none;fill-rule:nonzero;fill:rgb(98.823529%,96.862745%,79.215686%);fill-opacity:1;" />
<path d="M 397.535156 312.871094 C 369.019531 312.871094 345.820312 336.070312 345.820312 364.589844 C 345.820312 393.105469 369.019531 416.304688 397.535156 416.304688 C 426.054688 416.304688 449.253906 393.105469 449.253906 364.589844 C 449.253906 336.070312 426.054688 312.871094 397.535156 312.871094 Z M 397.535156 312.871094 " style=" stroke:none;fill-rule:nonzero;fill:rgb(100%,90.980392%,61.176471%);fill-opacity:1;" />
<path d="M 276.410156 460.277344 C 276.410156 488.796875 253.207031 512 224.695312 512 L 224.625 512 C 196.136719 511.960938 172.972656 488.777344 172.972656 460.277344 C 172.972656 431.785156 196.136719 408.601562 224.625 408.5625 L 224.695312 408.5625 C 253.207031 408.5625 276.410156 431.765625 276.410156 460.277344 Z M 276.410156 460.277344 " style=" stroke:none;fill-rule:nonzero;fill:rgb(98.823529%,96.862745%,79.215686%);fill-opacity:1;" />
<path d="M 276.410156 460.277344 C 276.410156 488.796875 253.207031 512 224.695312 512 L 224.625 512 L 224.625 408.5625 L 224.695312 408.5625 C 253.207031 408.5625 276.410156 431.765625 276.410156 460.277344 Z M 276.410156 460.277344 " style=" stroke:none;fill-rule:nonzero;fill:rgb(100%,90.980392%,61.176471%);fill-opacity:1;" />
<path d="M 224.695312 103.4375 L 224.625 103.4375 L 224.625 0 L 224.695312 0 C 253.207031 0 276.410156 23.203125 276.410156 51.722656 C 276.410156 80.234375 253.207031 103.4375 224.695312 103.4375 Z M 224.695312 103.4375 " style=" stroke:none;fill-rule:nonzero;fill:rgb(100%,90.980392%,61.176471%);fill-opacity:1;" />
</g>
</svg>