<svg height="512pt" viewBox="0 -97 512 512" width="512pt" xmlns="http://www.w3.org/2000/svg"><path d="m478.136719 277.457031h-444.273438v-260.894531c0-9.148438 7.414063-16.5625 16.5625-16.5625h411.148438c9.148437 0 16.5625 7.414062 16.5625 16.5625zm0 0" fill="#676a75"/><path d="m461.574219 0h-35.257813v277.457031h51.820313v-260.894531c0-9.148438-7.414063-16.5625-16.5625-16.5625zm0 0" fill="#454851"/><path d="m448.582031 277.457031v-242.242187c0-3.128906-2.535156-5.660156-5.660156-5.660156h-373.84375c-3.125 0-5.660156 2.535156-5.660156 5.660156v242.242187zm0 0" fill="#75cff2"/><path d="m224.050781 141.421875v-25.492187c0-17.621094 14.332031-31.953126 31.949219-31.953126s31.949219 14.332032 31.949219 31.953126v25.492187h15.453125v-25.492187c0-26.140626-21.265625-47.40625-47.402344-47.40625s-47.402344 21.265624-47.402344 47.40625v25.492187zm0 0" fill="#ededed"/><path d="m442.921875 29.554688h-46.160156v247.902343h51.820312v-242.242187c0-3.128906-2.535156-5.660156-5.660156-5.660156zm0 0" fill="#53b4e4"/><path d="m470.519531 318.386719h-429.039062c-22.910157 0-41.480469-18.574219-41.480469-41.484375 0-3.6875 2.988281-6.675782 6.675781-6.675782h498.648438c3.6875 0 6.675781 2.988282 6.675781 6.675782 0 22.910156-18.570312 41.484375-41.480469 41.484375zm0 0" fill="#505264"/><path d="m505.324219 270.226562h-45.3125v13.355469c0 19.222657-15.582031 34.804688-34.804688 34.804688h45.3125c22.910157 0 41.480469-18.574219 41.480469-41.484375 0-3.683594-2.988281-6.675782-6.675781-6.675782zm0 0" fill="#3c3f4e"/><path d="m173.640625 270.226562c0 13.300782 10.78125 24.078126 24.078125 24.078126h116.5625c13.296875 0 24.078125-10.78125 24.078125-24.078126zm0 0" fill="#676a75"/><path d="m305.867188 220.425781h-99.734376c-2.722656 0-4.925781-2.207031-4.925781-4.929687v-71.328125c0-2.722657 2.203125-4.925781 4.925781-4.925781h99.734376c2.722656 0 4.929687 2.203124 4.929687 4.925781v71.328125c-.003906 2.722656-2.207031 4.929687-4.929687 4.929687zm0 0" fill="#f79f48"/><path d="m305.867188 139.242188h-46.890626v81.183593h46.890626c2.722656 0 4.929687-2.207031 4.929687-4.929687v-71.328125c-.003906-2.71875-2.207031-4.925781-4.929687-4.925781zm0 0" fill="#ef8229"/><g fill="#ffe471"><path d="m230.273438 198.449219c4.269531 0 7.726562-3.457031 7.726562-7.726563v-16.980468c0-4.265626-3.460938-7.726563-7.726562-7.726563-4.265626 0-7.726563 3.460937-7.726563 7.726563v16.980468c0 4.265625 3.460937 7.726563 7.726563 7.726563zm0 0"/><path d="m256 198.449219c4.269531 0 7.726562-3.457031 7.726562-7.726563v-16.980468c0-4.265626-3.460937-7.726563-7.726562-7.726563s-7.726562 3.460937-7.726562 7.726563v16.980468c0 4.265625 3.457031 7.726563 7.726562 7.726563zm0 0"/><path d="m281.726562 198.449219c4.265626 0 7.726563-3.457031 7.726563-7.726563v-16.980468c0-4.265626-3.460937-7.726563-7.726563-7.726563-4.265624 0-7.726562 3.460937-7.726562 7.726563v16.980468c0 4.265625 3.460938 7.726563 7.726562 7.726563zm0 0"/></g></svg>