<svg height="512pt" viewBox="0 -97 512 512" width="512pt" xmlns="http://www.w3.org/2000/svg"><path d="m478.136719 277.457031h-444.273438v-260.894531c0-9.148438 7.414063-16.5625 16.5625-16.5625h411.148438c9.148437 0 16.5625 7.414062 16.5625 16.5625zm0 0" fill="#676a75"/><path d="m478.136719 16.5625c0-9.148438-7.414063-16.5625-16.5625-16.5625h-35.257813v277.457031h51.820313zm0 0" fill="#454851"/><path d="m448.582031 277.457031v-242.242187c0-3.128906-2.535156-5.660156-5.660156-5.660156h-373.84375c-3.125 0-5.660156 2.535156-5.660156 5.660156v242.242187zm0 0" fill="#75cff2"/><g fill="#2a4d5e"><path d="m331.238281 165.921875h-40.292969c-4.265624 0-7.726562-3.457031-7.726562-7.726563 0-4.265624 3.460938-7.726562 7.726562-7.726562h40.292969c4.265625 0 7.726563 3.460938 7.726563 7.726562 0 4.269532-3.457032 7.726563-7.726563 7.726563zm0 0"/><path d="m221.054688 165.921875h-40.292969c-4.265625 0-7.726563-3.457031-7.726563-7.726563 0-4.265624 3.460938-7.726562 7.726563-7.726562h40.292969c4.265624 0 7.726562 3.460938 7.726562 7.726562 0 4.269532-3.460938 7.726563-7.726562 7.726563zm0 0"/><path d="m293.253906 144.28125c-3.023437 0-5.890625-1.78125-7.132812-4.742188-1.644532-3.9375.210937-8.464843 4.144531-10.109374l12.777344-5.347657c6.996093-2.929687 11.964843-9.417969 12.96875-16.933593l2.847656-21.363282c.5625-4.230468 4.449219-7.199218 8.679687-6.636718 4.230469.566406 7.199219 4.449218 6.636719 8.679687l-2.847656 21.363281c-1.726563 12.9375-10.277344 24.105469-22.320313 29.144532l-12.773437 5.347656c-.976563.40625-1.988281.597656-2.980469.597656zm0 0"/><path d="m218.746094 144.28125c-.992188 0-2.003906-.191406-2.980469-.597656l-12.773437-5.347656c-12.042969-5.039063-20.59375-16.207032-22.320313-29.148438l-2.847656-21.359375c-.5625-4.230469 2.40625-8.117187 6.636719-8.679687 4.234374-.570313 8.117187 2.40625 8.679687 6.636718l2.847656 21.359375c1.003907 7.519531 5.972657 14.007813 12.96875 16.933594l12.777344 5.347656c3.933594 1.648438 5.789063 6.175781 4.144531 10.109375-1.242187 2.964844-4.109375 4.746094-7.132812 4.746094zm0 0"/><path d="m318.859375 228.242188-2.847656-21.359376c-1.003907-7.519531-5.972657-14.007812-12.96875-16.933593l-12.777344-5.347657c-3.933594-1.648437-5.789063-6.175781-4.144531-10.109374 1.648437-3.9375 6.175781-5.792969 10.113281-4.144532l12.773437 5.347656c12.042969 5.039063 20.59375 16.207032 22.320313 29.144532l2.847656 21.359375c.5625 4.230469-2.402343 8.171875-6.636719 8.683593-4.164062.5-8.164062-2.757812-8.679687-6.640624zm0 0"/><path d="m184.460938 234.878906c-4.238282-.496094-7.199219-4.449218-6.636719-8.679687l2.847656-21.359375c1.726563-12.941406 10.277344-24.109375 22.320313-29.148438l12.773437-5.34375c3.9375-1.648437 8.464844.207032 10.113281 4.140625 1.644532 3.9375-.210937 8.464844-4.144531 10.113281l-12.777344 5.34375c-6.996093 2.929688-11.964843 9.417969-12.96875 16.9375l-2.847656 21.359376c-.515625 3.882812-5.203125 7.042968-8.679687 6.636718zm0 0"/></g><path d="m442.921875 29.554688h-46.15625v247.902343h51.816406v-242.242187c0-3.128906-2.535156-5.660156-5.660156-5.660156zm0 0" fill="#53b4e4"/><path d="m470.519531 318.386719h-429.039062c-22.910157 0-41.480469-18.574219-41.480469-41.484375 0-3.6875 2.988281-6.675782 6.675781-6.675782h498.648438c3.6875 0 6.675781 2.988282 6.675781 6.675782 0 22.910156-18.570312 41.484375-41.480469 41.484375zm0 0" fill="#505264"/><path d="m505.324219 270.226562h-45.710938v13.355469c0 19.222657-15.582031 34.804688-34.804687 34.804688h45.710937c22.910157 0 41.480469-18.574219 41.480469-41.480469 0-3.6875-2.988281-6.679688-6.675781-6.679688zm0 0" fill="#3c3f4e"/><path d="m173.640625 270.226562c0 13.300782 10.78125 24.078126 24.078125 24.078126h116.5625c13.296875 0 24.078125-10.78125 24.078125-24.078126zm0 0" fill="#676a75"/><path d="m272.738281 220.738281c-10.308593 6.160157-23.167969 6.160157-33.476562 0-16.859375-10.078125-27.179688-28.269531-27.179688-47.914062v-30.765625c0-16.351563 13.253907-29.605469 29.605469-29.605469h28.625c16.351562 0 29.609375 13.257813 29.609375 29.605469v30.765625c0 19.644531-10.324219 37.835937-27.183594 47.914062zm0 0" fill="#f43b45"/><path d="m270.3125 112.453125h-28.625c-6.613281 0-12.71875 2.167969-17.648438 5.832031-10.199218 7.582032-4.867187 23.773438 7.839844 23.773438h48.261719c12.425781 0 18.101563-15.820313 8.277344-23.425782-5.003907-3.875-11.285157-6.179687-18.105469-6.179687zm0 0" fill="#676a75"/><path d="m224.039062 118.285156c4.929688-3.664062 11.035157-5.832031 17.648438-5.832031h28.625c6.667969 0 12.820312 2.203125 17.769531 5.921875.351563-1.921875.539063-3.898438.539063-5.921875 0-18.015625-14.605469-32.617187-32.621094-32.617187s-32.617188 14.601562-32.617188 32.617187c0 2.023437.183594 4.003906.535157 5.925781.042969-.03125.078125-.0625.121093-.09375zm0 0" fill="#8c4949"/><path d="m263.726562 224.410156v-82.347656h-15.453124v82.347656c5.078124 1.238282 10.375 1.238282 15.453124 0zm0 0" fill="#cf3735"/></svg>