<?xml version="1.0" encoding="iso-8859-1"?>
<!-- Generator: Adobe Illustrator 19.0.0, SVG Export Plug-In . SVG Version: 6.00 Build 0)  -->
<svg version="1.1" id="Layer_1" xmlns="http://www.w3.org/2000/svg" xmlns:xlink="http://www.w3.org/1999/xlink" x="0px" y="0px"
	 viewBox="0 0 512 512" style="enable-background:new 0 0 512 512;" xml:space="preserve">
<path style="fill:#999999;" d="M223.302,511.986c-26.938-0.637-48.154-23.31-48.154-50.255v-10.489
	c0-9.85,7.986-17.836,17.836-17.836l0,0c9.85,0,17.836,7.986,17.836,17.836v11.014c0,7.115,5.27,13.343,12.354,14.01
	c8.128,0.766,14.99-5.636,14.99-13.61V267.81h35.671v194.847C273.836,490.26,251.052,512.642,223.302,511.986z"/>
<rect x="238.165" y="267.808" style="fill:#CCCCCC;" width="35.671" height="138.25"/>
<g>
	<rect x="238.165" y="267.808" style="fill:#B3B3B3;" width="9.895" height="138.25"/>
	<rect x="238.165" y="244.527" style="fill:#B3B3B3;" width="35.671" height="52.318"/>
</g>
<path style="fill:#CCCCCC;" d="M256,185.166c-4.925,0-8.918-3.993-8.918-8.918V8.918C247.082,3.993,251.075,0,256,0
	c4.925,0,8.918,3.993,8.918,8.918v167.331C264.917,181.173,260.925,185.166,256,185.166z"/>
<path style="fill:#CEC73C;" d="M482.355,267.81c0-125.013-101.342-226.355-226.355-226.355S29.645,142.797,29.645,267.81H482.355z"
	/>
<path style="fill:#73D8D0;" d="M256.003,41.455c-71.818,0-130.046,101.342-130.046,226.358H29.645
	C29.645,142.797,130.987,41.455,256.003,41.455z"/>
<path style="fill:#FCC447;" d="M256.003,41.455v226.358H125.958C125.958,142.797,184.185,41.455,256.003,41.455z"/>
<path style="fill:#FC675B;" d="M256.003,41.455c71.818,0,130.034,101.342,130.034,226.358H256.003V41.455L256.003,41.455z"/>
<g>
</g>
<g>
</g>
<g>
</g>
<g>
</g>
<g>
</g>
<g>
</g>
<g>
</g>
<g>
</g>
<g>
</g>
<g>
</g>
<g>
</g>
<g>
</g>
<g>
</g>
<g>
</g>
<g>
</g>
</svg>
