<svg xmlns="http://www.w3.org/2000/svg" height="511pt" version="1.1" viewBox="-40 1 511 511.99999" width="511pt">
<g id="surface1">
<path d="M 432.25 23.507812 L 432.25 403.121094 C 432.25 409.394531 429.8125 415.304688 425.371094 419.746094 L 340 505.109375 C 335.558594 509.550781 329.65625 512 323.375 512 L 24.007812 512 C 11.042969 512 0.5 501.445312 0.5 488.480469 L 0.5 23.507812 C 0.5 10.542969 11.042969 0 24.007812 0 L 408.742188 0 C 421.707031 0 432.25 10.542969 432.25 23.507812 Z M 432.25 23.507812 " style=" stroke:none;fill-rule:nonzero;fill:rgb(88.235294%,92.156863%,94.117647%);fill-opacity:1;" />
<path d="M 432.25 23.507812 L 432.25 403.121094 C 432.25 409.394531 429.8125 415.304688 425.371094 419.746094 L 340 505.109375 C 335.558594 509.550781 329.65625 512 323.375 512 L 216.414062 512 L 216.414062 0 L 408.742188 0 C 421.707031 0 432.25 10.542969 432.25 23.507812 Z M 432.25 23.507812 " style=" stroke:none;fill-rule:nonzero;fill:rgb(70.588235%,82.352941%,84.313725%);fill-opacity:1;" />
<path d="M 216.414062 134.105469 L 216.375 134.105469 C 185.546875 134.105469 160.464844 159.1875 160.464844 190.015625 L 160.464844 254.859375 L 272.285156 254.859375 L 272.285156 190.015625 C 272.285156 159.195312 247.226562 134.128906 216.414062 134.105469 Z M 242.273438 224.847656 L 190.476562 224.847656 L 190.476562 190.015625 C 190.476562 175.730469 202.101562 164.117188 216.375 164.117188 L 216.414062 164.117188 C 230.671875 164.136719 242.273438 175.742188 242.273438 190.015625 Z M 242.273438 224.847656 " style=" stroke:none;fill-rule:nonzero;fill:rgb(41.176471%,43.137255%,45.098039%);fill-opacity:1;" />
<path d="M 272.285156 190.015625 L 272.285156 254.859375 L 216.414062 254.859375 L 216.414062 224.847656 L 242.273438 224.847656 L 242.273438 190.015625 C 242.273438 175.742188 230.671875 164.136719 216.414062 164.117188 L 216.414062 134.105469 C 247.226562 134.128906 272.285156 159.195312 272.285156 190.015625 Z M 272.285156 190.015625 " style=" stroke:none;fill-rule:nonzero;fill:rgb(21.568627%,23.529412%,25.490196%);fill-opacity:1;" />
<path d="M 432.25 391.636719 L 432.25 403.121094 C 432.25 409.394531 429.8125 415.304688 425.371094 419.746094 L 340 505.109375 C 335.558594 509.550781 329.65625 512 323.375 512 L 311.890625 512 L 311.890625 409.132812 C 311.890625 399.492188 319.742188 391.636719 329.394531 391.636719 Z M 432.25 391.636719 " style=" stroke:none;fill-rule:nonzero;fill:rgb(88.235294%,92.156863%,94.117647%);fill-opacity:1;" />
<path d="M 298.234375 243.484375 L 298.234375 325.132812 C 298.234375 354.632812 274.234375 378.644531 244.734375 378.644531 L 187.957031 378.644531 C 158.445312 378.644531 134.445312 354.632812 134.445312 325.132812 L 134.445312 243.484375 C 134.445312 233.210938 142.800781 224.847656 153.074219 224.847656 L 279.609375 224.847656 C 289.882812 224.847656 298.234375 233.210938 298.234375 243.484375 Z M 298.234375 243.484375 " style=" stroke:none;fill-rule:nonzero;fill:rgb(0%,86.666667%,50.196078%);fill-opacity:1;" />
<path d="M 298.234375 243.484375 L 298.234375 325.132812 C 298.234375 354.632812 274.234375 378.644531 244.734375 378.644531 L 216.414062 378.644531 L 216.414062 224.847656 L 279.609375 224.847656 C 289.882812 224.847656 298.234375 233.210938 298.234375 243.484375 Z M 298.234375 243.484375 " style=" stroke:none;fill-rule:nonzero;fill:rgb(0%,66.666667%,38.823529%);fill-opacity:1;" />
</g>
</svg>