<svg height="512pt" viewBox="0 -25 512 511" width="512pt" xmlns="http://www.w3.org/2000/svg"><path d="m448.050781 142.460938h-430.273437c-9.816406 0-17.777344-7.960938-17.777344-17.777344v-106.40625c0-9.816406 7.960938-17.777344 17.777344-17.777344h430.277344c9.816406 0 17.777343 7.960938 17.777343 17.777344v106.40625c0 9.816406-7.960937 17.777344-17.78125 17.777344zm0 0" fill="#d6d6d6"/><path d="m448.050781.5h-33.683593v116.996094c0 4.035156-3.269532 7.308594-7.308594 7.308594h-407.0507815c.0664063 9.761718 7.9921875 17.65625 17.7695315 17.65625h430.273437c9.820313 0 17.78125-7.957032 17.78125-17.777344v-106.40625c0-9.816406-7.960937-17.777344-17.78125-17.777344zm0 0" fill="#bebebe"/><path d="m448.050781 284.421875h-430.273437c-9.816406 0-17.777344-7.960937-17.777344-17.777344v-106.40625c0-9.816406 7.960938-17.777343 17.777344-17.777343h430.277344c9.816406 0 17.777343 7.960937 17.777343 17.777343v106.40625c0 9.816407-7.960937 17.777344-17.78125 17.777344zm0 0" fill="#d6d6d6"/><path d="m448.050781 142.460938h-33.683593v116.996093c0 4.035157-3.269532 7.308594-7.308594 7.308594h-407.0507815c.0664063 9.761719 7.9921875 17.65625 17.7695315 17.65625h430.273437c9.820313 0 17.78125-7.960937 17.78125-17.777344v-106.40625c0-9.816406-7.960937-17.777343-17.78125-17.777343zm0 0" fill="#bebebe"/><path d="m448.050781 426.382812h-430.273437c-9.816406 0-17.777344-7.960937-17.777344-17.78125v-106.402343c0-9.816407 7.960938-17.777344 17.777344-17.777344h430.277344c9.816406 0 17.777343 7.960937 17.777343 17.777344v106.402343c0 9.820313-7.960937 17.78125-17.78125 17.78125zm0 0" fill="#d6d6d6"/><path d="m448.050781 284.410156h-33.683593v116.996094c0 4.035156-3.269532 7.308594-7.308594 7.308594h-407.0507815c.0664063 9.761718 7.9921875 17.65625 17.7695315 17.65625h430.273437c9.820313 0 17.78125-7.960938 17.78125-17.777344v-106.402344c0-9.820312-7.960937-17.78125-17.78125-17.78125zm0 0" fill="#bebebe"/><path d="m418.226562 94.5625h-178.953124c-5.550782 0-10.046876-4.5-10.046876-10.046875v-26.070313c0-5.546874 4.496094-10.046874 10.046876-10.046874h178.953124c5.550782 0 10.046876 4.5 10.046876 10.046874v26.070313c0 5.546875-4.496094 10.046875-10.046876 10.046875zm0 0" fill="#75cff2"/><path d="m418.226562 48.398438h-41.804687v46.164062h41.804687c5.550782 0 10.046876-4.5 10.046876-10.046875v-26.070313c0-5.546874-4.496094-10.046874-10.046876-10.046874zm0 0" fill="#53b4e4"/><path d="m418.226562 233.703125h-178.953124c-5.550782 0-10.046876-4.5-10.046876-10.046875v-26.066406c0-5.550782 4.496094-10.050782 10.046876-10.050782h178.953124c5.550782 0 10.046876 4.5 10.046876 10.050782v26.066406c0 5.546875-4.496094 10.046875-10.046876 10.046875zm0 0" fill="#75cff2"/><path d="m418.226562 187.539062h-41.804687v46.164063h41.804687c5.550782 0 10.046876-4.5 10.046876-10.046875v-26.066406c0-5.550782-4.496094-10.050782-10.046876-10.050782zm0 0" fill="#53b4e4"/><path d="m418.226562 378.484375h-178.953124c-5.550782 0-10.046876-4.5-10.046876-10.046875v-26.070312c0-5.546876 4.496094-10.046876 10.046876-10.046876h178.953124c5.550782 0 10.046876 4.5 10.046876 10.046876v26.070312c0 5.546875-4.496094 10.046875-10.046876 10.046875zm0 0" fill="#75cff2"/><path d="m512 369.242188c0 50.605468-41.023438 91.625-91.625 91.625s-91.625-41.019532-91.625-91.625c0-50.601563 41.023438-91.625 91.625-91.625s91.625 41.023437 91.625 91.625zm0 0" fill="#f79f48"/><path d="m420.375 277.617188c-9.007812 0-17.703125 1.308593-25.925781 3.730468 37.976562 11.183594 65.699219 46.300782 65.699219 87.894532 0 41.601562-27.722657 76.71875-65.699219 87.902343 8.222656 2.417969 16.921875 3.722657 25.925781 3.722657 50.601562 0 91.625-41.019532 91.625-91.625 0-50.601563-41.023438-91.625-91.625-91.625zm0 0" fill="#ef8229"/><path d="m485.164062 369.242188c0 35.785156-29.007812 64.789062-64.789062 64.789062s-64.789062-29.003906-64.789062-64.789062c0-35.78125 29.007812-64.789063 64.789062-64.789063s64.789062 29.007813 64.789062 64.789063zm0 0" fill="#ffe471"/><path d="m420.375 304.453125c-9.222656 0-17.984375 1.941406-25.925781 5.414063 22.871093 10 38.863281 32.816406 38.863281 59.375 0 26.5625-15.992188 49.375-38.863281 59.378906 7.941406 3.472656 16.703125 5.410156 25.925781 5.410156 35.78125 0 64.789062-29.007812 64.789062-64.789062s-29.007812-64.789063-64.789062-64.789063zm0 0" fill="#f2ca20"/><path d="m96.089844 71.480469c0 15.132812-12.265625 27.398437-27.398438 27.398437-15.128906 0-27.394531-12.265625-27.394531-27.398437 0-15.132813 12.265625-27.398438 27.394531-27.398438 15.132813 0 27.398438 12.265625 27.398438 27.398438zm0 0" fill="#676a75"/><path d="m96.089844 213.441406c0 15.132813-12.265625 27.398438-27.398438 27.398438-15.128906 0-27.394531-12.265625-27.394531-27.398438 0-15.132812 12.265625-27.398437 27.394531-27.398437 15.132813 0 27.398438 12.265625 27.398438 27.398437zm0 0" fill="#676a75"/><path d="m96.089844 355.402344c0 15.132812-12.265625 27.398437-27.398438 27.398437-15.128906 0-27.394531-12.265625-27.394531-27.398437 0-15.132813 12.265625-27.398438 27.394531-27.398438 15.132813 0 27.398438 12.265625 27.398438 27.398438zm0 0" fill="#676a75"/><g fill="#ededed"><path d="m134.023438 48.828125c-4.269532 0-7.726563 3.460937-7.726563 7.726563v29.851562c0 4.265625 3.457031 7.726562 7.726563 7.726562 4.265624 0 7.722656-3.460937 7.722656-7.726562v-29.847656c0-4.269532-3.457032-7.730469-7.722656-7.730469zm0 0"/><path d="m162.65625 48.828125c-4.265625 0-7.722656 3.460937-7.722656 7.726563v29.851562c0 4.265625 3.457031 7.726562 7.722656 7.726562 4.269531 0 7.726562-3.460937 7.726562-7.726562v-29.847656c.003907-4.269532-3.457031-7.730469-7.726562-7.730469zm0 0"/><path d="m191.296875 48.828125c-4.269531 0-7.726563 3.460937-7.726563 7.726563v29.851562c0 4.265625 3.457032 7.726562 7.726563 7.726562 4.265625 0 7.722656-3.460937 7.722656-7.726562v-29.847656c0-4.269532-3.457031-7.730469-7.722656-7.730469zm0 0"/><path d="m126.296875 198.515625v29.851563c0 4.265624 3.457031 7.726562 7.726563 7.726562 4.265624 0 7.722656-3.460938 7.722656-7.726562v-29.851563c0-4.265625-3.457032-7.726563-7.722656-7.726563-4.269532 0-7.726563 3.460938-7.726563 7.726563zm0 0"/><path d="m154.933594 198.515625v29.851563c0 4.265624 3.457031 7.726562 7.722656 7.726562 4.269531 0 7.726562-3.460938 7.726562-7.726562v-29.851563c0-4.265625-3.457031-7.726563-7.726562-7.726563-4.265625 0-7.722656 3.460938-7.722656 7.726563zm0 0"/><path d="m183.566406 198.515625v29.851563c0 4.265624 3.460938 7.726562 7.726563 7.726562 4.269531 0 7.726562-3.460938 7.726562-7.726562v-29.851563c0-4.265625-3.457031-7.726563-7.726562-7.726563-4.265625 0-7.726563 3.460938-7.726563 7.726563zm0 0"/><path d="m126.296875 340.476562v29.847657c0 4.269531 3.457031 7.726562 7.726563 7.726562 4.265624 0 7.722656-3.457031 7.722656-7.726562v-29.847657c0-4.265624-3.457032-7.726562-7.722656-7.726562-4.269532 0-7.726563 3.460938-7.726563 7.726562zm0 0"/><path d="m154.933594 340.476562v29.847657c0 4.269531 3.457031 7.726562 7.722656 7.726562 4.269531 0 7.726562-3.457031 7.726562-7.726562v-29.847657c0-4.265624-3.457031-7.726562-7.726562-7.726562-4.265625 0-7.722656 3.460938-7.722656 7.726562zm0 0"/><path d="m183.566406 340.476562v29.847657c0 4.269531 3.460938 7.726562 7.726563 7.726562 4.269531 0 7.726562-3.457031 7.726562-7.726562v-29.847657c0-4.265624-3.457031-7.726562-7.726562-7.726562-4.265625 0-7.726563 3.460938-7.726563 7.726562zm0 0"/></g><path d="m449.132812 336.660156c-3.554687-2.355468-8.351562-1.382812-10.707031 2.175782l-29.519531 44.546874-15.144531-14.378906c-3.09375-2.9375-7.984375-2.808594-10.921875.285156s-2.8125 7.984376.28125 10.921876l21.820312 20.71875c1.445313 1.371093 3.351563 2.121093 5.320313 2.121093.289062 0 .582031-.015625.871093-.046875 2.269532-.261718 4.308594-1.507812 5.570313-3.410156l34.601563-52.226562c2.359374-3.554688 1.386718-8.351563-2.171876-10.707032zm0 0" fill="#53b4e4"/></svg>