<svg viewBox="0 1 511 511.99999" xmlns="http://www.w3.org/2000/svg"><path d="m256.5.00390625c-8.285156 0-15 6.71484375-15 14.99609375v421.75c0 24.953125-20.300781 45.25-45.25 45.25s-45.25-20.296875-45.25-45.25c0-8.285156-6.714844-15-15-15s-15 6.714844-15 15c0 41.492188 33.757812 75.25 75.25 75.25s75.25-33.757812 75.25-75.25v-421.75c0-8.28125-6.714844-14.99609375-15-14.99609375zm0 0" fill="#d7e9fd"/><path d="m271.5 15c0-8.28125-6.714844-14.99609375-15-14.99609375v481.78124975c9.414062-12.566406 15-28.160156 15-45.035156zm0 0" fill="#b4dafe"/><path d="m437.515625 74.980469c-48.347656-48.351563-112.636719-74.97656275-181.015625-74.97656275s-132.667969 26.62890575-181.019531 74.97656275c-48.347657 48.355469-74.976563 112.640625-74.976563 181.019531 0 8.285156 6.714844 15 14.996094 15 8.285156 0 15-6.714844 15-15 0-24.949219 20.300781-45.25 45.25-45.25 24.953125 0 45.25 20.300781 45.25 45.25 0 8.285156 6.714844 15 15 15s15-6.714844 15-15c0-24.949219 20.300781-45.25 45.25-45.25s45.25 20.300781 45.25 45.25c0 8.285156 6.714844 15 15 15s15-6.714844 15-15c0-24.949219 20.300781-45.25 45.25-45.25s45.25 20.300781 45.25 45.25c0 8.285156 6.714844 15 15 15s15-6.714844 15-15c0-24.949219 20.296875-45.25 45.25-45.25 24.949219 0 45.25 20.300781 45.25 45.25 0 8.285156 6.714844 15 15 15 8.28125 0 14.996094-6.714844 14.996094-15 0-68.378906-26.625-132.664062-74.980469-181.019531zm0 0" fill="#52e362"/><path d="m437.515625 74.980469c-48.347656-48.351563-112.636719-74.97656275-181.015625-74.97656275v270.99609375c8.285156 0 15-6.714844 15-15 0-24.949219 20.300781-45.25 45.25-45.25s45.25 20.300781 45.25 45.25c0 8.285156 6.714844 15 15 15s15-6.714844 15-15c0-24.949219 20.296875-45.25 45.25-45.25 24.949219 0 45.25 20.300781 45.25 45.25 0 8.285156 6.714844 15 15 15 8.28125 0 14.996094-6.714844 14.996094-15 0-68.378906-26.625-132.664062-74.980469-181.019531zm0 0" fill="#00cc71"/><path d="m15.5 78.199219c-3.941406 0-7.8125-1.597657-10.601562-4.390625-2.800782-2.789063-4.398438-6.660156-4.398438-10.609375s1.601562-7.808594 4.398438-10.597657c2.789062-2.804687 6.652343-4.402343 10.601562-4.402343s7.820312 1.601562 10.609375 4.402343c2.789063 2.789063 4.390625 6.648438 4.390625 10.597657 0 3.953125-1.601562 7.820312-4.390625 10.609375-2.800781 2.792968-6.660156 4.390625-10.609375 4.390625zm0 0" fill="#27d9f7"/><path d="m95.839844 30c-3.949219 0-7.820313-1.601562-10.609375-4.390625-2.789063-2.789063-4.398438-6.660156-4.398438-10.609375s1.605469-7.820312 4.398438-10.609375c2.789062-2.789063 6.660156-4.390625 10.609375-4.390625 3.941406 0 7.808594 1.601562 10.601562 4.390625 2.789063 2.800781 4.398438 6.660156 4.398438 10.609375s-1.609375 7.8125-4.398438 10.609375c-2.792968 2.789063-6.664062 4.390625-10.601562 4.390625zm0 0" fill="#27d9f7"/><path d="m497.5 78.199219c-3.941406 0-7.8125-1.597657-10.613281-4.390625-2.789063-2.789063-4.386719-6.660156-4.386719-10.609375s1.597656-7.808594 4.386719-10.597657c2.800781-2.804687 6.660156-4.402343 10.613281-4.402343 3.945312 0 7.816406 1.601562 10.605469 4.402343 2.792969 2.789063 4.390625 6.648438 4.390625 10.597657 0 3.953125-1.597656 7.820312-4.390625 10.609375-2.796875 2.792968-6.660157 4.390625-10.605469 4.390625zm0 0" fill="#00abde"/><path d="m433.226562 30c-3.9375 0-7.808593-1.601562-10.597656-4.390625-2.792968-2.789063-4.402344-6.660156-4.402344-10.609375s1.609376-7.820312 4.402344-10.609375c2.789063-2.789063 6.660156-4.390625 10.597656-4.390625 3.949219 0 7.820313 1.601562 10.609376 4.390625 2.792968 2.800781 4.390624 6.660156 4.390624 10.609375s-1.597656 7.8125-4.390624 10.609375c-2.789063 2.789063-6.65625 4.390625-10.609376 4.390625zm0 0" fill="#00abde"/><path d="m355.121094 78.878906c-25.433594-50.863281-60.457032-78.87499975-98.621094-78.87499975s-73.1875 28.01171875-98.621094 78.87499975c-23.78125 47.5625-36.878906 110.464844-36.878906 177.121094 0 8.285156 6.714844 15 15 15s15-6.714844 15-15c0-62.089844 11.972656-120.226562 33.710938-163.703125 15.960937-31.917969 36.0625-52.851563 56.789062-59.769531v223.476562c0 8.28125 6.714844 14.996094 15 14.996094s15-6.714844 15-14.996094v-223.476562c20.726562 6.914062 40.828125 27.851562 56.789062 59.769531 21.738282 43.476563 33.710938 101.613281 33.710938 163.703125 0 8.285156 6.714844 15 15 15s15-6.714844 15-15c0-66.65625-13.097656-129.558594-36.878906-177.121094zm0 0" fill="#0066a3"/><path d="m355.121094 78.878906c-25.433594-50.863281-60.457032-78.87499975-98.621094-78.87499975v270.99609375c8.285156 0 15-6.714844 15-15v-223.472656c20.726562 6.914062 40.828125 27.851562 56.789062 59.769531 21.738282 43.476563 33.710938 101.613281 33.710938 163.703125 0 8.285156 6.714844 15 15 15s15-6.714844 15-15c0-66.65625-13.097656-129.558594-36.878906-177.121094zm0 0" fill="#013f68"/></svg>