<svg xmlns="http://www.w3.org/2000/svg" height="511pt" version="1.1" viewBox="-40 1 511 511.99999" width="511pt">
<g id="surface1">
<path d="M 432.25 23.507812 L 432.25 403.121094 C 432.25 409.394531 429.8125 415.304688 425.371094 419.746094 L 340 505.109375 C 335.558594 509.550781 329.65625 512 323.375 512 L 24.007812 512 C 11.042969 512 0.5 501.445312 0.5 488.480469 L 0.5 23.507812 C 0.5 10.542969 11.042969 0 24.007812 0 L 408.742188 0 C 421.707031 0 432.25 10.542969 432.25 23.507812 Z M 432.25 23.507812 " style=" stroke:none;fill-rule:nonzero;fill:rgb(88.235294%,92.156863%,94.117647%);fill-opacity:1;" />
<path d="M 432.25 23.507812 L 432.25 403.121094 C 432.25 409.394531 429.8125 415.304688 425.371094 419.746094 L 340 505.109375 C 335.558594 509.550781 329.65625 512 323.375 512 L 216.414062 512 L 216.414062 0 L 408.742188 0 C 421.707031 0 432.25 10.542969 432.25 23.507812 Z M 432.25 23.507812 " style=" stroke:none;fill-rule:nonzero;fill:rgb(70.588235%,82.352941%,84.313725%);fill-opacity:1;" />
<path d="M 432.25 391.636719 L 432.25 403.121094 C 432.25 409.394531 429.8125 415.304688 425.371094 419.746094 L 340 505.109375 C 335.558594 509.550781 329.65625 512 323.375 512 L 311.890625 512 L 311.890625 409.132812 C 311.890625 399.492188 319.742188 391.636719 329.394531 391.636719 Z M 432.25 391.636719 " style=" stroke:none;fill-rule:nonzero;fill:rgb(88.235294%,92.156863%,94.117647%);fill-opacity:1;" />
<path d="M 272.355469 239.484375 C 272.355469 247.765625 265.632812 254.488281 257.351562 254.488281 L 160.546875 254.488281 L 160.546875 189.636719 C 160.546875 158.824219 185.605469 133.757812 216.414062 133.738281 L 216.445312 133.738281 C 247.277344 133.738281 272.355469 158.816406 272.355469 189.636719 C 272.355469 197.929688 265.632812 204.640625 257.351562 204.640625 C 249.066406 204.640625 242.34375 197.929688 242.34375 189.636719 C 242.34375 175.363281 230.730469 163.746094 216.445312 163.746094 L 216.414062 163.746094 C 202.152344 163.765625 190.558594 175.371094 190.558594 189.636719 L 190.558594 224.480469 L 257.351562 224.480469 C 265.632812 224.480469 272.355469 231.203125 272.355469 239.484375 Z M 272.355469 239.484375 " style=" stroke:none;fill-rule:nonzero;fill:rgb(41.176471%,43.137255%,45.098039%);fill-opacity:1;" />
<path d="M 272.355469 239.484375 C 272.355469 247.765625 265.632812 254.488281 257.351562 254.488281 L 216.414062 254.488281 L 216.414062 224.480469 L 257.351562 224.480469 C 265.632812 224.480469 272.355469 231.203125 272.355469 239.484375 Z M 272.355469 239.484375 " style=" stroke:none;fill-rule:nonzero;fill:rgb(21.568627%,23.529412%,25.490196%);fill-opacity:1;" />
<path d="M 216.445312 163.746094 L 216.414062 163.746094 L 216.414062 133.738281 L 216.445312 133.738281 C 247.277344 133.738281 272.355469 158.816406 272.355469 189.636719 C 272.355469 197.929688 265.632812 204.640625 257.351562 204.640625 C 249.066406 204.640625 242.34375 197.929688 242.34375 189.636719 C 242.34375 175.363281 230.730469 163.746094 216.445312 163.746094 Z M 216.445312 163.746094 " style=" stroke:none;fill-rule:nonzero;fill:rgb(21.568627%,23.529412%,25.490196%);fill-opacity:1;" />
<path d="M 298.316406 243.105469 L 298.316406 324.765625 C 298.316406 354.265625 274.304688 378.261719 244.804688 378.261719 L 188.027344 378.261719 C 158.527344 378.261719 134.515625 354.265625 134.515625 324.765625 L 134.515625 243.105469 C 134.515625 232.832031 142.878906 224.480469 153.152344 224.480469 L 279.679688 224.480469 C 289.953125 224.480469 298.316406 232.832031 298.316406 243.105469 Z M 298.316406 243.105469 " style=" stroke:none;fill-rule:nonzero;fill:rgb(100%,100%,100%);fill-opacity:1;" />
<path d="M 298.316406 243.105469 L 298.316406 324.765625 C 298.316406 354.265625 274.304688 378.261719 244.804688 378.261719 L 216.414062 378.261719 L 216.414062 224.480469 L 279.679688 224.480469 C 289.953125 224.480469 298.316406 232.832031 298.316406 243.105469 Z M 298.316406 243.105469 " style=" stroke:none;fill-rule:nonzero;fill:rgb(88.235294%,92.156863%,94.117647%);fill-opacity:1;" />
</g>
</svg>