<svg height="512pt" viewBox="0 0 512 512" width="512pt" xmlns="http://www.w3.org/2000/svg"><path d="m302.628906 47.101562v417.796876c0 25.972656-21.128906 47.101562-47.097656 47.101562-25.972656 0-47.089844-21.128906-47.089844-47.101562v-417.796876c0-25.972656 21.117188-47.101562 47.089844-47.101562 25.96875 0 47.097656 21.128906 47.097656 47.101562zm0 0" fill="#e6e4f9"/><path d="m302.628906 47.101562v417.796876c0 25.972656-21.128906 47.101562-47.097656 47.101562v-512c25.96875 0 47.097656 21.128906 47.097656 47.101562zm0 0" fill="#c2c0e2"/><path d="m511.070312 250.710938v.109374c0 6.519532-2.46875 12.441407-7.128906 17.109376-4.660156 4.671874-10.582031 7.140624-17.121094 7.140624-5.71875 0-11.199218-2.148437-16.261718-6.378906l-.648438-.570312c-8.421875-7.902344-16.351562-13.820313-23.570312-17.589844-6.28125-3.28125-13.859375-4.953125-22.539063-4.953125-10.371093 0-19.902343 2.773437-29.140625 8.472656-9.769531 6.027344-18.320312 14.089844-25.410156 23.949219-1.050781 1.511719-2.519531 3.859375-4.359375 7-2.789063 4.800781-3.980469 6.660156-4.621094 7.609375-4.898437 7.519531-12.21875 11.660156-20.609375 11.660156-8.570312 0-15.988281-4.140625-20.898437-11.648437-.640625-.960938-1.820313-2.832032-4.640625-7.671875-1.8125-3.078125-3.28125-5.4375-4.339844-6.949219-7.082031-9.878906-15.601562-17.941406-25.3125-23.980469-9.078125-5.648437-18.488281-8.410156-28.777344-8.441406h-.160156c-10.339844 0-19.8125 2.761719-28.941406 8.441406-9.699219 6.03125-18.210938 14.089844-25.300782 23.960938-1.109374 1.589843-2.578124 3.949219-4.367187 7.007812-2.792969 4.800781-3.972656 6.652344-4.601563 7.613281-4.921874 7.527344-12.339843 11.667969-20.921874 11.667969-8.386719 0-15.707032-4.140625-20.617188-11.667969-.632812-.953124-1.8125-2.792968-4.632812-7.640624-2.199219-3.761719-3.570313-5.871094-4.347657-6.980469-7.070312-9.851563-15.621093-17.902344-25.402343-23.929688-9.238282-5.699219-18.769532-8.472656-29.128907-8.472656-8.679687 0-16.257812 1.671875-22.539062 4.953125-7.242188 3.777344-15.160157 9.699219-23.570313 17.589844l-.660156.578125c-5.058594 4.230469-10.53125 6.371093-16.25 6.371093-6.53125 0-12.441406-2.46875-17.109375-7.128906-4.671875-4.660156-7.140625-10.582031-7.140625-17.121094 0-1.648437.109375-3.929687.921875-6.421874 9.308594-37.289063 27.226563-70.328126 53.269531-98.207032 25.980469-27.8125 56.777344-48.941406 91.558594-62.8125 34.488281-13.75 71.421875-20.730468 109.78125-20.730468h.160156c28.257813.023437 56.339844 4.121093 83.46875 12.191406 27.210938 8.089844 52.511719 19.75 75.210938 34.648437 22.988281 15.089844 43.230468 34.53125 60.140625 57.78125 16.816406 23.152344 28.796875 49.101563 35.628906 77.160157.789063 2.421874.917969 4.660156.929687 6.28125zm0 0" fill="#76c8ff"/><path d="m511.070312 250.710938v.109374c0 6.519532-2.46875 12.441407-7.128906 17.109376-4.660156 4.671874-10.582031 7.140624-17.121094 7.140624-5.71875 0-11.199218-2.148437-16.261718-6.378906l-.648438-.570312c-8.421875-7.902344-16.351562-13.820313-23.570312-17.589844-6.28125-3.28125-13.859375-4.953125-22.539063-4.953125-10.371093 0-19.902343 2.773437-29.140625 8.472656-9.769531 6.027344-18.320312 14.089844-25.410156 23.949219-1.050781 1.511719-2.519531 3.859375-4.359375 7-2.789063 4.800781-3.980469 6.660156-4.621094 7.609375-4.898437 7.519531-12.21875 11.660156-20.609375 11.660156-8.570312 0-15.988281-4.140625-20.898437-11.648437-.640625-.960938-1.820313-2.832032-4.640625-7.671875-1.8125-3.078125-3.28125-5.4375-4.339844-6.949219-7.082031-9.878906-15.601562-17.941406-25.3125-23.980469-9.078125-5.648437-18.488281-8.410156-28.777344-8.441406v-182.929687c28.257813.023437 56.339844 4.121093 83.46875 12.191406 27.210938 8.089844 52.511719 19.75 75.210938 34.648437 22.988281 15.089844 43.230468 34.53125 60.140625 57.78125 16.816406 23.152344 28.796875 49.101563 35.628906 77.160157.789063 2.421874.917969 4.660156.929687 6.28125zm0 0" fill="#279eff"/></svg>