<svg xmlns="http://www.w3.org/2000/svg" height="511pt" version="1.1" viewBox="-35 1 511 511.99998" width="511pt">
<g id="surface1">
<path d="M 151.34375 20.230469 L 151.34375 94.980469 L 98.160156 143.078125 L 44.988281 191.171875 L 44.988281 20.230469 C 44.988281 9.074219 54.054688 0 65.207031 0 L 131.125 0 C 142.269531 0 151.34375 9.074219 151.34375 20.230469 Z M 151.34375 20.230469 " style=" stroke:none;fill-rule:nonzero;fill:rgb(0%,86.666667%,50.196078%);fill-opacity:1;" />
<path d="M 151.34375 20.230469 L 151.34375 94.980469 L 98.160156 143.078125 L 98.160156 0 L 131.125 0 C 142.269531 0 151.34375 9.074219 151.34375 20.230469 Z M 151.34375 20.230469 " style=" stroke:none;fill-rule:nonzero;fill:rgb(0%,66.666667%,38.823529%);fill-opacity:1;" />
<path d="M 442.054688 485.34375 C 442.054688 500.046875 430.09375 512 415.398438 512 L 27.15625 512 C 12.453125 512 0.5 500.046875 0.5 485.34375 L 0.5 202.65625 C 0.5 194.699219 3.976562 187.273438 10.066406 182.199219 L 204.257812 6.578125 L 204.605469 6.296875 C 209.554688 2.339844 215.480469 0.371094 221.40625 0.398438 C 227.246094 0.429688 233.082031 2.398438 237.949219 6.296875 L 238.617188 6.875 L 432.480469 182.199219 C 437.859375 186.675781 441.1875 192.953125 441.90625 199.9375 L 441.996094 201.027344 L 441.996094 201.628906 L 442.046875 423.566406 L 442.046875 453.550781 Z M 442.054688 485.34375 " style=" stroke:none;fill-rule:nonzero;fill:rgb(88.235294%,92.156863%,94.117647%);fill-opacity:1;" />
<path d="M 442.054688 485.34375 C 442.054688 500.046875 430.09375 512 415.398438 512 L 221.40625 512 L 221.40625 0.398438 C 227.246094 0.429688 233.082031 2.398438 237.949219 6.296875 L 238.617188 6.875 L 432.480469 182.199219 C 437.859375 186.675781 441.1875 192.953125 441.90625 199.9375 L 441.996094 201.027344 L 441.996094 201.628906 L 442.046875 423.566406 L 442.046875 453.550781 Z M 442.054688 485.34375 " style=" stroke:none;fill-rule:nonzero;fill:rgb(70.588235%,82.352941%,84.313725%);fill-opacity:1;" />
<path d="M 442.046875 423.566406 L 442.046875 453.550781 L 223.90625 453.550781 C 223.058594 453.550781 222.21875 453.488281 221.40625 453.371094 C 212.941406 452.152344 206.414062 444.855469 206.414062 436.070312 L 206.414062 350.800781 C 206.414062 342.527344 213.132812 335.808594 221.40625 335.808594 C 229.683594 335.808594 236.398438 342.527344 236.398438 350.800781 L 236.398438 423.566406 Z M 442.046875 423.566406 " style=" stroke:none;fill-rule:nonzero;fill:rgb(41.176471%,43.137255%,45.098039%);fill-opacity:1;" />
<path d="M 442.046875 423.566406 L 442.046875 453.550781 L 223.90625 453.550781 C 223.058594 453.550781 222.21875 453.488281 221.40625 453.371094 L 221.40625 335.808594 C 229.683594 335.808594 236.398438 342.527344 236.398438 350.800781 L 236.398438 423.566406 Z M 442.046875 423.566406 " style=" stroke:none;fill-rule:nonzero;fill:rgb(21.568627%,23.529412%,25.490196%);fill-opacity:1;" />
<path d="M 311.800781 275.398438 C 311.800781 325.246094 271.253906 365.792969 221.40625 365.792969 C 171.5625 365.792969 131.015625 325.246094 131.015625 275.398438 C 131.015625 225.554688 171.5625 185.007812 221.40625 185.007812 C 271.253906 185.007812 311.800781 225.554688 311.800781 275.398438 Z M 311.800781 275.398438 " style=" stroke:none;fill-rule:nonzero;fill:rgb(60.392157%,90.196078%,96.862745%);fill-opacity:1;" />
<path d="M 311.800781 275.398438 C 311.800781 325.246094 271.253906 365.792969 221.40625 365.792969 L 221.40625 185.007812 C 271.253906 185.007812 311.800781 225.554688 311.800781 275.398438 Z M 311.800781 275.398438 " style=" stroke:none;fill-rule:nonzero;fill:rgb(18.431373%,75.294118%,94.117647%);fill-opacity:1;" />
<path d="M 221.40625 185.007812 C 171.5625 185.007812 131.015625 225.554688 131.015625 275.398438 C 131.015625 325.246094 171.5625 365.792969 221.40625 365.792969 C 271.253906 365.792969 311.800781 325.246094 311.800781 275.398438 C 311.800781 225.554688 271.253906 185.007812 221.40625 185.007812 Z M 221.40625 335.808594 C 188.09375 335.808594 161 308.714844 161 275.398438 C 161 242.085938 188.09375 214.992188 221.40625 214.992188 C 254.722656 214.992188 281.816406 242.085938 281.816406 275.398438 C 281.816406 308.714844 254.722656 335.808594 221.40625 335.808594 Z M 221.40625 335.808594 " style=" stroke:none;fill-rule:nonzero;fill:rgb(100%,100%,100%);fill-opacity:1;" />
<path d="M 311.800781 275.398438 C 311.800781 325.246094 271.253906 365.792969 221.40625 365.792969 L 221.40625 335.808594 C 254.722656 335.808594 281.816406 308.714844 281.816406 275.398438 C 281.816406 242.085938 254.722656 214.992188 221.40625 214.992188 L 221.40625 185.007812 C 271.253906 185.007812 311.800781 225.554688 311.800781 275.398438 Z M 311.800781 275.398438 " style=" stroke:none;fill-rule:nonzero;fill:rgb(88.235294%,92.156863%,94.117647%);fill-opacity:1;" />
</g>
</svg>