<svg height="512pt" viewBox="-7 0 512 512.0005" width="512pt" xmlns="http://www.w3.org/2000/svg"><path d="m123.03125 385.226562 37.125-37.128906 107.070312 107.070313-37.128906 37.125zm0 0" fill="#676a75"/><path d="m37.390625 494.886719-33.925781-33.929688c-4.617188-4.617187-4.617188-12.105469 0-16.726562l433.742187-433.738281c13.984375-13.988282 36.664063-13.988282 50.652344 0 13.984375 13.984374 13.984375 36.664062 0 50.648437l-433.746094 433.746094c-4.617187 4.617187-12.105469 4.617187-16.722656 0zm0 0" fill="#676a75"/><path d="m487.859375 10.492188c-4.074219-4.074219-8.882813-6.960938-14-8.660157l-464.761719 464.761719 28.292969 28.292969c4.617187 4.617187 12.105469 4.617187 16.726563 0l433.742187-433.746094c13.984375-13.984375 13.984375-36.664063 0-50.648437zm0 0" fill="#454851"/><path d="m284.15625 456.625-15.855469-15.855469c-3.703125-3.703125-9.707031-3.703125-13.410156 0l-39.1875 39.1875c-3.703125 3.703125-3.703125 9.707031 0 13.414063l15.855469 15.851562c3.699218 3.703125 9.707031 3.703125 13.410156 0l39.1875-39.1875c3.703125-3.703125 3.703125-9.707031 0-13.410156zm0 0" fill="#3c3f4e"/><path d="m180.671875 368.328125-50.652344-50.652344-126.554687 126.558594c-4.617188 4.617187-4.617188 12.105469 0 16.722656l33.925781 33.929688c4.617187 4.617187 12.105469 4.617187 16.726563 0zm0 0" fill="#525467"/><path d="m9.097656 466.59375 28.292969 28.292969c4.617187 4.617187 12.105469 4.617187 16.726563 0l126.554687-126.558594-36.652344-36.65625zm0 0" fill="#3c3f4e"/></svg>