<svg xmlns="http://www.w3.org/2000/svg" height="511pt" version="1.1" viewBox="-35 1 511 511.99998" width="511pt">
<g id="surface1">
<path d="M 151.34375 20.230469 L 151.34375 94.980469 L 98.160156 143.078125 L 44.988281 191.171875 L 44.988281 20.230469 C 44.988281 9.074219 54.054688 0 65.207031 0 L 131.125 0 C 142.269531 0 151.34375 9.074219 151.34375 20.230469 Z M 151.34375 20.230469 " style=" stroke:none;fill-rule:nonzero;fill:rgb(0%,86.666667%,50.196078%);fill-opacity:1;" />
<path d="M 151.34375 20.230469 L 151.34375 94.980469 L 98.160156 143.078125 L 98.160156 0 L 131.125 0 C 142.269531 0 151.34375 9.074219 151.34375 20.230469 Z M 151.34375 20.230469 " style=" stroke:none;fill-rule:nonzero;fill:rgb(0%,66.666667%,38.823529%);fill-opacity:1;" />
<path d="M 442.054688 485.34375 C 442.054688 500.046875 430.09375 512 415.398438 512 L 27.15625 512 C 12.453125 512 0.5 500.046875 0.5 485.34375 L 0.5 202.65625 C 0.5 194.699219 3.976562 187.273438 10.066406 182.199219 L 204.257812 6.578125 L 204.605469 6.296875 C 209.554688 2.339844 215.480469 0.371094 221.40625 0.398438 C 227.246094 0.429688 233.082031 2.398438 237.949219 6.296875 L 238.617188 6.875 L 432.480469 182.199219 C 437.859375 186.675781 441.1875 192.953125 441.90625 199.9375 L 441.996094 201.027344 L 441.996094 201.628906 L 442.046875 423.566406 L 442.046875 453.550781 Z M 442.054688 485.34375 " style=" stroke:none;fill-rule:nonzero;fill:rgb(88.235294%,92.156863%,94.117647%);fill-opacity:1;" />
<path d="M 442.054688 485.34375 C 442.054688 500.046875 430.09375 512 415.398438 512 L 221.40625 512 L 221.40625 0.398438 C 227.246094 0.429688 233.082031 2.398438 237.949219 6.296875 L 238.617188 6.875 L 432.480469 182.199219 C 437.859375 186.675781 441.1875 192.953125 441.90625 199.9375 L 441.996094 201.027344 L 441.996094 201.628906 L 442.046875 423.566406 L 442.046875 453.550781 Z M 442.054688 485.34375 " style=" stroke:none;fill-rule:nonzero;fill:rgb(70.588235%,82.352941%,84.313725%);fill-opacity:1;" />
<path d="M 221.351562 184.707031 L 221.3125 184.707031 C 190.507812 184.707031 165.453125 209.761719 165.453125 240.566406 L 165.453125 305.355469 L 277.175781 305.355469 L 277.175781 240.566406 C 277.175781 209.773438 252.136719 184.726562 221.351562 184.707031 Z M 247.191406 275.371094 L 195.4375 275.371094 L 195.4375 240.566406 C 195.4375 226.296875 207.050781 214.691406 221.3125 214.691406 L 221.351562 214.691406 C 235.59375 214.710938 247.191406 226.304688 247.191406 240.566406 Z M 247.191406 275.371094 " style=" stroke:none;fill-rule:nonzero;fill:rgb(41.176471%,43.137255%,45.098039%);fill-opacity:1;" />
<path d="M 277.175781 240.566406 L 277.175781 305.355469 L 221.351562 305.355469 L 221.351562 275.371094 L 247.191406 275.371094 L 247.191406 240.566406 C 247.191406 226.304688 235.59375 214.710938 221.351562 214.691406 L 221.351562 184.707031 C 252.136719 184.726562 277.175781 209.773438 277.175781 240.566406 Z M 277.175781 240.566406 " style=" stroke:none;fill-rule:nonzero;fill:rgb(21.568627%,23.529412%,25.490196%);fill-opacity:1;" />
<path d="M 303.101562 293.992188 L 303.101562 375.570312 C 303.101562 405.042969 279.125 429.03125 249.648438 429.03125 L 192.917969 429.03125 C 163.433594 429.03125 139.453125 405.042969 139.453125 375.570312 L 139.453125 293.992188 C 139.453125 283.726562 147.800781 275.371094 158.066406 275.371094 L 284.492188 275.371094 C 294.753906 275.371094 303.101562 283.726562 303.101562 293.992188 Z M 303.101562 293.992188 " style=" stroke:none;fill-rule:nonzero;fill:rgb(0%,86.666667%,50.196078%);fill-opacity:1;" />
<path d="M 303.101562 293.992188 L 303.101562 375.570312 C 303.101562 405.042969 279.125 429.03125 249.648438 429.03125 L 221.351562 429.03125 L 221.351562 275.371094 L 284.492188 275.371094 C 294.753906 275.371094 303.101562 283.726562 303.101562 293.992188 Z M 303.101562 293.992188 " style=" stroke:none;fill-rule:nonzero;fill:rgb(0%,66.666667%,38.823529%);fill-opacity:1;" />
</g>
</svg>