<?xml version="1.0" encoding="iso-8859-1"?>
<!-- Generator: Adobe Illustrator 19.0.0, SVG Export Plug-In . SVG Version: 6.00 Build 0)  -->
<svg version="1.1" id="Layer_1" xmlns="http://www.w3.org/2000/svg" xmlns:xlink="http://www.w3.org/1999/xlink" x="0px" y="0px"
	 viewBox="0 0 512 512" style="enable-background:new 0 0 512 512;" xml:space="preserve">
<path style="fill:#CEC73C;" d="M479.064,263.225c0-122.872-99.607-222.48-222.48-222.48s-222.48,99.607-222.48,222.48H479.064z"/>
<path style="fill:#73D8D0;" d="M256.588,40.745c-70.589,0-127.819,99.607-127.819,222.483H34.105
	C34.105,140.352,133.712,40.745,256.588,40.745z"/>
<path style="fill:#FCC447;" d="M256.588,40.745v222.483H128.768C128.768,140.352,185.999,40.745,256.588,40.745z"/>
<path style="fill:#FC675B;" d="M256.588,40.745c70.589,0,127.808,99.607,127.808,222.483H256.588L256.588,40.745L256.588,40.745z"/>
<path style="fill:#999999;" d="M224.447,503.221c-26.477-0.626-47.33-22.911-47.33-49.395v-10.309c0-9.681,7.849-17.53,17.53-17.53
	l0,0c9.681,0,17.53,7.849,17.53,17.53v10.826c0,6.993,5.18,13.115,12.143,13.771c7.989,0.753,14.734-5.54,14.734-13.377V263.225
	h35.061v191.512C274.115,481.867,251.721,503.866,224.447,503.221z"/>
<rect x="239.055" y="263.224" style="fill:#CCCCCC;" width="35.061" height="135.883"/>
<rect x="239.055" y="263.224" style="fill:#B3B3B3;" width="35.061" height="51.422"/>
<path d="M264.764,32.162V8.765c0-4.841-3.923-8.765-8.765-8.765c-4.842,0-8.765,3.924-8.765,8.765v23.397
	c-123.46,4.626-222.479,106.49-222.479,231.063c0,4.841,3.924,8.765,8.765,8.765h231.245v118.352h-17.53v-97.585
	c0-4.841-3.924-8.765-8.765-8.765s-8.765,3.924-8.765,8.765v161.98c0,1.789-0.962,2.933-1.536,3.455
	c-0.571,0.52-1.803,1.366-3.611,1.196c-2.355-0.222-4.199-2.437-4.199-5.044v-10.826c0-14.499-11.796-26.296-26.295-26.296
	c-14.5,0-26.295,11.797-26.295,26.296v10.309c0,31.34,25.071,57.429,55.888,58.157c0.465,0.012,0.929,0.016,1.393,0.016
	c15.025,0,29.173-5.76,39.974-16.309c11.139-10.878,17.273-25.424,17.273-40.954V271.99H478.48c4.842,0,8.765-3.924,8.765-8.765
	C487.245,138.652,388.227,36.788,264.764,32.162z M252.773,483.15c-7.727,7.547-17.91,11.559-28.704,11.308
	c-21.379-0.506-38.771-18.733-38.771-40.632v-10.309c0-4.833,3.931-8.765,8.765-8.765s8.765,3.933,8.765,8.765v10.824
	c0,11.555,8.824,21.437,20.086,22.497c6.227,0.584,12.442-1.485,17.055-5.685c4.617-4.203,7.266-10.187,7.266-16.419v-46.863h17.53
	v46.864C264.765,465.506,260.506,475.598,252.773,483.15z M190.728,59.715c-9.421,8.603-18.26,19.103-26.311,31.397
	c-23.875,36.455-39.409,86.325-43.741,140.425c-0.387,4.826,3.213,9.05,8.037,9.437c0.238,0.019,0.474,0.028,0.709,0.028
	c4.523,0,8.36-3.479,8.728-8.066c7.953-99.336,54.071-175.459,109.083-182.831V254.46H42.463
	C46.161,163.199,107.366,86.513,190.728,59.715z M392.485,254.46c-0.442-20.28-2.419-40.264-5.894-59.525
	c-0.859-4.764-5.417-7.932-10.183-7.069c-4.764,0.859-7.928,5.418-7.069,10.182c3.29,18.241,5.168,37.178,5.606,56.413H264.763
	V50.117c18.817,2.541,37.115,13.218,53.385,31.287c19.053,21.163,34.402,51.203,44.384,86.871c1.305,4.662,6.144,7.384,10.803,6.078
	c4.662-1.304,7.383-6.141,6.078-10.803c-10.708-38.255-27.388-70.716-48.238-93.875c-3.206-3.56-6.492-6.87-9.847-9.941
	C404.662,86.55,465.839,163.22,469.537,254.461h-77.052V254.46z"/>
<g>
</g>
<g>
</g>
<g>
</g>
<g>
</g>
<g>
</g>
<g>
</g>
<g>
</g>
<g>
</g>
<g>
</g>
<g>
</g>
<g>
</g>
<g>
</g>
<g>
</g>
<g>
</g>
<g>
</g>
</svg>
