<?xml version="1.0" encoding="iso-8859-1"?>
<!-- Generator: Adobe Illustrator 19.0.0, SVG Export Plug-In . SVG Version: 6.00 Build 0)  -->
<svg version="1.1" id="Layer_1" xmlns="http://www.w3.org/2000/svg" xmlns:xlink="http://www.w3.org/1999/xlink" x="0px" y="0px"
	 viewBox="0 0 491.52 491.52" style="enable-background:new 0 0 491.52 491.52;" xml:space="preserve">
<polygon style="fill:#31978C;" points="360.643,350.01 304.866,330.793 196.463,368.961 98.183,380.306 98.183,403.565 
	204.526,440.206 411.21,367.433 411.21,344.174 "/>
<polygon style="fill:#3EA69B;" points="304.866,307.533 98.183,380.305 204.526,416.946 411.21,344.174 "/>
<path style="fill:#44C4A1;" d="M190.491,406.874l-63.242-21.79c7.623-2.684,7.556-7.012-0.15-9.667l164.047-57.76
	c7.706,2.655,20.132,2.632,27.755-0.052l63.242,21.79c-7.623,2.684-7.556,7.012,0.15,9.667l-164.047,57.76
	C210.54,404.167,198.114,404.19,190.491,406.874z"/>
<g>
	<path style="fill:#3EA69B;" d="M283.044,352.258c20.034,6.903,23.583,16.967,7.926,22.48c-15.656,5.513-44.589,4.386-64.623-2.517
		c-20.034-6.903-23.583-16.967-7.926-22.48C234.078,344.229,263.01,345.356,283.044,352.258z"/>
	<path style="fill:#3EA69B;" d="M341.401,331.711c3.581,1.234,3.612,3.245,0.07,4.493c-3.542,1.247-9.317,1.258-12.898,0.024
		c-3.581-1.234-3.612-3.245-0.07-4.492C332.045,330.488,337.82,330.477,341.401,331.711z"/>
	<path style="fill:#3EA69B;" d="M180.82,388.251c3.581,1.234,3.612,3.245,0.07,4.492c-3.542,1.247-9.317,1.258-12.898,0.024
		c-3.581-1.234-3.612-3.245-0.07-4.492C171.464,387.028,177.239,387.017,180.82,388.251z"/>
</g>
<path style="fill:#44C4A1;" d="M282.378,372.844l-5.145-1.773c-7.029,2.017-15.309,3.149-24.833,3.393l-1.042-3.905
	c7.334-0.193,13.393-0.904,18.194-2.135l-13.674-4.711c-6.522,1.413-12.038,2.193-16.545,2.339c-4.508,0.147-8.793-0.48-12.857-1.88
	c-4.064-1.4-5.986-3.039-5.759-4.921c0.23-1.881,2.482-3.655,6.758-5.324l-3.525-1.214l4.46-1.57l3.593,1.238
	c5.491-1.67,12.086-2.765,19.791-3.284l1.951,3.83c-5.278,0.32-9.959,1.019-14.059,2.101l13.25,4.565l0.21-0.074
	c6.615-1.444,12.257-2.236,16.924-2.375c4.676-0.14,9.067,0.5,13.177,1.916c4.113,1.417,6.021,3.079,5.72,4.983
	c-0.296,1.906-2.695,3.732-7.203,5.483l5.073,1.748L282.378,372.844z M231.965,358.902c-0.13,0.781,0.596,1.443,2.17,1.985
	s3.284,0.808,5.13,0.795c1.843-0.009,4.493-0.329,7.944-0.955l-12.194-4.202C233.11,357.328,232.093,358.12,231.965,358.902z
	 M277.548,364.382c0.221-0.829-0.489-1.528-2.135-2.095c-1.643-0.566-3.459-0.836-5.444-0.808c-1.991,0.03-4.8,0.39-8.432,1.079
	l12.685,4.371C276.22,366.062,277.325,365.214,277.548,364.382z"/>
<polygon style="fill:#31978C;" points="360.643,322.69 304.866,303.472 196.463,341.641 98.183,352.985 98.183,376.245 
	204.526,412.885 411.21,340.113 411.21,316.853 "/>
<polygon style="fill:#3EA69B;" points="304.866,280.212 98.183,352.985 204.526,389.625 411.21,316.853 "/>
<path style="fill:#44C4A1;" d="M190.491,379.554l-63.242-21.79c7.623-2.684,7.556-7.012-0.15-9.667l164.047-57.76
	c7.706,2.655,20.132,2.632,27.755-0.052l63.242,21.79c-7.623,2.684-7.556,7.012,0.15,9.667l-164.047,57.76
	C210.54,376.846,198.114,376.87,190.491,379.554z"/>
<g>
	<path style="fill:#3EA69B;" d="M283.044,324.938c20.034,6.903,23.583,16.967,7.926,22.48c-15.656,5.512-44.589,4.386-64.623-2.517
		c-20.034-6.903-23.583-16.967-7.926-22.48S263.01,318.035,283.044,324.938z"/>
	<path style="fill:#3EA69B;" d="M341.401,304.391c3.581,1.234,3.612,3.245,0.07,4.493c-3.542,1.247-9.317,1.258-12.898,0.024
		c-3.581-1.234-3.612-3.245-0.07-4.492C332.045,303.168,337.82,303.157,341.401,304.391z"/>
	<path style="fill:#3EA69B;" d="M180.82,360.93c3.581,1.234,3.612,3.245,0.07,4.492c-3.542,1.247-9.317,1.258-12.898,0.024
		c-3.581-1.234-3.612-3.245-0.07-4.492C171.464,359.707,177.239,359.696,180.82,360.93z"/>
</g>
<path style="fill:#44C4A1;" d="M282.378,345.524l-5.145-1.773c-7.029,2.017-15.309,3.149-24.833,3.393l-1.042-3.905
	c7.334-0.193,13.393-0.904,18.194-2.135l-13.674-4.711c-6.522,1.413-12.038,2.193-16.545,2.339c-4.508,0.147-8.793-0.48-12.857-1.88
	c-4.064-1.4-5.986-3.039-5.759-4.921c0.23-1.881,2.482-3.655,6.758-5.324l-3.525-1.214l4.46-1.57l3.593,1.238
	c5.491-1.67,12.086-2.765,19.791-3.284l1.951,3.83c-5.278,0.32-9.959,1.019-14.059,2.101l13.25,4.565l0.21-0.074
	c6.615-1.444,12.257-2.236,16.924-2.375c4.676-0.14,9.067,0.5,13.177,1.916c4.113,1.417,6.021,3.079,5.72,4.983
	c-0.296,1.906-2.695,3.732-7.203,5.483l5.073,1.748L282.378,345.524z M231.965,331.581c-0.13,0.781,0.596,1.443,2.17,1.985
	c1.574,0.543,3.284,0.808,5.13,0.795c1.843-0.009,4.493-0.329,7.944-0.955l-12.194-4.202
	C233.11,330.007,232.093,330.799,231.965,331.581z M277.548,337.061c0.221-0.829-0.489-1.528-2.135-2.095
	c-1.643-0.566-3.459-0.836-5.444-0.808c-1.991,0.03-4.8,0.39-8.432,1.079l12.685,4.371
	C276.22,338.742,277.325,337.893,277.548,337.061z"/>
<polygon style="fill:#31978C;" points="360.643,295.369 304.866,276.151 196.463,314.32 98.183,325.664 98.183,348.924 
	204.526,385.564 411.21,312.792 411.21,289.532 "/>
<polygon style="fill:#3EA69B;" points="304.866,252.892 98.183,325.664 204.526,362.304 411.21,289.532 "/>
<path style="fill:#44C4A1;" d="M190.491,352.233l-63.242-21.79c7.623-2.684,7.556-7.012-0.15-9.667l164.047-57.76
	c7.706,2.655,20.132,2.632,27.755-0.052l63.242,21.79c-7.623,2.684-7.556,7.012,0.15,9.667l-164.047,57.76
	C210.54,349.526,198.114,349.549,190.491,352.233z"/>
<g>
	<path style="fill:#3EA69B;" d="M283.044,297.617c20.034,6.903,23.583,16.967,7.926,22.48c-15.656,5.513-44.589,4.386-64.623-2.517
		c-20.034-6.903-23.583-16.967-7.926-22.48C234.078,289.587,263.01,290.714,283.044,297.617z"/>
	<path style="fill:#3EA69B;" d="M341.401,277.07c3.581,1.234,3.612,3.245,0.07,4.492c-3.542,1.247-9.317,1.258-12.898,0.024
		c-3.581-1.234-3.612-3.245-0.07-4.492C332.045,275.847,337.82,275.836,341.401,277.07z"/>
	<path style="fill:#3EA69B;" d="M180.82,333.61c3.581,1.234,3.612,3.245,0.07,4.492c-3.542,1.247-9.317,1.258-12.898,0.024
		c-3.581-1.234-3.612-3.245-0.07-4.492C171.464,332.387,177.239,332.376,180.82,333.61z"/>
</g>
<path style="fill:#44C4A1;" d="M282.378,318.203l-5.145-1.773c-7.029,2.017-15.309,3.149-24.833,3.393l-1.042-3.905
	c7.334-0.193,13.393-0.904,18.194-2.135l-13.674-4.711c-6.522,1.413-12.038,2.193-16.545,2.339c-4.508,0.147-8.793-0.48-12.857-1.88
	s-5.986-3.039-5.759-4.921c0.23-1.881,2.482-3.655,6.758-5.324l-3.525-1.214l4.46-1.57l3.593,1.238
	c5.491-1.67,12.086-2.765,19.791-3.284l1.951,3.83c-5.278,0.32-9.959,1.019-14.059,2.101l13.25,4.565l0.21-0.074
	c6.615-1.444,12.257-2.236,16.924-2.375c4.676-0.14,9.067,0.5,13.177,1.916c4.113,1.417,6.021,3.079,5.72,4.983
	c-0.296,1.906-2.695,3.732-7.203,5.483l5.073,1.748L282.378,318.203z M231.965,304.261c-0.13,0.781,0.596,1.443,2.17,1.985
	s3.284,0.807,5.13,0.795c1.843-0.009,4.493-0.329,7.944-0.955l-12.194-4.202C233.11,302.687,232.093,303.478,231.965,304.261z
	 M277.548,309.74c0.221-0.829-0.489-1.528-2.135-2.095c-1.643-0.566-3.459-0.836-5.444-0.808c-1.991,0.03-4.8,0.39-8.432,1.079
	l12.685,4.37C276.22,311.421,277.325,310.572,277.548,309.74z"/>
<polygon style="fill:#31978C;" points="360.643,268.048 304.866,248.831 196.463,286.999 98.183,298.344 98.183,321.603 
	204.526,358.244 411.21,285.471 411.21,262.212 "/>
<polygon style="fill:#3EA69B;" points="304.866,225.571 98.183,298.343 204.526,334.984 411.21,262.212 "/>
<path style="fill:#44C4A1;" d="M190.491,324.912l-63.242-21.79c7.623-2.684,7.556-7.012-0.15-9.667l164.047-57.76
	c7.706,2.655,20.132,2.632,27.755-0.052l63.242,21.79c-7.623,2.684-7.556,7.012,0.15,9.667l-164.047,57.76
	C210.54,322.205,198.114,322.228,190.491,324.912z"/>
<g>
	<path style="fill:#3EA69B;" d="M283.044,270.296c20.034,6.903,23.583,16.967,7.926,22.48s-44.589,4.386-64.623-2.517
		s-23.583-16.967-7.926-22.48S263.01,263.394,283.044,270.296z"/>
	<path style="fill:#3EA69B;" d="M341.401,249.749c3.581,1.234,3.612,3.245,0.07,4.493c-3.542,1.247-9.317,1.258-12.898,0.024
		c-3.581-1.234-3.612-3.245-0.07-4.493C332.045,248.526,337.82,248.515,341.401,249.749z"/>
	<path style="fill:#3EA69B;" d="M180.82,306.289c3.581,1.234,3.612,3.245,0.07,4.493c-3.542,1.247-9.317,1.258-12.898,0.024
		s-3.612-3.245-0.07-4.493C171.464,305.066,177.239,305.055,180.82,306.289z"/>
</g>
<path style="fill:#44C4A1;" d="M282.378,290.882l-5.145-1.773c-7.029,2.017-15.309,3.149-24.833,3.393l-1.042-3.905
	c7.334-0.193,13.393-0.904,18.194-2.135l-13.674-4.711c-6.522,1.413-12.038,2.193-16.545,2.339c-4.508,0.147-8.793-0.48-12.857-1.88
	s-5.986-3.039-5.759-4.921c0.23-1.881,2.482-3.655,6.758-5.324l-3.525-1.214l4.46-1.57l3.593,1.238
	c5.491-1.67,12.086-2.765,19.791-3.284l1.951,3.83c-5.278,0.32-9.959,1.019-14.059,2.101l13.25,4.565l0.21-0.074
	c6.615-1.444,12.257-2.236,16.924-2.375c4.676-0.14,9.067,0.5,13.177,1.916c4.113,1.417,6.021,3.079,5.72,4.983
	c-0.296,1.906-2.695,3.732-7.203,5.483l5.073,1.748L282.378,290.882z M231.965,276.94c-0.13,0.781,0.596,1.443,2.17,1.985
	s3.284,0.807,5.13,0.795c1.843-0.009,4.493-0.329,7.944-0.955l-12.194-4.202C233.11,275.366,232.093,276.158,231.965,276.94z
	 M277.548,282.42c0.221-0.829-0.489-1.528-2.135-2.095c-1.643-0.566-3.459-0.836-5.444-0.808c-1.991,0.03-4.8,0.39-8.432,1.079
	l12.685,4.371C276.22,284.1,277.325,283.252,277.548,282.42z"/>
<polygon style="fill:#31978C;" points="360.643,240.728 304.866,221.51 196.463,259.679 98.183,271.023 98.183,294.283 
	204.526,330.923 411.21,258.151 411.21,234.891 "/>
<polygon style="fill:#3EA69B;" points="304.866,198.25 98.183,271.023 204.526,307.663 411.21,234.891 "/>
<path style="fill:#44C4A1;" d="M190.491,297.592l-63.242-21.79c7.623-2.684,7.556-7.012-0.15-9.667l164.047-57.76
	c7.706,2.655,20.132,2.632,27.755-0.052l63.242,21.79c-7.623,2.684-7.556,7.012,0.15,9.667l-164.047,57.76
	C210.54,294.884,198.114,294.908,190.491,297.592z"/>
<g>
	<path style="fill:#3EA69B;" d="M283.044,242.976c20.034,6.903,23.583,16.967,7.926,22.48s-44.589,4.386-64.623-2.517
		s-23.583-16.967-7.926-22.48C234.078,234.946,263.01,236.073,283.044,242.976z"/>
	<path style="fill:#3EA69B;" d="M341.401,222.429c3.581,1.234,3.612,3.245,0.07,4.493c-3.542,1.247-9.317,1.258-12.898,0.024
		c-3.581-1.234-3.612-3.245-0.07-4.493C332.045,221.206,337.82,221.195,341.401,222.429z"/>
	<path style="fill:#3EA69B;" d="M180.82,278.968c3.581,1.234,3.612,3.245,0.07,4.492c-3.542,1.247-9.317,1.258-12.898,0.024
		c-3.581-1.234-3.612-3.245-0.07-4.492C171.464,277.745,177.239,277.734,180.82,278.968z"/>
</g>
<path style="fill:#44C4A1;" d="M282.378,263.562l-5.145-1.773c-7.029,2.017-15.309,3.149-24.833,3.393l-1.042-3.905
	c7.334-0.193,13.393-0.904,18.194-2.135l-13.674-4.711c-6.522,1.413-12.038,2.193-16.545,2.339c-4.508,0.147-8.793-0.48-12.857-1.88
	s-5.986-3.039-5.759-4.921c0.23-1.881,2.482-3.655,6.758-5.324l-3.525-1.214l4.46-1.57l3.593,1.238
	c5.491-1.67,12.086-2.765,19.791-3.284l1.951,3.83c-5.278,0.32-9.959,1.019-14.059,2.101l13.25,4.565l0.21-0.074
	c6.615-1.444,12.257-2.236,16.924-2.375c4.676-0.14,9.067,0.5,13.177,1.916c4.113,1.417,6.021,3.079,5.72,4.983
	c-0.296,1.906-2.695,3.732-7.203,5.483l5.073,1.748L282.378,263.562z M231.965,249.619c-0.13,0.781,0.596,1.442,2.17,1.985
	s3.284,0.808,5.13,0.795c1.843-0.009,4.493-0.329,7.944-0.955l-12.194-4.202C233.11,248.045,232.093,248.837,231.965,249.619z
	 M277.548,255.099c0.221-0.829-0.489-1.528-2.135-2.095c-1.643-0.566-3.459-0.836-5.444-0.808c-1.991,0.03-4.8,0.39-8.432,1.079
	l12.685,4.37C276.22,256.78,277.325,255.931,277.548,255.099z"/>
<polygon style="fill:#FFFFFF;" points="283.607,279.819 283.607,412.397 331.156,395.655 331.156,263.078 "/>
<g>
	<polygon style="fill:#FCD462;" points="289.282,277.821 289.282,410.399 294.189,408.671 294.189,276.094 	"/>
	<polygon style="fill:#FCD462;" points="320.574,266.803 320.574,399.381 325.481,397.654 325.481,265.076 	"/>
</g>
<path style="fill:#F6C358;" d="M325.937,456.645c0,9.39-18.104,17.001-40.436,17.001c-22.332,0-40.436-7.612-40.436-17.001v-13.908
	h80.872V456.645z"/>
<ellipse style="fill:#FCD462;" cx="285.501" cy="442.726" rx="40.438" ry="17.004"/>
<g>
	<path style="fill:#DC8744;" d="M285.501,429.057c-19.49,0-35.29,6.125-35.29,13.68c0,7.555,15.8,13.68,35.29,13.68
		c19.49,0,35.29-6.125,35.29-13.68C320.792,435.182,304.991,429.057,285.501,429.057z M285.501,454.898
		c-17.324,0-31.369-5.444-31.369-12.16c0-6.716,14.045-12.16,31.369-12.16c17.324,0,31.369,5.444,31.369,12.16
		C316.87,449.453,302.826,454.898,285.501,454.898z"/>
	<path style="fill:#DC8744;" d="M284.209,452.188v-1.664c-5.375-0.212-10.2-1.041-14.47-2.485l4.293-1.984
		c3.293,1.11,6.682,1.77,10.176,1.984v-4.423c-4.432-0.41-7.678-0.95-9.736-1.619c-2.058-0.669-3.087-1.661-3.087-2.975
		c0-1.315,1.182-2.39,3.556-3.227c2.374-0.836,5.461-1.291,9.267-1.367v-1.14h3.762v1.162c4.313,0.122,8.391,0.692,12.234,1.711
		l-3.824,2.098c-2.59-0.714-5.39-1.155-8.41-1.323v4.286h0.177c4.509,0.411,7.821,0.966,9.937,1.664
		c2.12,0.699,3.178,1.714,3.178,3.044c0,1.33-1.216,2.414-3.647,3.249c-2.432,0.837-5.643,1.292-9.645,1.368v1.641H284.209z
		 M280.059,437.471c-1,0.341-1.498,0.767-1.498,1.277s0.392,0.912,1.177,1.208c0.78,0.297,2.274,0.582,4.471,0.855v-3.945
		C282.443,436.928,281.059,437.129,280.059,437.471z M292.441,447.469c1.096-0.349,1.647-0.79,1.647-1.322
		c0-0.532-0.431-0.954-1.292-1.265c-0.866-0.312-2.475-0.604-4.825-0.878v4.103C289.852,448.032,291.341,447.818,292.441,447.469z"
		/>
</g>
<path style="fill:#F6C358;" d="M325.937,439.755c0,9.39-18.104,17.001-40.436,17.001c-22.332,0-40.436-7.612-40.436-17.001v-13.908
	h80.872V439.755z"/>
<ellipse style="fill:#FCD462;" cx="285.501" cy="425.83" rx="40.438" ry="17.004"/>
<g>
	<path style="fill:#DC8744;" d="M285.501,412.167c-19.49,0-35.29,6.125-35.29,13.68s15.8,13.68,35.29,13.68
		c19.49,0,35.29-6.125,35.29-13.68S304.991,412.167,285.501,412.167z M285.501,438.007c-17.324,0-31.369-5.444-31.369-12.16
		s14.045-12.16,31.369-12.16c17.324,0,31.369,5.444,31.369,12.16S302.826,438.007,285.501,438.007z"/>
	<path style="fill:#DC8744;" d="M284.209,435.297v-1.664c-5.375-0.212-10.2-1.041-14.47-2.484l4.293-1.984
		c3.293,1.11,6.682,1.77,10.176,1.984v-4.423c-4.432-0.41-7.678-0.95-9.736-1.619c-2.058-0.669-3.087-1.661-3.087-2.975
		c0-1.315,1.182-2.39,3.556-3.227c2.374-0.836,5.461-1.291,9.267-1.368v-1.14h3.762v1.162c4.313,0.122,8.391,0.692,12.234,1.711
		l-3.824,2.098c-2.59-0.714-5.39-1.155-8.41-1.323v4.286h0.177c4.509,0.411,7.821,0.966,9.937,1.664
		c2.12,0.7,3.178,1.714,3.178,3.044c0,1.33-1.216,2.414-3.647,3.249c-2.432,0.837-5.643,1.292-9.645,1.368v1.641H284.209z
		 M280.059,420.581c-1,0.341-1.498,0.767-1.498,1.277s0.392,0.912,1.177,1.208c0.78,0.297,2.274,0.582,4.471,0.855v-3.945
		C282.443,420.037,281.059,420.238,280.059,420.581z M292.441,430.578c1.096-0.349,1.647-0.79,1.647-1.322
		c0-0.532-0.431-0.954-1.292-1.265c-0.866-0.312-2.475-0.604-4.825-0.878v4.103C289.852,431.141,291.341,430.928,292.441,430.578z"
		/>
</g>
<path style="fill:#F6C358;" d="M325.937,422.864c0,9.39-18.104,17.001-40.436,17.001c-22.332,0-40.436-7.612-40.436-17.001v-13.908
	h80.872V422.864z"/>
<ellipse style="fill:#FCD462;" cx="285.501" cy="408.934" rx="40.438" ry="17.004"/>
<g>
	<path style="fill:#DC8744;" d="M285.501,395.276c-19.49,0-35.29,6.125-35.29,13.68c0,7.555,15.8,13.68,35.29,13.68
		c19.49,0,35.29-6.125,35.29-13.68C320.792,401.401,304.991,395.276,285.501,395.276z M285.501,421.116
		c-17.324,0-31.369-5.444-31.369-12.16c0-6.716,14.045-12.16,31.369-12.16c17.324,0,31.369,5.444,31.369,12.16
		C316.87,415.672,302.826,421.116,285.501,421.116z"/>
	<path style="fill:#DC8744;" d="M284.209,418.407v-1.664c-5.375-0.212-10.2-1.041-14.47-2.484l4.293-1.984
		c3.293,1.11,6.682,1.77,10.176,1.984v-4.424c-4.432-0.41-7.678-0.95-9.736-1.619c-2.058-0.669-3.087-1.661-3.087-2.975
		s1.182-2.39,3.556-3.227c2.374-0.836,5.461-1.291,9.267-1.367v-1.14h3.762v1.162c4.313,0.122,8.391,0.692,12.234,1.711
		l-3.824,2.098c-2.59-0.714-5.39-1.155-8.41-1.323v4.286h0.177c4.509,0.411,7.821,0.966,9.937,1.664
		c2.12,0.7,3.178,1.714,3.178,3.044c0,1.33-1.216,2.414-3.647,3.249c-2.432,0.837-5.643,1.292-9.645,1.368v1.641H284.209z
		 M280.059,403.69c-1,0.341-1.498,0.767-1.498,1.277c0,0.509,0.392,0.912,1.177,1.208c0.78,0.297,2.274,0.582,4.471,0.855v-3.945
		C282.443,403.146,281.059,403.348,280.059,403.69z M292.441,413.687c1.096-0.349,1.647-0.789,1.647-1.322
		c0-0.532-0.431-0.954-1.292-1.265c-0.866-0.312-2.475-0.604-4.825-0.878v4.103C289.852,414.25,291.341,414.037,292.441,413.687z"/>
</g>
<path style="fill:#F6C358;" d="M325.937,405.973c0,9.39-18.104,17.001-40.436,17.001c-22.332,0-40.436-7.612-40.436-17.001v-13.908
	h80.872V405.973z"/>
<ellipse style="fill:#FCD462;" cx="285.501" cy="392.09" rx="40.438" ry="17.004"/>
<g>
	<path style="fill:#DC8744;" d="M285.501,378.385c-19.49,0-35.29,6.125-35.29,13.68c0,7.555,15.8,13.68,35.29,13.68
		c19.49,0,35.29-6.125,35.29-13.68C320.792,384.51,304.991,378.385,285.501,378.385z M285.501,404.226
		c-17.324,0-31.369-5.444-31.369-12.16c0-6.716,14.045-12.16,31.369-12.16c17.324,0,31.369,5.444,31.369,12.16
		C316.87,398.781,302.826,404.226,285.501,404.226z"/>
	<path style="fill:#DC8744;" d="M284.209,401.516v-1.664c-5.375-0.212-10.2-1.041-14.47-2.484l4.293-1.984
		c3.293,1.11,6.682,1.77,10.176,1.984v-4.424c-4.432-0.41-7.678-0.95-9.736-1.619c-2.058-0.669-3.087-1.661-3.087-2.975
		s1.182-2.39,3.556-3.227c2.374-0.836,5.461-1.291,9.267-1.367v-1.14h3.762v1.162c4.313,0.122,8.391,0.692,12.234,1.711
		l-3.824,2.098c-2.59-0.714-5.39-1.155-8.41-1.323v4.286h0.177c4.509,0.411,7.821,0.966,9.937,1.664
		c2.12,0.699,3.178,1.714,3.178,3.044c0,1.33-1.216,2.414-3.647,3.249c-2.432,0.837-5.643,1.292-9.645,1.368v1.641H284.209z
		 M280.059,386.799c-1,0.341-1.498,0.767-1.498,1.277c0,0.509,0.392,0.912,1.177,1.208c0.78,0.297,2.274,0.582,4.471,0.855v-3.945
		C282.443,386.256,281.059,386.457,280.059,386.799z M292.441,396.797c1.096-0.349,1.647-0.789,1.647-1.322
		c0-0.532-0.431-0.954-1.292-1.265c-0.866-0.312-2.475-0.604-4.825-0.878v4.103C289.852,397.36,291.341,397.146,292.441,396.797z"/>
</g>
<path style="fill:#F6C358;" d="M325.937,389.083c0,9.39-18.104,17.001-40.436,17.001c-22.332,0-40.436-7.612-40.436-17.001v-13.908
	h80.872V389.083z"/>
<ellipse style="fill:#FCD462;" cx="285.501" cy="375.194" rx="40.438" ry="17.004"/>
<g>
	<path style="fill:#DC8744;" d="M285.501,361.495c-19.49,0-35.29,6.125-35.29,13.68s15.8,13.68,35.29,13.68
		c19.49,0,35.29-6.125,35.29-13.68S304.991,361.495,285.501,361.495z M285.501,387.335c-17.324,0-31.369-5.444-31.369-12.16
		c0-6.716,14.045-12.16,31.369-12.16c17.324,0,31.369,5.444,31.369,12.16C316.87,381.891,302.826,387.335,285.501,387.335z"/>
	<path style="fill:#DC8744;" d="M284.209,384.625v-1.664c-5.375-0.212-10.2-1.041-14.47-2.485l4.293-1.984
		c3.293,1.11,6.682,1.77,10.176,1.984v-4.423c-4.432-0.41-7.678-0.95-9.736-1.619c-2.058-0.669-3.087-1.661-3.087-2.975
		c0-1.315,1.182-2.39,3.556-3.227c2.374-0.836,5.461-1.291,9.267-1.367v-1.14h3.762v1.162c4.313,0.122,8.391,0.692,12.234,1.711
		l-3.824,2.098c-2.59-0.714-5.39-1.155-8.41-1.323v4.286h0.177c4.509,0.411,7.821,0.966,9.937,1.664
		c2.12,0.699,3.178,1.714,3.178,3.044c0,1.33-1.216,2.414-3.647,3.249c-2.432,0.837-5.643,1.292-9.645,1.368v1.641H284.209z
		 M280.059,369.909c-1,0.341-1.498,0.767-1.498,1.277s0.392,0.912,1.177,1.208c0.78,0.297,2.274,0.582,4.471,0.855v-3.945
		C282.443,369.365,281.059,369.566,280.059,369.909z M292.441,379.906c1.096-0.349,1.647-0.79,1.647-1.322
		c0-0.532-0.431-0.954-1.292-1.265c-0.866-0.312-2.475-0.604-4.825-0.878v4.103C289.852,380.469,291.341,380.256,292.441,379.906z"
		/>
</g>
<path style="fill:#F6C358;" d="M325.937,372.192c0,9.39-18.104,17.001-40.436,17.001c-22.332,0-40.436-7.612-40.436-17.001v-13.908
	h80.872V372.192z"/>
<ellipse style="fill:#FCD462;" cx="285.501" cy="358.282" rx="40.438" ry="17.004"/>
<g>
	<path style="fill:#DC8744;" d="M285.501,344.604c-19.49,0-35.29,6.125-35.29,13.68c0,7.555,15.8,13.68,35.29,13.68
		c19.49,0,35.29-6.125,35.29-13.68C320.792,350.729,304.991,344.604,285.501,344.604z M285.501,370.444
		c-17.324,0-31.369-5.444-31.369-12.16c0-6.716,14.045-12.16,31.369-12.16c17.324,0,31.369,5.444,31.369,12.16
		C316.87,365,302.826,370.444,285.501,370.444z"/>
	<path style="fill:#DC8744;" d="M284.209,367.735v-1.664c-5.375-0.212-10.2-1.041-14.47-2.484l4.293-1.984
		c3.293,1.11,6.682,1.77,10.176,1.984v-4.423c-4.432-0.41-7.678-0.95-9.736-1.619c-2.058-0.669-3.087-1.661-3.087-2.975
		c0-1.315,1.182-2.39,3.556-3.227c2.374-0.836,5.461-1.291,9.267-1.367v-1.14h3.762v1.162c4.313,0.122,8.391,0.692,12.234,1.711
		l-3.824,2.098c-2.59-0.714-5.39-1.155-8.41-1.323v4.286h0.177c4.509,0.411,7.821,0.966,9.937,1.664
		c2.12,0.7,3.178,1.714,3.178,3.044c0,1.33-1.216,2.414-3.647,3.249c-2.432,0.837-5.643,1.292-9.645,1.368v1.641H284.209z
		 M280.059,353.018c-1,0.341-1.498,0.767-1.498,1.277s0.392,0.912,1.177,1.208c0.78,0.297,2.274,0.582,4.471,0.855v-3.945
		C282.443,352.474,281.059,352.676,280.059,353.018z M292.441,363.015c1.096-0.349,1.647-0.79,1.647-1.322
		c0-0.532-0.431-0.954-1.292-1.265c-0.866-0.312-2.475-0.604-4.825-0.878v4.103C289.852,363.578,291.341,363.365,292.441,363.015z"
		/>
</g>
<path style="fill:#F6C358;" d="M325.937,355.301c0,9.39-18.104,17.001-40.436,17.001c-22.332,0-40.436-7.612-40.436-17.001v-13.908
	h80.872V355.301z"/>
<ellipse style="fill:#FCD462;" cx="285.501" cy="341.402" rx="40.438" ry="17.004"/>
<g>
	<path style="fill:#DC8744;" d="M285.501,327.713c-19.49,0-35.29,6.125-35.29,13.68c0,7.555,15.8,13.68,35.29,13.68
		c19.49,0,35.29-6.125,35.29-13.68C320.792,333.838,304.991,327.713,285.501,327.713z M285.501,353.554
		c-17.324,0-31.369-5.444-31.369-12.16c0-6.716,14.045-12.16,31.369-12.16c17.324,0,31.369,5.444,31.369,12.16
		C316.87,348.109,302.826,353.554,285.501,353.554z"/>
	<path style="fill:#DC8744;" d="M284.209,350.844v-1.664c-5.375-0.212-10.2-1.041-14.47-2.484l4.293-1.984
		c3.293,1.11,6.682,1.77,10.176,1.984v-4.424c-4.432-0.41-7.678-0.95-9.736-1.619c-2.058-0.669-3.087-1.661-3.087-2.975
		s1.182-2.39,3.556-3.227c2.374-0.836,5.461-1.291,9.267-1.367v-1.14h3.762v1.162c4.313,0.122,8.391,0.692,12.234,1.711
		l-3.824,2.098c-2.59-0.714-5.39-1.155-8.41-1.323v4.286h0.177c4.509,0.411,7.821,0.966,9.937,1.664
		c2.12,0.7,3.178,1.715,3.178,3.044c0,1.33-1.216,2.414-3.647,3.249c-2.432,0.837-5.643,1.292-9.645,1.368v1.641H284.209z
		 M280.059,336.127c-1,0.341-1.498,0.767-1.498,1.277s0.392,0.912,1.177,1.208c0.78,0.297,2.274,0.582,4.471,0.855v-3.945
		C282.443,335.584,281.059,335.785,280.059,336.127z M292.441,346.125c1.096-0.349,1.647-0.789,1.647-1.322
		c0-0.532-0.431-0.954-1.292-1.265c-0.866-0.312-2.475-0.604-4.825-0.878v4.103C289.852,346.688,291.341,346.474,292.441,346.125z"
		/>
</g>
<path style="fill:#F6C358;" d="M325.937,338.411c0,9.39-18.104,17.001-40.436,17.001c-22.332,0-40.436-7.612-40.436-17.001v-13.908
	h80.872V338.411z"/>
<ellipse style="fill:#FCD462;" cx="285.501" cy="324.506" rx="40.438" ry="17.004"/>
<g>
	<path style="fill:#DC8744;" d="M285.501,310.822c-19.49,0-35.29,6.125-35.29,13.68c0,7.555,15.8,13.68,35.29,13.68
		c19.49,0,35.29-6.125,35.29-13.68C320.792,316.947,304.991,310.822,285.501,310.822z M285.501,336.663
		c-17.324,0-31.369-5.444-31.369-12.16c0-6.716,14.045-12.16,31.369-12.16c17.324,0,31.369,5.444,31.369,12.16
		C316.87,331.219,302.826,336.663,285.501,336.663z"/>
	<path style="fill:#DC8744;" d="M284.209,333.953v-1.664c-5.375-0.212-10.2-1.041-14.47-2.484l4.293-1.984
		c3.293,1.11,6.682,1.77,10.176,1.984v-4.423c-4.432-0.41-7.678-0.95-9.736-1.619c-2.058-0.669-3.087-1.661-3.087-2.975
		c0-1.315,1.182-2.39,3.556-3.227c2.374-0.836,5.461-1.291,9.267-1.367v-1.14h3.762v1.162c4.313,0.122,8.391,0.692,12.234,1.711
		l-3.824,2.098c-2.59-0.714-5.39-1.155-8.41-1.323v4.286h0.177c4.509,0.411,7.821,0.966,9.937,1.664
		c2.12,0.699,3.178,1.714,3.178,3.044c0,1.33-1.216,2.414-3.647,3.249c-2.432,0.837-5.643,1.292-9.645,1.368v1.641H284.209z
		 M280.059,319.237c-1,0.341-1.498,0.767-1.498,1.277c0,0.509,0.392,0.912,1.177,1.208c0.78,0.297,2.274,0.582,4.471,0.855v-3.945
		C282.443,318.693,281.059,318.894,280.059,319.237z M292.441,329.234c1.096-0.349,1.647-0.789,1.647-1.322
		c0-0.532-0.431-0.954-1.292-1.265c-0.866-0.312-2.475-0.604-4.825-0.878v4.103C289.852,329.797,291.341,329.584,292.441,329.234z"
		/>
</g>
<path style="fill:#F6C358;" d="M411.21,456.645c0,9.39-18.104,17.001-40.436,17.001s-40.436-7.612-40.436-17.001v-13.908h80.872
	V456.645z"/>
<ellipse style="fill:#FCD462;" cx="370.79" cy="442.726" rx="40.438" ry="17.004"/>
<g>
	<path style="fill:#DC8744;" d="M370.774,429.057c-19.49,0-35.29,6.125-35.29,13.68c0,7.555,15.8,13.68,35.29,13.68
		c19.49,0,35.29-6.125,35.29-13.68C406.065,435.182,390.264,429.057,370.774,429.057z M370.774,454.898
		c-17.324,0-31.369-5.444-31.369-12.16c0-6.716,14.045-12.16,31.369-12.16s31.369,5.444,31.369,12.16
		C402.143,449.453,388.099,454.898,370.774,454.898z"/>
	<path style="fill:#DC8744;" d="M369.482,452.188v-1.664c-5.375-0.212-10.2-1.041-14.47-2.485l4.293-1.984
		c3.293,1.11,6.682,1.77,10.176,1.984v-4.423c-4.432-0.41-7.678-0.95-9.736-1.619c-2.058-0.669-3.087-1.661-3.087-2.975
		c0-1.315,1.182-2.39,3.556-3.227c2.374-0.836,5.461-1.291,9.267-1.367v-1.14h3.762v1.162c4.313,0.122,8.391,0.692,12.234,1.711
		l-3.824,2.098c-2.589-0.714-5.39-1.155-8.41-1.323v4.286h0.177c4.509,0.411,7.821,0.966,9.937,1.664
		c2.12,0.699,3.178,1.714,3.178,3.044c0,1.33-1.216,2.414-3.647,3.249c-2.432,0.837-5.643,1.292-9.645,1.368v1.641H369.482z
		 M365.332,437.471c-1,0.341-1.498,0.767-1.498,1.277s0.393,0.912,1.178,1.208c0.78,0.297,2.274,0.582,4.471,0.855v-3.945
		C367.715,436.928,366.332,437.129,365.332,437.471z M377.714,447.469c1.096-0.349,1.647-0.79,1.647-1.322
		c0-0.532-0.431-0.954-1.292-1.265c-0.866-0.312-2.475-0.604-4.825-0.878v4.103C375.125,448.032,376.614,447.818,377.714,447.469z"
		/>
</g>
<path style="fill:#F6C358;" d="M411.21,439.755c0,9.39-18.104,17.001-40.436,17.001s-40.436-7.612-40.436-17.001v-13.908h80.872
	V439.755z"/>
<ellipse style="fill:#FCD462;" cx="370.79" cy="425.83" rx="40.438" ry="17.004"/>
<g>
	<path style="fill:#DC8744;" d="M370.774,412.167c-19.49,0-35.29,6.125-35.29,13.68s15.8,13.68,35.29,13.68
		c19.49,0,35.29-6.125,35.29-13.68S390.264,412.167,370.774,412.167z M370.774,438.007c-17.324,0-31.369-5.444-31.369-12.16
		s14.045-12.16,31.369-12.16s31.369,5.444,31.369,12.16S388.099,438.007,370.774,438.007z"/>
	<path style="fill:#DC8744;" d="M369.482,435.297v-1.664c-5.375-0.212-10.2-1.041-14.47-2.484l4.293-1.984
		c3.293,1.11,6.682,1.77,10.176,1.984v-4.423c-4.432-0.41-7.678-0.95-9.736-1.619c-2.058-0.669-3.087-1.661-3.087-2.975
		c0-1.315,1.182-2.39,3.556-3.227c2.374-0.836,5.461-1.291,9.267-1.368v-1.14h3.762v1.162c4.313,0.122,8.391,0.692,12.234,1.711
		l-3.824,2.098c-2.589-0.714-5.39-1.155-8.41-1.323v4.286h0.177c4.509,0.411,7.821,0.966,9.937,1.664
		c2.12,0.7,3.178,1.714,3.178,3.044c0,1.33-1.216,2.414-3.647,3.249c-2.432,0.837-5.643,1.292-9.645,1.368v1.641H369.482z
		 M365.332,420.581c-1,0.341-1.498,0.767-1.498,1.277s0.393,0.912,1.178,1.208c0.78,0.297,2.274,0.582,4.471,0.855v-3.945
		C367.715,420.037,366.332,420.238,365.332,420.581z M377.714,430.578c1.096-0.349,1.647-0.79,1.647-1.322
		c0-0.532-0.431-0.954-1.292-1.265c-0.866-0.312-2.475-0.604-4.825-0.878v4.103C375.125,431.141,376.614,430.928,377.714,430.578z"
		/>
</g>
<path style="fill:#F6C358;" d="M411.21,422.864c0,9.39-18.104,17.001-40.436,17.001s-40.436-7.612-40.436-17.001v-13.908h80.872
	V422.864z"/>
<ellipse style="fill:#FCD462;" cx="370.79" cy="408.934" rx="40.438" ry="17.004"/>
<g>
	<path style="fill:#DC8744;" d="M370.774,395.276c-19.49,0-35.29,6.125-35.29,13.68c0,7.555,15.8,13.68,35.29,13.68
		c19.49,0,35.29-6.125,35.29-13.68C406.065,401.401,390.264,395.276,370.774,395.276z M370.774,421.116
		c-17.324,0-31.369-5.444-31.369-12.16c0-6.716,14.045-12.16,31.369-12.16s31.369,5.444,31.369,12.16
		C402.143,415.672,388.099,421.116,370.774,421.116z"/>
	<path style="fill:#DC8744;" d="M369.482,418.407v-1.664c-5.375-0.212-10.2-1.041-14.47-2.484l4.293-1.984
		c3.293,1.11,6.682,1.77,10.176,1.984v-4.424c-4.432-0.41-7.678-0.95-9.736-1.619s-3.087-1.661-3.087-2.975s1.182-2.39,3.556-3.227
		c2.374-0.836,5.461-1.291,9.267-1.367v-1.14h3.762v1.162c4.313,0.122,8.391,0.692,12.234,1.711l-3.824,2.098
		c-2.589-0.714-5.39-1.155-8.41-1.323v4.286h0.177c4.509,0.411,7.821,0.966,9.937,1.664c2.12,0.7,3.178,1.714,3.178,3.044
		c0,1.33-1.216,2.414-3.647,3.249c-2.432,0.837-5.643,1.292-9.645,1.368v1.641H369.482z M365.332,403.69
		c-1,0.341-1.498,0.767-1.498,1.277c0,0.509,0.393,0.912,1.178,1.208c0.78,0.297,2.274,0.582,4.471,0.855v-3.945
		C367.715,403.146,366.332,403.348,365.332,403.69z M377.714,413.687c1.096-0.349,1.647-0.789,1.647-1.322
		c0-0.532-0.431-0.954-1.292-1.265c-0.866-0.312-2.475-0.604-4.825-0.878v4.103C375.125,414.25,376.614,414.037,377.714,413.687z"/>
</g>
<path style="fill:#F6C358;" d="M411.21,405.973c0,9.39-18.104,17.001-40.436,17.001s-40.436-7.612-40.436-17.001v-13.908h80.872
	V405.973z"/>
<ellipse style="fill:#FCD462;" cx="370.79" cy="392.09" rx="40.438" ry="17.004"/>
<g>
	<path style="fill:#DC8744;" d="M370.774,378.385c-19.49,0-35.29,6.125-35.29,13.68c0,7.555,15.8,13.68,35.29,13.68
		c19.49,0,35.29-6.125,35.29-13.68C406.065,384.51,390.264,378.385,370.774,378.385z M370.774,404.226
		c-17.324,0-31.369-5.444-31.369-12.16c0-6.716,14.045-12.16,31.369-12.16s31.369,5.444,31.369,12.16
		C402.143,398.781,388.099,404.226,370.774,404.226z"/>
	<path style="fill:#DC8744;" d="M369.482,401.516v-1.664c-5.375-0.212-10.2-1.041-14.47-2.484l4.293-1.984
		c3.293,1.11,6.682,1.77,10.176,1.984v-4.424c-4.432-0.41-7.678-0.95-9.736-1.619c-2.058-0.669-3.087-1.661-3.087-2.975
		s1.182-2.39,3.556-3.227c2.374-0.836,5.461-1.291,9.267-1.367v-1.14h3.762v1.162c4.313,0.122,8.391,0.692,12.234,1.711
		l-3.824,2.098c-2.589-0.714-5.39-1.155-8.41-1.323v4.286h0.177c4.509,0.411,7.821,0.966,9.937,1.664
		c2.12,0.699,3.178,1.714,3.178,3.044c0,1.33-1.216,2.414-3.647,3.249c-2.432,0.837-5.643,1.292-9.645,1.368v1.641H369.482z
		 M365.332,386.799c-1,0.341-1.498,0.767-1.498,1.277c0,0.509,0.393,0.912,1.178,1.208c0.78,0.297,2.274,0.582,4.471,0.855v-3.945
		C367.715,386.256,366.332,386.457,365.332,386.799z M377.714,396.797c1.096-0.349,1.647-0.789,1.647-1.322
		c0-0.532-0.431-0.954-1.292-1.265c-0.866-0.312-2.475-0.604-4.825-0.878v4.103C375.125,397.36,376.614,397.146,377.714,396.797z"/>
</g>
<path style="fill:#F6C358;" d="M411.21,389.083c0,9.39-18.104,17.001-40.436,17.001s-40.436-7.612-40.436-17.001v-13.908h80.872
	V389.083z"/>
<ellipse style="fill:#FCD462;" cx="370.79" cy="375.194" rx="40.438" ry="17.004"/>
<g>
	<path style="fill:#DC8744;" d="M370.774,361.495c-19.49,0-35.29,6.125-35.29,13.68s15.8,13.68,35.29,13.68
		c19.49,0,35.29-6.125,35.29-13.68S390.264,361.495,370.774,361.495z M370.774,387.335c-17.324,0-31.369-5.444-31.369-12.16
		c0-6.716,14.045-12.16,31.369-12.16s31.369,5.444,31.369,12.16C402.143,381.891,388.099,387.335,370.774,387.335z"/>
	<path style="fill:#DC8744;" d="M369.482,384.625v-1.664c-5.375-0.212-10.2-1.041-14.47-2.485l4.293-1.984
		c3.293,1.11,6.682,1.77,10.176,1.984v-4.423c-4.432-0.41-7.678-0.95-9.736-1.619c-2.058-0.669-3.087-1.661-3.087-2.975
		c0-1.315,1.182-2.39,3.556-3.227c2.374-0.836,5.461-1.291,9.267-1.367v-1.14h3.762v1.162c4.313,0.122,8.391,0.692,12.234,1.711
		l-3.824,2.098c-2.589-0.714-5.39-1.155-8.41-1.323v4.286h0.177c4.509,0.411,7.821,0.966,9.937,1.664
		c2.12,0.699,3.178,1.714,3.178,3.044c0,1.33-1.216,2.414-3.647,3.249c-2.432,0.837-5.643,1.292-9.645,1.368v1.641H369.482z
		 M365.332,369.909c-1,0.341-1.498,0.767-1.498,1.277s0.393,0.912,1.178,1.208c0.78,0.297,2.274,0.582,4.471,0.855v-3.945
		C367.715,369.365,366.332,369.566,365.332,369.909z M377.714,379.906c1.096-0.349,1.647-0.79,1.647-1.322
		c0-0.532-0.431-0.954-1.292-1.265c-0.866-0.312-2.475-0.604-4.825-0.878v4.103C375.125,380.469,376.614,380.256,377.714,379.906z"
		/>
</g>
<circle style="fill:#FCD462;" cx="299.162" cy="429.158" r="44.508"/>
<g>
	<path style="fill:#DC8744;" d="M299.16,390.289c-21.454,0-38.847,17.392-38.847,38.847c0,21.454,17.392,38.847,38.847,38.847
		s38.847-17.392,38.847-38.847C338.006,407.682,320.614,390.289,299.16,390.289z M299.16,463.666c-19.07,0-34.53-15.46-34.53-34.53
		c0-19.07,15.46-34.53,34.53-34.53c19.07,0,34.53,15.46,34.53,34.53C333.69,448.206,318.23,463.666,299.16,463.666z"/>
	<path style="fill:#DC8744;" d="M297.737,455.971v-4.726c-5.917-0.603-11.228-2.956-15.928-7.055l4.726-5.632
		c3.625,3.151,7.355,5.026,11.202,5.632v-12.561c-4.879-1.164-8.451-2.698-10.717-4.597c-2.266-1.899-3.398-4.716-3.398-8.449
		c0-3.733,1.301-6.786,3.915-9.162c2.613-2.374,6.012-3.667,10.2-3.883v-3.238h4.141v3.301c4.747,0.348,9.236,1.965,13.467,4.858
		l-4.21,5.956c-2.85-2.028-5.933-3.28-9.257-3.757v12.171h0.195c4.963,1.167,8.609,2.742,10.938,4.726
		c2.334,1.986,3.499,4.868,3.499,8.644c0,3.778-1.338,6.855-4.015,9.226c-2.677,2.376-6.212,3.67-10.617,3.886v4.66H297.737z
		 M293.169,414.182c-1.101,0.969-1.649,2.179-1.649,3.625s0.432,2.59,1.296,3.43c0.859,0.843,2.503,1.652,4.921,2.429v-11.202
		C295.793,412.638,294.27,413.21,293.169,414.182z M306.799,442.57c1.207-0.991,1.812-2.242,1.812-3.754
		c0-1.509-0.474-2.708-1.423-3.593c-0.954-0.885-2.724-1.715-5.311-2.492v11.652C303.949,444.169,305.588,443.563,306.799,442.57z"
		/>
</g>
<path style="fill:#64798A;" d="M216.227,491.52c-21.19,0-38.426-17.241-38.426-38.435c0-4.935,3.997-8.937,8.937-8.937
	c4.94,0,8.937,4.001,8.937,8.937c0,11.337,9.216,20.561,20.553,20.561c11.337,0,20.561-9.225,20.561-20.561V8.937
	c0-4.935,3.997-8.937,8.937-8.937c4.94,0,8.937,4.001,8.937,8.937v444.148C254.662,474.279,237.417,491.52,216.227,491.52z"/>
<path style="fill:#EBF0F3;" d="M442.368,196.461c27.146,0,49.152,19.88,49.152,44.404c0-122.618-110.03-222.02-245.759-222.02
	C110.031,18.845,0,118.246,0,240.864c0-24.524,22.007-44.404,49.153-44.404s49.153,19.88,49.153,44.404
	c0-24.524,22.006-44.404,49.152-44.404s49.152,19.88,49.152,44.404c0-24.524,22.006-44.404,49.153-44.404
	c27.145,0,49.152,19.88,49.152,44.404c0-24.524,22.006-44.404,49.152-44.404c27.147,0,49.153,19.88,49.153,44.404
	C393.217,216.341,415.223,196.461,442.368,196.461z"/>
<path style="fill:#E56353;" d="M245.761,18.845c-81.438,0-147.456,99.402-147.456,222.02c0-24.524,22.006-44.404,49.152-44.404
	s49.152,19.88,49.152,44.404c0-24.524,22.006-44.404,49.153-44.404c27.145,0,49.152,19.88,49.152,44.404
	c0-24.524,22.006-44.404,49.152-44.404c27.147,0,49.153,19.88,49.153,44.404C393.217,118.246,327.198,18.845,245.761,18.845z"/>
<path style="fill:#EBF0F3;" d="M245.761,196.461c27.145,0,49.152,19.88,49.152,44.404c0-122.618-22.007-222.02-49.152-222.02
	c-27.147,0-49.153,99.402-49.153,222.02C196.608,216.341,218.614,196.461,245.761,196.461z"/>
<g>
</g>
<g>
</g>
<g>
</g>
<g>
</g>
<g>
</g>
<g>
</g>
<g>
</g>
<g>
</g>
<g>
</g>
<g>
</g>
<g>
</g>
<g>
</g>
<g>
</g>
<g>
</g>
<g>
</g>
</svg>
