<svg xmlns="http://www.w3.org/2000/svg" height="512pt" version="1.1" viewBox="0 0 512 512.00099" width="512pt">
<g id="surface1">
<path d="M 511.988281 166.761719 C 511.988281 122.15625 494.65625 80.261719 463.195312 48.800781 C 462.910156 48.515625 462.625 48.230469 462.335938 47.957031 C 430.976562 17.019531 389.433594 0 345.238281 0 C 300.644531 0 258.765625 17.34375 227.296875 48.8125 C 195.820312 80.277344 178.496094 122.164062 178.496094 166.753906 C 178.496094 181.871094 180.8125 198.011719 185.585938 215.914062 L 5.328125 396.175781 C 1.882812 399.605469 0 404.167969 0 409.023438 L 0 493.820312 C 0 498.394531 1.714844 502.585938 4.511719 505.78125 C 7.847656 509.585938 12.734375 511.992188 18.175781 511.992188 L 101.121094 512 C 111.136719 512 119.292969 503.839844 119.300781 493.820312 L 119.300781 458.449219 L 154.671875 458.449219 C 164.695312 458.441406 172.84375 450.289062 172.851562 440.265625 L 172.847656 404.902344 L 210.058594 404.902344 C 214.917969 404.902344 219.480469 403.003906 222.914062 399.570312 L 295.921875 326.5625 C 312.296875 331.164062 328.855469 333.503906 345.246094 333.503906 C 389.824219 333.503906 431.710938 316.164062 463.1875 284.703125 C 494.65625 253.234375 511.988281 211.339844 511.988281 166.761719 Z M 345.332031 225.507812 C 328.644531 225.507812 313.507812 218.714844 302.542969 207.75 C 291.582031 196.785156 284.789062 181.648438 284.789062 164.964844 C 284.796875 131.582031 311.941406 104.421875 345.332031 104.421875 C 362.023438 104.414062 377.160156 111.207031 388.117188 122.175781 C 399.082031 133.140625 405.867188 148.269531 405.867188 164.96875 C 405.867188 198.34375 378.71875 225.507812 345.332031 225.507812 Z M 345.332031 225.507812 " style=" stroke:none;fill-rule:nonzero;fill:rgb(100%,89.411765%,46.666667%);fill-opacity:1;" />
<path d="M 463.1875 284.703125 C 431.710938 316.164062 389.824219 333.503906 345.246094 333.503906 C 328.859375 333.503906 312.296875 331.167969 295.921875 326.5625 L 222.914062 399.570312 C 219.480469 403.003906 214.917969 404.902344 210.058594 404.902344 L 172.847656 404.902344 L 172.855469 440.265625 C 172.847656 450.289062 164.695312 458.441406 154.671875 458.449219 L 119.300781 458.449219 L 119.300781 493.820312 C 119.292969 503.84375 111.136719 512 101.121094 512 L 18.175781 511.992188 C 12.734375 511.992188 7.847656 509.585938 4.511719 505.78125 L 302.542969 207.75 C 313.507812 218.714844 328.644531 225.507812 345.332031 225.507812 C 378.71875 225.507812 405.867188 198.34375 405.867188 164.972656 C 405.867188 148.269531 399.082031 133.140625 388.117188 122.179688 L 462.335938 47.957031 C 462.628906 48.234375 462.910156 48.519531 463.195312 48.800781 C 494.65625 80.261719 511.988281 122.15625 511.988281 166.761719 C 511.988281 211.339844 494.65625 253.234375 463.1875 284.703125 Z M 463.1875 284.703125 " style=" stroke:none;fill-rule:nonzero;fill:rgb(100%,80.392157%,0%);fill-opacity:1;" />
<path d="M 511.988281 166.761719 C 511.988281 122.15625 494.65625 80.261719 463.195312 48.800781 C 462.910156 48.515625 462.625 48.230469 462.335938 47.957031 C 430.976562 17.019531 389.433594 0 345.238281 0 C 300.644531 0 258.765625 17.34375 227.296875 48.8125 C 195.820312 80.277344 178.496094 122.164062 178.496094 166.753906 C 178.496094 181.871094 180.8125 198.011719 185.585938 215.914062 L 5.328125 396.175781 C 1.882812 399.605469 0 404.167969 0 409.023438 L 0 493.820312 C 0 498.394531 1.714844 502.585938 4.511719 505.78125 C 7.847656 509.585938 12.734375 511.992188 18.175781 511.992188 L 101.121094 512 C 111.136719 512 119.292969 503.839844 119.300781 493.820312 L 119.300781 458.449219 L 154.671875 458.449219 C 164.695312 458.441406 172.84375 450.289062 172.851562 440.265625 L 172.847656 404.902344 L 210.058594 404.902344 C 214.917969 404.902344 219.480469 403.003906 222.914062 399.570312 L 295.921875 326.5625 C 312.296875 331.164062 328.855469 333.503906 345.246094 333.503906 C 389.824219 333.503906 431.710938 316.164062 463.1875 284.703125 C 494.65625 253.234375 511.988281 211.339844 511.988281 166.761719 Z M 345.238281 303.449219 C 329.421875 303.457031 314.003906 300.972656 298.132812 295.851562 C 291.609375 293.746094 284.554688 295.449219 279.703125 300.285156 L 205.136719 374.851562 L 160.984375 374.851562 C 150.953125 374.851562 142.800781 383.003906 142.800781 393.03125 L 142.792969 428.398438 L 107.421875 428.398438 C 97.410156 428.398438 89.25 436.554688 89.257812 446.578125 L 89.25 481.941406 L 30.054688 481.941406 L 30.054688 413.949219 L 211.75 232.25 C 216.449219 227.539062 218.203125 220.65625 216.328125 214.273438 C 211.085938 196.410156 208.542969 180.863281 208.542969 166.753906 C 208.550781 130.1875 222.75 95.859375 248.546875 70.0625 C 274.335938 44.273438 308.679688 30.058594 345.238281 30.058594 C 381.394531 30.054688 415.40625 43.949219 441.082031 69.214844 C 441.371094 69.488281 441.65625 69.773438 441.941406 70.054688 C 467.726562 95.84375 481.933594 130.179688 481.933594 166.753906 C 481.933594 203.316406 467.726562 237.652344 441.933594 263.449219 C 416.128906 289.25 381.800781 303.449219 345.238281 303.449219 Z M 345.238281 303.449219 " style=" stroke:none;fill-rule:nonzero;fill:rgb(98.823529%,96.862745%,79.215686%);fill-opacity:1;" />
<path d="M 435.917969 164.960938 C 435.917969 139.976562 425.761719 117.339844 409.359375 100.9375 C 392.960938 84.523438 370.3125 74.367188 345.324219 74.367188 C 295.378906 74.367188 254.742188 115 254.742188 164.960938 C 254.738281 189.945312 264.898438 212.585938 281.304688 228.988281 C 297.707031 245.394531 320.351562 255.558594 345.332031 255.550781 C 395.285156 255.558594 435.917969 214.925781 435.917969 164.960938 Z M 345.332031 225.507812 C 328.644531 225.507812 313.507812 218.714844 302.542969 207.75 C 291.582031 196.785156 284.789062 181.648438 284.789062 164.964844 C 284.796875 131.582031 311.941406 104.421875 345.332031 104.421875 C 362.023438 104.414062 377.160156 111.207031 388.117188 122.175781 C 399.082031 133.140625 405.867188 148.269531 405.867188 164.96875 C 405.867188 198.34375 378.71875 225.507812 345.332031 225.507812 Z M 345.332031 225.507812 " style=" stroke:none;fill-rule:nonzero;fill:rgb(98.823529%,96.862745%,79.215686%);fill-opacity:1;" />
<path d="M 345.332031 255.550781 C 320.351562 255.558594 297.707031 245.394531 281.304688 228.988281 L 302.542969 207.75 C 313.507812 218.710938 328.644531 225.503906 345.332031 225.503906 C 378.71875 225.503906 405.867188 198.34375 405.867188 164.96875 C 405.867188 148.269531 399.082031 133.140625 388.117188 122.175781 L 409.359375 100.9375 C 425.761719 117.339844 435.917969 139.976562 435.917969 164.960938 C 435.917969 214.925781 395.285156 255.558594 345.332031 255.550781 Z M 345.332031 255.550781 " style=" stroke:none;fill-rule:nonzero;fill:rgb(100%,90.980392%,61.176471%);fill-opacity:1;" />
<path d="M 463.1875 284.703125 C 431.710938 316.164062 389.824219 333.503906 345.246094 333.503906 C 328.859375 333.503906 312.296875 331.167969 295.921875 326.5625 L 222.914062 399.570312 C 219.480469 403.003906 214.917969 404.902344 210.058594 404.902344 L 172.847656 404.902344 L 172.855469 440.265625 C 172.847656 450.289062 164.695312 458.441406 154.671875 458.449219 L 119.300781 458.449219 L 119.300781 493.820312 C 119.292969 503.84375 111.136719 512 101.121094 512 L 18.175781 511.992188 C 12.734375 511.992188 7.847656 509.585938 4.511719 505.78125 L 30.054688 480.242188 L 30.054688 481.941406 L 89.25 481.941406 L 89.257812 446.578125 C 89.25 436.558594 97.410156 428.398438 107.421875 428.398438 L 142.792969 428.398438 L 142.800781 393.035156 C 142.800781 383.003906 150.953125 374.851562 160.984375 374.851562 L 205.136719 374.851562 L 279.703125 300.285156 C 284.554688 295.449219 291.609375 293.75 298.132812 295.851562 C 314.003906 300.972656 329.421875 303.457031 345.238281 303.453125 C 381.800781 303.453125 416.128906 289.25 441.929688 263.449219 C 467.726562 237.652344 481.933594 203.316406 481.933594 166.757812 C 481.933594 130.179688 467.726562 95.84375 441.9375 70.058594 C 441.65625 69.773438 441.371094 69.488281 441.082031 69.214844 L 462.335938 47.960938 C 462.625 48.234375 462.910156 48.519531 463.195312 48.800781 C 494.65625 80.265625 511.988281 122.15625 511.988281 166.765625 C 511.988281 211.339844 494.65625 253.234375 463.1875 284.703125 Z M 463.1875 284.703125 " style=" stroke:none;fill-rule:nonzero;fill:rgb(100%,90.980392%,61.176471%);fill-opacity:1;" />
</g>
</svg>