<svg height="512pt" viewBox="0 -107 512.00059 512" width="512pt" xmlns="http://www.w3.org/2000/svg"><path d="m446.523438 259.117188h-414.898438v-243.652344c0-8.539063 6.925781-15.464844 15.46875-15.464844h383.964844c8.542968 0 15.46875 6.925781 15.46875 15.464844v243.652344zm0 0" fill="#676a75"/><path d="m431.058594 0h-36.382813v259.117188h51.847657v-243.652344c0-8.539063-6.921876-15.464844-15.464844-15.464844zm0 0" fill="#454851"/><path d="m418.925781 259.117188v-226.230469c0-2.921875-2.367187-5.285157-5.285156-5.285157h-349.128906c-2.917969 0-5.285157 2.363282-5.285157 5.285157v226.230469zm0 0" fill="#75cff2"/><path d="m413.640625 27.601562h-46.5625v231.515626h51.847656v-226.230469c0-2.921875-2.367187-5.285157-5.285156-5.285157zm0 0" fill="#53b4e4"/><path d="m439.410156 297.335938h-400.671875c-21.394531 0-38.738281-17.34375-38.738281-38.738282 0-3.445312 2.792969-6.234375 6.234375-6.234375h465.679687c3.445313 0 6.234376 2.792969 6.234376 6.234375.003906 21.394532-17.339844 38.738282-38.738282 38.738282zm0 0" fill="#505264"/><path d="m471.914062 252.363281h-45.609374v12.472657c0 17.949218-14.550782 32.503906-32.503907 32.503906h45.609375c21.398438 0 38.742188-17.34375 38.742188-38.742188 0-3.445312-2.792969-6.234375-6.238282-6.234375zm0 0" fill="#3c3f4e"/><path d="m162.160156 252.363281c0 12.417969 10.070313 22.488281 22.488282 22.488281h108.855468c12.417969 0 22.484375-10.070312 22.484375-22.488281zm0 0" fill="#676a75"/><path d="m508.230469 95.691406c-14.574219-6.148437-24.695313-19.941406-25.996094-35.941406-.179687-2.191406-2.027344-3.867188-4.226563-3.867188h-89.734374c-2.21875 0-4.046876 1.714844-4.226563 3.929688-1.328125 15.992188-11.460937 29.765625-26.035156 35.898438-2.464844 1.039062-3.960938 3.570312-3.699219 6.234374 1.925781 19.507813 13.410156 85.96875 77.96875 116.207032.269531.125.5625.191406.859375.191406s.59375-.066406.863281-.191406c64.554688-30.238282 76.042969-96.691406 77.96875-116.203125.261719-2.683594-1.261718-5.210938-3.742187-6.257813zm0 0" fill="#a4d852"/><path d="m508.230469 95.691406c-14.574219-6.148437-24.695313-19.941406-25.996094-35.941406-.179687-2.191406-2.027344-3.867188-4.226563-3.867188h-47.640624c-.140626 17.628907 10.414062 33.183594 26.160156 39.816407 2.476562 1.042969 3.980468 3.566406 3.71875 6.242187-1.644532 16.660156-10.265625 67.566406-52.96875 100.910156 7.296875 5.699219 15.582031 10.886719 25.003906 15.300782.269531.125.5625.191406.859375.191406s.59375-.066406.863281-.191406c64.554688-30.238282 76.039063-96.691406 77.964844-116.203125.265625-2.683594-1.257812-5.210938-3.738281-6.257813zm0 0" fill="#97c63e"/><path d="m470.523438 102.910156c-3.335938-2.660156-8.199219-2.113281-10.859376 1.222656l-29.753906 37.324219-18.476562-17.144531c-3.128906-2.902344-8.019532-2.71875-10.917969.410156-2.902344 3.128906-2.71875 8.019532.40625 10.917969l24.582031 22.808594c1.433594 1.328125 3.3125 2.058593 5.253906 2.058593.191407 0 .386719-.003906.578126-.019531 2.144531-.160156 4.125-1.207031 5.464843-2.890625l34.945313-43.832031c2.660156-3.335937 2.113281-8.195313-1.222656-10.855469zm0 0" fill="#ededed"/><g fill="#ffe471"><path d="m239.074219 177.148438h-137.773438c-4.265625 0-7.726562 3.460937-7.726562 7.726562 0 4.269531 3.460937 7.726562 7.726562 7.726562h137.773438c4.269531 0 7.726562-3.457031 7.726562-7.726562 0-4.265625-3.457031-7.726562-7.726562-7.726562zm0 0"/><path d="m101.300781 98.875h214.6875c4.269531 0 7.726563-3.460938 7.726563-7.726562 0-4.269532-3.457032-7.726563-7.726563-7.726563h-214.6875c-4.265625 0-7.726562 3.457031-7.726562 7.726563 0 4.265624 3.460937 7.726562 7.726562 7.726562zm0 0"/><path d="m315.988281 130.285156h-214.6875c-4.265625 0-7.726562 3.460938-7.726562 7.726563s3.460937 7.726562 7.726562 7.726562h214.6875c4.269531 0 7.726563-3.460937 7.726563-7.726562s-3.457032-7.726563-7.726563-7.726563zm0 0"/></g></svg>