<svg xmlns="http://www.w3.org/2000/svg" height="511pt" version="1.1" viewBox="1 0 511.99998 511" width="511pt">
<g id="surface1">
<path d="M 359.074219 43.144531 C 332.742188 16.8125 296.390625 0.5 256.296875 0.5 C 176.105469 0.5 110.871094 65.738281 110.871094 145.925781 L 110.871094 243.023438 L 401.71875 243.023438 L 401.71875 145.925781 C 401.71875 105.832031 385.40625 69.476562 359.074219 43.144531 Z M 371.714844 213.019531 L 140.875 213.019531 L 140.875 145.925781 C 140.875 82.289062 192.660156 30.503906 256.296875 30.503906 C 319.941406 30.503906 371.714844 82.289062 371.714844 145.925781 Z M 371.714844 213.019531 " style=" stroke:none;fill-rule:nonzero;fill:rgb(41.176471%,43.137255%,45.098039%);fill-opacity:1;" />
<path d="M 401.71875 145.925781 L 401.71875 243.023438 L 256.296875 243.023438 L 256.296875 213.019531 L 371.714844 213.019531 L 371.714844 145.925781 C 371.714844 82.289062 319.941406 30.503906 256.296875 30.503906 L 256.296875 0.5 C 296.390625 0.5 332.742188 16.8125 359.074219 43.144531 C 385.40625 69.476562 401.71875 105.832031 401.71875 145.925781 Z M 401.71875 145.925781 " style=" stroke:none;fill-rule:nonzero;fill:rgb(21.568627%,23.529412%,25.490196%);fill-opacity:1;" />
<path d="M 512 231.640625 L 512 458.023438 C 512 487.527344 488.007812 511.519531 458.515625 511.519531 L 53.496094 511.519531 C 24.132812 511.519531 0 488.15625 0 458.023438 L 0 231.640625 C 0 221.371094 8.351562 213.019531 18.621094 213.019531 L 493.378906 213.019531 C 503.648438 213.019531 512 221.371094 512 231.640625 Z M 512 231.640625 " style=" stroke:none;fill-rule:nonzero;fill:rgb(82.352941%,62.745098%,96.078431%);fill-opacity:1;" />
<path d="M 512 231.640625 L 512 458.023438 C 512 487.527344 488.007812 511.519531 458.515625 511.519531 L 256.296875 511.519531 L 256.296875 213.019531 L 493.378906 213.019531 C 503.648438 213.019531 512 221.371094 512 231.640625 Z M 512 231.640625 " style=" stroke:none;fill-rule:nonzero;fill:rgb(63.529412%,37.647059%,89.803922%);fill-opacity:1;" />
<path d="M 71.804688 351.039062 C 71.804688 347.71875 73.082031 344.714844 75.640625 342.023438 C 78.199219 339.339844 81.316406 337.992188 84.996094 337.992188 C 86.273438 337.992188 87.476562 338.230469 88.59375 338.703125 L 113.78125 346.769531 L 112.597656 322.578125 C 112.753906 318.941406 113.996094 316.136719 116.328125 314.160156 C 118.65625 312.183594 121.601562 311.195312 125.164062 311.195312 C 128.570312 311.195312 131.4375 312.144531 133.765625 314.039062 C 136.09375 315.9375 137.339844 318.785156 137.496094 322.578125 L 136.550781 347.242188 L 161.6875 338.703125 C 162.792969 338.230469 163.976562 337.992188 165.246094 337.992188 C 168.722656 337.992188 171.648438 339.535156 174.019531 342.617188 C 176.390625 345.703125 177.578125 349.0625 177.578125 352.699219 C 177.578125 358.550781 174.886719 362.027344 169.511719 363.132812 L 145.324219 368.824219 L 161.921875 392.777344 C 163.1875 394.359375 163.820312 396.652344 163.820312 399.652344 C 163.820312 403.292969 162.316406 406.335938 159.316406 408.785156 C 156.308594 411.238281 152.988281 412.460938 149.355469 412.460938 C 145.242188 412.460938 142.242188 410.960938 140.34375 407.953125 L 125.167969 384.238281 L 109.417969 408.191406 C 107.667969 411.039062 104.886719 412.460938 101.070312 412.460938 C 97.726562 412.460938 94.382812 411.316406 91.046875 409.023438 C 87.703125 406.734375 86.035156 403.769531 86.035156 400.128906 C 86.035156 397.285156 86.984375 394.753906 88.882812 392.539062 L 104.535156 370.246094 L 79.871094 363.132812 C 74.492188 362.027344 71.804688 357.996094 71.804688 351.039062 Z M 71.804688 351.039062 " style=" stroke:none;fill-rule:nonzero;fill:rgb(100%,100%,100%);fill-opacity:1;" />
<path d="M 304.691406 342.625 C 302.320312 339.53125 299.390625 337.992188 295.917969 337.992188 C 294.648438 337.992188 293.457031 338.234375 292.359375 338.703125 L 267.214844 347.242188 L 268.167969 322.582031 C 268.007812 318.78125 266.765625 315.941406 264.4375 314.039062 C 262.226562 312.230469 259.503906 311.289062 256.296875 311.210938 C 256.144531 311.199219 255.996094 311.199219 255.835938 311.199219 C 252.273438 311.199219 249.324219 312.179688 247.003906 314.160156 C 244.664062 316.140625 243.421875 318.941406 243.265625 322.582031 L 244.453125 346.765625 L 219.269531 338.703125 C 218.152344 338.234375 216.953125 337.992188 215.671875 337.992188 C 211.992188 337.992188 208.871094 339.34375 206.308594 342.023438 C 203.761719 344.714844 202.480469 347.714844 202.480469 351.035156 C 202.480469 357.996094 205.160156 362.023438 210.539062 363.136719 L 235.203125 370.246094 L 219.550781 392.539062 C 217.652344 394.757812 216.710938 397.277344 216.710938 400.128906 C 216.710938 403.769531 218.371094 406.730469 221.710938 409.019531 C 225.050781 411.320312 228.402344 412.460938 231.742188 412.460938 C 235.554688 412.460938 238.34375 411.039062 240.09375 408.191406 L 255.835938 384.238281 L 256.296875 384.957031 L 271.015625 407.960938 C 272.917969 410.960938 275.917969 412.460938 280.027344 412.460938 C 283.65625 412.460938 286.976562 411.238281 289.988281 408.789062 C 292.988281 406.339844 294.488281 403.289062 294.488281 399.660156 C 294.488281 396.648438 293.859375 394.359375 292.597656 392.777344 L 275.996094 368.824219 L 300.1875 363.136719 C 305.558594 362.023438 308.25 358.546875 308.25 352.695312 C 308.25 349.0625 307.058594 345.703125 304.691406 342.625 Z M 304.691406 342.625 " style=" stroke:none;fill-rule:nonzero;fill:rgb(100%,100%,100%);fill-opacity:1;" />
<path d="M 333.148438 351.039062 C 333.148438 347.71875 334.425781 344.714844 336.984375 342.023438 C 339.542969 339.339844 342.660156 337.992188 346.339844 337.992188 C 347.617188 337.992188 348.820312 338.230469 349.9375 338.703125 L 375.125 346.769531 L 373.941406 322.578125 C 374.097656 318.941406 375.339844 316.136719 377.671875 314.160156 C 380 312.183594 382.945312 311.195312 386.507812 311.195312 C 389.914062 311.195312 392.785156 312.144531 395.109375 314.039062 C 397.4375 315.9375 398.683594 318.785156 398.84375 322.578125 L 397.894531 347.242188 L 423.03125 338.703125 C 424.136719 338.230469 425.324219 337.992188 426.589844 337.992188 C 430.066406 337.992188 432.992188 339.535156 435.363281 342.617188 C 437.738281 345.703125 438.921875 349.0625 438.921875 352.699219 C 438.921875 358.550781 436.230469 362.027344 430.859375 363.132812 L 406.667969 368.824219 L 423.269531 392.777344 C 424.53125 394.359375 425.164062 396.652344 425.164062 399.652344 C 425.164062 403.292969 423.660156 406.335938 420.660156 408.785156 C 417.65625 411.238281 414.335938 412.460938 410.699219 412.460938 C 406.585938 412.460938 403.585938 410.960938 401.6875 407.953125 L 386.511719 384.238281 L 370.761719 408.191406 C 369.011719 411.039062 366.230469 412.460938 362.414062 412.460938 C 359.070312 412.460938 355.730469 411.316406 352.390625 409.023438 C 349.046875 406.734375 347.382812 403.769531 347.382812 400.128906 C 347.382812 397.285156 348.328125 394.753906 350.226562 392.539062 L 365.878906 370.246094 L 341.214844 363.132812 C 335.835938 362.027344 333.148438 357.996094 333.148438 351.039062 Z M 333.148438 351.039062 " style=" stroke:none;fill-rule:nonzero;fill:rgb(88.235294%,92.156863%,94.117647%);fill-opacity:1;" />
<path d="M 308.25 352.695312 C 308.25 358.546875 305.558594 362.023438 300.1875 363.136719 L 275.996094 368.824219 L 292.597656 392.777344 C 293.859375 394.359375 294.488281 396.648438 294.488281 399.660156 C 294.488281 403.289062 292.988281 406.339844 289.988281 408.789062 C 286.976562 411.238281 283.65625 412.460938 280.027344 412.460938 C 275.917969 412.460938 272.917969 410.960938 271.015625 407.960938 L 256.296875 384.957031 L 256.296875 311.210938 C 259.503906 311.289062 262.226562 312.230469 264.4375 314.039062 C 266.765625 315.941406 268.007812 318.78125 268.167969 322.582031 L 267.214844 347.242188 L 292.359375 338.703125 C 293.457031 338.234375 294.648438 337.992188 295.917969 337.992188 C 299.390625 337.992188 302.320312 339.53125 304.691406 342.625 C 307.058594 345.703125 308.25 349.0625 308.25 352.695312 Z M 308.25 352.695312 " style=" stroke:none;fill-rule:nonzero;fill:rgb(88.235294%,92.156863%,94.117647%);fill-opacity:1;" />
</g>
</svg>