<svg height="488pt" viewBox="-4 0 488 488" width="488pt" xmlns="http://www.w3.org/2000/svg"><path d="m239.632812 44.625c-118.070312.011719-217.523437 88.21875-231.632812 205.4375 5.964844-3.234375 12.761719-4.601562 19.511719-3.925781 19.199219 2.222656 24.289062 21.207031 42.398437 21.207031 19.203125 0 23.203125-21.207031 42.402344-21.207031s23.199219 21.207031 42.398438 21.207031c19.199218 0 23.199218-21.207031 42.402343-21.207031 19.199219 0 23.199219 21.207031 42.398438 21.207031s23.199219-21.207031 42.398437-21.207031c19.203125 0 23.203125 21.207031 42.402344 21.207031s23.4375-21.421875 42.398438-21.207031c19.410156.214843 25.03125 23.015625 42.402343 21.207031 14.398438-1.480469 16.757813-17.917969 31.8125-21.207031 9.019531-2.015625 19.304688 1.597656 30.867188 10.605469-10.964844-120.066407-111.59375-212.011719-232.160157-212.117188zm0 0" fill="#71d2f6"/><path d="m247.71875 36.800781v-28.800781c0-4.417969-3.582031-8-8-8s-8 3.582031-8 8v28.800781c-119.050781 3.871094-217.449219 94.058594-231.6640625 212.320313-.3476565 2.929687.9492185 5.8125 3.3671875 7.5s5.570313 1.90625 8.203125.570312c4.5625-2.511718 9.777344-3.597656 14.964844-3.113281 6.484375 1.234375 12.417968 4.472656 16.960937 9.257813 6.925781 7.25 16.382813 11.550781 26.402344 12 10.203125-.476563 19.78125-5.050782 26.566406-12.6875 5.953125-5.441407 9.601563-8.511719 15.808594-8.511719s9.855469 3.070312 15.816406 8.511719c6.789063 7.652343 16.386719 12.234374 26.605469 12.695312 10.222656-.460938 19.820312-5.042969 26.609375-12.695312 5.953125-5.441407 9.601563-8.511719 15.816406-8.511719 6.214844 0 9.855469 3.070312 15.808594 8.511719 5.160156 5.40625 11.605469 9.417968 18.734375 11.664062v165.6875c0 17.671875-14.328125 32-32 32s-32-14.328125-32-32v-64c0-4.417969-3.582031-8-8-8s-8 3.582031-8 8v64c0 26.507812 21.492188 48 48 48 26.511719 0 48-21.492188 48-48v-165.726562c7.042969-2.277344 13.40625-6.273438 18.511719-11.625 5.960937-5.441407 9.601562-8.511719 15.816406-8.511719s9.863281 3.070312 15.824219 8.511719c6.800781 7.664062 16.414062 12.242187 26.648437 12.695312 10.277344-.472656 19.929688-5.089844 26.742188-12.800781 5.921875-5.398438 9.394531-8.535157 15.585937-8.398438 6.511719.835938 12.453125 4.132813 16.609375 9.214844 6.078125 7.019531 14.675781 11.363281 23.933594 12.097656.933594-.003906 1.863281-.050781 2.792969-.144531 8.433594-1.304688 16-5.910156 21.03125-12.800781 2.839844-4.082031 6.957031-7.097657 11.703125-8.574219 6.480469-1.433594 14.601562 1.597656 24.203125 9.117188 2.515625 1.941406 5.945312 2.203124 8.730468.675781 2.785157-1.53125 4.402344-4.566407 4.117188-7.730469-10.457031-121.472656-110.375-215.777344-232.25-219.199219zm191.703125 203.382813c-8.003906 2.117187-15.078125 6.835937-20.101563 13.417968-4.28125 4.71875-6.703124 7.199219-10.824218 7.621094-4.960938.570313-8.441406-2.480468-14.28125-7.824218-6.957032-7.878907-16.742188-12.695313-27.230469-13.398438h-.367187c-10.074219.496094-19.519532 5.042969-26.195313 12.609375-5.832031 5.335937-9.710937 8.597656-15.941406 8.597656-6.234375 0-9.875-3.070312-15.824219-8.511719-6.789062-7.652343-16.386719-12.234374-26.609375-12.695312-10.21875.460938-19.816406 5.042969-26.609375 12.695312-5.949219 5.441407-9.597656 8.511719-15.8125 8.511719-6.21875 0-9.859375-3.070312-15.808594-8.511719-6.792968-7.648437-16.390625-12.230468-26.609375-12.695312-10.222656.464844-19.820312 5.042969-26.617187 12.695312-5.949219 5.441407-9.597656 8.511719-15.804688 8.511719-6.210937 0-9.867187-3.070312-15.816406-8.511719-6.789062-7.652343-16.390625-12.234374-26.609375-12.695312-10.21875.460938-19.820313 5.042969-26.609375 12.695312-5.949219 5.441407-9.597656 8.511719-15.816406 8.511719-6.207032-.566406-11.957032-3.507812-16.046875-8.214843-6.90625-6.875-15.800781-11.402344-25.421875-12.9375-3.546875-.417969-7.132813-.339844-10.65625.242187 19.25-108.042969 113.539062-186.507813 223.28125-185.808594 109.742187.695313 203.023437 80.351563 220.902344 188.632813-7.003907-3.40625-14.925782-4.4375-22.570313-2.9375zm0 0" fill="#006d95"/></svg>