<svg xmlns="http://www.w3.org/2000/svg" height="512pt" version="1.1" viewBox="0 0 512 512" width="512pt">
<g id="surface1">
<path d="M 490.992188 128.957031 L 383.042969 21.007812 C 369.492188 7.464844 351.488281 0 332.332031 0 L 179.667969 0 C 160.511719 0 142.507812 7.464844 128.957031 21.007812 L 21.007812 128.957031 C 7.464844 142.496094 0 160.511719 0 179.667969 L 0 332.332031 C 0 351.488281 7.464844 369.492188 21.007812 383.042969 L 128.957031 490.992188 C 142.507812 504.535156 160.511719 512 179.667969 512 L 332.332031 512 C 351.488281 512 369.492188 504.535156 383.042969 490.992188 L 490.992188 383.042969 C 504.535156 369.492188 512 351.488281 512 332.332031 L 512 179.667969 C 512 160.511719 504.535156 142.496094 490.992188 128.957031 Z M 108.730469 309.152344 C 108.679688 308.53125 108.660156 307.902344 108.660156 307.273438 L 108.660156 204.40625 C 108.660156 198.222656 111.070312 192.398438 115.445312 188.015625 L 188.175781 115.285156 C 192.558594 110.910156 198.382812 108.5 204.566406 108.5 L 307.433594 108.5 C 308.0625 108.5 308.691406 108.519531 309.3125 108.570312 Z M 403.339844 307.273438 C 403.339844 313.457031 400.929688 319.28125 396.554688 323.664062 L 323.824219 396.394531 C 319.441406 400.769531 313.617188 403.179688 307.433594 403.179688 L 204.566406 403.179688 C 203.9375 403.179688 203.308594 403.160156 202.6875 403.109375 L 403.269531 202.527344 C 403.320312 203.148438 403.339844 203.777344 403.339844 204.40625 Z M 403.339844 307.273438 " style=" stroke:none;fill-rule:nonzero;fill:rgb(100%,50.588235%,42.352941%);fill-opacity:1;" />
<path d="M 512 179.667969 L 512 332.332031 C 512 351.488281 504.535156 369.492188 490.992188 383.042969 L 383.042969 490.992188 C 369.492188 504.535156 351.488281 512 332.332031 512 L 256.230469 512 L 256.230469 403.179688 L 307.433594 403.179688 C 313.617188 403.179688 319.441406 400.769531 323.824219 396.394531 L 396.554688 323.664062 C 400.929688 319.28125 403.339844 313.457031 403.339844 307.273438 L 403.339844 204.40625 C 403.339844 203.777344 403.320312 203.148438 403.269531 202.527344 L 256.230469 349.566406 L 256.230469 161.652344 L 309.3125 108.570312 C 308.691406 108.519531 308.0625 108.5 307.433594 108.5 L 256.230469 108.5 L 256.230469 0 L 332.332031 0 C 351.488281 0 369.492188 7.464844 383.042969 21.007812 L 490.992188 128.957031 C 504.535156 142.496094 512 160.511719 512 179.667969 Z M 512 179.667969 " style=" stroke:none;fill-rule:nonzero;fill:rgb(93.72549%,24.313725%,20.784314%);fill-opacity:1;" />
<path d="M 490.992188 128.957031 L 383.042969 21.007812 C 369.492188 7.464844 351.488281 0 332.332031 0 L 179.667969 0 C 160.511719 0 142.507812 7.464844 128.957031 21.007812 L 21.007812 128.957031 C 7.464844 142.496094 0 160.511719 0 179.667969 L 0 332.332031 C 0 351.488281 7.464844 369.492188 21.007812 383.042969 L 128.957031 490.992188 C 142.507812 504.535156 160.511719 512 179.667969 512 L 332.332031 512 C 351.488281 512 369.492188 504.535156 383.042969 490.992188 L 490.992188 383.042969 C 504.535156 369.492188 512 351.488281 512 332.332031 L 512 179.667969 C 512 160.511719 504.535156 142.496094 490.992188 128.957031 Z M 481.976562 332.332031 C 481.976562 343.472656 477.632812 353.941406 469.765625 361.808594 L 361.808594 469.765625 C 353.941406 477.632812 343.472656 481.976562 332.332031 481.976562 L 179.667969 481.976562 C 168.527344 481.976562 158.058594 477.632812 150.191406 469.765625 L 42.234375 361.808594 C 34.367188 353.941406 30.023438 343.472656 30.023438 332.332031 L 30.023438 179.667969 C 30.023438 168.527344 34.367188 158.058594 42.234375 150.191406 L 150.191406 42.234375 C 158.058594 34.367188 168.527344 30.023438 179.667969 30.023438 L 332.332031 30.023438 C 343.472656 30.023438 353.941406 34.367188 361.808594 42.234375 L 469.765625 150.191406 C 477.632812 158.058594 481.976562 168.527344 481.976562 179.667969 Z M 481.976562 332.332031 " style=" stroke:none;fill-rule:nonzero;fill:rgb(100%,76.862745%,46.666667%);fill-opacity:1;" />
<path d="M 342.390625 91.566406 C 332.722656 83.117188 320.304688 78.472656 307.433594 78.472656 L 204.566406 78.472656 C 190.355469 78.472656 176.996094 84.007812 166.945312 94.058594 L 94.21875 166.785156 C 84.167969 176.835938 78.632812 190.195312 78.632812 204.40625 L 78.632812 307.273438 C 78.632812 320.144531 83.277344 332.5625 91.726562 342.230469 C 94.886719 345.855469 99.472656 348.035156 104.296875 348.195312 C 104.484375 348.207031 104.6875 348.207031 104.875 348.207031 C 109.5 348.207031 113.984375 346.355469 117.257812 343.082031 L 343.242188 117.097656 C 346.65625 113.683594 348.515625 108.960938 348.355469 104.136719 C 348.195312 99.3125 346.015625 94.726562 342.390625 91.566406 Z M 108.730469 309.152344 C 108.679688 308.53125 108.660156 307.902344 108.660156 307.273438 L 108.660156 204.40625 C 108.660156 198.222656 111.070312 192.398438 115.445312 188.015625 L 188.175781 115.285156 C 192.558594 110.910156 198.382812 108.5 204.566406 108.5 L 307.433594 108.5 C 308.0625 108.5 308.691406 108.519531 309.3125 108.570312 Z M 108.730469 309.152344 " style=" stroke:none;fill-rule:nonzero;fill:rgb(100%,76.862745%,46.666667%);fill-opacity:1;" />
<path d="M 420.273438 169.449219 C 417.113281 165.824219 412.527344 163.644531 407.703125 163.484375 C 402.878906 163.3125 398.15625 165.183594 394.742188 168.597656 L 168.757812 394.582031 C 165.34375 397.996094 163.484375 402.71875 163.644531 407.542969 C 163.804688 412.367188 165.984375 416.953125 169.609375 420.113281 C 179.285156 428.5625 191.695312 433.207031 204.566406 433.207031 L 307.433594 433.207031 C 321.644531 433.207031 335.003906 427.671875 345.054688 417.621094 L 417.78125 344.894531 C 427.832031 334.84375 433.367188 321.484375 433.367188 307.273438 L 433.367188 204.40625 C 433.367188 191.539062 428.722656 179.117188 420.273438 169.449219 Z M 403.339844 307.273438 C 403.339844 313.457031 400.929688 319.28125 396.554688 323.664062 L 323.824219 396.394531 C 319.441406 400.769531 313.617188 403.179688 307.433594 403.179688 L 204.566406 403.179688 C 203.9375 403.179688 203.308594 403.160156 202.6875 403.109375 L 403.269531 202.527344 C 403.320312 203.148438 403.339844 203.777344 403.339844 204.40625 Z M 403.339844 307.273438 " style=" stroke:none;fill-rule:nonzero;fill:rgb(100%,76.862745%,46.666667%);fill-opacity:1;" />
<path d="M 348.355469 104.136719 C 348.515625 108.960938 346.65625 113.683594 343.242188 117.097656 L 256 204.335938 L 256 161.882812 L 309.3125 108.570312 C 308.691406 108.519531 308.0625 108.5 307.433594 108.5 L 256 108.5 L 256 78.472656 L 307.433594 78.472656 C 320.304688 78.472656 332.722656 83.117188 342.390625 91.566406 C 346.015625 94.726562 348.195312 99.3125 348.355469 104.136719 Z M 348.355469 104.136719 " style=" stroke:none;fill-rule:nonzero;fill:rgb(100%,56.862745%,0%);fill-opacity:1;" />
<path d="M 433.367188 204.40625 L 433.367188 307.273438 C 433.367188 321.484375 427.832031 334.84375 417.78125 344.894531 L 345.054688 417.621094 C 335.003906 427.671875 321.644531 433.207031 307.433594 433.207031 L 256 433.207031 L 256 403.179688 L 307.433594 403.179688 C 313.617188 403.179688 319.441406 400.769531 323.824219 396.394531 L 396.554688 323.664062 C 400.929688 319.28125 403.339844 313.457031 403.339844 307.273438 L 403.339844 204.40625 C 403.339844 203.777344 403.320312 203.148438 403.269531 202.527344 L 256 349.796875 L 256 307.34375 L 394.742188 168.597656 C 398.15625 165.183594 402.878906 163.3125 407.703125 163.484375 C 412.527344 163.644531 417.113281 165.824219 420.273438 169.449219 C 428.722656 179.117188 433.367188 191.539062 433.367188 204.40625 Z M 433.367188 204.40625 " style=" stroke:none;fill-rule:nonzero;fill:rgb(100%,56.862745%,0%);fill-opacity:1;" />
<path d="M 512 179.667969 L 512 332.332031 C 512 351.488281 504.535156 369.492188 490.992188 383.042969 L 383.042969 490.992188 C 369.492188 504.535156 351.488281 512 332.332031 512 L 256 512 L 256 481.976562 L 332.332031 481.976562 C 343.472656 481.976562 353.941406 477.632812 361.808594 469.765625 L 469.765625 361.808594 C 477.632812 353.941406 481.976562 343.472656 481.976562 332.332031 L 481.976562 179.667969 C 481.976562 168.527344 477.632812 158.058594 469.765625 150.191406 L 361.808594 42.234375 C 353.941406 34.367188 343.472656 30.023438 332.332031 30.023438 L 256 30.023438 L 256 0 L 332.332031 0 C 351.488281 0 369.492188 7.464844 383.042969 21.007812 L 490.992188 128.957031 C 504.535156 142.496094 512 160.511719 512 179.667969 Z M 512 179.667969 " style=" stroke:none;fill-rule:nonzero;fill:rgb(100%,56.862745%,0%);fill-opacity:1;" />
</g>
</svg>