<svg height="512pt" viewBox="-18 0 512 512" width="512pt" xmlns="http://www.w3.org/2000/svg"><path d="m459.769531 512h-443.46875c-9 0-16.300781-7.300781-16.300781-16.300781v-295.28125c0-9.003907 7.300781-16.304688 16.300781-16.304688h443.46875c9.003907 0 16.300781 7.300781 16.300781 16.304688v295.28125c0 9-7.296874 16.300781-16.300781 16.300781zm0 0" fill="#ffe471"/><path d="m16.300781 512h443.46875c9.003907 0 16.300781-7.300781 16.300781-16.300781v-295.28125c0-9.003907-7.296874-16.304688-16.300781-16.304688h-35.402343v270.089844c0 6.980469-5.660157 12.640625-12.640626 12.640625h-411.726562v28.855469c0 9 7.300781 16.300781 16.300781 16.300781zm0 0" fill="#f2ca20"/><path d="m238.035156 311.933594 233.996094 194.484375c-2.988281 3.414062-7.367188 5.582031-12.261719 5.582031h-443.46875c-4.894531 0-9.269531-2.167969-12.257812-5.582031zm0 0" fill="#ead168"/><path d="m16.300781 512h443.46875c4.894531 0 9.273438-2.167969 12.261719-5.582031l-51.703125-42.96875c-2.257813 2.101562-5.273437 3.398437-8.601563 3.398437h-360.074218l-47.59375 39.589844c2.988281 3.402344 7.359375 5.5625 12.242187 5.5625zm0 0" fill="#ddc357"/><path d="m246.917969 376.800781 225.113281-187.105469c-2.988281-3.414062-7.367188-5.578124-12.261719-5.578124h-443.46875c-4.894531 0-9.269531 2.164062-12.257812 5.578124l225.109375 187.105469c5.148437 4.277344 12.617187 4.277344 17.765625 0zm0 0" fill="#f79f48"/><path d="m336.304688 0h-273.914063c-5.902344 0-10.6875 4.785156-10.6875 10.6875v218.625l177.449219 147.488281c5.148437 4.277344 12.617187 4.277344 17.765625 0l177.449219-147.488281v-141.25zm0 0" fill="#ededed"/><g fill="#2a4d5e"><path d="m313.753906 214.671875h-40.550781c-4.265625 0-7.726563-3.457031-7.726563-7.726563 0-4.265624 3.460938-7.726562 7.726563-7.726562h40.550781c4.265625 0 7.726563 3.460938 7.726563 7.726562 0 4.269532-3.460938 7.726563-7.726563 7.726563zm0 0"/><path d="m202.867188 214.671875h-40.550782c-4.265625 0-7.722656-3.457031-7.722656-7.726563 0-4.265624 3.457031-7.726562 7.722656-7.726562h40.550782c4.269531 0 7.726562 3.460938 7.726562 7.726562 0 4.269532-3.457031 7.726563-7.726562 7.726563zm0 0"/><path d="m275.527344 192.894531c-3.023438 0-5.890625-1.785156-7.132813-4.746093-1.644531-3.933594.210938-8.460938 4.144531-10.109376l12.859376-5.378906c7.054687-2.953125 12.066406-9.5 13.078124-17.082031l2.867188-21.496094c.5625-4.226562 4.445312-7.199219 8.679688-6.636719 4.230468.566407 7.203124 4.449219 6.636718 8.679688l-2.863281 21.496094c-1.734375 13.007812-10.332031 24.230468-22.433594 29.292968l-12.855469 5.382813c-.976562.402344-1.988281.597656-2.980468.597656zm0 0"/><path d="m200.546875 192.894531c-.996094 0-2.007813-.191406-2.980469-.601562l-12.859375-5.378907c-12.101562-5.066406-20.695312-16.289062-22.429687-29.292968l-2.867188-21.496094c-.5625-4.230469 2.40625-8.117188 6.636719-8.679688 4.234375-.570312 8.117187 2.40625 8.679687 6.636719l2.867188 21.496094c1.011719 7.582031 6.023438 14.125 13.078125 17.078125l12.859375 5.382812c3.9375 1.644532 5.792969 6.171876 4.144531 10.109376-1.238281 2.960937-4.109375 4.746093-7.128906 4.746093zm0 0"/><path d="m308.992188 284.140625c-3.8125 0-7.128907-2.824219-7.648438-6.707031l-2.867188-21.496094c-1.011718-7.582031-6.023437-14.128906-13.078124-17.082031l-12.859376-5.378907c-3.933593-1.648437-5.789062-6.175781-4.140624-10.109374 1.644531-3.9375 6.171874-5.792969 10.109374-4.144532l12.855469 5.378906c12.105469 5.066407 20.699219 16.289063 22.433594 29.292969l2.863281 21.496094c.566406 4.230469-2.40625 8.117187-6.636718 8.679687-.347657.046876-.691407.070313-1.03125.070313zm0 0"/><path d="m167.078125 284.140625c-.339844 0-.683594-.023437-1.03125-.070313-4.230469-.5625-7.199219-4.449218-6.636719-8.679687l2.867188-21.496094c1.734375-13.003906 10.328125-24.230469 22.433594-29.292969l12.855468-5.378906c3.9375-1.648437 8.460938.207032 10.109375 4.140625 1.648438 3.9375-.207031 8.464844-4.144531 10.113281l-12.855469 5.378907c-7.058593 2.953125-12.070312 9.5-13.082031 17.082031l-2.867188 21.496094c-.515624 3.882812-3.835937 6.707031-7.648437 6.707031zm0 0"/></g><path d="m424.367188 88.0625h-71.003907v19.105469c0 6.523437 5.175781 11.8125 11.566407 11.8125h7.785156v153.261719l51.652344-42.929688zm0 0" fill="#d6d6d6"/><path d="m336.304688 76.25v-76.25l88.0625 88.0625h-76.25c-6.523438 0-11.8125-5.289062-11.8125-11.8125zm0 0" fill="#75cff2"/><path d="m270.898438 160.839844c0 18.148437-14.714844 32.863281-32.863282 32.863281-18.148437 0-32.859375-14.714844-32.859375-32.863281 0-18.148438 14.710938-32.863282 32.859375-32.863282 18.148438 0 32.863282 14.714844 32.863282 32.863282zm0 0" fill="#8c4949"/><path d="m254.898438 269.933594c-10.382813 6.203125-23.339844 6.203125-33.722657 0-16.988281-10.152344-27.386719-28.484375-27.386719-48.269532v-30.996093c0-16.472657 13.355469-29.828125 29.828126-29.828125h28.839843c16.472657 0 29.828125 13.355468 29.828125 29.828125v30.996093c0 19.785157-10.402344 38.117188-27.386718 48.269532zm0 0" fill="#f43b45"/><path d="m245.761719 273.648438v-83.644532h-15.453125v83.644532c5.078125 1.226562 10.375 1.226562 15.453125 0zm0 0" fill="#cf3735"/><path d="m94.785156 47.128906h74.886719c4.265625 0 7.726563-3.460937 7.726563-7.726562 0-4.269532-3.460938-7.726563-7.726563-7.726563h-74.886719c-4.265625 0-7.726562 3.457031-7.726562 7.726563 0 4.265625 3.460937 7.726562 7.726562 7.726562zm0 0" fill="#53b4e4"/><path d="m169.671875 62.730469h-74.886719c-4.265625 0-7.726562 3.460937-7.726562 7.726562 0 4.269531 3.460937 7.726563 7.726562 7.726563h74.886719c4.265625 0 7.726563-3.457032 7.726563-7.726563 0-4.265625-3.460938-7.726562-7.726563-7.726562zm0 0" fill="#53b4e4"/><path d="m252.457031 160.839844h-28.839843c-6.664063 0-12.816407 2.183594-17.78125 5.875-10.273438 7.640625-4.90625 23.953125 7.898437 23.953125h48.621094c12.519531 0 18.238281-15.941407 8.339843-23.601563-5.039062-3.902344-11.371093-6.226562-18.238281-6.226562zm0 0" fill="#676a75"/></svg>