<svg xmlns="http://www.w3.org/2000/svg" height="512pt" version="1.1" viewBox="-32 0 512 512.00003" width="512pt">
<g id="surface1">
<path d="M 373.066406 22.277344 L 373.066406 441.578125 L 22.277344 441.578125 C 9.988281 441.578125 0 431.589844 0 419.300781 L 0 95.171875 C 0 89.226562 2.320312 83.632812 6.523438 79.417969 L 79.417969 6.523438 C 83.621094 2.320312 89.214844 0 95.171875 0 L 350.789062 0 C 363.070312 0 373.066406 9.996094 373.066406 22.277344 Z M 373.066406 22.277344 " style=" stroke:none;fill-rule:nonzero;fill:rgb(88.235294%,92.156863%,94.117647%);fill-opacity:1;" />
<path d="M 373.066406 22.277344 L 373.066406 441.578125 L 186.527344 441.578125 L 186.527344 0 L 350.789062 0 C 363.070312 0 373.066406 9.996094 373.066406 22.277344 Z M 373.066406 22.277344 " style=" stroke:none;fill-rule:nonzero;fill:rgb(70.588235%,82.352941%,84.313725%);fill-opacity:1;" />
<path d="M 107.167969 0 L 107.167969 90.027344 C 107.167969 99.484375 99.484375 107.167969 90.027344 107.167969 L 0 107.167969 L 0 95.171875 C 0 89.226562 2.320312 83.632812 6.523438 79.417969 L 79.417969 6.523438 C 83.621094 2.320312 89.214844 0 95.171875 0 Z M 107.167969 0 " style=" stroke:none;fill-rule:nonzero;fill:rgb(70.588235%,82.352941%,84.313725%);fill-opacity:1;" />
<path d="M 438.9375 443 C 427.105469 475.0625 402.457031 497.839844 365.679688 510.710938 C 364.679688 511.058594 363.621094 511.339844 362.558594 511.558594 C 361.066406 511.851562 359.566406 512 358.054688 512 C 356.773438 512 355.492188 511.898438 354.214844 511.679688 L 353.53125 511.550781 C 352.480469 511.339844 351.449219 511.058594 350.449219 510.710938 C 313.621094 497.871094 288.953125 475.101562 277.136719 443.027344 C 267.296875 416.320312 267.839844 387.738281 268.277344 364.78125 L 268.289062 364.179688 C 268.371094 362.480469 268.417969 360.648438 268.449219 358.597656 C 268.679688 343.226562 280.898438 330.515625 296.261719 329.664062 C 315.585938 328.582031 330.464844 322.339844 343.105469 310.019531 L 343.433594 309.710938 C 347.597656 305.886719 352.832031 303.976562 358.054688 303.976562 C 363.28125 303.976562 368.511719 305.886719 372.675781 309.710938 L 373.007812 310.019531 C 385.644531 322.339844 400.527344 328.582031 419.851562 329.664062 C 435.214844 330.515625 447.433594 343.226562 447.652344 358.597656 C 447.691406 360.65625 447.742188 362.488281 447.824219 364.179688 L 447.832031 364.582031 C 448.273438 387.585938 448.8125 416.21875 438.9375 443 Z M 438.9375 443 " style=" stroke:none;fill-rule:nonzero;fill:rgb(82.352941%,62.745098%,96.078431%);fill-opacity:1;" />
<path d="M 438.9375 443 C 427.105469 475.0625 402.457031 497.839844 365.679688 510.710938 C 364.679688 511.058594 363.621094 511.339844 362.558594 511.558594 C 361.066406 511.851562 359.566406 512 358.054688 512 L 358.054688 303.976562 C 363.28125 303.976562 368.511719 305.886719 372.675781 309.710938 L 373.007812 310.019531 C 385.644531 322.339844 400.527344 328.582031 419.851562 329.664062 C 435.214844 330.515625 447.433594 343.226562 447.652344 358.597656 C 447.691406 360.65625 447.742188 362.488281 447.824219 364.179688 L 447.832031 364.582031 C 448.273438 387.585938 448.8125 416.21875 438.9375 443 Z M 438.9375 443 " style=" stroke:none;fill-rule:nonzero;fill:rgb(63.529412%,37.647059%,89.803922%);fill-opacity:1;" />
</g>
</svg>