<svg height="511pt" viewBox="1 -21 511.999 511" width="511pt" xmlns="http://www.w3.org/2000/svg"><path d="m289.265625 222.886719v-91.011719c0-50.945312 40.679687-93.21875 91.625-93.710938 51.441406-.5 93.449219 41.203126 93.449219 92.53125v73.363282c0 10.398437 8.429687 18.828125 18.832031 18.828125 10.398437 0 18.828125-8.429688 18.828125-18.828125v-72.101563c0-71.96875-57.859375-131.257812-129.828125-131.457031-71.957031-.199219-130.566406 58.28125-130.566406 130.195312v92.191407zm0 0" fill="#bebebe"/><path d="m305.265625 446.167969h-290.894531c-7.9375 0-14.371094-6.433594-14.371094-14.367188v-208.042969c0-7.9375 6.433594-14.371093 14.371094-14.371093h290.894531c7.9375 0 14.371094 6.433593 14.371094 14.371093v208.042969c0 7.933594-6.4375 14.367188-14.371094 14.367188zm0 0" fill="#676a75"/><path d="m305.265625 209.386719h-37.523437v236.78125h37.523437c7.933594 0 14.371094-6.433594 14.371094-14.367188v-208.042969c0-7.9375-6.4375-14.371093-14.371094-14.371093zm0 0" fill="#454851"/><g fill="#ffe471"><path d="m95.894531 383.492188h-18.230469c-5.320312 0-9.636718-4.316407-9.636718-9.640626v-93.34375c0-5.324218 4.316406-9.640624 9.636718-9.640624h18.230469c5.320313 0 9.636719 4.316406 9.636719 9.640624v93.34375c0 5.324219-4.3125 9.640626-9.636719 9.640626zm0 0"/><path d="m168.929688 383.492188h-18.226563c-5.324219 0-9.640625-4.316407-9.640625-9.640626v-93.34375c0-5.324218 4.316406-9.640624 9.640625-9.640624h18.226563c5.324218 0 9.640624 4.316406 9.640624 9.640624v93.34375c0 5.324219-4.316406 9.640626-9.640624 9.640626zm0 0"/><path d="m241.96875 383.492188h-18.226562c-5.324219 0-9.640626-4.316407-9.640626-9.640626v-93.34375c0-5.324218 4.316407-9.640624 9.640626-9.640624h18.226562c5.324219 0 9.640625 4.316406 9.640625 9.640624v93.34375c0 5.324219-4.316406 9.640626-9.640625 9.640626zm0 0"/></g><path d="m68.027344 309.957031h37.503906v34.445313h-37.503906zm0 0" fill="#f79f48"/><path d="m141.0625 309.957031h37.507812v34.445313h-37.507812zm0 0" fill="#f79f48"/><path d="m214.101562 309.957031h37.507813v34.445313h-37.507813zm0 0" fill="#f79f48"/><path d="m374.640625 398.535156c0 39.410156-31.949219 71.355469-71.355469 71.355469-39.410156 0-71.355468-31.945313-71.355468-71.355469 0-39.40625 31.945312-71.355468 71.355468-71.355468 39.40625 0 71.355469 31.949218 71.355469 71.355468zm0 0" fill="#f43b45"/><path d="m303.285156 327.179688c-9.117187 0-17.824218 1.730468-25.839844 4.84375 26.632813 10.355468 45.519532 36.21875 45.519532 66.511718 0 30.292969-18.886719 56.160156-45.519532 66.515625 8.015626 3.113281 16.722657 4.84375 25.839844 4.84375 39.40625 0 71.355469-31.949219 71.355469-71.359375 0-39.40625-31.949219-71.355468-71.355469-71.355468zm0 0" fill="#cf3735"/><path d="m313.367188 438.101562c0 4.683594-4.03125 8.847657-8.847657 8.847657-5.074219 0-8.847656-4.164063-8.847656-8.847657 0-4.8125 3.773437-8.847656 8.847656-8.847656 4.816407 0 8.847657 4.035156 8.847657 8.847656zm-2.601563-23.160156c0 3.515625-3.773437 4.945313-6.375 4.945313-3.382813 0-6.375-1.429688-6.375-4.945313 0-17.171875-1.691406-40.074218-1.691406-57.246094 0-4.554687 3.511719-7.15625 8.066406-7.15625 4.425781 0 8.195313 2.601563 8.195313 7.15625 0 17.171876-1.820313 40.074219-1.820313 57.246094zm0 0" fill="#ededed"/></svg>