<svg xmlns="http://www.w3.org/2000/svg" height="511pt" version="1.1" viewBox="0 1 511 511.99997" width="511pt">
<g id="surface1">
<path d="M 512.488281 256.003906 C 512.488281 324.382812 485.859375 388.671875 437.515625 437.015625 C 389.191406 485.339844 324.953125 511.96875 256.625 512 L 256.496094 512 C 188.117188 512 123.828125 485.371094 75.472656 437.015625 C 27.128906 388.671875 0.5 324.382812 0.5 256.003906 C 0.5 187.625 27.128906 123.328125 75.472656 74.984375 C 123.828125 26.628906 188.117188 0 256.496094 0 L 256.625 0 C 324.953125 0.03125 389.191406 26.660156 437.515625 74.984375 C 485.859375 123.328125 512.488281 187.625 512.488281 256.003906 Z M 512.488281 256.003906 " style=" stroke:none;fill-rule:nonzero;fill:rgb(98.823529%,96.862745%,79.215686%);fill-opacity:1;" />
<path d="M 512.488281 256.003906 C 512.488281 324.382812 485.859375 388.671875 437.515625 437.015625 C 389.191406 485.339844 324.953125 511.96875 256.625 512 L 256.625 0 C 324.953125 0.03125 389.191406 26.660156 437.515625 74.984375 C 485.859375 123.328125 512.488281 187.625 512.488281 256.003906 Z M 512.488281 256.003906 " style=" stroke:none;fill-rule:nonzero;fill:rgb(100%,90.980392%,61.176471%);fill-opacity:1;" />
<path d="M 435.0625 256.003906 C 435.0625 354.464844 354.957031 434.574219 256.496094 434.574219 C 158.035156 434.574219 77.925781 354.464844 77.925781 256.003906 C 77.925781 157.535156 158.035156 77.425781 256.496094 77.425781 C 354.957031 77.425781 435.0625 157.535156 435.0625 256.003906 Z M 435.0625 256.003906 " style=" stroke:none;fill-rule:nonzero;fill:rgb(100%,89.411765%,46.666667%);fill-opacity:1;" />
<path d="M 435.0625 256.003906 C 435.0625 354.464844 354.957031 434.574219 256.496094 434.574219 L 256.496094 77.425781 C 354.957031 77.425781 435.0625 157.535156 435.0625 256.003906 Z M 435.0625 256.003906 " style=" stroke:none;fill-rule:nonzero;fill:rgb(100%,80.392157%,0%);fill-opacity:1;" />
<path d="M 271.625 173.824219 L 271.625 289.507812 C 271.625 297.796875 264.902344 304.519531 256.613281 304.519531 L 256.496094 304.519531 C 248.25 304.449219 241.605469 297.753906 241.605469 289.507812 L 241.605469 173.824219 C 241.605469 165.570312 248.25 158.886719 256.496094 158.816406 L 256.613281 158.816406 C 264.902344 158.816406 271.625 165.53125 271.625 173.824219 Z M 271.625 173.824219 " style=" stroke:none;fill-rule:nonzero;fill:rgb(100%,50.588235%,42.352941%);fill-opacity:1;" />
<path d="M 271.617188 336.542969 C 271.617188 337.035156 271.597656 337.523438 271.546875 338.015625 C 271.496094 338.503906 271.425781 338.996094 271.324219 339.476562 C 271.234375 339.957031 271.105469 340.425781 270.964844 340.894531 C 270.824219 341.367188 270.65625 341.828125 270.476562 342.277344 C 270.285156 342.726562 270.074219 343.179688 269.84375 343.609375 C 269.613281 344.039062 269.363281 344.46875 269.09375 344.871094 C 268.8125 345.28125 268.523438 345.679688 268.214844 346.058594 C 267.902344 346.441406 267.574219 346.8125 267.222656 347.152344 C 266.882812 347.5 266.511719 347.832031 266.132812 348.140625 C 265.75 348.453125 265.351562 348.753906 264.941406 349.023438 C 264.539062 349.292969 264.109375 349.542969 263.679688 349.773438 C 263.25 350.003906 262.800781 350.214844 262.347656 350.402344 C 261.898438 350.582031 261.4375 350.753906 260.96875 350.894531 C 260.496094 351.035156 260.015625 351.164062 259.546875 351.253906 C 259.066406 351.355469 258.578125 351.425781 258.085938 351.472656 C 257.597656 351.523438 257.105469 351.554688 256.613281 351.554688 L 256.496094 351.554688 C 256.042969 351.554688 255.585938 351.523438 255.132812 351.472656 C 254.652344 351.425781 254.164062 351.355469 253.683594 351.253906 C 253.203125 351.164062 252.722656 351.035156 252.25 350.894531 C 251.78125 350.753906 251.320312 350.582031 250.871094 350.402344 C 250.421875 350.214844 249.96875 350.003906 249.539062 349.773438 C 249.109375 349.542969 248.6875 349.292969 248.277344 349.023438 C 247.867188 348.753906 247.46875 348.453125 247.089844 348.140625 C 246.707031 347.832031 246.335938 347.5 245.996094 347.152344 C 245.648438 346.8125 245.316406 346.441406 245.007812 346.058594 C 244.695312 345.679688 244.40625 345.28125 244.136719 344.871094 C 243.855469 344.46875 243.605469 344.039062 243.375 343.609375 C 243.144531 343.179688 242.933594 342.726562 242.753906 342.277344 C 242.566406 341.828125 242.394531 341.367188 242.253906 340.894531 C 242.113281 340.425781 241.996094 339.957031 241.894531 339.476562 C 241.792969 338.996094 241.722656 338.503906 241.675781 338.015625 C 241.625 337.523438 241.605469 337.035156 241.605469 336.542969 C 241.605469 336.054688 241.625 335.550781 241.675781 335.0625 C 241.722656 334.582031 241.792969 334.089844 241.894531 333.609375 C 241.996094 333.128906 242.113281 332.652344 242.253906 332.179688 C 242.394531 331.710938 242.566406 331.25 242.753906 330.800781 C 242.933594 330.347656 243.144531 329.898438 243.375 329.46875 C 243.605469 329.039062 243.855469 328.617188 244.136719 328.207031 C 244.40625 327.796875 244.695312 327.398438 245.007812 327.027344 C 245.316406 326.636719 245.648438 326.277344 245.996094 325.925781 C 246.335938 325.574219 246.707031 325.246094 247.089844 324.933594 C 247.46875 324.625 247.867188 324.335938 248.277344 324.054688 C 248.6875 323.785156 249.109375 323.535156 249.539062 323.304688 C 249.96875 323.074219 250.421875 322.863281 250.871094 322.683594 C 251.320312 322.492188 251.78125 322.324219 252.25 322.183594 C 252.722656 322.042969 253.203125 321.921875 253.683594 321.824219 C 254.164062 321.722656 254.652344 321.652344 255.132812 321.601562 C 255.585938 321.550781 256.035156 321.523438 256.496094 321.523438 C 257.023438 321.523438 257.554688 321.550781 258.085938 321.601562 C 258.578125 321.652344 259.066406 321.722656 259.546875 321.824219 C 260.015625 321.921875 260.496094 322.042969 260.96875 322.183594 C 261.4375 322.324219 261.898438 322.492188 262.347656 322.683594 C 262.800781 322.863281 263.25 323.074219 263.679688 323.304688 C 264.109375 323.535156 264.539062 323.785156 264.941406 324.054688 C 265.351562 324.335938 265.75 324.625 266.132812 324.933594 C 266.511719 325.246094 266.882812 325.574219 267.222656 325.925781 C 267.574219 326.277344 267.902344 326.636719 268.214844 327.027344 C 268.523438 327.398438 268.8125 327.796875 269.09375 328.207031 C 269.363281 328.617188 269.613281 329.039062 269.84375 329.46875 C 270.074219 329.898438 270.285156 330.347656 270.476562 330.800781 C 270.65625 331.25 270.824219 331.710938 270.964844 332.179688 C 271.105469 332.652344 271.234375 333.128906 271.324219 333.609375 C 271.425781 334.089844 271.496094 334.582031 271.546875 335.0625 C 271.597656 335.550781 271.617188 336.054688 271.617188 336.542969 Z M 271.617188 336.542969 " style=" stroke:none;fill-rule:nonzero;fill:rgb(100%,50.588235%,42.352941%);fill-opacity:1;" />
<path d="M 271.546875 335.0625 C 271.597656 335.550781 271.617188 336.054688 271.617188 336.542969 C 271.617188 337.035156 271.597656 337.523438 271.546875 338.015625 C 271.496094 338.503906 271.425781 338.996094 271.324219 339.476562 C 271.234375 339.957031 271.105469 340.425781 270.964844 340.894531 C 270.824219 341.367188 270.65625 341.828125 270.476562 342.277344 C 270.285156 342.726562 270.074219 343.179688 269.84375 343.609375 C 269.613281 344.039062 269.363281 344.46875 269.09375 344.871094 C 268.8125 345.28125 268.523438 345.679688 268.214844 346.058594 C 267.902344 346.441406 267.574219 346.8125 267.222656 347.152344 C 266.882812 347.5 266.511719 347.832031 266.132812 348.140625 C 265.75 348.453125 265.351562 348.753906 264.941406 349.023438 C 264.539062 349.292969 264.109375 349.542969 263.679688 349.773438 C 263.25 350.003906 262.800781 350.214844 262.347656 350.402344 C 261.898438 350.582031 261.4375 350.753906 260.96875 350.894531 C 260.496094 351.035156 260.015625 351.164062 259.546875 351.253906 C 259.066406 351.355469 258.578125 351.425781 258.085938 351.472656 C 257.597656 351.523438 257.105469 351.554688 256.613281 351.554688 L 256.496094 351.554688 L 256.496094 321.523438 C 257.023438 321.523438 257.554688 321.550781 258.085938 321.601562 C 258.578125 321.652344 259.066406 321.722656 259.546875 321.824219 C 260.015625 321.921875 260.496094 322.042969 260.96875 322.183594 C 261.4375 322.324219 261.898438 322.492188 262.347656 322.683594 C 262.800781 322.863281 263.25 323.074219 263.679688 323.304688 C 264.109375 323.535156 264.539062 323.785156 264.941406 324.054688 C 265.351562 324.335938 265.75 324.625 266.132812 324.933594 C 266.511719 325.246094 266.882812 325.574219 267.222656 325.925781 C 267.574219 326.277344 267.902344 326.636719 268.214844 327.027344 C 268.523438 327.398438 268.8125 327.796875 269.09375 328.207031 C 269.363281 328.617188 269.613281 329.039062 269.84375 329.46875 C 270.074219 329.898438 270.285156 330.347656 270.476562 330.800781 C 270.65625 331.25 270.824219 331.710938 270.964844 332.179688 C 271.105469 332.652344 271.234375 333.128906 271.324219 333.609375 C 271.425781 334.089844 271.496094 334.582031 271.546875 335.0625 Z M 271.546875 335.0625 " style=" stroke:none;fill-rule:nonzero;fill:rgb(93.72549%,24.313725%,20.784314%);fill-opacity:1;" />
<path d="M 271.625 173.824219 L 271.625 289.507812 C 271.625 297.796875 264.902344 304.519531 256.613281 304.519531 L 256.496094 304.519531 L 256.496094 158.816406 L 256.613281 158.816406 C 264.902344 158.816406 271.625 165.53125 271.625 173.824219 Z M 271.625 173.824219 " style=" stroke:none;fill-rule:nonzero;fill:rgb(93.72549%,24.313725%,20.784314%);fill-opacity:1;" />
</g>
</svg>