<svg xmlns="http://www.w3.org/2000/svg" height="512pt" version="1.1" viewBox="-58 0 512 512.00018" width="512pt">
<g id="surface1">
<path d="M 395.089844 314.460938 C 395.089844 366.730469 374.402344 416.199219 336.84375 453.757812 C 299.285156 491.316406 249.808594 512 197.539062 512 C 145.269531 512 95.800781 491.316406 58.242188 453.757812 C 20.6875 416.199219 0 366.730469 0 314.460938 C 0 277.121094 6.246094 240.386719 18.554688 205.277344 C 30.582031 170.953125 48.15625 138.886719 70.773438 109.964844 C 75.507812 103.910156 83.582031 101.519531 90.859375 104.03125 C 98.144531 106.542969 103.039062 113.398438 103.039062 121.105469 C 103.039062 139.019531 109.832031 156.03125 122.183594 168.992188 C 134.53125 181.941406 151.0625 189.367188 168.726562 189.898438 C 179.117188 190.207031 188.851562 188.144531 197.539062 183.851562 C 202.945312 181.179688 207.949219 177.636719 212.449219 173.273438 C 225.921875 160.203125 233.636719 140.699219 233.636719 119.765625 C 233.636719 83.335938 224.988281 39.152344 221.265625 21.851562 C 219.65625 14.34375 222.96875 6.628906 229.523438 2.636719 C 236.070312 -1.359375 244.445312 -0.765625 250.371094 4.097656 C 342.339844 79.644531 395.089844 192.769531 395.089844 314.460938 Z M 395.089844 314.460938 " style=" stroke:none;fill-rule:nonzero;fill:rgb(100%,50.588235%,42.352941%);fill-opacity:1;" />
<path d="M 395.089844 314.460938 C 395.089844 366.730469 374.402344 416.199219 336.84375 453.757812 C 299.285156 491.316406 249.808594 512 197.539062 512 L 197.539062 183.851562 C 202.945312 181.179688 207.949219 177.636719 212.449219 173.273438 C 225.921875 160.203125 233.636719 140.699219 233.636719 119.765625 C 233.636719 83.335938 224.988281 39.152344 221.265625 21.851562 C 219.65625 14.34375 222.96875 6.628906 229.523438 2.636719 C 236.070312 -1.359375 244.445312 -0.765625 250.371094 4.097656 C 342.339844 79.644531 395.089844 192.769531 395.089844 314.460938 Z M 395.089844 314.460938 " style=" stroke:none;fill-rule:nonzero;fill:rgb(93.72549%,24.313725%,20.784314%);fill-opacity:1;" />
<path d="M 321.222656 327.460938 C 321.222656 394.511719 265.8125 449.101562 197.539062 449.542969 C 197.257812 449.554688 196.980469 449.554688 196.699219 449.554688 C 172.871094 449.554688 150.664062 440.6875 134.191406 424.59375 C 117.738281 408.523438 108.671875 386.996094 108.671875 363.96875 C 108.671875 342.332031 115.898438 322.867188 129.566406 307.6875 C 142.886719 292.882812 161.773438 282.835938 184.199219 278.632812 L 184.359375 278.605469 C 188.84375 277.8125 193.234375 276.890625 197.539062 275.839844 C 231.664062 267.535156 259.9375 251.351562 276.320312 230.425781 C 280.480469 225.125 287.1875 222.589844 293.8125 223.8125 C 300.4375 225.035156 305.792969 229.796875 307.78125 236.230469 C 316.699219 265.144531 321.222656 295.835938 321.222656 327.460938 Z M 321.222656 327.460938 " style=" stroke:none;fill-rule:nonzero;fill:rgb(100%,76.862745%,46.666667%);fill-opacity:1;" />
<path d="M 321.222656 327.460938 C 321.222656 394.511719 265.8125 449.101562 197.539062 449.542969 L 197.539062 275.839844 C 231.664062 267.535156 259.9375 251.351562 276.320312 230.425781 C 280.480469 225.125 287.1875 222.589844 293.8125 223.8125 C 300.4375 225.035156 305.792969 229.796875 307.78125 236.230469 C 316.699219 265.144531 321.222656 295.835938 321.222656 327.460938 Z M 321.222656 327.460938 " style=" stroke:none;fill-rule:nonzero;fill:rgb(100%,56.862745%,0%);fill-opacity:1;" />
</g>
</svg>