<svg height="512pt" viewBox="0 -38 512 511" width="512pt" xmlns="http://www.w3.org/2000/svg"><path d="m319.652344 117.664062h-127.304688c-16.433594 0-30.164062 12.507813-31.695312 28.867188l-21.871094 227.730469h234.4375l-21.871094-227.730469c-1.53125-16.359375-15.261718-28.867188-31.695312-28.867188zm0 0" fill="#f43b45"/><path d="m351.347656 146.53125c-1.53125-16.359375-15.261718-28.871094-31.695312-28.871094h-51.507813c16.429688 0 30.164063 12.507813 31.691407 28.871094l21.875 227.730469h51.507812zm0 0" fill="#cf3735"/><path d="m299.347656 381.597656h-86.695312l12.679687-94.886718h61.335938zm0 0" fill="#ef8229"/><path d="m130.730469 427.121094h250.539062c3.585938 0 6.390625-3.085938 6.046875-6.652344l-5.644531-58.765625c-.300781-3.117187-2.914063-5.492187-6.046875-5.492187h-239.25c-3.132812 0-5.746094 2.375-6.046875 5.492187l-5.644531 58.765625c-.34375 3.566406 2.460937 6.652344 6.046875 6.652344zm0 0" fill="#676a75"/><path d="m387.316406 420.46875-5.644531-58.769531c-.300781-3.113281-2.914063-5.492188-6.046875-5.492188h-46.570312l6.8125 70.914063h45.402343c3.585938 0 6.390625-3.085938 6.046875-6.652344zm0 0" fill="#454851"/><path d="m320.390625 226.640625-64.390625 51.617187 64.390625 51.617188c4.148437 3.324219 10.296875.371094 10.296875-4.945312v-93.347657c0-5.3125-6.148438-8.265625-10.296875-4.941406zm0 0" fill="#f79f48"/><path d="m191.609375 226.640625 64.390625 51.617187-64.390625 51.617188c-4.148437 3.324219-10.296875.371094-10.296875-4.945312v-93.347657c0-5.3125 6.148438-8.265625 10.296875-4.941406zm0 0" fill="#f79f48"/><path d="m287.867188 278.257812c0 17.601563-14.265626 31.867188-31.867188 31.867188s-31.867188-14.265625-31.867188-31.867188c0-17.601562 14.265626-31.871093 31.867188-31.871093s31.867188 14.269531 31.867188 31.871093zm0 0" fill="#ffe471"/><path d="m256 67.316406c-7.039062 0-12.746094-5.707031-12.746094-12.746094v-41.324218c0-7.039063 5.707032-12.746094 12.746094-12.746094s12.746094 5.707031 12.746094 12.746094v41.324218c0 7.039063-5.707032 12.746094-12.746094 12.746094zm0 0" fill="#f43b45"/><path d="m387.042969 121.59375c-4.878907-5.074219-4.976563-13.042969 0-18.023438l29.222656-29.222656c4.976563-4.976562 13.046875-4.976562 18.023437 0 4.976563 4.976563 4.976563 13.046875 0 18.023438l-29.222656 29.222656c-3.484375 3.640625-13.566406 4.640625-18.023437 0zm0 0" fill="#cf3735"/><path d="m106.933594 121.59375-29.222656-29.222656c-4.976563-4.976563-4.976563-13.046875 0-18.023438 4.976562-4.976562 13.046874-4.976562 18.023437 0l29.222656 29.222656c4.976563 4.976563 5.023438 13.09375 0 18.023438-5.957031 5.847656-15.589843 2.4375-18.023437 0zm0 0" fill="#cf3735"/><path d="m499.253906 265.382812h-45.1875c-7.039062 0-12.746094-5.707031-12.746094-12.746093 0-7.039063 5.707032-12.742188 12.746094-12.742188h45.1875c7.039063 0 12.746094 5.703125 12.746094 12.742188 0 7.039062-5.707031 12.746093-12.746094 12.746093zm0 0" fill="#f43b45"/><path d="m57.933594 265.382812h-45.1875c-7.039063 0-12.746094-5.707031-12.746094-12.746093 0-7.039063 5.707031-12.742188 12.746094-12.742188h45.1875c7.039062 0 12.746094 5.703125 12.746094 12.742188-.003907 7.039062-5.707032 12.746093-12.746094 12.746093zm0 0" fill="#f43b45"/><path d="m394.859375 434.632812h-277.71875c-2.679687 0-4.855469-2.171874-4.855469-4.855468v-18.640625c0-2.679688 2.175782-4.855469 4.855469-4.855469h277.71875c2.679687 0 4.855469 2.175781 4.855469 4.855469v18.640625c0 2.683594-2.175782 4.855468-4.855469 4.855468zm0 0" fill="#525467"/><path d="m394.859375 406.28125h-47v28.351562h47c2.679687 0 4.855469-2.171874 4.855469-4.855468v-18.640625c0-2.679688-2.175782-4.855469-4.855469-4.855469zm0 0" fill="#3c3f4e"/></svg>