<svg xmlns="http://www.w3.org/2000/svg" height="512pt" version="1.1" viewBox="-85 0 511 512" width="512pt">
<g id="surface1">
<path d="M 341.226562 22.433594 L 341.226562 489.558594 C 341.226562 501.933594 331.160156 512 318.792969 512 L 22.933594 512 C 10.566406 512 0.5 501.933594 0.5 489.558594 L 0.5 22.433594 C 0.5 10.066406 10.566406 0 22.933594 0 L 318.792969 0 C 331.160156 0 341.226562 10.066406 341.226562 22.433594 Z M 341.226562 22.433594 " style=" stroke:none;fill-rule:nonzero;fill:rgb(88.235294%,92.156863%,94.117647%);fill-opacity:1;" />
<path d="M 341.226562 22.433594 L 341.226562 489.558594 C 341.226562 501.933594 331.160156 512 318.792969 512 L 170.914062 512 L 170.914062 0 L 318.792969 0 C 331.160156 0 341.226562 10.066406 341.226562 22.433594 Z M 341.226562 22.433594 " style=" stroke:none;fill-rule:nonzero;fill:rgb(70.588235%,82.352941%,84.313725%);fill-opacity:1;" />
<path d="M 269.507812 272.578125 C 269.507812 298.691406 259.191406 323.386719 240.453125 342.117188 C 221.710938 360.855469 197.015625 371.171875 170.914062 371.171875 C 144.800781 371.171875 120.105469 360.855469 101.363281 342.117188 C 82.636719 323.386719 72.308594 298.691406 72.308594 272.578125 C 72.308594 236.589844 84.117188 202.472656 106.449219 173.925781 C 110.761719 168.410156 118.09375 166.25 124.707031 168.523438 C 131.320312 170.804688 135.765625 177.035156 135.765625 184.03125 C 135.765625 196.558594 145.71875 207.042969 157.957031 207.414062 C 162.957031 207.554688 167.3125 206.121094 170.914062 203.132812 C 171.3125 202.800781 171.695312 202.460938 172.074219 202.089844 C 176.667969 197.628906 179.308594 190.824219 179.308594 183.421875 C 179.308594 167.523438 175.464844 147.960938 173.824219 140.285156 C 172.355469 133.472656 175.375 126.460938 181.320312 122.835938 C 187.273438 119.214844 194.886719 119.746094 200.257812 124.167969 C 244.261719 160.316406 269.507812 214.40625 269.507812 272.578125 Z M 269.507812 272.578125 " style=" stroke:none;fill-rule:nonzero;fill:rgb(100%,50.588235%,42.352941%);fill-opacity:1;" />
<path d="M 269.507812 272.578125 C 269.507812 298.691406 259.191406 323.386719 240.453125 342.117188 C 221.710938 360.855469 197.015625 371.171875 170.914062 371.171875 L 170.914062 203.132812 C 171.3125 202.800781 171.695312 202.460938 172.074219 202.089844 C 176.667969 197.628906 179.308594 190.824219 179.308594 183.421875 C 179.308594 167.523438 175.464844 147.960938 173.824219 140.285156 C 172.355469 133.472656 175.375 126.460938 181.320312 122.835938 C 187.273438 119.214844 194.886719 119.746094 200.257812 124.167969 C 244.261719 160.316406 269.507812 214.40625 269.507812 272.578125 Z M 269.507812 272.578125 " style=" stroke:none;fill-rule:nonzero;fill:rgb(93.72549%,24.313725%,20.784314%);fill-opacity:1;" />
<path d="M 223.25 282.574219 C 223.25 310.160156 200.449219 332.59375 172.433594 332.59375 C 171.921875 332.59375 171.414062 332.582031 170.914062 332.5625 C 149.839844 331.8125 133.554688 315.363281 133.554688 294.511719 C 133.554688 275.28125 146.480469 260.433594 166.492188 256.679688 L 166.640625 256.648438 C 168.101562 256.390625 169.523438 256.078125 170.914062 255.71875 C 179.527344 253.527344 186.683594 249.515625 190.515625 244.625 C 194.207031 239.921875 200.140625 237.671875 206.023438 238.75 C 211.894531 239.839844 216.636719 244.0625 218.398438 249.765625 C 221.621094 260.191406 223.25 271.226562 223.25 282.574219 Z M 223.25 282.574219 " style=" stroke:none;fill-rule:nonzero;fill:rgb(100%,76.862745%,46.666667%);fill-opacity:1;" />
<path d="M 318.792969 0 L 22.933594 0 C 10.566406 0 0.5 10.066406 0.5 22.433594 L 0.5 489.558594 C 0.5 501.933594 10.566406 512 22.933594 512 L 318.792969 512 C 331.160156 512 341.226562 501.933594 341.226562 489.558594 L 341.226562 22.433594 C 341.226562 10.066406 331.160156 0 318.792969 0 Z M 311.210938 481.984375 L 30.515625 481.984375 L 30.515625 30.015625 L 82.957031 30.015625 L 82.957031 59.324219 C 82.957031 69.359375 91.128906 77.53125 101.175781 77.53125 L 240.652344 77.53125 C 250.6875 77.53125 258.859375 69.359375 258.859375 59.324219 L 258.859375 30.015625 L 311.210938 30.015625 Z M 311.210938 481.984375 " style=" stroke:none;fill-rule:nonzero;fill:rgb(41.176471%,43.137255%,45.098039%);fill-opacity:1;" />
<path d="M 341.226562 22.433594 L 341.226562 489.558594 C 341.226562 501.933594 331.160156 512 318.792969 512 L 170.914062 512 L 170.914062 481.984375 L 311.210938 481.984375 L 311.210938 30.015625 L 258.859375 30.015625 L 258.859375 59.324219 C 258.859375 69.359375 250.6875 77.53125 240.652344 77.53125 L 170.914062 77.53125 L 170.914062 0 L 318.792969 0 C 331.160156 0 341.226562 10.066406 341.226562 22.433594 Z M 341.226562 22.433594 " style=" stroke:none;fill-rule:nonzero;fill:rgb(21.568627%,23.529412%,25.490196%);fill-opacity:1;" />
<path d="M 220.742188 438.53125 C 220.742188 446.8125 214.015625 453.539062 205.730469 453.539062 L 135.992188 453.539062 C 127.710938 453.539062 120.984375 446.8125 120.984375 438.53125 C 120.984375 430.246094 127.710938 423.523438 135.992188 423.523438 L 205.730469 423.523438 C 214.015625 423.523438 220.742188 430.246094 220.742188 438.53125 Z M 220.742188 438.53125 " style=" stroke:none;fill-rule:nonzero;fill:rgb(41.176471%,43.137255%,45.098039%);fill-opacity:1;" />
<path d="M 220.742188 438.53125 C 220.742188 446.8125 214.015625 453.539062 205.730469 453.539062 L 170.914062 453.539062 L 170.914062 423.523438 L 205.730469 423.523438 C 214.015625 423.523438 220.742188 430.246094 220.742188 438.53125 Z M 220.742188 438.53125 " style=" stroke:none;fill-rule:nonzero;fill:rgb(21.568627%,23.529412%,25.490196%);fill-opacity:1;" />
<path d="M 223.25 282.574219 C 223.25 310.160156 200.449219 332.59375 172.433594 332.59375 C 171.921875 332.59375 171.414062 332.582031 170.914062 332.5625 L 170.914062 255.71875 C 179.527344 253.527344 186.683594 249.515625 190.515625 244.625 C 194.207031 239.921875 200.140625 237.671875 206.023438 238.75 C 211.894531 239.839844 216.636719 244.0625 218.398438 249.765625 C 221.621094 260.191406 223.25 271.226562 223.25 282.574219 Z M 223.25 282.574219 " style=" stroke:none;fill-rule:nonzero;fill:rgb(100%,56.862745%,0%);fill-opacity:1;" />
</g>
</svg>