<svg height="512pt" viewBox="0 -61 512 512" width="512pt" xmlns="http://www.w3.org/2000/svg"><path d="m23.457031 63.054688v93.582031c0 128.429687 104.113281 232.542969 232.542969 232.542969s232.542969-104.113282 232.542969-232.542969v-93.582031zm0 0" fill="#ededed"/><path d="m438.09375 63.054688v93.582031c0 119.902343-90.753906 218.601562-207.320312 231.175781 8.289062.894531 16.703124 1.367188 25.226562 1.367188 128.429688 0 232.542969-104.113282 232.542969-232.542969v-93.582031zm0 0" fill="#d6d6d6"/><path d="m256 188.777344c-80.824219 0-147.816406 59.1875-160.019531 136.582031 41.691406 39.550781 98.019531 63.820313 160.019531 63.820313s118.332031-24.269532 160.019531-63.820313c-12.203125-77.394531-79.195312-136.582031-160.019531-136.582031zm0 0" fill="#676a75"/><path d="m416.015625 325.363281c.003906-.003906.003906-.003906.003906-.003906-2.476562-15.707031-7.210937-30.660156-13.855469-44.523437-36.96875 58.390624-99.222656 99.1875-171.375 106.976562.058594.007812.167969-.039062.175782.019531v.003907c8.226562.882812 16.574218 1.34375 25.035156 1.34375 62 0 118.328125-24.269532 160.015625-63.816407zm0 0" fill="#3c3f4e"/><path d="m497.492188 91.566406h-482.984376c-8.011718 0-14.507812-6.492187-14.507812-14.503906v-62.554688c0-8.011718 6.496094-14.507812 14.507812-14.507812h482.984376c8.015624 0 14.507812 6.496094 14.507812 14.507812v62.554688c0 8.011719-6.496094 14.503906-14.507812 14.503906zm0 0" fill="#525467"/><path d="m497.492188 0h-37.453126v91.566406h37.453126c8.011718 0 14.507812-6.492187 14.507812-14.503906v-62.554688c0-8.011718-6.496094-14.507812-14.507812-14.507812zm0 0" fill="#3c3f4e"/><path d="m312.015625 294.992188c0 30.9375-25.078125 56.015624-56.015625 56.015624s-56.015625-25.078124-56.015625-56.015624c0-30.933594 25.078125-56.011719 56.015625-56.011719s56.015625 25.078125 56.015625 56.011719zm0 0" fill="#75cff2"/><path d="m256 238.980469c-10.878906 0-21.023438 3.109375-29.613281 8.472656 15.847656 9.894531 26.394531 27.480469 26.394531 47.539063 0 20.058593-10.550781 37.644531-26.394531 47.539062 8.589843 5.367188 18.738281 8.476562 29.613281 8.476562 30.9375 0 56.015625-25.078124 56.015625-56.015624 0-30.933594-25.078125-56.011719-56.015625-56.011719zm0 0" fill="#53b4e4"/><path d="m277.371094 294.992188c0 11.804687-9.566406 21.371093-21.371094 21.371093s-21.371094-9.566406-21.371094-21.371093c0-11.800782 9.566406-21.371094 21.371094-21.371094s21.371094 9.570312 21.371094 21.371094zm0 0" fill="#4f97cf"/><g fill="#3c3f4e"><path d="m469.5 22.230469h-427c-4.265625 0-7.726562 3.457031-7.726562 7.722656 0 4.269531 3.460937 7.726563 7.726562 7.726563h427c4.265625 0 7.726562-3.457032 7.726562-7.726563 0-4.265625-3.460937-7.722656-7.726562-7.722656zm0 0"/><path d="m469.5 52.214844h-427c-4.265625 0-7.726562 3.460937-7.726562 7.726562 0 4.269532 3.460937 7.726563 7.726562 7.726563h427c4.265625 0 7.726562-3.457031 7.726562-7.726563 0-4.265625-3.460937-7.726562-7.726562-7.726562zm0 0"/></g></svg>