<svg xmlns="http://www.w3.org/2000/svg" height="512pt" version="1.1" viewBox="-85 0 511 512" width="512pt">
<g id="surface1">
<path d="M 341.226562 22.433594 L 341.226562 489.558594 C 341.226562 501.933594 331.160156 512 318.792969 512 L 22.933594 512 C 10.566406 512 0.5 501.933594 0.5 489.558594 L 0.5 22.433594 C 0.5 10.066406 10.566406 0 22.933594 0 L 318.792969 0 C 331.160156 0 341.226562 10.066406 341.226562 22.433594 Z M 341.226562 22.433594 " style=" stroke:none;fill-rule:nonzero;fill:rgb(88.235294%,92.156863%,94.117647%);fill-opacity:1;" />
<path d="M 341.226562 22.433594 L 341.226562 489.558594 C 341.226562 501.933594 331.160156 512 318.792969 512 L 170.914062 512 L 170.914062 0 L 318.792969 0 C 331.160156 0 341.226562 10.066406 341.226562 22.433594 Z M 341.226562 22.433594 " style=" stroke:none;fill-rule:nonzero;fill:rgb(70.588235%,82.352941%,84.313725%);fill-opacity:1;" />
<path d="M 318.792969 0 L 22.933594 0 C 10.566406 0 0.5 10.066406 0.5 22.433594 L 0.5 489.558594 C 0.5 501.933594 10.566406 512 22.933594 512 L 318.792969 512 C 331.160156 512 341.226562 501.933594 341.226562 489.558594 L 341.226562 22.433594 C 341.226562 10.066406 331.160156 0 318.792969 0 Z M 311.210938 481.984375 L 30.515625 481.984375 L 30.515625 30.015625 L 82.957031 30.015625 L 82.957031 59.324219 C 82.957031 69.359375 91.128906 77.53125 101.175781 77.53125 L 240.652344 77.53125 C 250.6875 77.53125 258.859375 69.359375 258.859375 59.324219 L 258.859375 30.015625 L 311.210938 30.015625 Z M 311.210938 481.984375 " style=" stroke:none;fill-rule:nonzero;fill:rgb(41.176471%,43.137255%,45.098039%);fill-opacity:1;" />
<path d="M 341.226562 22.433594 L 341.226562 489.558594 C 341.226562 501.933594 331.160156 512 318.792969 512 L 170.914062 512 L 170.914062 481.984375 L 311.210938 481.984375 L 311.210938 30.015625 L 258.859375 30.015625 L 258.859375 59.324219 C 258.859375 69.359375 250.6875 77.53125 240.652344 77.53125 L 170.914062 77.53125 L 170.914062 0 L 318.792969 0 C 331.160156 0 341.226562 10.066406 341.226562 22.433594 Z M 341.226562 22.433594 " style=" stroke:none;fill-rule:nonzero;fill:rgb(21.568627%,23.529412%,25.490196%);fill-opacity:1;" />
<path d="M 220.742188 438.53125 C 220.742188 446.8125 214.015625 453.539062 205.730469 453.539062 L 135.992188 453.539062 C 127.710938 453.539062 120.984375 446.8125 120.984375 438.53125 C 120.984375 430.246094 127.710938 423.523438 135.992188 423.523438 L 205.730469 423.523438 C 214.015625 423.523438 220.742188 430.246094 220.742188 438.53125 Z M 220.742188 438.53125 " style=" stroke:none;fill-rule:nonzero;fill:rgb(41.176471%,43.137255%,45.098039%);fill-opacity:1;" />
<path d="M 220.742188 438.53125 C 220.742188 446.8125 214.015625 453.539062 205.730469 453.539062 L 170.914062 453.539062 L 170.914062 423.523438 L 205.730469 423.523438 C 214.015625 423.523438 220.742188 430.246094 220.742188 438.53125 Z M 220.742188 438.53125 " style=" stroke:none;fill-rule:nonzero;fill:rgb(21.568627%,23.529412%,25.490196%);fill-opacity:1;" />
<path d="M 277.152344 256 C 277.152344 314.59375 229.503906 362.257812 170.914062 362.289062 L 170.863281 362.289062 C 112.25 362.289062 64.574219 314.613281 64.574219 256 C 64.574219 197.386719 112.25 149.710938 170.863281 149.710938 L 170.914062 149.710938 C 229.503906 149.742188 277.152344 197.40625 277.152344 256 Z M 277.152344 256 " style=" stroke:none;fill-rule:nonzero;fill:rgb(100%,89.411765%,46.666667%);fill-opacity:1;" />
<path d="M 277.152344 256 C 277.152344 314.59375 229.503906 362.257812 170.914062 362.289062 L 170.914062 149.710938 C 229.503906 149.742188 277.152344 197.40625 277.152344 256 Z M 277.152344 256 " style=" stroke:none;fill-rule:nonzero;fill:rgb(100%,80.392157%,0%);fill-opacity:1;" />
<path d="M 185.871094 214.328125 L 185.871094 257.539062 C 185.871094 265.816406 179.175781 272.519531 170.914062 272.550781 L 170.863281 272.550781 C 162.578125 272.550781 155.855469 265.835938 155.855469 257.539062 L 155.855469 214.328125 C 155.855469 206.042969 162.578125 199.320312 170.863281 199.320312 L 170.914062 199.320312 C 179.175781 199.347656 185.871094 206.0625 185.871094 214.328125 Z M 185.871094 214.328125 " style=" stroke:none;fill-rule:nonzero;fill:rgb(100%,50.588235%,42.352941%);fill-opacity:1;" />
<path d="M 185.871094 297.972656 C 185.871094 298.464844 185.839844 298.964844 185.792969 299.445312 C 185.742188 299.933594 185.671875 300.425781 185.570312 300.90625 C 185.480469 301.386719 185.351562 301.863281 185.210938 302.324219 C 185.070312 302.796875 184.902344 303.265625 184.722656 303.714844 C 184.53125 304.167969 184.320312 304.605469 184.089844 305.035156 C 183.859375 305.46875 183.609375 305.898438 183.339844 306.296875 C 183.070312 306.707031 182.769531 307.109375 182.460938 307.488281 C 182.148438 307.867188 181.820312 308.238281 181.46875 308.589844 C 181.128906 308.929688 180.757812 309.257812 180.378906 309.578125 C 180 309.878906 179.597656 310.179688 179.1875 310.449219 C 178.789062 310.71875 178.355469 310.96875 177.925781 311.199219 C 177.496094 311.429688 177.046875 311.640625 176.597656 311.832031 C 176.144531 312.019531 175.6875 312.179688 175.214844 312.332031 C 174.746094 312.472656 174.265625 312.589844 173.792969 312.691406 C 173.316406 312.78125 172.824219 312.859375 172.332031 312.910156 C 171.863281 312.960938 171.382812 312.980469 170.914062 312.980469 L 170.863281 312.980469 C 170.371094 312.980469 169.871094 312.960938 169.382812 312.910156 C 168.902344 312.859375 168.410156 312.78125 167.921875 312.691406 C 167.453125 312.589844 166.972656 312.472656 166.5 312.332031 C 166.03125 312.179688 165.570312 312.019531 165.121094 311.832031 C 164.667969 311.640625 164.21875 311.429688 163.789062 311.199219 C 163.359375 310.96875 162.9375 310.71875 162.527344 310.449219 C 162.117188 310.179688 161.71875 309.878906 161.339844 309.578125 C 160.957031 309.257812 160.597656 308.929688 160.246094 308.589844 C 159.898438 308.238281 159.566406 307.867188 159.257812 307.488281 C 158.945312 307.109375 158.65625 306.707031 158.375 306.296875 C 158.105469 305.898438 157.855469 305.46875 157.625 305.035156 C 157.394531 304.605469 157.1875 304.167969 157.003906 303.714844 C 156.816406 303.265625 156.644531 302.796875 156.503906 302.324219 C 156.367188 301.863281 156.246094 301.386719 156.144531 300.90625 C 156.046875 300.425781 155.976562 299.933594 155.925781 299.445312 C 155.875 298.964844 155.855469 298.464844 155.855469 297.972656 C 155.855469 297.484375 155.875 296.980469 155.925781 296.492188 C 155.976562 296.011719 156.046875 295.523438 156.144531 295.042969 C 156.246094 294.5625 156.367188 294.082031 156.503906 293.609375 C 156.644531 293.148438 156.816406 292.679688 157.003906 292.230469 C 157.1875 291.78125 157.394531 291.328125 157.625 290.898438 C 157.855469 290.46875 158.105469 290.046875 158.375 289.636719 C 158.65625 289.226562 158.945312 288.839844 159.257812 288.457031 C 159.566406 288.078125 159.898438 287.707031 160.246094 287.355469 C 160.597656 287.015625 160.957031 286.675781 161.339844 286.367188 C 161.71875 286.054688 162.117188 285.765625 162.527344 285.496094 C 162.9375 285.226562 163.359375 284.964844 163.789062 284.734375 C 164.21875 284.515625 164.667969 284.296875 165.121094 284.117188 C 165.570312 283.925781 166.03125 283.753906 166.5 283.613281 C 166.972656 283.476562 167.453125 283.355469 167.921875 283.253906 C 168.410156 283.164062 168.902344 283.085938 169.382812 283.035156 C 169.894531 282.984375 170.402344 282.953125 170.914062 282.953125 C 171.382812 282.953125 171.863281 282.984375 172.332031 283.035156 C 172.824219 283.085938 173.316406 283.164062 173.792969 283.253906 C 174.265625 283.355469 174.746094 283.476562 175.214844 283.613281 C 175.6875 283.753906 176.144531 283.925781 176.597656 284.117188 C 177.046875 284.296875 177.496094 284.515625 177.925781 284.734375 C 178.355469 284.964844 178.789062 285.226562 179.1875 285.496094 C 179.597656 285.765625 180 286.054688 180.378906 286.367188 C 180.757812 286.675781 181.128906 287.015625 181.46875 287.355469 C 181.820312 287.707031 182.148438 288.078125 182.460938 288.457031 C 182.769531 288.839844 183.070312 289.226562 183.339844 289.636719 C 183.609375 290.046875 183.859375 290.46875 184.089844 290.898438 C 184.320312 291.328125 184.53125 291.78125 184.722656 292.230469 C 184.902344 292.679688 185.070312 293.148438 185.210938 293.609375 C 185.351562 294.082031 185.480469 294.5625 185.570312 295.042969 C 185.671875 295.523438 185.742188 296.011719 185.792969 296.492188 C 185.839844 296.980469 185.871094 297.484375 185.871094 297.972656 Z M 185.871094 297.972656 " style=" stroke:none;fill-rule:nonzero;fill:rgb(100%,50.588235%,42.352941%);fill-opacity:1;" />
<path d="M 185.792969 296.492188 C 185.839844 296.980469 185.871094 297.484375 185.871094 297.972656 C 185.871094 298.464844 185.839844 298.964844 185.792969 299.445312 C 185.742188 299.933594 185.671875 300.425781 185.570312 300.90625 C 185.480469 301.386719 185.351562 301.863281 185.210938 302.324219 C 185.070312 302.796875 184.902344 303.265625 184.722656 303.714844 C 184.53125 304.167969 184.320312 304.605469 184.089844 305.035156 C 183.859375 305.46875 183.609375 305.898438 183.339844 306.296875 C 183.070312 306.707031 182.769531 307.109375 182.460938 307.488281 C 182.148438 307.867188 181.820312 308.238281 181.46875 308.589844 C 181.128906 308.929688 180.757812 309.257812 180.378906 309.578125 C 180 309.878906 179.597656 310.179688 179.1875 310.449219 C 178.789062 310.71875 178.355469 310.96875 177.925781 311.199219 C 177.496094 311.429688 177.046875 311.640625 176.597656 311.832031 C 176.144531 312.019531 175.6875 312.179688 175.214844 312.332031 C 174.746094 312.472656 174.265625 312.589844 173.792969 312.691406 C 173.316406 312.78125 172.824219 312.859375 172.332031 312.910156 C 171.863281 312.960938 171.382812 312.980469 170.914062 312.980469 L 170.914062 282.953125 C 171.382812 282.953125 171.863281 282.984375 172.332031 283.035156 C 172.824219 283.085938 173.316406 283.164062 173.792969 283.253906 C 174.265625 283.355469 174.746094 283.476562 175.214844 283.613281 C 175.6875 283.753906 176.144531 283.925781 176.597656 284.117188 C 177.046875 284.296875 177.496094 284.515625 177.925781 284.734375 C 178.355469 284.964844 178.789062 285.226562 179.1875 285.496094 C 179.597656 285.765625 180 286.054688 180.378906 286.367188 C 180.757812 286.675781 181.128906 287.015625 181.46875 287.355469 C 181.820312 287.707031 182.148438 288.078125 182.460938 288.457031 C 182.769531 288.839844 183.070312 289.226562 183.339844 289.636719 C 183.609375 290.046875 183.859375 290.46875 184.089844 290.898438 C 184.320312 291.328125 184.53125 291.78125 184.722656 292.230469 C 184.902344 292.679688 185.070312 293.148438 185.210938 293.609375 C 185.351562 294.082031 185.480469 294.5625 185.570312 295.042969 C 185.671875 295.523438 185.742188 296.011719 185.792969 296.492188 Z M 185.792969 296.492188 " style=" stroke:none;fill-rule:nonzero;fill:rgb(93.72549%,24.313725%,20.784314%);fill-opacity:1;" />
<path d="M 185.871094 214.328125 L 185.871094 257.539062 C 185.871094 265.816406 179.175781 272.519531 170.914062 272.550781 L 170.914062 199.320312 C 179.175781 199.347656 185.871094 206.0625 185.871094 214.328125 Z M 185.871094 214.328125 " style=" stroke:none;fill-rule:nonzero;fill:rgb(93.72549%,24.313725%,20.784314%);fill-opacity:1;" />
</g>
</svg>