<svg height="511pt" viewBox="1 -4 511.99999 511" width="511pt" xmlns="http://www.w3.org/2000/svg"><path d="m490.960938 360.703125 2.109374-72.777344-15.441406-.488281-2.113281 72.800781c-.8125 26.8125-14.875 50.910157-36.804687 64.523438-3.339844 2.070312-7.027344 3.660156-10.542969 5.410156-.554688.277344-6.214844 2.566406-6.214844 3.101563v16.570312l15.308594-6.773438c31.71875-14.804687 52.617187-46.566406 53.699219-82.367187zm0 0" fill="#bebebe"/><path d="m512 266.058594c0-14.570313-11.597656-26.378906-25.902344-26.378906-14.304687 0-25.902344 11.808593-25.902344 26.378906 0 14.570312 11.597657 26.378906 25.902344 26.378906 14.304688 0 25.902344-11.808594 25.902344-26.378906zm0 0" fill="#e1e0de"/><path d="m420.933594 407.132812h-47.957032v73.554688h47.957032c4.75 0 8.601562-3.921875 8.601562-8.761719v-56.035156c0-4.835937-3.851562-8.757813-8.601562-8.757813zm0 0" fill="#676a75"/><path d="m382.1875 503.402344h-328.992188c-7.753906 0-14.042968-6.285156-14.042968-14.039063v-90.90625c0-7.753906 6.289062-14.042969 14.042968-14.042969h328.992188c7.753906 0 14.042969 6.289063 14.042969 14.042969v90.90625c-.003907 7.753907-6.289063 14.039063-14.042969 14.039063zm0 0" fill="#525467"/><path d="m382.1875 384.414062h-37.832031v66.546876c0 12.710937-10.304688 23.011718-23.011719 23.011718h-268.148438c-7.753906 0-14.042968-6.285156-14.042968-14.042968v29.433593c0 7.753907 6.289062 14.039063 14.042968 14.039063h328.992188c7.753906 0 14.042969-6.285156 14.042969-14.039063v-90.90625c-.003907-7.753906-6.289063-14.042969-14.042969-14.042969zm0 0" fill="#3c3f4e"/><path d="m435.382812 222.203125c0-122.441406-97.464843-221.703125-217.691406-221.703125-120.226562 0-217.691406 99.261719-217.691406 221.703125 0 122.445313 97.464844 221.707031 217.691406 221.707031 120.226563 0 217.691406-99.261718 217.691406-221.707031zm0 0" fill="#f43b45"/><path d="m217.691406.5c-8.726562 0-17.324218.539062-25.78125 1.554688 108.070313 12.992187 191.90625 106.589843 191.90625 220.148437s-83.832031 207.160156-191.90625 220.148437c8.457032 1.015626 17.054688 1.554688 25.78125 1.554688 120.226563 0 217.691406-99.257812 217.691406-221.703125 0-122.441406-97.464843-221.703125-217.691406-221.703125zm0 0" fill="#cf3735"/><path d="m273.207031 222.203125c0-31.222656-24.855469-56.539063-55.515625-56.539063s-55.515625 25.316407-55.515625 56.539063c0 31.226563 24.855469 56.539063 55.515625 56.539063s55.515625-25.3125 55.515625-56.539063zm0 0" fill="#d6d6d6"/><path d="m217.691406 165.664062c-9.371094 0-18.195312 2.375-25.9375 6.550782 17.589844 9.488281 29.582032 28.308594 29.582032 49.988281 0 21.683594-11.992188 40.503906-29.582032 49.992187 7.742188 4.171876 16.566406 6.546876 25.9375 6.546876 30.660156 0 55.515625-25.3125 55.515625-56.539063 0-31.222656-24.855469-56.539063-55.515625-56.539063zm0 0" fill="#bebebe"/><g fill="#ead168"><path d="m94.777344 345.144531c-69.253906-69.257812-70.453125-180.746093-2.671875-248.527343 3.015625-3.015626 7.910156-3.015626 10.925781 0 3.019531 3.015624 3.019531 7.910156 0 10.925781-61.757812 61.757812-60.558594 163.445312 2.671875 226.675781 3.019531 3.015625 3.109375 8.003906 0 10.925781-4.578125 4.308594-9.417969 1.507813-10.925781 0zm0 0"/><path d="m332.378906 347.816406c-2.9375-3.097656-3.019531-7.910156 0-10.925781 61.757813-61.757813 60.558594-163.445313-2.671875-226.675781-3.019531-3.015625-3.019531-7.910156 0-10.925782 3.015625-3.019531 7.90625-3.019531 10.925781 0 69.257813 69.253907 70.453126 180.742188 2.671876 248.527344-1.507813 1.507813-7.773438 3.324219-10.925782 0zm0 0"/><path d="m122.21875 317.703125c-54.125-54.125-55.324219-140.992187-2.671875-193.644531 3.015625-3.019532 7.90625-3.019532 10.925781 0 3.019532 3.015625 3.019532 7.90625 0 10.925781-46.625 46.625-45.425781 123.695313 2.671875 171.792969 3.019531 3.019531 3.15625 8.054687 0 10.925781-4.425781 4.03125-9.417969 1.511719-10.925781 0zm0 0"/><path d="m304.9375 320.375c-3.136719-2.890625-3.015625-7.90625 0-10.925781 46.628906-46.628907 45.429688-123.695313-2.671875-171.792969-3.015625-3.019531-3.015625-7.910156 0-10.929688 3.019531-3.015624 7.910156-3.015624 10.929687 0 54.125 54.125 55.324219 140.996094 2.671876 193.648438-1.511719 1.511719-6.824219 3.785156-10.929688 0zm0 0"/></g></svg>