<svg xmlns="http://www.w3.org/2000/svg" height="511pt" version="1.1" viewBox="-78 1 511 511.99998" width="511pt">
<g id="surface1">
<path d="M 356.222656 71.492188 C 356.222656 81.785156 353.558594 98.179688 332.824219 133.921875 C 327.59375 142.945312 322.421875 151.136719 318.570312 157.039062 L 318.570312 351.570312 C 318.570312 439.597656 247.738281 511.441406 160.550781 511.988281 C 160.359375 512 160.167969 512 159.980469 512 L 159.53125 512 C 117.1875 512 77.34375 495.503906 47.285156 465.527344 C 17.113281 435.445312 0.5 395.464844 0.5 352.960938 C 0.5 303.445312 27.386719 249.839844 74.261719 205.894531 C 84.117188 196.671875 98.480469 194.171875 110.855469 199.542969 C 123.238281 204.902344 131.230469 217.085938 131.230469 230.582031 L 131.230469 302.125 C 131.230469 311.398438 127.558594 320.039062 120.898438 326.472656 C 114.226562 332.902344 105.441406 336.265625 96.179688 335.945312 C 86.945312 335.613281 78.722656 331.613281 72.851562 325.351562 C 69.761719 334.914062 68.160156 344.246094 68.160156 352.960938 C 68.160156 377.429688 77.742188 400.425781 95.148438 417.71875 C 112.414062 434.894531 135.261719 444.339844 159.53125 444.339844 C 159.710938 444.339844 159.890625 444.339844 160.070312 444.328125 C 160.230469 444.328125 160.390625 444.328125 160.550781 444.320312 C 210.414062 443.777344 250.910156 402.375 250.910156 351.789062 L 250.910156 157.21875 C 250.898438 157.210938 250.886719 157.1875 250.878906 157.179688 C 247.046875 151.386719 241.90625 143.386719 236.722656 134.550781 C 215.917969 99.050781 213.246094 82.207031 213.246094 71.492188 C 213.246094 32.070312 245.316406 0 284.738281 0 C 324.152344 0 356.222656 32.070312 356.222656 71.492188 Z M 356.222656 71.492188 " style=" stroke:none;fill-rule:nonzero;fill:rgb(60.392157%,90.196078%,96.862745%);fill-opacity:1;" />
<path d="M 356.222656 71.492188 C 356.222656 81.785156 353.558594 98.179688 332.824219 133.921875 C 327.59375 142.945312 322.421875 151.136719 318.570312 157.039062 L 318.570312 351.570312 C 318.570312 439.597656 247.738281 511.441406 160.550781 511.988281 L 160.550781 444.320312 C 210.414062 443.777344 250.910156 402.375 250.910156 351.789062 L 250.910156 157.21875 C 250.898438 157.210938 250.886719 157.1875 250.878906 157.179688 C 247.046875 151.386719 241.90625 143.386719 236.722656 134.550781 C 215.917969 99.050781 213.246094 82.207031 213.246094 71.492188 C 213.246094 32.070312 245.316406 0 284.738281 0 C 324.152344 0 356.222656 32.070312 356.222656 71.492188 Z M 356.222656 71.492188 " style=" stroke:none;fill-rule:nonzero;fill:rgb(18.431373%,75.294118%,94.117647%);fill-opacity:1;" />
<path d="M 356.222656 71.492188 C 356.222656 81.785156 353.558594 98.179688 332.824219 133.921875 C 327.59375 142.945312 322.421875 151.136719 318.570312 157.039062 L 318.570312 157.078125 L 250.878906 157.179688 C 247.046875 151.386719 241.90625 143.386719 236.722656 134.550781 C 215.917969 99.050781 213.246094 82.207031 213.246094 71.492188 C 213.246094 32.070312 245.316406 0 284.738281 0 C 324.152344 0 356.222656 32.070312 356.222656 71.492188 Z M 356.222656 71.492188 " style=" stroke:none;fill-rule:nonzero;fill:rgb(21.568627%,23.529412%,25.490196%);fill-opacity:1;" />
</g>
</svg>