<svg height="512pt" viewBox="0 -40 512 512" width="512pt" xmlns="http://www.w3.org/2000/svg"><path d="m435.0625 174.503906c-.765625 0-1.523438.035156-2.285156.058594.214844-3.429688.335937-6.886719.335937-10.375 0-90.675781-73.511719-164.1875-164.1875-164.1875-69.171875 0-128.347656 42.777344-152.53125 103.320312-1.269531-.042968-2.539062-.097656-3.816406-.097656-62.175781 0-112.578125 50.402344-112.578125 112.578125s50.402344 112.578125 112.578125 112.578125h322.484375c42.492188 0 76.9375-34.445312 76.9375-76.9375 0-42.492187-34.445312-76.9375-76.9375-76.9375zm0 0" fill="#ededed"/><path d="m435.0625 174.503906c-.765625 0-1.523438.035156-2.285156.058594.214844-3.429688.335937-6.886719.335937-10.375 0-90.675781-73.511719-164.1875-164.1875-164.1875-8.765625 0-17.371093.691406-25.765625 2.011719 78.453125 12.351562 138.457032 80.253906 138.457032 162.175781 0 3.488281-.125 6.945312-.335938 10.375.757812-.023438 1.519531-.058594 2.285156-.058594 42.492188 0 76.9375 34.445313 76.9375 76.9375 0 42.492188-34.445312 76.9375-76.9375 76.9375h51.496094c42.492188 0 76.9375-34.445312 76.9375-76.9375 0-42.492187-34.445312-76.9375-76.9375-76.9375zm0 0" fill="#d6d6d6"/><path d="m384.257812 221.113281c-25.03125-10.390625-42.519531-33.921875-44.910156-61.332031-.328125-3.75-3.511718-6.601562-7.277344-6.578125l-76.113281.445313-1.546875.011718-76.113281.445313c-3.808594.023437-6.914063 2.980469-7.207031 6.777343-2.113282 27.414063-19.339844 51.117188-44.25 61.773438-4.222656 1.804688-6.753906 6.15625-6.277344 10.722656 3.492188 33.410156 23.84375 147.183594 134.777344 198.351563.460937.214843.96875.324219 1.476562.320312.507813-.003906 1.011719-.117187 1.472656-.335937 110.320313-52.46875 129.335938-166.460938 132.441407-199.917969.425781-4.601563-2.207031-8.914063-6.472657-10.683594zm0 0" fill="#676a75"/><path d="m384.257812 221.113281c-25.03125-10.390625-42.519531-33.921875-44.910156-61.332031-.328125-3.75-3.511718-6.601562-7.277344-6.578125l-45.742187.269531c-.011719 35.03125 20.027344 71.320313 46.382813 82.285156 4.277343 1.777344 6.949218 6.089844 6.523437 10.703126-2.734375 29.472656-17.832031 121.445312-96.8125 178.796874 4.167969 2.25 8.460937 4.414063 12.917969 6.472657.460937.210937.96875.320312 1.476562.316406.507813 0 1.011719-.117187 1.472656-.335937 110.320313-52.464844 129.339844-166.457032 132.441407-199.914063.425781-4.601563-2.207031-8.914063-6.472657-10.683594zm0 0" fill="#3c3f4e"/><path d="m254.207031 400.222656c-76.542969-40.988281-98.050781-118.050781-104.027343-154.714844-.335938-2.066406.605468-4.128906 2.398437-5.210937 20.273437-12.234375 34.988281-31.660156 41.320313-54.339844.617187-2.203125 2.605468-3.742187 4.894531-3.753906l113.113281-.664063c2.289062-.015624 4.296875 1.5 4.9375 3.695313 6.597656 22.605469 21.535156 41.855469 41.957031 53.855469 1.800781 1.058594 2.765625 3.109375 2.457031 5.179687-5.542968 36.722657-26.152343 114.03125-102.203124 155.925781-1.503907.828126-3.335938.835938-4.847657.027344zm0 0" fill="#a4daff"/><path d="m358.800781 239.089844c-20.421875-12-35.359375-31.25-41.957031-53.855469-.644531-2.195313-2.652344-3.710937-4.941406-3.695313l-47.476563.277344c6.042969 24.074219 21.433594 44.671875 42.875 57.273438 1.804688 1.058594 2.769531 3.109375 2.457031 5.179687-4.933593 32.703125-21.820312 97.589844-79.164062 140.992188 7.222656 5.367187 15.070312 10.390625 23.609375 14.960937 1.511719.808594 3.347656.800782 4.847656-.027344 76.050781-41.894531 96.660157-119.203124 102.203125-155.925781.316406-2.070312-.652344-4.121093-2.453125-5.179687zm0 0" fill="#53b4e4"/><path d="m306.46875 236.777344c-3.554688-2.355469-8.351562-1.382813-10.707031 2.175781l-44.875 67.722656-24.828125-23.570312c-3.09375-2.9375-7.984375-2.8125-10.921875.28125s-2.8125 7.984375.28125 10.921875l31.507812 29.914062c1.441407 1.371094 3.347657 2.121094 5.316407 2.121094 2.570312 0 5.023437-1.320312 6.441406-3.457031l49.960937-75.402344c2.355469-3.554687 1.382813-8.347656-2.175781-10.707031zm0 0" fill="#ededed"/></svg>