<svg height="512pt" viewBox="0 -18 512.00037 512" width="512pt" xmlns="http://www.w3.org/2000/svg"><path d="m431.253906 450.640625h-411.867187c-10.707031 0-19.386719-8.679687-19.386719-19.386719v-411.867187c0-10.707031 8.679688-19.386719 19.386719-19.386719h411.867187c10.707032 0 19.386719 8.679688 19.386719 19.386719v411.867187c0 10.707032-8.679687 19.386719-19.386719 19.386719zm0 0" fill="#676a75"/><path d="m431.253906 0h-32.566406v450.640625h32.566406c10.707032 0 19.386719-8.679687 19.386719-19.386719v-411.867187c0-10.707031-8.679687-19.386719-19.386719-19.386719zm0 0" fill="#454851"/><path d="m36.070312 407.667969v-364.695313c0-3.8125 3.089844-6.902344 6.902344-6.902344h364.695313c3.8125 0 6.898437 3.089844 6.898437 6.902344v364.695313c0 3.8125-3.085937 6.898437-6.898437 6.898437h-364.695313c-3.8125.003906-6.902344-3.085937-6.902344-6.898437zm0 0" fill="#525467"/><path d="m407.667969 36.070312h-45.054688v336.488282c0 8.601562-6.96875 15.574218-15.570312 15.574218h-310.972657v19.535157c0 3.8125 3.089844 6.902343 6.902344 6.902343h364.695313c3.8125 0 6.902343-3.089843 6.902343-6.902343v-364.695313c0-3.808594-3.089843-6.902344-6.902343-6.902344zm0 0" fill="#3c3f4e"/><path d="m141.933594 287.527344 83.386718-48.152344 83.386719 48.152344c6.976563 4.03125 16.074219 1.671875 20.023438-5.351563.070312-.125.136719-.246093.207031-.371093 3.875-6.953126 1.347656-15.742188-5.542969-19.722657l-83.382812-48.152343v-93.832032c0-7.996094-6.480469-14.484375-14.480469-14.492187h-.253906c-8.058594.007812-14.648438 6.605469-14.648438 14.664062v93.660157l-83.386718 48.152343c-6.890626 3.980469-9.414063 12.769531-5.539063 19.722657.066406.121093.136719.246093.203125.367187 3.953125 7.027344 13.050781 9.386719 20.027344 5.355469zm0 0" fill="#f79f48"/><path d="m45.292969 163.941406h-14.332031c-5.296876 0-9.589844-4.296875-9.589844-9.589844v-60.09375c0-5.296874 4.292968-9.589843 9.589844-9.589843h14.332031c5.296875 0 9.589843 4.292969 9.589843 9.589843v60.09375c0 5.292969-4.292968 9.589844-9.589843 9.589844zm0 0" fill="#d6d6d6"/><path d="m45.292969 365.976562h-14.332031c-5.296876 0-9.589844-4.292968-9.589844-9.589843v-60.09375c0-5.296875 4.292968-9.589844 9.589844-9.589844h14.332031c5.296875 0 9.589843 4.292969 9.589843 9.589844v60.09375c0 5.296875-4.292968 9.589843-9.589843 9.589843zm0 0" fill="#d6d6d6"/><path d="m285.992188 224.164062c0 33.507813-27.164063 60.671876-60.671876 60.671876-33.507812 0-60.671874-27.164063-60.671874-60.671876 0-33.507812 27.164062-60.671874 60.671874-60.671874 33.507813 0 60.671876 27.164062 60.671876 60.671874zm0 0" fill="#ffe471"/><path d="m323.394531 262.082031-39.324219-22.710937c-2.523437 9.78125-7.429687 18.597656-14.054687 25.8125l38.691406 22.34375c6.976563 4.03125 16.074219 1.671875 20.023438-5.351563.070312-.125.136719-.246093.207031-.371093 3.875-6.953126 1.351562-15.742188-5.542969-19.722657zm0 0" fill="#ef8229"/><path d="m225.320312 163.492188c-9.296874 0-18.101562 2.097656-25.976562 5.835937 20.507812 9.730469 34.695312 30.625 34.695312 54.835937 0 24.210938-14.1875 45.101563-34.695312 54.835938 7.875 3.734375 16.679688 5.835938 25.976562 5.835938 33.507813 0 60.671876-27.164063 60.671876-60.671876 0-33.507812-27.164063-60.671874-60.671876-60.671874zm0 0" fill="#f2ca20"/><path d="m246.742188 224.164062c0 11.832032-9.589844 21.421876-21.421876 21.421876-11.832031 0-21.421874-9.589844-21.421874-21.421876 0-11.832031 9.589843-21.421874 21.421874-21.421874 11.832032 0 21.421876 9.589843 21.421876 21.421874zm0 0" fill="#ef8229"/><path d="m507.589844 333.488281c-16.941406-7.03125-28.777344-22.957031-30.394532-41.507812-.222656-2.535157-2.378906-4.464844-4.925781-4.453125l-51.511719.304687-1.046874.003907-51.515626.304687c-2.574218.011719-4.679687 2.015625-4.875 4.582031-1.429687 18.554688-13.089843 34.597656-29.949218 41.808594-2.855469 1.222656-4.570313 4.171875-4.25 7.257812 2.367187 22.613282 16.140625 99.613282 91.21875 134.242188.3125.144531.652344.21875 1 .21875.34375-.003906.683594-.078125.996094-.226562 74.664062-35.507813 87.535156-112.660157 89.632812-135.300782.289062-3.113281-1.492188-6.035156-4.378906-7.234375zm0 0" fill="#75cff2"/><path d="m507.589844 333.488281c-16.941406-7.03125-28.777344-22.957031-30.394532-41.507812-.222656-2.535157-2.378906-4.464844-4.925781-4.453125l-47.097656.277344c.078125 20.296874 12.359375 38.105468 30.539063 45.667968 2.898437 1.207032 4.710937 4.113282 4.421874 7.242188-1.84375 19.875-11.996093 81.800781-65.015624 120.644531 7.527343 5.421875 15.902343 10.375 25.222656 14.671875.3125.144531.652344.21875 1 .21875.34375-.003906.683594-.078125.996094-.226562 74.664062-35.507813 87.53125-112.660157 89.632812-135.300782.289062-3.113281-1.492188-6.035156-4.378906-7.234375zm0 0" fill="#53b4e4"/><path d="m456.320312 342.011719c-3.554687-2.355469-8.351562-1.382813-10.707031 2.171875l-28.726562 43.359375-14.648438-13.90625c-3.09375-2.941407-7.980469-2.8125-10.921875.28125-2.9375 3.09375-2.8125 7.984375.285156 10.921875l21.320313 20.246094c1.445313 1.371093 3.351563 2.121093 5.320313 2.121093 2.566406 0 5.023437-1.316406 6.441406-3.457031l33.808594-51.03125c2.359374-3.554688 1.386718-8.351562-2.171876-10.707031zm0 0" fill="#ededed"/></svg>