<svg xmlns="http://www.w3.org/2000/svg" height="512pt" version="1.1" viewBox="-85 0 511 512" width="512pt">
<g id="surface1">
<path d="M 341.226562 22.433594 L 341.226562 489.558594 C 341.226562 501.933594 331.160156 512 318.792969 512 L 22.933594 512 C 10.566406 512 0.5 501.933594 0.5 489.558594 L 0.5 22.433594 C 0.5 10.066406 10.566406 0 22.933594 0 L 318.792969 0 C 331.160156 0 341.226562 10.066406 341.226562 22.433594 Z M 341.226562 22.433594 " style=" stroke:none;fill-rule:nonzero;fill:rgb(88.235294%,92.156863%,94.117647%);fill-opacity:1;" />
<path d="M 341.226562 22.433594 L 341.226562 489.558594 C 341.226562 501.933594 331.160156 512 318.792969 512 L 170.914062 512 L 170.914062 0 L 318.792969 0 C 331.160156 0 341.226562 10.066406 341.226562 22.433594 Z M 341.226562 22.433594 " style=" stroke:none;fill-rule:nonzero;fill:rgb(70.588235%,82.352941%,84.313725%);fill-opacity:1;" />
<path d="M 318.792969 0 L 22.933594 0 C 10.566406 0 0.5 10.066406 0.5 22.433594 L 0.5 489.558594 C 0.5 501.933594 10.566406 512 22.933594 512 L 318.792969 512 C 331.160156 512 341.226562 501.933594 341.226562 489.558594 L 341.226562 22.433594 C 341.226562 10.066406 331.160156 0 318.792969 0 Z M 311.210938 481.984375 L 30.515625 481.984375 L 30.515625 30.015625 L 82.957031 30.015625 L 82.957031 59.324219 C 82.957031 69.359375 91.128906 77.53125 101.175781 77.53125 L 240.652344 77.53125 C 250.6875 77.53125 258.859375 69.359375 258.859375 59.324219 L 258.859375 30.015625 L 311.210938 30.015625 Z M 311.210938 481.984375 " style=" stroke:none;fill-rule:nonzero;fill:rgb(41.176471%,43.137255%,45.098039%);fill-opacity:1;" />
<path d="M 341.226562 22.433594 L 341.226562 489.558594 C 341.226562 501.933594 331.160156 512 318.792969 512 L 170.914062 512 L 170.914062 481.984375 L 311.210938 481.984375 L 311.210938 30.015625 L 258.859375 30.015625 L 258.859375 59.324219 C 258.859375 69.359375 250.6875 77.53125 240.652344 77.53125 L 170.914062 77.53125 L 170.914062 0 L 318.792969 0 C 331.160156 0 341.226562 10.066406 341.226562 22.433594 Z M 341.226562 22.433594 " style=" stroke:none;fill-rule:nonzero;fill:rgb(21.568627%,23.529412%,25.490196%);fill-opacity:1;" />
<path d="M 220.742188 438.53125 C 220.742188 446.8125 214.015625 453.539062 205.730469 453.539062 L 135.992188 453.539062 C 127.710938 453.539062 120.984375 446.8125 120.984375 438.53125 C 120.984375 430.246094 127.710938 423.523438 135.992188 423.523438 L 205.730469 423.523438 C 214.015625 423.523438 220.742188 430.246094 220.742188 438.53125 Z M 220.742188 438.53125 " style=" stroke:none;fill-rule:nonzero;fill:rgb(41.176471%,43.137255%,45.098039%);fill-opacity:1;" />
<path d="M 220.742188 438.53125 C 220.742188 446.8125 214.015625 453.539062 205.730469 453.539062 L 170.914062 453.539062 L 170.914062 423.523438 L 205.730469 423.523438 C 214.015625 423.523438 220.742188 430.246094 220.742188 438.53125 Z M 220.742188 438.53125 " style=" stroke:none;fill-rule:nonzero;fill:rgb(21.568627%,23.529412%,25.490196%);fill-opacity:1;" />
<path d="M 251.777344 291.003906 C 239.949219 323.0625 215.308594 345.835938 178.539062 358.699219 C 177.535156 359.050781 176.476562 359.332031 175.414062 359.550781 C 173.925781 359.839844 172.425781 359.992188 170.914062 359.992188 C 169.632812 359.992188 168.351562 359.890625 167.070312 359.671875 L 166.390625 359.542969 C 165.339844 359.332031 164.308594 359.050781 163.308594 358.699219 C 126.488281 345.863281 101.824219 323.101562 90.007812 291.035156 C 80.171875 264.328125 80.714844 235.753906 81.152344 212.800781 L 81.164062 212.199219 C 81.246094 210.5 81.292969 208.667969 81.324219 206.617188 C 81.554688 191.25 93.769531 178.542969 109.128906 177.691406 C 128.449219 176.613281 143.328125 170.367188 155.964844 158.050781 L 156.296875 157.742188 C 160.457031 153.917969 165.691406 152.007812 170.914062 152.007812 C 176.136719 152.007812 181.367188 153.917969 185.53125 157.742188 L 185.863281 158.050781 C 198.5 170.367188 213.375 176.613281 232.695312 177.691406 C 248.054688 178.542969 260.273438 191.25 260.492188 206.617188 C 260.53125 208.679688 260.582031 210.511719 260.664062 212.199219 L 260.671875 212.601562 C 261.113281 235.605469 261.652344 264.230469 251.777344 291.003906 Z M 251.777344 291.003906 " style=" stroke:none;fill-rule:nonzero;fill:rgb(82.352941%,62.745098%,96.078431%);fill-opacity:1;" />
<path d="M 251.777344 291.003906 C 239.949219 323.0625 215.308594 345.835938 178.539062 358.699219 C 177.535156 359.050781 176.476562 359.332031 175.414062 359.550781 C 173.925781 359.839844 172.425781 359.992188 170.914062 359.992188 L 170.914062 152.007812 C 176.136719 152.007812 181.367188 153.917969 185.53125 157.742188 L 185.863281 158.050781 C 198.5 170.367188 213.375 176.613281 232.695312 177.691406 C 248.054688 178.542969 260.273438 191.25 260.492188 206.617188 C 260.53125 208.679688 260.582031 210.511719 260.664062 212.199219 L 260.671875 212.601562 C 261.113281 235.605469 261.652344 264.230469 251.777344 291.003906 Z M 251.777344 291.003906 " style=" stroke:none;fill-rule:nonzero;fill:rgb(63.529412%,37.647059%,89.803922%);fill-opacity:1;" />
</g>
</svg>