<svg height="512pt" viewBox="0 -3 512.00032 512" width="512pt" xmlns="http://www.w3.org/2000/svg"><path d="m357.59375 222.460938-68.054688-68.054688-286.878906 286.882812c-.800781.796876-1.261718 1.871094-1.289062 3l-1.371094 56.273438c-.0625 2.605469 2.140625 4.691406 4.738281 4.488281l67.320313-5.238281c5.078125-.394531 9.078125-4.496094 9.351562-9.582031l1.601563-30.164063c.273437-5.183594 4.414062-9.324218 9.597656-9.597656l29.941406-1.589844c5.179688-.277344 9.324219-4.417968 9.597657-9.601562l1.589843-29.9375c.277344-5.183594 4.417969-9.324219 9.601563-9.601563l29.9375-1.589843c5.183594-.273438 9.324218-4.414063 9.597656-9.597657l1.59375-29.941406c.273438-5.179687 4.414062-9.320313 9.597656-9.597656l35.167969-1.867188c2.5-.132812 4.867187-1.1875 6.640625-2.960937zm0 0" fill="#ffe471"/><path d="m4.738281 505.050781 67.320313-5.238281c5.078125-.394531 9.078125-4.496094 9.351562-9.582031l1.601563-30.164063c.273437-5.183594 4.414062-9.324218 9.597656-9.597656l29.941406-1.589844c5.179688-.277344 9.324219-4.417968 9.597657-9.601562l1.589843-29.9375c.277344-5.183594 4.417969-9.324219 9.601563-9.601563l29.9375-1.589843c5.183594-.273438 9.324218-4.414063 9.597656-9.597657l1.59375-29.941406c.273438-5.179687 4.414062-9.320313 9.597656-9.597656l35.167969-1.867188c2.5-.132812 4.867187-1.1875 6.640625-2.960937l121.71875-121.722656-36.710938-36.710938-318.703124 318.707031c.746093.433594 1.625.667969 2.558593.59375zm0 0" fill="#f2ca20"/><path d="m489.988281 108.464844-86.449219-86.453125c-29.351562-29.347657-76.933593-29.347657-106.28125 0l-43.226562 43.226562c-53.21875 53.21875-53.21875 139.507813 0 192.730469 53.222656 53.21875 139.511719 53.21875 192.730469 0l43.226562-43.226562c29.347657-29.347657 29.347657-76.929688 0-106.277344zm-86.945312 41.710937c-11.382813 11.382813-29.835938 11.382813-41.21875 0-11.382813-11.378906-11.382813-29.835937 0-41.214843 11.382812-11.382813 29.835937-11.382813 41.21875 0 11.382812 11.378906 11.382812 29.835937 0 41.214843zm0 0" fill="#676a75"/><path d="m489.988281 214.742188c29.347657-29.347657 29.347657-76.929688 0-106.277344l-36.710937-36.710938c29.347656 29.347656 29.347656 76.929688 0 106.277344l-43.226563 43.226562c-46.941406 46.941407-119.609375 52.46875-172.621093 16.601563 4.796874 7.089844 10.324218 13.832031 16.605468 20.109375 53.21875 53.21875 139.507813 53.21875 192.726563 0zm0 0" fill="#454851"/><path d="m468.910156 129.542969-86.449218-86.453125c-17.679688-17.679688-46.445313-17.679688-64.125 0l-43.226563 43.226562c-41.511719 41.511719-41.511719 109.0625 0 150.574219 41.515625 41.511719 109.0625 41.511719 150.574219 0l43.226562-43.226563c17.679688-17.679687 17.679688-46.445312 0-64.121093zm-65.867187 20.632812c-11.382813 11.382813-29.835938 11.382813-41.21875 0-11.382813-11.378906-11.382813-29.835937 0-41.214843 11.382812-11.382813 29.835937-11.382813 41.21875 0 11.382812 11.378906 11.382812 29.835937 0 41.214843zm0 0" fill="#525467"/><path d="m468.910156 129.542969-36.710937-36.710938c17.679687 17.675781 17.679687 46.441407 0 64.121094l-43.226563 43.226563c-35.183594 35.183593-89.0625 40.542968-129.949218 16.085937 4.398437 7.359375 9.757812 14.292969 16.085937 20.625 41.515625 41.511719 109.0625 41.511719 150.574219 0l43.226562-43.226563c17.679688-17.679687 17.679688-46.445312 0-64.121093zm0 0" fill="#3c3f4e"/><path d="m202.183594 287.070312c3.019531-3.015624 3.019531-7.910156 0-10.925781-3.015625-3.019531-7.910156-3.019531-10.925782 0l-148.121093 148.117188c-3.015625 3.015625-3.015625 7.910156 0 10.925781 2.933593 2.933594 7.945312 2.984375 10.929687 0zm0 0" fill="#e0ba19"/></svg>