<svg xmlns="http://www.w3.org/2000/svg" height="511pt" version="1.1" viewBox="-90 1 511 511.99999" width="511pt">
<g id="surface1">
<path d="M 272.777344 106.90625 L 272.777344 218.890625 L 188.226562 218.75 L 188.226562 105.855469 C 188.226562 93.640625 178.40625 83.679688 166.25 83.441406 C 166.101562 83.429688 165.949219 83.429688 165.800781 83.429688 C 153.4375 83.429688 143.375 93.492188 143.375 105.855469 L 143.375 218.75 L 58.964844 218.890625 L 58.964844 106.90625 C 58.964844 47.960938 106.925781 0 165.871094 0 L 166.25 0 C 225.035156 0.210938 272.777344 48.09375 272.777344 106.90625 Z M 272.777344 106.90625 " style=" stroke:none;fill-rule:nonzero;fill:rgb(41.176471%,43.137255%,45.098039%);fill-opacity:1;" />
<path d="M 272.777344 106.90625 L 272.777344 218.890625 L 188.226562 218.75 L 188.226562 105.855469 C 188.226562 93.640625 178.40625 83.679688 166.25 83.441406 L 166.25 0 C 225.035156 0.210938 272.777344 48.09375 272.777344 106.90625 Z M 272.777344 106.90625 " style=" stroke:none;fill-rule:nonzero;fill:rgb(21.568627%,23.529412%,25.490196%);fill-opacity:1;" />
<path d="M 331.101562 225.367188 L 331.101562 490.507812 C 331.101562 502.359375 321.460938 512 309.609375 512 L 21.992188 512 C 10.140625 512 0.5 502.359375 0.5 490.507812 L 0.5 225.367188 C 0.5 213.511719 10.140625 203.871094 21.992188 203.871094 L 309.609375 203.871094 C 321.460938 203.871094 331.101562 213.511719 331.101562 225.367188 Z M 331.101562 225.367188 " style=" stroke:none;fill-rule:nonzero;fill:rgb(100%,50.588235%,42.352941%);fill-opacity:1;" />
<path d="M 331.101562 225.367188 L 331.101562 490.507812 C 331.101562 502.359375 321.460938 512 309.609375 512 L 166.25 512 L 166.25 203.871094 L 309.609375 203.871094 C 321.460938 203.871094 331.101562 213.511719 331.101562 225.367188 Z M 331.101562 225.367188 " style=" stroke:none;fill-rule:nonzero;fill:rgb(93.72549%,24.313725%,20.784314%);fill-opacity:1;" />
<path d="M 236.929688 407.824219 C 242.785156 413.691406 242.785156 423.191406 236.929688 429.058594 C 233.996094 431.992188 230.152344 433.464844 226.308594 433.464844 C 222.460938 433.464844 218.617188 431.992188 215.683594 429.058594 L 165.800781 379.175781 L 115.90625 429.058594 C 112.984375 431.992188 109.140625 433.464844 105.292969 433.464844 C 101.449219 433.464844 97.605469 431.992188 94.671875 429.058594 C 88.804688 423.191406 88.804688 413.691406 94.671875 407.824219 L 144.566406 357.941406 L 94.671875 308.046875 C 88.804688 302.179688 88.804688 292.679688 94.671875 286.8125 C 100.539062 280.949219 110.050781 280.949219 115.90625 286.8125 L 165.800781 336.699219 L 215.683594 286.8125 C 221.550781 280.949219 231.0625 280.949219 236.929688 286.8125 C 242.785156 292.679688 242.785156 302.179688 236.929688 308.046875 L 187.035156 357.941406 Z M 236.929688 407.824219 " style=" stroke:none;fill-rule:nonzero;fill:rgb(100%,100%,100%);fill-opacity:1;" />
<path d="M 236.929688 308.046875 L 187.035156 357.941406 L 236.929688 407.824219 C 242.785156 413.691406 242.785156 423.191406 236.929688 429.058594 C 233.996094 431.992188 230.152344 433.464844 226.308594 433.464844 C 222.460938 433.464844 218.617188 431.992188 215.683594 429.058594 L 166.25 379.625 L 166.25 336.246094 L 215.683594 286.8125 C 221.550781 280.949219 231.0625 280.949219 236.929688 286.8125 C 242.785156 292.679688 242.785156 302.179688 236.929688 308.046875 Z M 236.929688 308.046875 " style=" stroke:none;fill-rule:nonzero;fill:rgb(88.235294%,92.156863%,94.117647%);fill-opacity:1;" />
</g>
</svg>