<svg height="512pt" viewBox="0 -8 512 511" width="512pt" xmlns="http://www.w3.org/2000/svg"><path d="m494.035156 247.519531c0 136.421875-110.59375 247.015625-247.015625 247.015625-136.425781 0-247.019531-110.59375-247.019531-247.015625 0-136.425781 110.59375-247.019531 247.019531-247.019531 136.421875 0 247.015625 110.59375 247.015625 247.019531zm0 0" fill="#75cff2"/><path d="m494.035156 247.519531c0 136.421875-110.59375 247.015625-247.015625 247.015625-136.425781 0-247.019531-110.59375-247.019531-247.015625 0-136.425781 110.59375-247.019531 247.019531-247.019531 136.421875 0 247.015625 110.59375 247.015625 247.019531zm0 0" fill="#75cff2"/><path d="m247.019531.5c-8.722656 0-17.335937.457031-25.824219 1.339844 124.289063 12.914062 221.195313 117.976562 221.195313 245.679687s-96.90625 232.765625-221.195313 245.675781c8.488282.882813 17.101563 1.339844 25.824219 1.339844 136.421875 0 247.015625-110.59375 247.015625-247.015625 0-136.425781-110.59375-247.019531-247.015625-247.019531zm0 0" fill="#53b4e4"/><path d="m364.035156 138.914062c32.992188-3.941406 64.570313-9.558593 93.933594-16.765624.554688-.136719 1.078125-.335938 1.570312-.578126-2.753906-4.636718-5.652343-9.179687-8.699218-13.617187-28.390625 6.808594-58.84375 12.128906-90.648438 15.855469-5.496094-19.910156-12.359375-38.425782-20.492187-55.058594-14.933594-30.53125-33.144531-52.609375-53.210938-65.09375-12.851562-2.066406-26.035156-3.152344-39.46875-3.152344-13.472656 0-26.683593 1.09375-39.570312 3.167969-20.058594 12.488281-38.257813 34.558594-53.183594 65.078125-8.132813 16.632812-14.996094 35.148438-20.492187 55.058594-31.78125-3.722656-62.210938-9.039063-90.585938-15.839844-3.058594 4.453125-5.96875 9.015625-8.734375 13.671875.40625.179687.828125.332031 1.273437.441406 29.4375 7.238281 61.109376 12.882813 94.203126 16.832031-7.308594 31.265626-11.394532 65.464844-11.914063 100.878907h-117.882813c-.0781245 2.566406-.132812 5.140625-.132812 7.726562 0 2.585938.0546875 5.15625.132812 7.722657h117.878907c.613281 41.625 6.148437 81.570312 16.054687 117.042968-30.90625 3.546875-60.632812 8.539063-88.425781 14.929688-.667969.152344-1.289063.398437-1.867187.703125 3.15625 4.558593 6.460937 9.011719 9.90625 13.34375 26.769531-5.960938 55.292968-10.628907 84.929687-13.941407 4.527344 13.855469 9.757813 26.90625 15.65625 38.964844 14.925781 30.519532 33.125 52.59375 53.179687 65.082032 12.886719 2.074218 26.101563 3.167968 39.570313 3.167968 13.4375 0 26.617187-1.089844 39.472656-3.152344 20.066407-12.484374 38.273438-34.5625 53.207031-65.097656 5.898438-12.058594 11.128907-25.109375 15.652344-38.964844 29.660156 3.3125 58.207032 7.988282 84.992188 13.953126 3.445312-4.324219 6.746094-8.769532 9.898437-13.328126-.59375-.316406-1.234375-.570312-1.921875-.730468-27.792968-6.390625-57.519531-11.378906-88.421875-14.929688 9.90625-35.472656 15.441407-75.417968 16.050781-117.039062h117.953126c.082031-2.566406.132812-5.140625.132812-7.726563 0-2.585937-.050781-5.160156-.132812-7.726562h-117.949219c-.519531-35.417969-4.605469-69.613281-11.914063-100.878907zm-124.78125 348.320313c-26.457031-3.875-51.464844-27.578125-71.109375-67.738281-5.136719-10.503906-9.738281-21.824219-13.792969-33.800782 27.636719-2.605468 56.105469-4.035156 84.902344-4.253906zm0-121.246094c-30.40625.230469-60.464844 1.796875-89.605468 4.644531-9.96875-34.71875-15.558594-74.144531-16.179688-115.390624h105.785156zm0-126.195312h-105.785156c.527344-34.949219 4.621094-68.589844 11.925781-99.167969 30.421875 3.109375 61.910157 4.824219 93.863281 5.058594v94.109375zm0-109.5625c-30.601562-.230469-60.753906-1.832031-89.914062-4.738281 5.121094-18.042969 11.410156-34.832032 18.804687-49.953126 19.644531-40.160156 44.652344-63.863281 71.109375-67.738281zm15.453125-122.429688c26.460938 3.875 51.46875 27.578125 71.109375 67.738281 7.394532 15.117188 13.6875 31.910157 18.804688 49.953126-29.160156 2.90625-59.3125 4.507812-89.914063 4.738281zm71.109375 411.695313c-19.640625 40.160156-44.648437 63.863281-71.109375 67.738281v-105.792969c28.796875.21875 57.265625 1.648438 84.902344 4.25-4.050781 11.980469-8.652344 23.296875-13.792969 33.804688zm18.496094-48.863282c-29.140625-2.847656-59.199219-4.417968-89.605469-4.644531v-110.746093h105.785157c-.617188 41.246093-6.207032 80.675781-16.179688 115.390624zm-89.605469-130.839843v-94.105469c31.949219-.238281 63.4375-1.949219 93.863281-5.0625 7.304688 30.578125 11.398438 64.222656 11.925782 99.167969zm0 0" fill="#44a6cc"/><path d="m512 385.054688c0 60.464843-49.015625 109.480468-109.480469 109.480468-60.464843 0-109.480469-49.015625-109.480469-109.480468 0-60.460938 49.015626-109.480469 109.480469-109.480469 60.464844 0 109.480469 49.019531 109.480469 109.480469zm0 0" fill="#a4d852"/><path d="m402.519531 275.578125c-8.894531 0-17.539062 1.066406-25.820312 3.070313 48 11.609374 83.65625 54.839843 83.65625 106.40625 0 51.570312-35.65625 94.800781-83.65625 106.410156 8.28125 2 16.925781 3.070312 25.820312 3.070312 60.464844 0 109.480469-49.015625 109.480469-109.480468 0-60.460938-49.015625-109.476563-109.480469-109.476563zm0 0" fill="#97c63e"/><path d="m374.125 375.777344v-27.515625c0-15.65625 12.738281-28.398438 28.394531-28.398438 15.660157 0 28.394531 12.738281 28.394531 28.398438v27.515625h15.453126v-27.515625c0-24.179688-19.667969-43.851563-43.847657-43.851563-24.175781 0-43.847656 19.671875-43.847656 43.851563v27.515625zm0 0" fill="#ededed"/><path d="m447.921875 443.394531h-90.800781c-2.476563 0-4.484375-2.007812-4.484375-4.484375v-64.9375c0-2.480468 2.007812-4.488281 4.484375-4.488281h90.800781c2.476563 0 4.484375 2.007813 4.484375 4.488281v64.9375c0 2.476563-2.007812 4.484375-4.484375 4.484375zm0 0" fill="#f79f48"/><path d="m447.921875 369.484375h-47.160156v73.910156h47.160156c2.476563 0 4.484375-2.007812 4.484375-4.488281v-64.9375c0-2.476562-2.007812-4.484375-4.484375-4.484375zm0 0" fill="#ef8229"/><g fill="#ffe471"><path d="m379.097656 424.078125c4.269532 0 7.726563-3.457031 7.726563-7.722656v-15.460938c0-4.265625-3.457031-7.726562-7.726563-7.726562-4.265625 0-7.726562 3.460937-7.726562 7.726562v15.460938c0 4.265625 3.460937 7.722656 7.726562 7.722656zm0 0"/><path d="m402.519531 424.078125c4.265625 0 7.726563-3.457031 7.726563-7.722656v-15.460938c0-4.265625-3.460938-7.726562-7.726563-7.726562s-7.726562 3.460937-7.726562 7.726562v15.460938c0 4.265625 3.460937 7.722656 7.726562 7.722656zm0 0"/><path d="m425.941406 424.078125c4.269532 0 7.726563-3.457031 7.726563-7.722656v-15.460938c0-4.265625-3.457031-7.726562-7.726563-7.726562-4.265625 0-7.726562 3.460937-7.726562 7.726562v15.460938c0 4.265625 3.460937 7.722656 7.726562 7.722656zm0 0"/></g></svg>