<svg height="512pt" viewBox="0 -8 512.00001 512" width="512pt" xmlns="http://www.w3.org/2000/svg"><path d="m482.585938 241.292969c0 133.261719-108.03125 241.292969-241.292969 241.292969s-241.292969-108.03125-241.292969-241.292969 108.03125-241.292969 241.292969-241.292969 241.292969 108.03125 241.292969 241.292969zm0 0" fill="#cc966a"/><path d="m241.292969 0c-8.765625 0-17.421875.480469-25.945313 1.390625 121.058594 12.945313 215.347656 115.40625 215.347656 239.902344 0 124.496093-94.289062 226.957031-215.347656 239.902343 8.523438.914063 17.179688 1.394532 25.945313 1.394532 133.261719 0 241.292969-108.03125 241.292969-241.292969 0-133.265625-108.03125-241.296875-241.292969-241.296875zm0 0" fill="#b7825a"/><path d="m512 386.410156c0 60.757813-49.253906 110.011719-110.007812 110.011719-60.757813 0-110.007813-49.253906-110.007813-110.011719 0-60.753906 49.25-110.007812 110.007813-110.007812 60.753906 0 110.007812 49.253906 110.007812 110.007812zm0 0" fill="#a4d852"/><path d="m373.421875 373.378906v-23.941406c0-15.753906 12.816406-28.570312 28.570313-28.570312 15.753906 0 28.570312 12.816406 28.570312 28.570312v23.941406h15.453125v-23.941406c0-24.273438-19.75-44.023438-44.023437-44.023438-24.277344 0-44.023438 19.75-44.023438 44.023438v23.941406zm0 0" fill="#ededed"/><path d="m401.992188 276.402344c-9.140626 0-18.019532 1.125-26.511719 3.226562 47.945312 11.863282 83.492187 55.167969 83.492187 106.78125 0 51.617188-35.546875 94.917969-83.492187 106.785156 8.492187 2.101563 17.371093 3.226563 26.511719 3.226563 60.753906 0 110.007812-49.253906 110.007812-110.011719 0-60.753906-49.253906-110.007812-110.007812-110.007812zm0 0" fill="#97c63e"/><path d="m447.609375 445.03125h-91.234375c-2.488281 0-4.507812-2.019531-4.507812-4.507812v-65.25c0-2.488282 2.019531-4.507813 4.507812-4.507813h91.234375c2.492187 0 4.507813 2.019531 4.507813 4.507813v65.25c0 2.488281-2.015626 4.507812-4.507813 4.507812zm0 0" fill="#f79f48"/><path d="m447.609375 370.765625h-47.382813v74.265625h47.382813c2.492187 0 4.507813-2.019531 4.507813-4.507812v-65.25c0-2.488282-2.015626-4.507813-4.507813-4.507813zm0 0" fill="#ef8229"/><g fill="#843812"><path d="m53.058594 190.976562c.699218.195313 1.398437.289063 2.089844.289063 3.375 0 6.480468-2.230469 7.4375-5.644531 6.757812-24.125 18.183593-46.304688 33.960937-65.929688 2.675781-3.324218 2.144531-8.1875-1.179687-10.863281-3.328126-2.675781-8.1875-2.144531-10.863282 1.183594-17.09375 21.257812-29.472656 45.292969-36.800781 71.441406-1.148437 4.109375 1.246094 8.371094 5.355469 9.523437zm0 0"/><path d="m120.523438 94.949219c33.527343-28.734375 76.339843-44.558594 120.558593-44.558594 102.203125 0 185.351563 83.148437 185.351563 185.351563 0 4.265624 3.460937 7.726562 7.726562 7.726562 4.269532 0 7.726563-3.460938 7.726563-7.726562 0-110.722657-90.078125-200.804688-200.804688-200.804688-47.902343 0-94.289062 17.144531-130.613281 48.28125-3.242188 2.773438-3.617188 7.652344-.839844 10.890625 2.777344 3.242187 7.65625 3.617187 10.894532.839844zm0 0"/><path d="m48.78125 230.089844c8.59375-.34375 16.453125-.960938 23.355469-1.832032 13.238281-1.667968 23.964843-11.601562 26.695312-24.71875.847657-4.078124 1.574219-7.222656 2.152344-9.316406 17.34375-62.332031 74.957031-105.863281 140.097656-105.863281 24.742188 0 48.964844 6.582031 70.050781 19.042969 20.457032 12.085937 37.089844 29.109375 48.101563 49.226562 14.164063 25.875 22.59375 54.285156 25.050781 84.4375.332032 4.039063 3.710938 7.097656 7.695313 7.097656.210937 0 .421875-.007812.636719-.023437 4.253906-.347656 7.417968-4.078125 7.070312-8.332031-2.636719-32.328125-11.6875-62.808594-26.898438-90.597656-12.34375-22.558594-30.949218-41.613282-53.796874-55.113282-23.464844-13.863281-50.40625-21.191406-77.910157-21.191406-72.054687 0-135.785156 48.183594-154.988281 117.191406-.671875 2.429688-1.476562 5.890625-2.390625 10.292969-1.386719 6.65625-6.808594 11.695313-13.496094 12.539063-6.472656.8125-13.890625 1.394531-22.042969 1.722656-4.265624.171875-7.582031 3.765625-7.410156 8.03125.167969 4.261718 3.761719 7.574218 8.027344 7.40625zm0 0"/><path d="m329.34375 148.902344c-2.996094-3.042969-7.886719-3.078125-10.929688-.085938-3.039062 2.992188-3.078124 7.882813-.085937 10.925782 19.65625 19.976562 30.722656 46.355468 31.15625 74.277343.007813.300781.027344.597657.066406.894531.550781 4.140626.734375 9.523438.554688 16-.121094 4.269532 3.242187 7.820313 7.507812 7.941407.074219 0 .144531.003906.21875.003906 4.167969 0 7.601563-3.320313 7.71875-7.511719.199219-7.078125-.011719-13.132812-.625-18.011718-.605469-31.746094-13.230469-61.71875-35.582031-84.433594zm0 0"/><path d="m48.726562 267.089844 1.058594-.039063c23.820313-.929687 43.523438-3.933593 58.5625-8.925781 13.96875-4.636719 23.71875-17.308594 24.839844-32.277344.21875-2.910156.574219-5.800781 1.054688-8.585937 4.292968-24.878907 17.304687-47.640625 36.640624-64.097657 19.582032-16.664062 44.511719-25.839843 70.199219-25.839843 17.449219 0 34.796875 4.261719 50.171875 12.324219 3.777344 1.980468 8.449219.523437 10.433594-3.257813 1.980469-3.777344.523438-8.449219-3.253906-10.429687-17.582032-9.21875-37.414063-14.09375-57.351563-14.09375-29.355469 0-57.84375 10.488281-80.214843 29.527343-22.085938 18.796875-36.945313 44.804688-41.851563 73.238281-.566406 3.273438-.980469 6.65625-1.234375 10.054688-.65625 8.734375-6.269531 16.101562-14.300781 18.769531-9.390625 3.117188-26.433594 7.0625-54.296875 8.148438l-1.058594.042969c-4.265625.164062-7.585938 3.757812-7.417969 8.023437.160157 4.160156 3.585938 7.421875 7.714844 7.421875.101563.003906.203125 0 .304687-.003906zm0 0"/><path d="m260.695312 419.671875c-7.882812 4.878906-16.347656 9.3125-25.164062 13.175781-3.90625 1.710938-5.683594 6.269532-3.972656 10.175782 1.269531 2.902343 4.105468 4.628906 7.082031 4.628906 1.035156 0 2.085937-.210938 3.097656-.652344 9.476563-4.15625 18.589844-8.929688 27.089844-14.1875 3.628906-2.246094 4.75-7.007812 2.5-10.636719-2.242187-3.628906-7.007813-4.75-10.632813-2.503906zm0 0"/><path d="m157.636719 270.828125c11.652343-12.828125 12.761719-25.78125 12.382812-32.359375-.320312-5.632812-.109375-10.511719.652344-14.914062 5.925781-34.339844 35.535156-59.261719 70.410156-59.261719 39.394531 0 71.449219 32.050781 71.449219 71.449219 0 .296874.019531.605468.054688.902343.011718.121094 1.378906 12.261719-.476563 29.996094-.441406 4.246094 2.636719 8.046875 6.882813 8.488281 4.234374.441406 8.042968-2.636718 8.488281-6.882812 1.851562-17.742188.769531-30.316406.5-32.929688-.230469-47.722656-39.125-86.476562-86.898438-86.476562-42.417969 0-78.433593 30.316406-85.640625 72.085937-.960937 5.574219-1.238281 11.601563-.847656 18.421875.234375 4.164063-.539062 12.4375-8.398438 21.089844-10.472656 11.535156-35.554687 25.769531-95.574218 28.113281-4.265625.164063-7.585938 3.757813-7.417969 8.019531.160156 4.160157 3.585937 7.425782 7.714844 7.425782.101562 0 .203125-.003906.304687-.007813 52.488282-2.042969 88.289063-13.203125 106.414063-33.160156zm0 0"/><path d="m260.511719 370.949219c-25.5625 22.609375-60.039063 37.742187-102.46875 44.976562-4.207031.71875-7.035157 4.710938-6.316407 8.917969.640626 3.765625 3.910157 6.425781 7.605469 6.425781.429688 0 .867188-.035156 1.308594-.109375 45.308594-7.726562 82.355469-24.089844 110.109375-48.636718 3.195312-2.828126 3.496094-7.710938.667969-10.90625-2.828125-3.195313-7.710938-3.496094-10.90625-.667969zm0 0"/><path d="m258.1875 342.710938c38.648438-42.84375 35.242188-101.730469 34.824219-107.285157-.171875-28.492187-23.402344-51.617187-51.929688-51.617187-25.347656 0-46.871093 18.113281-51.175781 43.0625-.507812 2.921875-.636719 6.351562-.398438 10.480468.550782 9.632813-.980468 28.496094-17.421874 46.597657-17.027344 18.746093-43.945313 30.589843-82.300782 36.207031-10.261718.792969-20.058594 1.628906-29.121094 2.484375-4.25.398437-7.367187 4.167969-6.96875 8.417969.402344 4.246094 4.179688 7.363281 8.417969 6.964844 9.054688-.851563 18.855469-1.6875 29.125-2.484376.171875-.011718.347657-.03125.515625-.054687 42.183594-6.136719 72.199219-19.597656 91.769532-41.144531 20.234374-22.277344 22.097656-45.820313 21.410156-57.871094-.164063-2.898438-.097656-5.242188.199218-6.96875 3.023438-17.519531 18.140626-30.238281 35.949219-30.238281 20.113281 0 36.476563 16.367187 36.476563 36.480469 0 .21875.011718.4375.03125.65625.046875.566406 4.410156 56.839843-30.878906 95.960937-19.53125 21.652344-65.433594 47.214844-135.683594 54.023437-4.246094.410157-7.355469 4.1875-6.945313 8.433594.386719 3.992188 3.75 6.980469 7.679688 6.980469.25 0 .503906-.011719.753906-.035156 62.457031-6.050781 118.273437-28.675781 145.671875-59.050781zm0 0"/><path d="m168.257812 351.71875c21.25-9.234375 39.878907-21.699219 55.367188-37.058594 16.15625-16.023437 24.757812-41.8125 24.214844-72.621094-.003906-.265624-.007813-.484374-.011719-.65625.167969-2.171874-.578125-4.40625-2.242187-6.066406-3.023438-3.015625-7.914063-3.007812-10.929688.007813-2.347656 2.355469-2.300781 4.921875-2.265625 6.988281.464844 26.550781-6.511719 48.347656-19.648437 61.375-14.117188 14.003906-31.15625 25.394531-50.644532 33.859375-10.273437 4.460937-21.359375 8.164063-32.949218 11.003906-15.003907 3.671875-31.042969 5.953125-47.675782 6.777344-4.261718.210937-7.542968 3.839844-7.332031 8.101563.203125 4.132812 3.617187 7.34375 7.707031 7.34375.128906 0 .261719-.003907.390625-.011719 17.609375-.871094 34.628907-3.296875 50.582031-7.203125 12.441407-3.046875 24.363282-7.03125 35.4375-11.839844zm0 0"/></g><path d="m378.457031 425.585938c4.269531 0 7.726563-3.457032 7.726563-7.726563v-15.53125c0-4.269531-3.457032-7.726563-7.726563-7.726563-4.265625 0-7.726562 3.457032-7.726562 7.726563v15.53125c0 4.269531 3.460937 7.726563 7.726562 7.726563zm0 0" fill="#ffe471"/><path d="m401.992188 425.585938c4.269531 0 7.726562-3.457032 7.726562-7.726563v-15.53125c0-4.269531-3.460938-7.726563-7.726562-7.726563-4.269532 0-7.726563 3.457032-7.726563 7.726563v15.53125c0 4.269531 3.457031 7.726563 7.726563 7.726563zm0 0" fill="#ffe471"/><path d="m425.527344 425.585938c4.269531 0 7.726562-3.457032 7.726562-7.726563v-15.53125c0-4.269531-3.460937-7.726563-7.726562-7.726563s-7.726563 3.457032-7.726563 7.726563v15.53125c0 4.269531 3.457031 7.726563 7.726563 7.726563zm0 0" fill="#ffe471"/></svg>