<svg xmlns="http://www.w3.org/2000/svg" height="511pt" version="1.1" viewBox="-90 1 511 511.99999" width="511pt">
<g id="surface1">
<path d="M 272.777344 106.90625 L 272.777344 218.890625 L 188.226562 218.75 L 188.226562 105.855469 C 188.226562 93.640625 178.40625 83.679688 166.25 83.441406 C 166.101562 83.429688 165.949219 83.429688 165.800781 83.429688 C 153.4375 83.429688 143.375 93.492188 143.375 105.855469 L 143.375 218.75 L 58.964844 218.890625 L 58.964844 106.90625 C 58.964844 47.960938 106.925781 0 165.871094 0 L 166.25 0 C 225.035156 0.210938 272.777344 48.09375 272.777344 106.90625 Z M 272.777344 106.90625 " style=" stroke:none;fill-rule:nonzero;fill:rgb(41.176471%,43.137255%,45.098039%);fill-opacity:1;" />
<path d="M 272.777344 106.90625 L 272.777344 218.890625 L 188.226562 218.75 L 188.226562 105.855469 C 188.226562 93.640625 178.40625 83.679688 166.25 83.441406 L 166.25 0 C 225.035156 0.210938 272.777344 48.09375 272.777344 106.90625 Z M 272.777344 106.90625 " style=" stroke:none;fill-rule:nonzero;fill:rgb(21.568627%,23.529412%,25.490196%);fill-opacity:1;" />
<path d="M 331.101562 225.367188 L 331.101562 490.507812 C 331.101562 502.359375 321.460938 512 309.609375 512 L 21.992188 512 C 10.140625 512 0.5 502.359375 0.5 490.507812 L 0.5 225.367188 C 0.5 213.511719 10.140625 203.871094 21.992188 203.871094 L 309.609375 203.871094 C 321.460938 203.871094 331.101562 213.511719 331.101562 225.367188 Z M 331.101562 225.367188 " style=" stroke:none;fill-rule:nonzero;fill:rgb(100%,76.862745%,46.666667%);fill-opacity:1;" />
<path d="M 331.101562 225.367188 L 331.101562 490.507812 C 331.101562 502.359375 321.460938 512 309.609375 512 L 166.25 512 L 166.25 203.871094 L 309.609375 203.871094 C 321.460938 203.871094 331.101562 213.511719 331.101562 225.367188 Z M 331.101562 225.367188 " style=" stroke:none;fill-rule:nonzero;fill:rgb(100%,56.862745%,0%);fill-opacity:1;" />
<path d="M 211.34375 334.136719 C 211.34375 353.988281 198.570312 370.90625 180.8125 377.121094 L 180.8125 420.050781 C 180.8125 428.199219 174.335938 434.816406 166.246094 435.054688 C 166.097656 435.066406 165.945312 435.066406 165.796875 435.066406 C 157.507812 435.066406 150.78125 428.347656 150.78125 420.050781 L 150.78125 377.121094 C 133.03125 370.90625 120.257812 353.988281 120.257812 334.136719 C 120.257812 309.027344 140.6875 288.59375 165.796875 288.59375 L 166.246094 288.59375 C 191.152344 288.847656 211.34375 309.179688 211.34375 334.136719 Z M 211.34375 334.136719 " style=" stroke:none;fill-rule:nonzero;fill:rgb(100%,100%,100%);fill-opacity:1;" />
<path d="M 211.34375 334.136719 C 211.34375 353.988281 198.570312 370.90625 180.8125 377.121094 L 180.8125 420.050781 C 180.8125 428.199219 174.335938 434.816406 166.246094 435.054688 L 166.246094 288.59375 C 191.152344 288.847656 211.34375 309.179688 211.34375 334.136719 Z M 211.34375 334.136719 " style=" stroke:none;fill-rule:nonzero;fill:rgb(88.235294%,92.156863%,94.117647%);fill-opacity:1;" />
</g>
</svg>