<svg height="512pt" viewBox="0 -56 512.00033 512" width="512pt" xmlns="http://www.w3.org/2000/svg"><path d="m147.28125 69.078125h-147.28125v-56.421875c0-6.988281 5.664062-12.65625 12.652344-12.65625h134.628906zm0 0" fill="#aa4b21"/><path d="m147.28125 0h147.277344v69.078125h-147.277344zm0 0" fill="#8e3a16"/><path d="m441.839844 69.078125h-147.277344v-69.078125h134.625c6.988281 0 12.652344 5.664062 12.652344 12.652344zm0 0" fill="#aa4b21"/><path d="m147.28125 345.390625h-134.628906c-6.988282 0-12.652344-5.664063-12.652344-12.652344v-56.425781h147.28125zm0 0" fill="#aa4b21"/><path d="m147.28125 276.3125h147.277344v69.078125h-147.277344zm0 0" fill="#8e3a16"/><path d="m429.1875 345.390625h-134.625v-69.078125h147.277344v56.425781c0 6.988281-5.664063 12.652344-12.652344 12.652344zm0 0" fill="#aa4b21"/><path d="m0 138.15625h147.28125v69.078125h-147.28125zm0 0" fill="#aa4b21"/><path d="m147.28125 138.15625h147.277344v69.078125h-147.277344zm0 0" fill="#8e3a16"/><path d="m294.5625 138.15625h147.277344v69.078125h-147.277344zm0 0" fill="#aa4b21"/><path d="m73.640625 69.078125h147.28125v69.078125h-147.28125zm0 0" fill="#aa4b21"/><g fill="#964117"><path d="m168.03125 69.078125v39.5625c0 8.371094-6.785156 15.15625-15.15625 15.15625h-79.234375v14.359375h147.28125v-69.078125zm0 0"/><path d="m94.394531 0v39.558594c0 8.375-6.789062 15.160156-15.160156 15.160156h-79.234375v14.359375h147.28125v-69.078125zm0 0"/><path d="m94.394531 138.15625v39.5625c0 8.371094-6.789062 15.15625-15.160156 15.15625h-79.234375v14.359375h147.28125v-69.078125zm0 0"/><path d="m94.394531 276.3125v39.5625c0 8.371094-6.789062 15.15625-15.160156 15.15625h-79.234375v1.707031c0 6.988281 5.664062 12.652344 12.652344 12.652344h134.628906v-69.078125zm0 0"/><path d="m388.953125 276.3125v39.5625c0 8.371094-6.785156 15.15625-15.15625 15.15625h-79.234375v14.359375h134.625c6.988281 0 12.652344-5.664063 12.652344-12.652344v-56.425781zm0 0"/><path d="m388.953125 138.15625v39.5625c0 8.371094-6.785156 15.15625-15.15625 15.15625h-79.234375v14.359375h147.277344v-69.078125zm0 0"/><path d="m388.953125 0v39.558594c0 8.375-6.785156 15.160156-15.15625 15.160156h-79.234375v14.359375h147.277344v-56.421875c0-6.988281-5.664063-12.65625-12.652344-12.65625zm0 0"/></g><path d="m220.921875 69.078125h147.277344v69.078125h-147.277344zm0 0" fill="#8e3a16"/><path d="m73.640625 207.234375h147.28125v69.078125h-147.28125zm0 0" fill="#aa4b21"/><path d="m220.921875 207.234375h147.277344v69.078125h-147.277344zm0 0" fill="#8e3a16"/><path d="m441.839844 69.078125h-73.640625v69.078125h73.640625zm0 0" fill="#aa4b21"/><path d="m441.839844 207.234375h-73.640625v69.078125h73.640625zm0 0" fill="#aa4b21"/><path d="m0 207.234375h73.640625v69.078125h-73.640625zm0 0" fill="#8e3a16"/><path d="m0 69.078125h73.640625v69.078125h-73.640625zm0 0" fill="#8e3a16"/><path d="m315.3125 69.078125v39.5625c0 8.371094-6.785156 15.15625-15.15625 15.15625h-79.234375v14.359375h147.277344v-69.078125zm0 0" fill="#843812"/><path d="m315.3125 207.234375v39.5625c0 8.371094-6.785156 15.15625-15.15625 15.15625h-79.234375v14.359375h147.277344v-69.078125zm0 0" fill="#843812"/><path d="m241.671875 0v39.558594c0 8.375-6.785156 15.160156-15.15625 15.160156h-79.234375v14.359375h147.277344v-69.078125zm0 0" fill="#843812"/><path d="m241.671875 138.15625v39.5625c0 8.371094-6.785156 15.15625-15.15625 15.15625h-79.234375v14.359375h147.277344v-69.078125zm0 0" fill="#843812"/><path d="m241.671875 276.3125v39.5625c0 8.371094-6.785156 15.15625-15.15625 15.15625h-79.234375v14.359375h147.277344v-69.078125zm0 0" fill="#843812"/><path d="m168.03125 207.234375v39.5625c0 8.371094-6.785156 15.15625-15.15625 15.15625h-79.234375v14.359375h147.28125v-69.078125zm0 0" fill="#964117"/><path d="m388.953125 246.796875c0 8.371094-6.785156 15.15625-15.15625 15.15625h-5.59375v14.359375h73.640625v-69.078125h-52.890625zm0 0" fill="#964117"/><path d="m388.953125 108.640625c0 8.371094-6.785156 15.15625-15.15625 15.15625h-5.59375v14.359375h73.640625v-69.078125h-52.890625zm0 0" fill="#964117"/><path d="m20.753906 108.640625c0 8.371094-6.789062 15.15625-15.160156 15.15625h-5.59375v14.359375h73.640625v-69.078125h-52.886719zm0 0" fill="#843812"/><path d="m20.753906 246.796875c0 8.371094-6.789062 15.15625-15.160156 15.15625h-5.59375v14.359375h73.640625v-69.078125h-52.886719zm0 0" fill="#843812"/><path d="m507.480469 253.324219c-17.324219-7.164063-29.4375-23.425781-31.117188-42.382813-.230469-2.59375-2.433593-4.5625-5.039062-4.546875l-52.648438.378907-1.070312.007812-52.648438.375c-2.632812.019531-4.78125 2.066406-4.980469 4.691406-1.433593 18.964844-13.328124 35.378906-30.550781 42.769532-2.917969 1.253906-4.667969 4.269531-4.335937 7.425781 2.445312 23.105469 16.625 101.789062 93.402344 137.085937.320312.148438.671874.222656 1.023437.21875s.699219-.082031 1.015625-.234375c76.269531-36.386719 89.320312-115.257812 91.4375-138.402343.292969-3.183594-1.535156-6.164063-4.488281-7.386719zm0 0" fill="#75cff2"/><path d="m507.480469 253.324219c-17.324219-7.164063-29.4375-23.425781-31.117188-42.382813-.230469-2.59375-2.433593-4.5625-5.039062-4.546875l-46.761719.335938c1.628906 29 13.734375 47.378906 31.089844 54.578125 2.964844 1.230468 4.820312 4.195312 4.527344 7.390625-1.800782 19.691406-11.519532 79.742187-61.371094 119.632812 6.054687 3.917969 12.601562 7.539063 19.683594 10.796875.320312.144532.667968.222656 1.023437.21875.351563-.003906.699219-.082031 1.015625-.234375 76.269531-36.390625 89.320312-115.257812 91.4375-138.402343.292969-3.183594-1.535156-6.164063-4.488281-7.386719zm0 0" fill="#53b4e4"/><path d="m455 262.246094c-3.5625-2.355469-8.351562-1.375-10.703125 2.183594l-29.417969 44.519531-15.132812-14.332031c-3.097656-2.933594-7.988282-2.800782-10.925782.296874-2.933593 3.097657-2.800781 7.988282.296876 10.921876l21.820312 20.664062c1.445312 1.367188 3.347656 2.117188 5.3125 2.117188.292969 0 .589844-.019532.882812-.050782 2.269532-.261718 4.304688-1.511718 5.5625-3.417968l34.492188-52.199219c2.351562-3.558594 1.375-8.351563-2.1875-10.703125zm0 0" fill="#ededed"/></svg>