<svg height="512pt" viewBox="-8 0 512 512.001" width="512pt" xmlns="http://www.w3.org/2000/svg"><path d="m485.171875 125.453125c-45.921875-19.378906-77.820313-62.839844-81.929687-113.273437-.5625-6.898438-6.386719-12.179688-13.3125-12.179688h-282.804688c-7 0-12.75 5.40625-13.328125 12.382812-4.179687 50.394532-36.113281 93.800782-82.042969 113.128907-7.777344 3.269531-12.488281 11.253906-11.660156 19.652343 6.066406 61.484376 42.261719 270.933594 245.722656 366.234376.847656.398437 1.777344.601562 2.714844.601562.933594 0 1.863281-.203125 2.710938-.601562 203.449218-95.296876 239.652343-304.730469 245.71875-366.226563.835937-8.453125-3.964844-16.414063-11.789063-19.71875zm0 0" fill="#75cff2"/><path d="m485.171875 125.453125c-45.921875-19.378906-77.820313-62.839844-81.929687-113.273437-.5625-6.898438-6.386719-12.179688-13.3125-12.179688h-44.085938c1.679688 54.757812 39.300781 122.289062 87.480469 142.621094 7.824219 3.304687 12.625 11.265625 11.789062 19.71875-5.660156 57.347656-37.527343 243.335937-206.785156 345.453125 2.472656 1.21875 4.960937 2.421875 7.488281 3.605469.847656.394531 1.773438.601562 2.710938.601562s1.867187-.207031 2.714844-.601562c203.449218-95.296876 239.652343-304.734376 245.71875-366.226563.835937-8.453125-3.964844-16.414063-11.789063-19.71875zm0 0" fill="#53b4e4"/><path d="m251.371094 471.085938c-1.777344.929687-3.910156.929687-5.691406 0-71.769532-37.539063-127.011719-95.113282-164.347657-171.351563-27.851562-56.875-39.003906-111.113281-43.394531-142.074219-.359375-2.523437.863281-5.023437 3.109375-6.242187 42.890625-23.234375 73.527344-63.441407 84.671875-110.640625.652344-2.761719 3.132812-4.703125 5.96875-4.703125h233.679688c2.835937 0 5.3125 1.941406 5.96875 4.703125 11.140624 47.195312 41.773437 87.402344 84.675781 110.644531 2.242187 1.214844 3.464843 3.714844 3.109375 6.238281-4.390625 30.957032-15.542969 85.207032-43.398438 142.082032-37.335937 76.230468-92.574218 133.800781-164.351562 171.34375zm0 0" fill="#ffe471"/><path d="m456.007812 151.421875c-42.898437-23.242187-73.53125-63.449219-84.675781-110.644531-.652343-2.761719-3.128906-4.703125-5.964843-4.703125h-51.847657c2.835938 0 5.3125 1.941406 5.964844 4.703125 11.144531 47.195312 41.773437 87.402344 84.675781 110.644531 2.246094 1.214844 3.46875 3.714844 3.109375 6.238281-4.386719 30.957032-15.539062 85.207032-43.394531 142.082032-33.226562 67.84375-80.648438 120.890624-141.273438 158.210937 7.496094 4.613281 15.183594 9 23.078126 13.132813 1.78125.929687 3.914062.929687 5.691406 0 71.777344-37.542969 127.015625-95.113282 164.351562-171.34375 27.855469-56.878907 39.007813-111.125 43.394532-142.082032.359374-2.523437-.863282-5.023437-3.109376-6.238281zm0 0" fill="#f2ca20"/><path d="m273.542969 346.53125c0 13.242188-11.402344 25.015625-25.015625 25.015625-14.347656 0-25.015625-11.773437-25.015625-25.015625 0-13.609375 10.667969-25.015625 25.015625-25.015625 13.613281 0 25.015625 11.402344 25.015625 25.015625zm-7.355469-65.480469c0 9.933594-10.667969 13.980469-18.027344 13.980469-9.5625 0-18.027344-4.046875-18.027344-13.980469 0-48.558593-4.78125-113.304687-4.78125-161.859375 0-12.878906 9.933594-20.234375 22.808594-20.234375 12.507813 0 23.175782 7.359375 23.175782 20.234375 0 48.554688-5.148438 113.300782-5.148438 161.859375zm0 0" fill="#f43b45"/></svg>