<svg height="512pt" viewBox="-30 0 511 512" width="512pt" xmlns="http://www.w3.org/2000/svg"><path d="m362.257812 196.4375c2.371094-6.957031 4.351563-14.046875 5.9375-21.222656.132813-.613282-1.066406-2.675782-2.996093-5.496094-11.777344-17.199219-28.53125-30.390625-47.921875-38.046875l-52.652344-20.796875c-24.890625-9.828125-52.59375-9.808594-77.472656.054688l-52.558594 20.847656c-19.367188 7.679687-36.097656 20.886718-47.851562 38.089844-1.929688 2.828124-3.132813 4.898437-2.996094 5.507812 1.796875 8.101562 4.109375 16.085938 6.902344 23.898438 27.066406 75.585937 91.800781 112.257812 91.800781 112.257812l87.199219-.050781s64.609374-36.699219 91.621093-112.214844c.335938-.941406.664063-1.882813.988281-2.828125zm0 0" fill="#1e3744"/><path d="m147.585938 134.6875-9.96875.007812c-3.609376 0-6.933594 1.222657-9.585938 3.273438-4.601562 3.5625-6.621094 9.550781-5.578125 15.277344l3.929687 21.550781c3.046876 15.972656 21.253907 8.664063 21.253907 8.664063zm0 0" fill="#efd0af"/><path d="m305.152344 134.597656 9.96875-.003906c3.609375-.003906 6.9375 1.214844 9.589844 3.261719 4.605468 3.558593 6.632812 9.542969 5.59375 15.273437l-3.902344 21.554688c-3.03125 15.976562-21.246094 8.6875-21.246094 8.6875zm0 0" fill="#fae0c1"/><path d="m257.660156 352.671875 34.0625-32.03125c5.894532-5.542969 2.988282-15.4375-4.96875-16.910156-9.253906-1.855469-15.917968-12.585938-15.925781-22.027344l-.023437-42.066406-44.84375.027343-44.84375.023438.023437 42.070312c.007813 9.4375-6.644531 20.179688-15.898437 22.042969-7.957032 1.484375-10.851563 11.378907-4.949219 16.917969l34.097656 31.992188c17.792969 16.6875 45.496094 16.675781 63.269531-.039063zm0 0" fill="#fae0c1"/><path d="m286.753906 303.730469c-9.253906-1.855469-15.917968-12.585938-15.925781-22.027344l-.023437-42.066406-35.429688.019531.023438 42.046875c.003906 9.441406 6.667968 20.171875 15.925781 22.027344 7.957031 1.472656 10.863281 11.367187 4.96875 16.910156l-34.0625 32.03125c-4.183594 3.933594-8.917969 6.941406-13.941407 9.023437 16.34375 6.777344 35.765626 3.769532 49.371094-9.023437l34.0625-32.03125c5.894532-5.542969 2.988282-15.4375-4.96875-16.910156zm0 0" fill="#efd0af"/><path d="m281.566406 45.007812c-12.96875-11.980468-31.191406-22.429687-55.261718-22.703124-24.066407.300781-42.28125 10.773437-55.238282 22.765624-16.523437 15.296876-25.464844 38.003907-25.453125 61.429688v2.832031h.023438l.046875 81.660157c.46875 22.773437 16.199218 38.53125 29.863281 52.066406 12.570313 12.453125 26.832031 27.160156 50.898437 27.433594 24.070313-.300782 38.3125-15.027344 50.871094-27.492188 13.648438-13.550781 29.359375-29.328125 29.800782-52.101562l-.046876-81.660157h.023438v-2.828125c-.015625-23.429687-8.984375-46.125-25.527344-61.402344zm0 0" fill="#fae0c1"/><path d="m307.070312 109.238281h.023438v-2.828125c-.015625-23.429687-8.984375-46.125-25.527344-61.402344-3.191406-2.949218-6.703125-5.804687-10.539062-8.4375v72.667969l-.019532-54.914062.046876 136.574219c-.445313 22.777343-16.15625 38.550781-29.804688 52.101562-9.058594 8.992188-18.996094 19.160156-32.867188 24.242188 5.375 1.96875 11.335938 3.171874 18.0625 3.25 24.070313-.300782 38.3125-15.027344 50.871094-27.492188 13.648438-13.550781 29.359375-29.328125 29.800782-52.101562zm0 0" fill="#efd0af"/><path d="m373.652344 293.777344-70.539063-13.429688c-14.996093-2.851562-30.625-.558594-43.867187 7.035156-9.5 5.445313-22.378906 9.117188-28.800782 10.734376-2.617187.660156-5.34375.648437-7.957031-.03125-6.378906-1.660157-19.167969-5.394532-28.785156-10.824219-13.351563-7.535157-28.863281-10.300781-43.902344-7.324219-28.203125 5.585938-65.046875 12.878906-65.046875 12.878906-9.675781 1.917969-13.261718 4.25-15.648437 7.628906l-63.328125 108.453126c-6.296875 10.789062-7 23.953124-1.882813 35.347656l25.558594 56.9375c2.257813 6.480468 8.371094 10.820312 15.230469 10.8125l363.699218-.207032c6.910157-.003906 13.050782-4.410156 15.261719-10.953124l24.886719-57.113282c4.902344-11.257812 4.171875-24.171875-1.96875-34.800781l-62.707031-108.535156c-2.410157-3.449219-6.070313-5.824219-10.203125-6.609375zm0 0" fill="#2a4d5e"/><path d="m423.644531 500.835938 24.886719-57.113282c4.902344-11.257812 4.171875-24.171875-1.96875-34.800781l-62.707031-108.535156c-2.40625-3.453125-6.070313-5.824219-10.203125-6.609375l-70.539063-13.429688c-14.996093-2.851562-30.625-.558594-43.867187 7.035156-5.953125 3.414063-13.230469 6.128907-19.417969 8.078126 0 0 0 0-.003906 0 1.867187.199218 88.679687 19.882812 88.679687 19.882812 4.132813.789062 7.792969 3.160156 10.203125 6.609375l62.703125 98.230469c6.144532 10.628906 6.875 23.546875 1.96875 34.800781l-24.757812 56.824219 29.761718-.019532c6.910157 0 13.050782-4.410156 15.261719-10.953124zm0 0" fill="#214451"/><path d="m395.070312 501.886719-336.984374.191406-19.5-179.582031c-.632813-5.808594 3.917968-10.882813 9.765624-10.886719l356.238282-.203125c5.847656-.003906 10.402344 5.066406 9.777344 10.878906zm0 0" fill="#ededed"/><g fill="#676a75"><path d="m258.832031 410.207031c-4.265625 0-7.722656-3.457031-7.726562-7.71875-.003907-4.269531 3.453125-7.730469 7.71875-7.734375l23.335937-.015625h.007813c4.265625 0 7.722656 3.457031 7.726562 7.71875 0 4.269531-3.457031 7.730469-7.722656 7.734375l-23.335937.015625zm0 0"/><path d="m169.945312 410.253906c-4.265624 0-7.722656-3.453125-7.726562-7.71875 0-4.269531 3.457031-7.730468 7.722656-7.730468l23.328125-.019532h.003907c4.265624 0 7.722656 3.457032 7.726562 7.722656.003906 4.265626-3.453125 7.726563-7.722656 7.730469l-23.324219.015625c-.003906 0-.007813 0-.007813 0zm0 0"/><path d="m258.035156 392.304688c-3.019531 0-5.886718-1.78125-7.125-4.738282-1.652344-3.9375.203125-8.464844 4.136719-10.113281l5.316406-2.230469c4.574219-1.917968 7.824219-6.164062 8.476563-11.078125.015625-.121093 2.175781-12.042969 2.175781-12.042969.761719-4.195312 4.78125-6.980468 8.980469-6.222656 4.199218.761719 6.984375 4.78125 6.222656 8.980469l-2.085938 11.511719c-1.433593 10.257812-8.234374 19.097656-17.792968 23.105468l-5.320313 2.226563c-.972656.410156-1.988281.601563-2.984375.601563zm0 0"/><path d="m194.054688 392.34375c-.992188 0-2.003907-.195312-2.976563-.601562l-5.320313-2.222657c-9.5625-3.996093-16.375-12.828125-17.820312-23.082031l-2.097656-11.511719c-.769532-4.195312 2.015625-8.222656 6.210937-8.988281 4.199219-.765625 8.222657 2.015625 8.988281 6.214844 0 0 2.171876 11.917968 2.1875 12.039062.660157 4.914063 3.910157 9.15625 8.488282 11.070313l5.320312 2.222656c3.9375 1.644531 5.796875 6.167969 4.152344 10.109375-1.238281 2.960938-4.109375 4.75-7.132812 4.75zm0 0"/><path d="m278.660156 457.417969c-3.65625 0-6.910156-2.609375-7.589844-6.339844 0 0-2.171874-11.917969-2.1875-12.039063-.660156-4.917968-3.910156-9.15625-8.488281-11.070312l-4.882812-2.039062c-3.941407-1.644532-5.796875-6.167969-4.152344-10.109376 1.644531-3.9375 6.167969-5.796874 10.105469-4.148437l4.886718 2.039063c9.5625 3.996093 16.375 12.828124 17.820313 23.082031l2.097656 11.511719c.765625 4.199218-2.015625 8.222656-6.210937 8.988281-.46875.085937-.9375.125-1.398438.125zm0 0"/><path d="m173.503906 457.476562c-.457031 0-.921875-.039062-1.386718-.125-4.199219-.761718-6.984376-4.78125-6.226563-8.980468l2.089844-11.511719c1.429687-10.257813 8.234375-19.097656 17.792969-23.101563l4.882812-2.046874c3.933594-1.648438 8.460938.203124 10.113281 4.136718 1.648438 3.933594-.203125 8.464844-4.140625 10.113282l-4.882812 2.046874c-4.574219 1.917969-7.820313 6.164063-8.476563 11.082032-.015625.121094-2.171875 12.039062-2.171875 12.039062-.675781 3.730469-3.929687 6.347656-7.59375 6.347656zm0 0"/></g><path d="m404.589844 311.40625-25.460938.015625-20.464844 190.464844h36.40625l19.296876-179.601563c.625-5.8125-3.929688-10.882812-9.777344-10.878906zm0 0" fill="#d6d6d6"/><path d="m410.199219 512h-367.230469c-5.382812.003906-9.746094-4.355469-9.75-9.734375l-.003906-7.042969c0-5.378906 4.355468-9.746094 9.738281-9.746094l367.234375-.210937c5.378906-.003906 9.742188 4.355469 9.746094 9.738281l.003906 7.039063c.003906 5.382812-4.355469 9.953125-9.738281 9.957031zm0 0" fill="#d6d6d6"/><path d="m419.933594 495.003906c-.003906-5.382812-4.367188-9.742187-9.746094-9.738281l-26.453125.015625.007813 26.523438 26.457031.195312c5.382812-.003906 9.742187-4.574219 9.738281-9.957031zm0 0" fill="#bebebe"/><path d="m250.378906 368.359375c0 13.445313-10.898437 24.34375-24.34375 24.34375-13.441406 0-24.339844-10.898437-24.339844-24.34375 0-13.441406 10.898438-24.339844 24.339844-24.339844 13.445313 0 24.34375 10.898438 24.34375 24.339844zm0 0" fill="#8c4949"/><path d="m238.574219 449.160156c-7.691407 4.601563-17.289063 4.605469-24.980469.015625-12.585938-7.515625-20.296875-21.085937-20.308594-35.742187l-.011718-22.960938c-.007813-12.203125 9.878906-22.101562 22.082031-22.105468l21.363281-.011719c12.203125-.007813 22.097656 9.878906 22.105469 22.082031l.015625 22.957031c.007812 14.65625-7.691406 28.238281-20.265625 35.765625zm0 0" fill="#f43b45"/><path d="m367.867188 176.667969c.109374-.484375.21875-.96875.328124-1.457031 0 0 0 0 0-.003907.023438-.925781.035157-1.851562.035157-2.777343-.039063-64.878907-77.46875-171.992188-142.40625-172.429688-64.941407.511719-142.246094 107.710938-142.210938 172.589844.003907.8125.011719 1.625.03125 2.433594.050781.152343.085938.273437.101563.351562.09375.421875.191406.84375.285156 1.265625 5.816406-21.179687 80.113281-37.894531 141.871094-38.011719 61.945312.046875 136.515625 16.773438 141.964844 38.039063zm0 0" fill="#2a4d5e"/><path d="m225.824219 0c-6.175781.0507812-12.46875 1.0625-18.792969 2.914062 53.726562 15.714844 110 91.761719 121.441406 149.648438 21.679688 6.523438 37.03125 14.886719 39.394532 24.109375.109374-.484375.21875-.972656.328124-1.457031 0-.003906 0-.003906 0-.007813.023438-.921875.035157-1.847656.035157-2.777343-.039063-64.878907-77.46875-171.992188-142.40625-172.429688zm0 0" fill="#1f3f47"/><path d="m233.628906 451.402344-.011718-61.585938h-15l.011718 61.621094c4.878906 1.566406 10.128906 1.554688 15-.035156zm0 0" fill="#cf3735"/><path d="m245.15625 391.730469c7.464844-.003907 11.832031-7.234375 10.085938-13.335938-3.941407-6.042969-10.757813-10.039062-18.511719-10.039062l-21.390625.011719c-7.539063.007812-14.1875 3.792968-18.167969 9.5625-2.136719 6.226562 2.132813 13.828124 9.871094 13.820312zm0 0" fill="#cf3735"/></svg>