<svg xmlns="http://www.w3.org/2000/svg" height="511pt" version="1.1" viewBox="-38 0 511 511.99956" width="511pt">
<g id="surface1">
<path d="M 413.476562 341.910156 C 399.714844 379.207031 378.902344 411.636719 351.609375 438.289062 C 320.542969 468.625 279.863281 492.730469 230.699219 509.925781 C 229.085938 510.488281 227.402344 510.949219 225.710938 511.289062 C 223.476562 511.730469 221.203125 511.96875 218.949219 512 L 218.507812 512 C 216.105469 512 213.691406 511.757812 211.296875 511.289062 C 209.605469 510.949219 207.945312 510.488281 206.339844 509.9375 C 157.117188 492.769531 116.386719 468.675781 85.289062 438.339844 C 57.984375 411.6875 37.175781 379.277344 23.433594 341.980469 C -1.554688 274.167969 -0.132812 199.464844 1.011719 139.433594 L 1.03125 138.511719 C 1.261719 133.554688 1.410156 128.347656 1.492188 122.597656 C 1.910156 94.367188 24.355469 71.011719 52.589844 69.4375 C 111.457031 66.152344 156.996094 46.953125 195.90625 9.027344 L 196.246094 8.714844 C 202.707031 2.789062 210.847656 -0.117188 218.949219 0.00390625 C 226.761719 0.105469 234.542969 3.007812 240.773438 8.714844 L 241.105469 9.027344 C 280.023438 46.953125 325.5625 66.152344 384.429688 69.4375 C 412.664062 71.011719 435.109375 94.367188 435.527344 122.597656 C 435.609375 128.386719 435.757812 133.585938 435.988281 138.511719 L 436 138.902344 C 437.140625 199.046875 438.554688 273.898438 413.476562 341.910156 Z M 413.476562 341.910156 " style=" stroke:none;fill-rule:nonzero;fill:rgb(60.392157%,90.196078%,96.862745%);fill-opacity:1;" />
<path d="M 413.476562 341.910156 C 399.714844 379.207031 378.902344 411.636719 351.609375 438.289062 C 320.542969 468.625 279.863281 492.730469 230.699219 509.925781 C 229.085938 510.488281 227.402344 510.949219 225.710938 511.289062 C 223.476562 511.730469 221.203125 511.96875 218.949219 512 L 218.949219 0.00390625 C 226.761719 0.105469 234.542969 3.007812 240.773438 8.714844 L 241.105469 9.027344 C 280.023438 46.953125 325.5625 66.152344 384.429688 69.4375 C 412.664062 71.011719 435.109375 94.367188 435.527344 122.597656 C 435.609375 128.386719 435.757812 133.585938 435.988281 138.511719 L 436 138.902344 C 437.140625 199.046875 438.554688 273.898438 413.476562 341.910156 Z M 413.476562 341.910156 " style=" stroke:none;fill-rule:nonzero;fill:rgb(18.431373%,75.294118%,94.117647%);fill-opacity:1;" />
<path d="M 310.953125 347.007812 C 310.953125 357.714844 302.242188 366.417969 291.542969 366.417969 L 145.472656 366.417969 C 134.765625 366.417969 126.054688 357.714844 126.054688 347.015625 L 126.054688 240.65625 C 126.054688 235.328125 128.214844 230.3125 132.011719 226.664062 L 205.683594 160.035156 L 206.015625 159.742188 L 206.355469 159.464844 C 210.0625 156.488281 214.515625 155.054688 218.953125 155.167969 C 223.089844 155.257812 227.207031 156.6875 230.652344 159.464844 L 231.324219 160.035156 L 304.914062 226.59375 C 308.238281 229.761719 310.371094 234.066406 310.84375 238.652344 L 310.921875 239.433594 L 310.933594 272.535156 Z M 310.953125 347.007812 " style=" stroke:none;fill-rule:nonzero;fill:rgb(100%,100%,100%);fill-opacity:1;" />
<path d="M 310.953125 347.007812 C 310.953125 357.714844 302.242188 366.417969 291.542969 366.417969 L 218.953125 366.417969 L 218.953125 155.167969 C 223.089844 155.257812 227.207031 156.6875 230.652344 159.464844 L 231.324219 160.035156 L 304.914062 226.59375 C 308.238281 229.761719 310.371094 234.066406 310.84375 238.652344 L 310.921875 239.433594 L 310.933594 272.535156 Z M 310.953125 347.007812 " style=" stroke:none;fill-rule:nonzero;fill:rgb(88.235294%,92.156863%,94.117647%);fill-opacity:1;" />
<path d="M 346.105469 284.101562 C 343.140625 287.378906 339.066406 289.050781 334.960938 289.050781 C 331.375 289.050781 327.769531 287.769531 324.894531 285.164062 L 310.933594 272.535156 L 218.953125 189.367188 L 218.503906 188.957031 L 126.054688 272.554688 L 112.113281 285.164062 C 109.238281 287.769531 105.632812 289.050781 102.046875 289.050781 C 97.941406 289.050781 93.863281 287.386719 90.898438 284.101562 C 85.332031 277.953125 85.8125 268.449219 91.960938 262.890625 L 132.011719 226.664062 L 205.683594 160.035156 L 206.015625 159.742188 L 206.355469 159.464844 C 210.0625 156.488281 214.515625 155.054688 218.953125 155.167969 C 223.089844 155.257812 227.207031 156.6875 230.652344 159.464844 L 231.324219 160.035156 L 304.914062 226.59375 L 345.046875 262.890625 C 351.195312 268.449219 351.675781 277.953125 346.105469 284.101562 Z M 346.105469 284.101562 " style=" stroke:none;fill-rule:nonzero;fill:rgb(0%,86.666667%,50.196078%);fill-opacity:1;" />
<path d="M 346.105469 284.101562 C 343.140625 287.378906 339.066406 289.050781 334.960938 289.050781 C 331.375 289.050781 327.769531 287.769531 324.894531 285.164062 L 310.933594 272.535156 L 218.953125 189.367188 L 218.953125 155.167969 C 223.089844 155.257812 227.207031 156.6875 230.652344 159.464844 L 231.324219 160.035156 L 304.914062 226.59375 L 345.046875 262.890625 C 351.195312 268.449219 351.675781 277.953125 346.105469 284.101562 Z M 346.105469 284.101562 " style=" stroke:none;fill-rule:nonzero;fill:rgb(0%,66.666667%,38.823529%);fill-opacity:1;" />
</g>
</svg>