<svg height="512pt" viewBox="-43 0 512 512" width="512pt" xmlns="http://www.w3.org/2000/svg"><path d="m357.34375 72.402344h-52.667969c-15.699219 0-28.46875-12.769532-28.46875-28.46875v-.242188c0-24.089844-19.601562-43.691406-43.691406-43.691406h-6.308594c-24.09375 0-43.691406 19.601562-43.691406 43.691406v71.148438h15.222656v-71.148438c0-15.699218 12.769531-28.46875 28.46875-28.46875h6.308594c15.695313 0 28.46875 12.769532 28.46875 28.46875v.242188c0 24.09375 19.597656 43.691406 43.691406 43.691406h52.667969c4.203125 0 7.609375-3.40625 7.609375-7.609375s-3.40625-7.613281-7.609375-7.613281zm0 0" fill="#b7825a"/><path d="m247.421875 164.742188h-114.589844v-61.527344c0-7.910156 6.410157-14.324219 14.320313-14.324219h85.945312c7.910156 0 14.324219 6.414063 14.324219 14.324219zm0 0" fill="#676a75"/><path d="m233.097656 88.890625h-36.691406v75.851563h51.015625v-61.527344c0-7.910156-6.414063-14.324219-14.324219-14.324219zm0 0" fill="#454851"/><path d="m380.253906 321.875c0 105.003906-85.125 190.125-190.128906 190.125s-190.125-85.121094-190.125-190.125 85.121094-190.128906 190.125-190.128906 190.128906 85.125 190.128906 190.128906zm0 0" fill="#505264"/><path d="m190.125 131.746094c-8.648438 0-17.160156.589844-25.507812 1.710937 92.941406 12.464844 164.617187 92.0625 164.617187 188.414063 0 96.355468-71.675781 175.953125-164.617187 188.417968 8.347656 1.121094 16.859374 1.710938 25.507812 1.710938 105.003906 0 190.128906-85.121094 190.128906-190.128906 0-105.003906-85.125-190.125-190.128906-190.125zm0 0" fill="#454851"/><path d="m144.351562 180.824219c-7.007812 2.273437-16.140624 6.019531-22.726562 9.316406-3.757812 1.882813-5.277344 6.457031-3.394531 10.214844 1.335937 2.664062 4.023437 4.203125 6.8125 4.203125 1.144531 0 2.308593-.257813 3.402343-.808594 5.96875-2.988281 14.25-6.386719 20.605469-8.445312 3.996094-1.296876 6.1875-5.589844 4.890625-9.585938-1.300781-4-5.59375-6.195312-9.589844-4.894531zm0 0" fill="#676a75"/><path d="m101.546875 223.441406c3.125-2.8125 3.375-7.625.558594-10.75-2.816407-3.125-7.625-3.371094-10.75-.558594-21.164063 19.066407-38.410157 47.222657-45.011719 73.476563-1.023438 4.074219 1.449219 8.210937 5.523438 9.238281.625.15625 1.25.230469 1.863281.230469 3.40625 0 6.507812-2.304687 7.375-5.757813 5.90625-23.480468 21.402343-48.722656 40.441406-65.878906zm0 0" fill="#676a75"/><g fill="#f43b45"><path d="m361.03125 40.460938c4.203125 0 7.613281-3.40625 7.613281-7.609376v-11.261718c0-4.203125-3.410156-7.609375-7.613281-7.609375s-7.609375 3.40625-7.609375 7.609375v11.261718c-.003906 4.203126 3.40625 7.609376 7.609375 7.609376zm0 0"/><path d="m361.03125 119.203125c-4.203125 0-7.609375 3.410156-7.609375 7.613281v11.261719c0 4.203125 3.40625 7.609375 7.609375 7.609375s7.613281-3.40625 7.613281-7.609375v-11.261719c-.003906-4.203125-3.410156-7.613281-7.613281-7.613281zm0 0"/><path d="m399.636719 51.992188 7.960937-7.960938c2.972656-2.972656 2.972656-7.792969 0-10.765625-2.972656-2.96875-7.792968-2.96875-10.765625 0l-7.960937 7.964844c-2.972656 2.972656-2.964844 7.785156 0 10.761719 3.695312 3.714843 9.277344 1.488281 10.765625 0zm0 0"/><path d="m322.425781 107.671875-7.960937 7.964844c-2.972656 2.972656-2.972656 7.789062 0 10.761719 1.484375 1.488281 6.59375 4.171874 10.765625 0l7.960937-7.960938c2.972656-2.972656 2.972656-7.792969 0-10.765625-2.972656-2.96875-7.792968-2.96875-10.765625 0zm0 0"/><path d="m322.425781 51.992188c1.488281 1.488281 7.554688 3.210937 10.765625 0 2.972656-2.972657 2.972656-7.789063 0-10.761719l-7.960937-7.964844c-2.972657-2.96875-7.792969-2.96875-10.765625 0-2.972656 2.972656-2.972656 7.792969 0 10.765625zm0 0"/><path d="m399.636719 107.671875c-2.972657-2.96875-7.792969-2.96875-10.765625 0-2.972656 2.972656-2.972656 7.792969 0 10.765625l7.960937 7.960938c1.488281 1.488281 6.910157 3.859374 10.765625 0 2.972656-2.972657 2.972656-7.789063 0-10.761719zm0 0"/><path d="m419.273438 72.222656h-11.261719c-4.203125 0-7.609375 3.40625-7.609375 7.609375s3.40625 7.613281 7.609375 7.613281h11.261719c4.203124 0 7.613281-3.410156 7.613281-7.613281s-3.410157-7.609375-7.613281-7.609375zm0 0"/></g></svg>