<svg height="512pt" viewBox="0 -97 512 512" width="512pt" xmlns="http://www.w3.org/2000/svg"><path d="m478.136719 277.457031h-444.273438v-260.894531c0-9.148438 7.414063-16.5625 16.5625-16.5625h411.148438c9.148437 0 16.5625 7.414062 16.5625 16.5625zm0 0" fill="#676a75"/><path d="m461.574219 0h-35.257813v277.457031h51.820313v-260.894531c0-9.148438-7.414063-16.5625-16.5625-16.5625zm0 0" fill="#454851"/><path d="m448.582031 277.457031v-242.242187c0-3.128906-2.535156-5.660156-5.660156-5.660156h-373.84375c-3.125 0-5.660156 2.535156-5.660156 5.660156v242.242187zm0 0" fill="#75cff2"/><path d="m442.921875 29.554688h-46.15625v247.902343h51.816406v-242.242187c0-3.128906-2.535156-5.660156-5.660156-5.660156zm0 0" fill="#53b4e4"/><path d="m470.519531 318.386719h-429.039062c-22.910157 0-41.480469-18.574219-41.480469-41.484375 0-3.6875 2.988281-6.675782 6.675781-6.675782h498.648438c3.6875 0 6.675781 2.988282 6.675781 6.675782 0 22.910156-18.570312 41.484375-41.480469 41.484375zm0 0" fill="#505264"/><path d="m505.324219 270.226562h-45.140625v13.355469c0 19.222657-15.582032 34.804688-34.804688 34.804688h45.140625c22.910157 0 41.480469-18.574219 41.480469-41.480469 0-3.6875-2.988281-6.679688-6.675781-6.679688zm0 0" fill="#3c3f4e"/><path d="m173.640625 270.226562c0 13.300782 10.78125 24.078126 24.078125 24.078126h116.5625c13.296875 0 24.078125-10.78125 24.078125-24.078126zm0 0" fill="#676a75"/><path d="m248.464844 78.839844-84.71875 132.074218c-3.820313 5.957032.457031 13.785157 7.539062 13.785157h169.429688c7.082031 0 11.359375-7.828125 7.539062-13.785157l-84.714844-132.074218c-3.523437-5.492188-11.554687-5.492188-15.074218 0zm0 0" fill="#ffe471"/><path d="m348.253906 210.914062-84.71875-132.074218c-3.519531-5.492188-11.546875-5.492188-15.070312 0l-22.078125 34.421875 71.480469 111.441406h42.847656c7.082031 0 11.359375-7.832031 7.539062-13.789063zm0 0" fill="#f2ca20"/><path d="m264.390625 196.066406c0 4.445313-3.824219 8.390625-8.390625 8.390625-4.8125 0-8.390625-3.949219-8.390625-8.390625 0-4.5625 3.578125-8.390625 8.390625-8.390625 4.566406 0 8.390625 3.828125 8.390625 8.390625zm-2.46875-21.964844c0 3.332032-3.578125 4.6875-6.042969 4.6875-3.210937 0-6.046875-1.355468-6.046875-4.6875 0-16.289062-1.605469-38.003906-1.605469-54.292968 0-4.320313 3.332032-6.789063 7.652344-6.789063 4.191406 0 7.773438 2.46875 7.773438 6.789063-.003906 16.289062-1.730469 38.007812-1.730469 54.292968zm0 0" fill="#505264"/></svg>