<svg xmlns="http://www.w3.org/2000/svg" height="511pt" version="1.1" viewBox="-38 0 511 511.99956" width="511pt">
<g id="surface1">
<path d="M 413.476562 341.910156 C 399.714844 379.207031 378.902344 411.636719 351.609375 438.289062 C 320.542969 468.625 279.863281 492.730469 230.699219 509.925781 C 229.085938 510.488281 227.402344 510.949219 225.710938 511.289062 C 223.476562 511.730469 221.203125 511.96875 218.949219 512 L 218.507812 512 C 216.105469 512 213.691406 511.757812 211.296875 511.289062 C 209.605469 510.949219 207.945312 510.488281 206.339844 509.9375 C 157.117188 492.769531 116.386719 468.675781 85.289062 438.339844 C 57.984375 411.6875 37.175781 379.277344 23.433594 341.980469 C -1.554688 274.167969 -0.132812 199.464844 1.011719 139.433594 L 1.03125 138.511719 C 1.261719 133.554688 1.410156 128.347656 1.492188 122.597656 C 1.910156 94.367188 24.355469 71.011719 52.589844 69.4375 C 111.457031 66.152344 156.996094 46.953125 195.90625 9.027344 L 196.246094 8.714844 C 202.707031 2.789062 210.847656 -0.117188 218.949219 0.00390625 C 226.761719 0.105469 234.542969 3.007812 240.773438 8.714844 L 241.105469 9.027344 C 280.023438 46.953125 325.5625 66.152344 384.429688 69.4375 C 412.664062 71.011719 435.109375 94.367188 435.527344 122.597656 C 435.609375 128.386719 435.757812 133.585938 435.988281 138.511719 L 436 138.902344 C 437.140625 199.046875 438.554688 273.898438 413.476562 341.910156 Z M 413.476562 341.910156 " style=" stroke:none;fill-rule:nonzero;fill:rgb(0%,86.666667%,50.196078%);fill-opacity:1;" />
<path d="M 413.476562 341.910156 C 399.714844 379.207031 378.902344 411.636719 351.609375 438.289062 C 320.542969 468.625 279.863281 492.730469 230.699219 509.925781 C 229.085938 510.488281 227.402344 510.949219 225.710938 511.289062 C 223.476562 511.730469 221.203125 511.96875 218.949219 512 L 218.949219 0.00390625 C 226.761719 0.105469 234.542969 3.007812 240.773438 8.714844 L 241.105469 9.027344 C 280.023438 46.953125 325.5625 66.152344 384.429688 69.4375 C 412.664062 71.011719 435.109375 94.367188 435.527344 122.597656 C 435.609375 128.386719 435.757812 133.585938 435.988281 138.511719 L 436 138.902344 C 437.140625 199.046875 438.554688 273.898438 413.476562 341.910156 Z M 413.476562 341.910156 " style=" stroke:none;fill-rule:nonzero;fill:rgb(0%,66.666667%,38.823529%);fill-opacity:1;" />
<path d="M 346.101562 256 C 346.101562 326.207031 289.097656 383.355469 218.949219 383.605469 L 218.5 383.605469 C 148.144531 383.605469 90.894531 326.359375 90.894531 256 C 90.894531 185.644531 148.144531 128.398438 218.5 128.398438 L 218.949219 128.398438 C 289.097656 128.648438 346.101562 185.796875 346.101562 256 Z M 346.101562 256 " style=" stroke:none;fill-rule:nonzero;fill:rgb(100%,100%,100%);fill-opacity:1;" />
<path d="M 346.101562 256 C 346.101562 326.207031 289.097656 383.355469 218.949219 383.605469 L 218.949219 128.398438 C 289.097656 128.648438 346.101562 185.796875 346.101562 256 Z M 346.101562 256 " style=" stroke:none;fill-rule:nonzero;fill:rgb(88.235294%,92.156863%,94.117647%);fill-opacity:1;" />
<path d="M 254.0625 276.410156 C 254.0625 285.292969 250.949219 292.28125 244.726562 297.371094 C 241.824219 299.742188 238.378906 301.566406 234.414062 302.828125 L 234.414062 315.96875 C 234.414062 324.261719 227.683594 330.992188 219.390625 330.992188 C 219.238281 330.992188 219.089844 330.992188 218.949219 330.980469 C 210.847656 330.75 204.367188 324.109375 204.367188 315.96875 L 204.367188 303.550781 C 200.621094 302.71875 197.175781 301.546875 194.03125 300.015625 C 187.230469 296.679688 183.835938 292.832031 183.835938 288.464844 C 183.835938 286.164062 184.675781 283.757812 186.371094 281.253906 C 188.050781 278.753906 190.003906 277.5 192.207031 277.5 C 193.632812 277.5 195.421875 278.140625 197.566406 279.433594 C 199.699219 280.714844 202.523438 282.035156 206.03125 283.378906 C 209.535156 284.722656 213.691406 285.390625 218.488281 285.390625 C 218.640625 285.390625 218.800781 285.390625 218.949219 285.382812 C 228.125 285.300781 232.710938 282.617188 232.710938 277.339844 C 232.710938 274.34375 231.136719 271.980469 227.992188 270.230469 C 225.410156 268.796875 222.394531 267.574219 218.949219 266.5625 C 218.199219 266.332031 217.4375 266.121094 216.644531 265.921875 C 212.21875 264.800781 207.761719 263.457031 203.265625 261.90625 C 198.777344 260.34375 194.964844 257.71875 191.816406 254.042969 C 188.671875 250.359375 187.109375 245.652344 187.109375 239.914062 C 187.109375 231.949219 189.863281 225.101562 195.382812 219.363281 C 197.867188 216.769531 201.003906 214.773438 204.789062 213.351562 L 204.789062 200.121094 C 204.789062 192.109375 211.058594 185.570312 218.949219 185.128906 C 219.230469 185.109375 219.519531 185.101562 219.8125 185.101562 C 228.113281 185.101562 234.832031 191.820312 234.832031 200.121094 L 234.832031 212.050781 C 237.628906 212.640625 240.292969 213.414062 242.804688 214.394531 C 249.023438 216.839844 252.140625 219.78125 252.140625 223.246094 C 252.140625 225.429688 251.269531 227.964844 249.535156 230.847656 C 247.8125 233.734375 245.660156 235.175781 243.097656 235.175781 C 242.0625 235.175781 239.28125 234.375 234.722656 232.773438 C 230.175781 231.171875 225.910156 230.367188 221.933594 230.367188 C 221.824219 230.367188 221.714844 230.378906 221.601562 230.378906 C 221.023438 230.449219 220.421875 230.488281 219.8125 230.488281 C 219.710938 230.488281 219.609375 230.480469 219.511719 230.480469 C 219.320312 230.5 219.128906 230.507812 218.949219 230.539062 C 216.023438 230.847656 213.671875 231.660156 211.929688 232.992188 C 209.613281 234.734375 208.464844 236.667969 208.464844 238.792969 C 208.464844 240.914062 209.613281 242.65625 211.929688 244.03125 C 213.871094 245.191406 216.214844 246.121094 218.949219 246.832031 C 219.449219 246.972656 219.960938 247.09375 220.492188 247.214844 C 223.886719 247.964844 227.53125 248.988281 231.429688 250.300781 C 235.324219 251.609375 238.941406 253.132812 242.273438 254.886719 C 245.609375 256.636719 248.402344 259.351562 250.667969 263.027344 C 252.929688 266.703125 254.0625 271.171875 254.0625 276.410156 Z M 254.0625 276.410156 " style=" stroke:none;fill-rule:nonzero;fill:rgb(70.588235%,82.352941%,84.313725%);fill-opacity:1;" />
<path d="M 219.511719 230.480469 C 219.320312 230.5 219.128906 230.507812 218.949219 230.539062 L 218.949219 185.128906 C 219.230469 185.109375 219.519531 185.101562 219.8125 185.101562 C 228.113281 185.101562 234.832031 191.820312 234.832031 200.121094 L 234.832031 212.050781 C 237.628906 212.640625 240.292969 213.414062 242.804688 214.394531 C 249.023438 216.839844 252.140625 219.78125 252.140625 223.246094 C 252.140625 225.429688 251.269531 227.964844 249.535156 230.847656 C 247.8125 233.734375 245.660156 235.175781 243.097656 235.175781 C 242.0625 235.175781 239.28125 234.375 234.722656 232.773438 C 230.175781 231.171875 225.910156 230.367188 221.933594 230.367188 C 221.824219 230.367188 221.714844 230.378906 221.601562 230.378906 C 221.023438 230.449219 220.421875 230.488281 219.8125 230.488281 C 219.710938 230.488281 219.609375 230.480469 219.511719 230.480469 Z M 219.511719 230.480469 " style=" stroke:none;fill-rule:nonzero;fill:rgb(43.529412%,64.705882%,66.666667%);fill-opacity:1;" />
<path d="M 254.0625 276.410156 C 254.0625 285.292969 250.949219 292.28125 244.726562 297.371094 C 241.824219 299.742188 238.378906 301.566406 234.414062 302.828125 L 234.414062 315.96875 C 234.414062 324.261719 227.683594 330.992188 219.390625 330.992188 C 219.238281 330.992188 219.089844 330.992188 218.949219 330.980469 L 218.949219 285.382812 C 228.125 285.300781 232.710938 282.617188 232.710938 277.339844 C 232.710938 274.34375 231.136719 271.980469 227.992188 270.230469 C 225.410156 268.796875 222.394531 267.574219 218.949219 266.5625 L 218.949219 246.832031 C 219.449219 246.972656 219.960938 247.09375 220.492188 247.214844 C 223.886719 247.964844 227.53125 248.988281 231.429688 250.300781 C 235.324219 251.609375 238.941406 253.132812 242.273438 254.886719 C 245.609375 256.636719 248.402344 259.351562 250.667969 263.027344 C 252.929688 266.703125 254.0625 271.171875 254.0625 276.410156 Z M 254.0625 276.410156 " style=" stroke:none;fill-rule:nonzero;fill:rgb(43.529412%,64.705882%,66.666667%);fill-opacity:1;" />
</g>
</svg>