<svg height="512pt" viewBox="0 -21 512 512" width="512pt" xmlns="http://www.w3.org/2000/svg"><path d="m307.507812 27.296875c0-15.050781-12.246093-27.296875-27.296874-27.296875-15.054688 0-27.300782 12.246094-27.300782 27.296875 0 12.371094 8.273438 22.839844 19.570313 26.179687v105.144532c0 4.265625 3.460937 7.726562 7.726562 7.726562 4.269531 0 7.726563-3.460937 7.726563-7.726562v-105.144532c11.300781-3.339843 19.574218-13.808593 19.574218-26.179687zm-27.140624 11.839844c-.054688 0-.105469-.007813-.15625-.007813-.054688 0-.109376.007813-.160157.007813-6.457031-.085938-11.6875-5.359375-11.6875-11.839844 0-6.53125 5.3125-11.84375 11.847657-11.84375 6.53125 0 11.84375 5.3125 11.84375 11.84375 0 6.480469-5.226563 11.753906-11.6875 11.839844zm0 0" fill="#75cff2"/><path d="m500.191406 469.570312h-488.382812c-6.523438 0-11.808594-5.285156-11.808594-11.808593v-300.484375c0-6.519532 5.285156-11.808594 11.808594-11.808594h488.382812c6.523438 0 11.808594 5.289062 11.808594 11.808594v300.484375c0 6.523437-5.285156 11.808593-11.808594 11.808593zm0 0" fill="#f469ca"/><path d="m500.191406 145.46875h-40.515625v285.039062c0 6.070313-4.921875 10.992188-10.992187 10.992188h-448.683594v16.261719c0 6.519531 5.285156 11.808593 11.808594 11.808593h488.382812c6.523438 0 11.808594-5.289062 11.808594-11.808593v-300.484375c0-6.519532-5.285156-11.808594-11.808594-11.808594zm0 0" fill="#ea57b6"/><path d="m415.394531 387.300781c0 19.5625-15.855469 35.417969-35.417969 35.417969s-35.421874-15.855469-35.421874-35.417969 15.859374-35.421875 35.421874-35.421875 35.417969 15.859375 35.417969 35.421875zm0 0" fill="#e1e0de"/><path d="m464.234375 387.300781c0 19.5625-15.859375 35.417969-35.421875 35.417969s-35.417969-15.855469-35.417969-35.417969 15.855469-35.421875 35.417969-35.421875 35.421875 15.859375 35.421875 35.421875zm0 0" fill="#bebebe"/><path d="m156.605469 323.769531h-108.890625c-5.992188 0-10.847656-4.855469-10.847656-10.84375v-77.359375c0-5.992187 4.855468-10.847656 10.847656-10.847656h108.890625c5.992187 0 10.847656 4.855469 10.847656 10.847656v77.359375c-.003906 5.988281-4.855469 10.84375-10.847656 10.84375zm0 0" fill="#ffe471"/><path d="m235.199219 259.753906h225.148437c2.144532 0 3.886719-1.742187 3.886719-3.890625v-27.253906c0-2.148437-1.742187-3.890625-3.886719-3.890625h-225.148437c-2.144531 0-3.886719 1.742188-3.886719 3.890625v27.253906c0 2.148438 1.742188 3.890625 3.886719 3.890625zm0 0" fill="#ededed"/><path d="m253.320312 173.429688c-10.5625 0-19.160156-8.597657-19.160156-19.164063v-42.367187c0-3.484376-1.945312-6.597657-5.074218-8.121094-3.132813-1.527344-6.78125-1.144532-9.523438 1.003906l-17.640625 13.800781c-3.363281 2.628907-3.957031 7.484375-1.328125 10.847657 2.632812 3.359374 7.488281 3.953124 10.847656 1.324218l7.265625-5.6875v29.199219c0 19.089844 15.527344 34.617187 34.613281 34.617187 4.269532 0 7.726563-3.460937 7.726563-7.726562 0-4.269531-3.457031-7.726562-7.726563-7.726562zm0 0" fill="#75cff2"/><g fill="#f2ca20"><path d="m36.867188 251.832031h49.667968v15.453125h-49.667968zm0 0"/><path d="m36.867188 281.261719h49.667968v15.453125h-49.667968zm0 0"/><path d="m119.242188 281.203125h48.207031v15.453125h-48.207031zm0 0"/><path d="m119.242188 251.777344h48.207031v15.453125h-48.207031zm0 0"/></g><path d="m103.417969 323.769531h-2.515625c-10.210938 0-18.488282-8.277343-18.488282-18.484375v-62.078125c0-10.210937 8.277344-18.488281 18.488282-18.488281h2.515625c10.210937 0 18.484375 8.277344 18.484375 18.488281v62.078125c0 10.207032-8.273438 18.484375-18.484375 18.484375zm0 0" fill="#f79f48"/></svg>