<svg height="512pt" viewBox="-40 0 512 512.001" width="512pt" xmlns="http://www.w3.org/2000/svg"><path d="m278.5 0h-264.582031c-7.683594 0-13.917969 6.230469-13.917969 13.917969v458.597656c0 7.683594 6.234375 13.914063 13.917969 13.914063h337.683593c7.6875 0 13.917969-6.230469 13.917969-13.914063v-385.496094zm0 0" fill="#ededed"/><path d="m238.425781 454.496094h-238.425781v18.019531c0 7.683594 6.230469 13.914063 13.917969 13.914063h248.710937c-10.035156-8.890626-18.304687-19.730469-24.203125-31.933594zm0 0" fill="#d6d6d6"/><path d="m304.15625 117.539062h9.804688v192.273438c5.246093-.835938 10.621093-1.273438 16.105468-1.273438 12.46875 0 24.414063 2.246094 35.453125 6.355469v-227.875h-68.523437v23.359375c0 3.953125 3.207031 7.160156 7.160156 7.160156zm0 0" fill="#d6d6d6"/><path d="m278.5 79.859375v-79.859375l87.019531 87.019531h-79.859375c-3.957031 0-7.160156-3.203125-7.160156-7.160156zm0 0" fill="#75cff2"/><path d="m431.792969 410.269531c0 56.183594-45.546875 101.730469-101.730469 101.730469s-101.730469-45.546875-101.730469-101.730469c0-56.183593 45.546875-101.730469 101.730469-101.730469s101.730469 45.546876 101.730469 101.730469zm0 0" fill="#f79f48"/><path d="m330.0625 308.539062c-8.960938 0-17.648438 1.164063-25.925781 3.339844 43.625 11.464844 75.804687 51.167969 75.804687 98.390625 0 47.222657-32.179687 86.925781-75.804687 98.390625 8.277343 2.175782 16.964843 3.339844 25.925781 3.339844 56.183594 0 101.730469-45.546875 101.730469-101.730469 0-56.183593-45.546875-101.730469-101.730469-101.730469zm0 0" fill="#ef8229"/><g fill="#676a75"><path d="m392.910156 421.558594h-33.019531c-4.265625 0-7.722656-3.460938-7.722656-7.726563s3.457031-7.726562 7.722656-7.726562h33.019531c4.265625 0 7.726563 3.460937 7.726563 7.726562s-3.460938 7.726563-7.726563 7.726563zm0 0"/><path d="m302.621094 421.558594h-33.015625c-4.265625 0-7.726563-3.460938-7.726563-7.726563s3.460938-7.726562 7.726563-7.726562h33.015625c4.269531 0 7.726562 3.460937 7.726562 7.726562s-3.457031 7.726563-7.726562 7.726563zm0 0"/><path d="m361.785156 403.828125c-3.023437 0-5.890625-1.785156-7.132812-4.746094-1.648438-3.9375.207031-8.464843 4.144531-10.109375l10.46875-4.382812c5.277344-2.207032 9.027344-7.101563 9.78125-12.773438l1.308594-9.800781c.5625-4.230469 4.453125-7.203125 8.679687-6.636719 4.226563.5625 7.199219 4.449219 6.636719 8.679688l-1.304687 9.800781c-1.480469 11.09375-8.8125 20.664063-19.136719 24.984375l-10.46875 4.382812c-.972657.40625-1.984375.601563-2.976563.601563zm0 0"/><path d="m300.730469 403.828125c-.992188 0-2.003907-.195313-2.980469-.601563l-10.46875-4.382812c-10.320312-4.316406-17.652344-13.890625-19.132812-24.984375l-1.238282-9.3125c-.566406-4.230469 2.40625-8.117187 6.636719-8.683594 4.238281-.558593 8.117187 2.410157 8.679687 6.640625l1.242188 9.3125c.753906 5.671875 4.503906 10.566406 9.777344 12.773438l10.472656 4.382812c3.9375 1.644532 5.789062 6.171875 4.144531 10.109375-1.242187 2.960938-4.109375 4.746094-7.132812 4.746094zm0 0"/><path d="m387.828125 469.113281c-3.8125 0-7.128906-2.824219-7.648437-6.707031l-1.132813-8.496094c-.753906-5.667968-4.503906-10.5625-9.78125-12.773437l-10.46875-4.378907c-3.933594-1.648437-5.792969-6.171874-4.144531-10.109374 1.648437-3.9375 6.175781-5.792969 10.109375-4.144532l10.46875 4.378906c10.324219 4.320313 17.65625 13.894532 19.136719 24.984376l1.132812 8.496093c.5625 4.230469-2.410156 8.117188-6.640625 8.679688-.34375.046875-.691406.070312-1.03125.070312zm0 0"/><path d="m274.6875 469.113281c-.34375 0-.683594-.023437-1.03125-.066406-4.230469-.566406-7.203125-4.453125-6.640625-8.683594l1.136719-8.496093c1.476562-11.089844 8.808594-20.664063 19.132812-24.984376l10.46875-4.378906c3.933594-1.648437 8.460938.207032 10.109375 4.144532 1.648438 3.9375-.207031 8.464843-4.144531 10.109374l-10.46875 4.382813c-5.277344 2.207031-9.023438 7.101563-9.78125 12.773437l-1.132812 8.492188c-.519532 3.882812-3.835938 6.707031-7.648438 6.707031zm0 0"/></g><path d="m344.984375 465.113281c-8.453125 5.050781-18.996094 5.050781-27.449219 0-13.824218-8.261719-22.289062-23.183593-22.289062-39.285156v-25.226563c0-13.410156 10.871094-24.277343 24.277344-24.277343h23.472656c13.40625 0 24.277344 10.867187 24.277344 24.277343v25.226563c-.003907 16.105469-8.46875 31.023437-22.289063 39.285156zm0 0" fill="#f43b45"/><path d="m305.050781 381.105469c4.039063-3.003907 9.046875-4.78125 14.472657-4.78125h23.46875c5.46875 0 10.503906 1.816406 14.5625 4.863281.289062-1.578125.449218-3.203125.449218-4.863281 0-14.769531-11.976562-26.746094-26.746094-26.746094-14.769531 0-26.746093 11.976563-26.746093 26.746094 0 1.660156.160156 3.28125.449219 4.855469.03125-.023438.058593-.050782.089843-.074219zm0 0" fill="#8c4949"/><path d="m309.964844 149.375h-254.410156c-4.265626 0-7.726563 3.460938-7.726563 7.726562 0 4.265626 3.460937 7.726563 7.726563 7.726563h254.410156c4.269531 0 7.726562-3.460937 7.726562-7.726563 0-4.265624-3.457031-7.726562-7.726562-7.726562zm0 0" fill="#f2ca20"/><path d="m309.964844 201.914062h-254.410156c-4.265626 0-7.726563 3.460938-7.726563 7.726563 0 4.269531 3.460937 7.726563 7.726563 7.726563h254.410156c4.269531 0 7.726562-3.460938 7.726562-7.726563s-3.457031-7.726563-7.726562-7.726563zm0 0" fill="#f2ca20"/><path d="m309.964844 254.453125h-254.410156c-4.265626 0-7.726563 3.460937-7.726563 7.726563 0 4.269531 3.460937 7.726562 7.726563 7.726562h254.410156c4.269531 0 7.726562-3.457031 7.726562-7.726562 0-4.265626-3.457031-7.726563-7.726562-7.726563zm0 0" fill="#f2ca20"/><path d="m55.554688 328.628906c-4.265626 0-7.726563 3.457032-7.726563 7.726563 0 4.265625 3.460937 7.722656 7.726563 7.722656h114.414062c4.269531 0 7.726562-3.457031 7.726562-7.722656 0-4.269531-3.457031-7.726563-7.726562-7.726563zm0 0" fill="#f2ca20"/><path d="m55.554688 94.746094h70.71875c4.265624 0 7.722656-3.457032 7.722656-7.726563 0-4.265625-3.457032-7.722656-7.722656-7.722656h-70.71875c-4.265626 0-7.726563 3.457031-7.726563 7.722656 0 4.269531 3.460937 7.726563 7.726563 7.726563zm0 0" fill="#97c63e"/><path d="m55.554688 56.316406h70.71875c4.265624 0 7.722656-3.457031 7.722656-7.726562 0-4.265625-3.457032-7.726563-7.722656-7.726563h-70.71875c-4.265626 0-7.726563 3.460938-7.726563 7.726563 0 4.269531 3.460937 7.726562 7.726563 7.726562zm0 0" fill="#97c63e"/><path d="m338.796875 467.804688v-71.453126h-15v71.476563c4.898437 1.421875 10.105469 1.414063 15-.023437zm0 0" fill="#cf3735"/><path d="m342.992188 376.324219h-23.46875c-5.425782 0-10.433594 1.777343-14.472657 4.78125-8.359375 6.21875-3.992187 19.496093 6.425781 19.496093h39.574219c10.191407 0 14.847657-12.972656 6.789063-19.210937-4.101563-3.175781-9.253906-5.066406-14.847656-5.066406zm0 0" fill="#cf3735"/></svg>