<svg xmlns="http://www.w3.org/2000/svg" height="511pt" version="1.1" viewBox="-24 0 511 511.99973" width="511pt">
<g id="surface1">
<path d="M 464.757812 98.679688 L 416.277344 381.476562 C 415.269531 387.382812 411.875 392.738281 406.960938 396.171875 L 248.929688 506.792969 C 244.0625 510.199219 238.359375 512 232.421875 512 C 232.210938 512 232 512 231.789062 511.988281 C 226.074219 511.871094 220.597656 510.078125 215.90625 506.792969 L 60.257812 397.84375 C 57.03125 395.582031 54.339844 392.757812 52.238281 389.445312 C 50.136719 386.121094 48.722656 382.476562 48.0625 378.605469 L 0.90625 103.511719 C -0.226562 96.898438 1.027344 90.070312 4.449219 84.292969 C 7.863281 78.507812 13.238281 74.113281 19.585938 71.921875 L 222.691406 1.621094 C 225.625 0.597656 228.699219 0.0585938 231.789062 0.0078125 C 235.292969 -0.0742188 238.816406 0.46875 242.152344 1.621094 L 449.882812 73.523438 C 460.375 77.15625 466.628906 87.738281 464.757812 98.679688 Z M 464.757812 98.679688 " style=" stroke:none;fill-rule:nonzero;fill:rgb(60.392157%,90.196078%,96.862745%);fill-opacity:1;" />
<path d="M 464.757812 98.679688 L 416.277344 381.476562 C 415.269531 387.382812 411.875 392.738281 406.960938 396.171875 L 248.929688 506.792969 C 244.0625 510.199219 238.359375 512 232.421875 512 C 232.210938 512 232 512 231.789062 511.988281 L 231.789062 0.0078125 C 235.292969 -0.0742188 238.816406 0.46875 242.152344 1.621094 L 449.882812 73.523438 C 460.375 77.15625 466.628906 87.738281 464.757812 98.679688 Z M 464.757812 98.679688 " style=" stroke:none;fill-rule:nonzero;fill:rgb(18.431373%,75.294118%,94.117647%);fill-opacity:1;" />
<path d="M 154.703125 176.15625 C 153.320312 175.4375 151.667969 175.078125 149.746094 175.078125 C 147.824219 175.078125 146.171875 175.4375 144.792969 176.15625 C 143.410156 176.878906 142.71875 177.929688 142.71875 179.3125 L 142.71875 201.382812 L 124.792969 201.382812 L 124.792969 179.3125 C 124.792969 177.929688 124.101562 176.878906 122.71875 176.15625 C 121.339844 175.4375 119.6875 175.078125 117.765625 175.078125 C 115.84375 175.078125 114.191406 175.4375 112.808594 176.15625 C 111.429688 176.878906 110.738281 177.929688 110.738281 179.3125 L 110.738281 236.609375 C 110.738281 237.992188 111.429688 239.0625 112.808594 239.8125 C 114.191406 240.5625 115.84375 240.933594 117.765625 240.933594 C 119.6875 240.933594 121.339844 240.5625 122.71875 239.8125 C 124.101562 239.0625 124.792969 237.992188 124.792969 236.609375 L 124.792969 212.195312 L 142.71875 212.195312 L 142.71875 236.609375 C 142.71875 237.992188 143.410156 239.0625 144.792969 239.8125 C 146.171875 240.5625 147.824219 240.933594 149.746094 240.933594 C 151.667969 240.933594 153.320312 240.5625 154.703125 239.8125 C 156.082031 239.0625 156.773438 237.992188 156.773438 236.609375 L 156.773438 179.3125 C 156.773438 177.929688 156.082031 176.878906 154.703125 176.15625 Z M 154.703125 176.15625 " style=" stroke:none;fill-rule:nonzero;fill:rgb(100%,100%,100%);fill-opacity:1;" />
<path d="M 208.667969 176.867188 C 207.945312 175.675781 206.894531 175.078125 205.515625 175.078125 L 166.59375 175.078125 C 165.214844 175.078125 164.160156 175.675781 163.441406 176.867188 C 162.71875 178.070312 162.359375 179.480469 162.359375 181.113281 C 162.359375 182.863281 162.742188 184.335938 163.492188 185.535156 C 164.242188 186.726562 165.273438 187.328125 166.59375 187.328125 L 179.027344 187.328125 L 179.027344 236.578125 C 179.027344 237.96875 179.71875 239.042969 181.097656 239.800781 C 182.480469 240.554688 184.132812 240.933594 186.054688 240.933594 C 187.976562 240.933594 189.628906 240.554688 191.007812 239.800781 C 192.390625 239.042969 193.082031 237.96875 193.082031 236.578125 L 193.082031 187.328125 L 205.515625 187.328125 C 206.835938 187.328125 207.875 186.726562 208.628906 185.535156 C 209.378906 184.335938 209.75 182.863281 209.75 181.113281 C 209.75 179.480469 209.386719 178.070312 208.667969 176.867188 Z M 208.667969 176.867188 " style=" stroke:none;fill-rule:nonzero;fill:rgb(100%,100%,100%);fill-opacity:1;" />
<path d="M 257.496094 176.867188 C 256.777344 175.675781 255.726562 175.078125 254.34375 175.078125 L 215.425781 175.078125 C 214.042969 175.078125 212.992188 175.675781 212.269531 176.867188 C 211.550781 178.070312 211.191406 179.480469 211.191406 181.113281 C 211.191406 182.863281 211.570312 184.335938 212.320312 185.535156 C 213.070312 186.726562 214.101562 187.328125 215.425781 187.328125 L 227.855469 187.328125 L 227.855469 236.578125 C 227.855469 237.96875 228.546875 239.042969 229.929688 239.800781 C 230.5 240.113281 231.121094 240.363281 231.789062 240.542969 C 232.722656 240.804688 233.761719 240.933594 234.882812 240.933594 C 236.804688 240.933594 238.457031 240.554688 239.839844 239.800781 C 241.21875 239.042969 241.910156 237.96875 241.910156 236.578125 L 241.910156 187.328125 L 254.34375 187.328125 C 255.664062 187.328125 256.707031 186.726562 257.457031 185.535156 C 258.207031 184.335938 258.578125 182.863281 258.578125 181.113281 C 258.578125 179.480469 258.21875 178.070312 257.496094 176.867188 Z M 257.496094 176.867188 " style=" stroke:none;fill-rule:nonzero;fill:rgb(100%,100%,100%);fill-opacity:1;" />
<path d="M 303.484375 180.082031 C 299.621094 176.746094 294.464844 175.078125 288.039062 175.078125 L 269.390625 175.078125 C 267.828125 175.078125 266.566406 175.496094 265.605469 176.335938 C 264.644531 177.179688 264.164062 178.167969 264.164062 179.3125 L 264.164062 236.609375 C 264.164062 237.992188 264.855469 239.0625 266.234375 239.8125 C 267.617188 240.5625 269.269531 240.933594 271.191406 240.933594 C 273.113281 240.933594 274.765625 240.5625 276.144531 239.8125 C 277.527344 239.0625 278.21875 237.992188 278.21875 236.609375 L 278.21875 217.148438 L 287.136719 217.148438 C 293.804688 217.148438 299.167969 215.457031 303.222656 212.0625 C 307.269531 208.671875 309.300781 203.394531 309.300781 196.246094 L 309.300781 195.796875 C 309.300781 188.648438 307.359375 183.414062 303.484375 180.082031 Z M 295.246094 197.328125 C 295.246094 203.335938 292.542969 206.339844 287.136719 206.339844 L 278.21875 206.339844 L 278.21875 187.328125 L 287.136719 187.328125 C 292.542969 187.328125 295.246094 190.332031 295.246094 196.339844 Z M 295.246094 197.328125 " style=" stroke:none;fill-rule:nonzero;fill:rgb(88.235294%,92.156863%,94.117647%);fill-opacity:1;" />
<path d="M 354.386719 212.734375 C 352.972656 209.972656 351.222656 207.828125 349.121094 206.296875 C 347.019531 204.765625 344.714844 203.355469 342.222656 202.0625 C 339.730469 200.773438 337.4375 199.722656 335.335938 198.910156 C 333.234375 198.101562 331.472656 197.117188 330.0625 195.976562 C 328.648438 194.835938 327.949219 193.574219 327.949219 192.195312 C 327.949219 190.691406 328.699219 189.421875 330.203125 188.371094 C 331.703125 187.320312 333.953125 186.789062 336.957031 186.789062 C 339.78125 186.789062 342.363281 187.359375 344.707031 188.5 C 347.046875 189.640625 348.578125 190.210938 349.300781 190.210938 C 351.042969 190.210938 352.402344 189.359375 353.394531 187.648438 C 354.386719 185.9375 354.886719 184.296875 354.886719 182.703125 C 354.886719 181.03125 354.207031 179.609375 352.855469 178.441406 C 351.503906 177.257812 349.761719 176.40625 347.628906 175.886719 C 345.496094 175.355469 343.574219 175.007812 341.863281 174.816406 C 340.152344 174.625 338.519531 174.535156 336.957031 174.535156 C 330.589844 174.535156 325.15625 176.117188 320.652344 179.269531 C 316.148438 182.421875 313.894531 187.179688 313.894531 193.546875 C 313.894531 197.449219 314.867188 200.8125 316.816406 203.636719 C 318.769531 206.457031 321.160156 208.640625 323.984375 210.171875 C 326.808594 211.703125 329.609375 213.085938 332.402344 214.316406 C 335.195312 215.546875 337.570312 216.910156 339.519531 218.410156 C 341.472656 219.910156 342.453125 221.652344 342.453125 223.636719 C 342.453125 225.617188 341.582031 227.109375 339.839844 228.101562 C 338.097656 229.089844 336.058594 229.582031 333.714844 229.582031 C 331.851562 229.582031 330.082031 229.222656 328.398438 228.492188 C 326.71875 227.761719 325.40625 226.960938 324.476562 226.066406 C 323.542969 225.1875 322.523438 224.375 321.414062 223.644531 C 320.300781 222.925781 319.300781 222.554688 318.398438 222.554688 C 316.777344 222.554688 315.347656 223.394531 314.113281 225.078125 C 312.882812 226.757812 312.273438 228.441406 312.273438 230.121094 C 312.273438 233.125 314.433594 235.828125 318.757812 238.230469 C 323.085938 240.632812 328.160156 241.835938 333.984375 241.835938 C 340.710938 241.835938 346.148438 240.113281 350.292969 236.660156 C 354.4375 233.214844 356.507812 228.390625 356.507812 222.195312 C 356.507812 218.652344 355.796875 215.496094 354.386719 212.734375 Z M 354.386719 212.734375 " style=" stroke:none;fill-rule:nonzero;fill:rgb(88.235294%,92.156863%,94.117647%);fill-opacity:1;" />
<path d="M 357.871094 271.042969 C 357.871094 279.332031 351.144531 286.058594 342.855469 286.058594 L 125.964844 286.058594 C 117.664062 286.058594 110.949219 279.332031 110.949219 271.042969 C 110.949219 262.746094 117.664062 256.027344 125.964844 256.027344 L 342.855469 256.027344 C 351.144531 256.027344 357.871094 262.746094 357.871094 271.042969 Z M 357.871094 271.042969 " style=" stroke:none;fill-rule:nonzero;fill:rgb(100%,100%,100%);fill-opacity:1;" />
<path d="M 234.882812 240.933594 C 233.761719 240.933594 232.722656 240.804688 231.789062 240.542969 L 231.789062 175.078125 L 254.34375 175.078125 C 255.726562 175.078125 256.777344 175.675781 257.496094 176.867188 C 258.21875 178.070312 258.578125 179.480469 258.578125 181.113281 C 258.578125 182.863281 258.207031 184.335938 257.457031 185.535156 C 256.707031 186.726562 255.664062 187.328125 254.34375 187.328125 L 241.910156 187.328125 L 241.910156 236.578125 C 241.910156 237.96875 241.21875 239.042969 239.839844 239.800781 C 238.457031 240.554688 236.804688 240.933594 234.882812 240.933594 Z M 234.882812 240.933594 " style=" stroke:none;fill-rule:nonzero;fill:rgb(88.235294%,92.156863%,94.117647%);fill-opacity:1;" />
<path d="M 357.871094 271.042969 C 357.871094 279.332031 351.144531 286.058594 342.855469 286.058594 L 231.789062 286.058594 L 231.789062 256.027344 L 342.855469 256.027344 C 351.144531 256.027344 357.871094 262.746094 357.871094 271.042969 Z M 357.871094 271.042969 " style=" stroke:none;fill-rule:nonzero;fill:rgb(88.235294%,92.156863%,94.117647%);fill-opacity:1;" />
</g>
</svg>