<svg xmlns="http://www.w3.org/2000/svg" height="511pt" version="1.1" viewBox="-24 1 511 511.99998" width="511pt">
<g id="surface1">
<path d="M 464.757812 98.679688 L 438.601562 251.265625 L 416.277344 381.476562 C 415.265625 387.382812 411.871094 392.738281 406.96875 396.171875 L 248.925781 506.792969 C 244.183594 510.117188 238.617188 511.917969 232.832031 511.988281 C 232.691406 512 232.5625 512 232.421875 512 L 232.339844 512 C 226.425781 511.980469 220.75 510.179688 215.902344 506.792969 L 60.257812 397.84375 C 57.03125 395.582031 54.339844 392.757812 52.238281 389.445312 C 50.136719 386.132812 48.734375 382.476562 48.0625 378.605469 L 26.230469 251.265625 L 0.90625 103.515625 C -0.226562 96.898438 1.027344 90.070312 4.449219 84.296875 C 7.863281 78.507812 13.238281 74.117188 19.585938 71.921875 L 222.691406 1.621094 C 225.792969 0.550781 229.078125 0.0117188 232.339844 0 L 232.832031 0 C 235.984375 0.0390625 239.148438 0.582031 242.152344 1.621094 L 449.882812 73.523438 C 460.371094 77.160156 466.628906 87.738281 464.757812 98.679688 Z M 464.757812 98.679688 " style=" stroke:none;fill-rule:nonzero;fill:rgb(88.235294%,92.156863%,94.117647%);fill-opacity:1;" />
<path d="M 464.757812 98.679688 L 416.277344 381.476562 C 415.265625 387.382812 411.871094 392.738281 406.96875 396.171875 L 248.925781 506.792969 C 244.183594 510.117188 238.617188 511.917969 232.832031 511.988281 L 232.832031 0 C 235.984375 0.0390625 239.148438 0.582031 242.152344 1.621094 L 449.882812 73.523438 C 460.371094 77.160156 466.628906 87.738281 464.757812 98.679688 Z M 464.757812 98.679688 " style=" stroke:none;fill-rule:nonzero;fill:rgb(70.588235%,82.352941%,84.313725%);fill-opacity:1;" />
<path d="M 464.757812 98.679688 L 438.601562 251.265625 L 232.339844 251.265625 L 232.339844 0 L 232.832031 0 C 235.984375 0.0390625 239.148438 0.582031 242.152344 1.621094 L 449.882812 73.523438 C 460.371094 77.160156 466.628906 87.738281 464.757812 98.679688 Z M 464.757812 98.679688 " style=" stroke:none;fill-rule:nonzero;fill:rgb(93.72549%,24.313725%,20.784314%);fill-opacity:1;" />
<path d="M 232.339844 251.265625 L 232.339844 512 C 226.425781 511.980469 220.75 510.179688 215.902344 506.792969 L 60.257812 397.84375 C 57.03125 395.582031 54.339844 392.757812 52.238281 389.445312 C 50.136719 386.132812 48.734375 382.476562 48.0625 378.605469 L 26.230469 251.265625 Z M 232.339844 251.265625 " style=" stroke:none;fill-rule:nonzero;fill:rgb(100%,50.588235%,42.352941%);fill-opacity:1;" />
</g>
</svg>