<svg height="512pt" viewBox="-72 0 512 512" width="512pt" xmlns="http://www.w3.org/2000/svg"><path d="m294.234375 495.867188h-279.292969c-8.25 0-14.941406-6.6875-14.941406-14.941407v-465.984375c0-8.25 6.691406-14.941406 14.941406-14.941406h279.292969c8.253906 0 14.941406 6.691406 14.941406 14.941406v465.984375c0 8.253907-6.6875 14.941407-14.941406 14.941407zm0 0" fill="#505264"/><path d="m294.234375 0h-36.90625v495.867188h36.90625c8.253906 0 14.941406-6.6875 14.941406-14.941407v-465.984375c0-8.25-6.6875-14.941406-14.941406-14.941406zm0 0" fill="#454851"/><path d="m0 57.765625h309.175781v380.339844h-309.175781zm0 0" fill="#75cff2"/><path d="m269.8125 314.042969c13.992188 0 27.300781 2.90625 39.363281 8.144531v-264.421875h-51.847656v257.058594c4.085937-.515625 8.253906-.78125 12.484375-.78125zm0 0" fill="#53b4e4"/><path d="m368.792969 413.019531c0 54.667969-44.316407 98.980469-98.980469 98.980469s-98.976562-44.3125-98.976562-98.980469c0-54.664062 44.3125-98.976562 98.976562-98.976562s98.980469 44.3125 98.980469 98.976562zm0 0" fill="#a4d852"/><path d="m269.8125 314.042969c-8.972656 0-17.660156 1.199219-25.925781 3.4375 42.089843 11.394531 73.054687 49.847656 73.054687 95.539062 0 45.695313-30.964844 84.148438-73.054687 95.542969 8.265625 2.238281 16.957031 3.4375 25.925781 3.4375 54.664062 0 98.980469-44.316406 98.980469-98.980469 0-54.664062-44.316407-98.976562-98.980469-98.976562zm0 0" fill="#97c63e"/><path d="m244.882812 403.84375v-24.089844c0-13.746094 11.183594-24.933594 24.929688-24.933594s24.929688 11.1875 24.929688 24.933594v24.089844h15.453124v-24.089844c0-22.269531-18.113281-40.382812-40.382812-40.382812-22.265625 0-40.382812 18.117187-40.382812 40.382812v24.089844zm0 0" fill="#ededed"/><path d="m310.859375 465.761719h-82.089844c-2.242187 0-4.054687-1.816407-4.054687-4.054688v-58.707031c0-2.242188 1.8125-4.054688 4.054687-4.054688h82.089844c2.238281 0 4.054687 1.816407 4.054687 4.054688v58.707031c0 2.242188-1.816406 4.054688-4.054687 4.054688zm0 0" fill="#f79f48"/><path d="m310.859375 398.945312h-47.78125v66.816407h47.78125c2.238281 0 4.054687-1.8125 4.054687-4.054688v-58.710937c0-2.238282-1.816406-4.050782-4.054687-4.050782zm0 0" fill="#ef8229"/><path d="m259.964844 276.808594h-210.753906c-5.007813 0-9.070313-4.058594-9.070313-9.066406v-85.453126c0-5.007812 4.0625-9.066406 9.070313-9.066406h210.753906c5.011718 0 9.070312 4.058594 9.070312 9.066406v85.453126c0 5.007812-4.0625 9.066406-9.070312 9.066406zm0 0" fill="#e1e0de"/><path d="m259.964844 173.222656h-42.78125v103.585938h42.78125c5.011718 0 9.070312-4.058594 9.070312-9.070313v-85.449219c0-5.007812-4.0625-9.066406-9.070312-9.066406zm0 0" fill="#d6d6d6"/><g fill="#ffe471"><path d="m245.546875 449.042969c4.265625 0 7.726563-3.457031 7.726563-7.726563v-13.976562c0-4.269532-3.460938-7.726563-7.726563-7.726563s-7.726563 3.460938-7.726563 7.726563v13.976562c0 4.269532 3.460938 7.726563 7.726563 7.726563zm0 0"/><path d="m269.8125 449.042969c4.265625 0 7.726562-3.457031 7.726562-7.726563v-13.976562c0-4.269532-3.460937-7.726563-7.726562-7.726563s-7.726562 3.460938-7.726562 7.726563v13.976562c0 4.269532 3.460937 7.726563 7.726562 7.726563zm0 0"/><path d="m294.078125 449.042969c4.265625 0 7.726563-3.457031 7.726563-7.726563v-13.976562c0-4.269532-3.460938-7.726563-7.726563-7.726563s-7.726563 3.460938-7.726563 7.726563v13.976562c0 4.269532 3.460938 7.726563 7.726563 7.726563zm0 0"/></g><path d="m166.765625 19.9375h-32.964844c-4.269531 0-7.726562 3.457031-7.726562 7.726562 0 4.265626 3.457031 7.726563 7.726562 7.726563h32.964844c4.265625 0 7.722656-3.460937 7.722656-7.726563 0-4.269531-3.457031-7.726562-7.722656-7.726562zm0 0" fill="#d6d6d6"/><path d="m114.75 213.042969c-.398438 0-12.523438 4.109375-12.523438 4.109375l.5-11.222656c-.097656-2.804688-2.203124-4.105469-4.609374-4.105469-2.402344 0-4.507813 1.300781-4.605469 4.105469l.5 11.125s-12.125-4.007813-12.425781-4.007813c-2.703126 0-4.707032 2.503906-4.707032 4.808594 0 2.105469.902344 3.90625 2.90625 4.308593l11.121094 3.207032-7.015625 9.816406c-.601563.703125-1.101563 1.605469-1.101563 2.707031 0 2.804688 3.40625 4.507813 5.410157 4.507813 1.203125 0 2.207031-.300782 3.007812-1.601563l6.910157-10.421875 6.816406 10.320313c1 1.5 2.300781 1.703125 3.304687 1.703125 2.503907 0 5.210938-1.90625 5.210938-4.710938 0-.902344-.300781-1.902344-.703125-2.402344l-7.3125-10.421874 10.820312-2.707032c2.101563-.398437 3.003906-2.101562 3.003906-3.804687.003907-2.503907-1.800781-5.3125-4.507812-5.3125zm0 0" fill="#f43b45"/><path d="m175.0625 213.042969c-.398438 0-12.523438 4.109375-12.523438 4.109375l.5-11.222656c-.097656-2.804688-2.203124-4.105469-4.605468-4.105469-2.40625 0-4.511719 1.300781-4.609375 4.105469l.5 11.125s-12.125-4.007813-12.425781-4.007813c-2.703126 0-4.707032 2.503906-4.707032 4.808594 0 2.105469.902344 3.90625 2.90625 4.308593l11.121094 3.207032-7.015625 9.816406c-.597656.703125-1.101563 1.605469-1.101563 2.707031 0 2.804688 3.410157 4.507813 5.414063 4.507813 1.199219 0 2.203125-.300782 3.003906-1.601563l6.914063-10.421875 6.8125 10.320313c1 1.5 2.304687 1.703125 3.304687 1.703125 2.507813 0 5.210938-1.90625 5.210938-4.710938 0-.902344-.300781-1.902344-.703125-2.402344l-7.3125-10.421874 10.820312-2.707032c2.105469-.398437 3.007813-2.101562 3.007813-3.804687 0-2.503907-1.804688-5.3125-4.511719-5.3125zm0 0" fill="#f43b45"/><path d="m235.378906 213.042969c-.402344 0-12.523437 4.109375-12.523437 4.109375l.5-11.222656c-.101563-2.804688-2.203125-4.105469-4.609375-4.105469-2.402344 0-4.507813 1.300781-4.609375 4.105469l.5 11.125s-12.121094-4.007813-12.421875-4.007813c-2.707032 0-4.710938 2.503906-4.710938 4.808594 0 2.105469.902344 3.90625 2.90625 4.308593l11.121094 3.207032-7.011719 9.816406c-.601562.703125-1.101562 1.605469-1.101562 2.707031 0 2.804688 3.40625 4.507813 5.410156 4.507813 1.203125 0 2.203125-.300782 3.003906-1.601563l6.914063-10.421875 6.8125 10.320313c1.003906 1.5 2.304687 1.703125 3.304687 1.703125 2.507813 0 5.210938-1.90625 5.210938-4.710938 0-.902344-.300781-1.902344-.703125-2.402344l-7.3125-10.421874 10.820312-2.707032c2.105469-.398437 3.007813-2.101562 3.007813-3.804687 0-2.503907-1.804688-5.3125-4.507813-5.3125zm0 0" fill="#f43b45"/></svg>