<svg xmlns="http://www.w3.org/2000/svg" height="512pt" version="1.1" viewBox="-91 0 512 512.00002" width="512pt">
<g id="surface1">
<path d="M 272.578125 148.765625 C 272.578125 148.777344 272.566406 148.785156 272.566406 148.785156 C 272.566406 148.796875 272.578125 148.804688 272.578125 148.804688 C 272.578125 149.078125 272.546875 149.335938 272.527344 149.597656 C 272.515625 149.835938 272.515625 150.085938 272.496094 150.328125 C 272.46875 150.585938 272.417969 150.835938 272.375 151.097656 C 272.335938 151.339844 272.308594 151.578125 272.265625 151.808594 C 272.207031 152.070312 272.136719 152.308594 272.078125 152.558594 C 272.015625 152.789062 271.964844 153.019531 271.894531 153.25 C 271.816406 153.488281 271.714844 153.71875 271.636719 153.960938 C 271.546875 154.179688 271.476562 154.410156 271.386719 154.628906 C 271.285156 154.851562 271.175781 155.070312 271.066406 155.292969 C 270.957031 155.511719 270.867188 155.730469 270.753906 155.941406 C 270.636719 156.152344 270.503906 156.351562 270.375 156.550781 C 270.253906 156.761719 270.136719 156.972656 270.003906 157.171875 C 269.875 157.363281 269.726562 157.542969 269.585938 157.734375 C 269.433594 157.933594 269.292969 158.132812 269.132812 158.324219 C 268.996094 158.492188 268.84375 158.652344 268.695312 158.8125 C 268.515625 159.015625 268.355469 159.203125 268.164062 159.394531 C 268.023438 159.542969 267.851562 159.675781 267.703125 159.816406 C 267.503906 159.996094 267.3125 160.183594 267.101562 160.355469 C 266.953125 160.484375 266.78125 160.59375 266.621094 160.714844 C 266.402344 160.886719 266.183594 161.066406 265.941406 161.226562 C 265.78125 161.335938 265.613281 161.425781 265.441406 161.527344 C 265.203125 161.675781 264.960938 161.835938 264.710938 161.976562 C 264.519531 162.078125 264.332031 162.15625 264.140625 162.246094 C 263.898438 162.367188 263.648438 162.496094 263.398438 162.605469 C 263.191406 162.695312 262.96875 162.757812 262.75 162.835938 C 262.507812 162.925781 262.269531 163.027344 262.019531 163.109375 C 261.757812 163.1875 261.476562 163.246094 261.207031 163.316406 C 260.996094 163.367188 260.796875 163.4375 260.585938 163.476562 C 260.199219 163.558594 259.796875 163.609375 259.398438 163.65625 C 259.296875 163.667969 259.195312 163.699219 259.097656 163.707031 C 258.585938 163.757812 258.074219 163.777344 257.566406 163.777344 L 257.523438 163.777344 L 203.011719 163.636719 C 202.761719 163.636719 202.511719 163.609375 202.261719 163.597656 C 202 163.578125 201.75 163.578125 201.5 163.558594 C 201.25 163.527344 201.011719 163.476562 200.761719 163.4375 C 200.511719 163.398438 200.261719 163.378906 200.011719 163.328125 C 199.769531 163.277344 199.539062 163.207031 199.308594 163.148438 C 199.058594 163.078125 198.808594 163.027344 198.570312 162.949219 C 198.339844 162.878906 198.117188 162.789062 197.898438 162.707031 C 197.667969 162.617188 197.417969 162.546875 197.1875 162.445312 C 196.96875 162.355469 196.769531 162.238281 196.546875 162.136719 C 196.328125 162.027344 196.097656 161.925781 195.878906 161.804688 C 195.675781 161.695312 195.476562 161.566406 195.277344 161.445312 C 195.066406 161.316406 194.847656 161.195312 194.644531 161.054688 C 194.457031 160.925781 194.277344 160.785156 194.09375 160.644531 C 193.894531 160.496094 193.683594 160.355469 193.484375 160.195312 C 193.316406 160.046875 193.15625 159.886719 192.984375 159.734375 C 192.792969 159.566406 192.605469 159.40625 192.425781 159.222656 C 192.265625 159.0625 192.125 158.894531 191.972656 158.722656 C 191.804688 158.535156 191.625 158.355469 191.453125 158.152344 C 191.3125 157.984375 191.195312 157.804688 191.0625 157.625 C 190.902344 157.414062 190.742188 157.210938 190.59375 156.992188 C 190.472656 156.8125 190.363281 156.621094 190.253906 156.433594 C 190.113281 156.203125 189.972656 155.992188 189.84375 155.761719 C 189.730469 155.5625 189.640625 155.351562 189.550781 155.140625 C 189.433594 154.910156 189.3125 154.679688 189.210938 154.441406 C 189.121094 154.230469 189.050781 154 188.972656 153.78125 C 188.882812 153.539062 188.792969 153.308594 188.710938 153.070312 C 188.640625 152.828125 188.589844 152.589844 188.53125 152.347656 C 188.460938 152.109375 188.390625 151.867188 188.339844 151.628906 C 188.292969 151.378906 188.261719 151.117188 188.230469 150.867188 C 188.191406 150.628906 188.140625 150.386719 188.121094 150.136719 C 188.089844 149.878906 188.089844 149.605469 188.082031 149.347656 C 188.070312 149.105469 188.039062 148.867188 188.039062 148.625 L 188.039062 105.824219 C 188.039062 93.464844 177.984375 83.40625 165.625 83.40625 C 165.503906 83.40625 165.375 83.40625 165.253906 83.414062 C 153.0625 83.605469 143.207031 93.582031 143.207031 105.824219 L 143.207031 218.679688 C 143.207031 226.96875 136.480469 233.691406 128.195312 233.691406 C 128.195312 233.691406 82.128906 233.832031 73.839844 233.832031 C 65.546875 233.832031 58.828125 227.117188 58.828125 218.820312 L 58.828125 106.875 C 58.828125 48.097656 106.527344 0.25 165.253906 0 L 165.703125 0 C 224.628906 0 272.578125 47.949219 272.578125 106.875 Z M 272.578125 148.765625 " style=" stroke:none;fill-rule:nonzero;fill:rgb(41.176471%,43.137255%,45.098039%);fill-opacity:1;" />
<path d="M 272.578125 148.765625 C 272.578125 148.777344 272.566406 148.785156 272.566406 148.785156 C 272.566406 148.796875 272.578125 148.804688 272.578125 148.804688 C 272.578125 149.078125 272.546875 149.335938 272.527344 149.597656 C 272.515625 149.835938 272.515625 150.085938 272.496094 150.328125 C 272.46875 150.585938 272.417969 150.835938 272.375 151.097656 C 272.335938 151.339844 272.308594 151.578125 272.265625 151.808594 C 272.207031 152.070312 272.136719 152.308594 272.078125 152.558594 C 272.015625 152.789062 271.964844 153.019531 271.894531 153.25 C 271.816406 153.488281 271.714844 153.71875 271.636719 153.960938 C 271.546875 154.179688 271.476562 154.410156 271.386719 154.628906 C 271.285156 154.851562 271.175781 155.070312 271.066406 155.292969 C 270.957031 155.511719 270.867188 155.730469 270.753906 155.941406 C 270.636719 156.152344 270.503906 156.351562 270.375 156.550781 C 270.253906 156.761719 270.136719 156.972656 270.003906 157.171875 C 269.875 157.363281 269.726562 157.542969 269.585938 157.734375 C 269.433594 157.933594 269.292969 158.132812 269.132812 158.324219 C 268.996094 158.492188 268.84375 158.652344 268.695312 158.8125 C 268.515625 159.015625 268.355469 159.203125 268.164062 159.394531 C 268.023438 159.542969 267.851562 159.675781 267.703125 159.816406 C 267.503906 159.996094 267.3125 160.183594 267.101562 160.355469 C 266.953125 160.484375 266.78125 160.59375 266.621094 160.714844 C 266.402344 160.886719 266.183594 161.066406 265.941406 161.226562 C 265.78125 161.335938 265.613281 161.425781 265.441406 161.527344 C 265.203125 161.675781 264.960938 161.835938 264.710938 161.976562 C 264.519531 162.078125 264.332031 162.15625 264.140625 162.246094 C 263.898438 162.367188 263.648438 162.496094 263.398438 162.605469 C 263.191406 162.695312 262.96875 162.757812 262.75 162.835938 C 262.507812 162.925781 262.269531 163.027344 262.019531 163.109375 C 261.757812 163.1875 261.476562 163.246094 261.207031 163.316406 C 260.996094 163.367188 260.796875 163.4375 260.585938 163.476562 C 260.199219 163.558594 259.796875 163.609375 259.398438 163.65625 C 259.296875 163.667969 259.195312 163.699219 259.097656 163.707031 C 258.585938 163.757812 258.074219 163.777344 257.566406 163.777344 L 257.523438 163.777344 L 203.011719 163.636719 C 202.761719 163.636719 202.511719 163.609375 202.261719 163.597656 C 202 163.578125 201.75 163.578125 201.5 163.558594 C 201.25 163.527344 201.011719 163.476562 200.761719 163.4375 C 200.511719 163.398438 200.261719 163.378906 200.011719 163.328125 C 199.769531 163.277344 199.539062 163.207031 199.308594 163.148438 C 199.058594 163.078125 198.808594 163.027344 198.570312 162.949219 C 198.339844 162.878906 198.117188 162.789062 197.898438 162.707031 C 197.667969 162.617188 197.417969 162.546875 197.1875 162.445312 C 196.96875 162.355469 196.769531 162.238281 196.546875 162.136719 C 196.328125 162.027344 196.097656 161.925781 195.878906 161.804688 C 195.675781 161.695312 195.476562 161.566406 195.277344 161.445312 C 195.066406 161.316406 194.847656 161.195312 194.644531 161.054688 C 194.457031 160.925781 194.277344 160.785156 194.09375 160.644531 C 193.894531 160.496094 193.683594 160.355469 193.484375 160.195312 C 193.316406 160.046875 193.15625 159.886719 192.984375 159.734375 C 192.792969 159.566406 192.605469 159.40625 192.425781 159.222656 C 192.265625 159.0625 192.125 158.894531 191.972656 158.722656 C 191.804688 158.535156 191.625 158.355469 191.453125 158.152344 C 191.3125 157.984375 191.195312 157.804688 191.0625 157.625 C 190.902344 157.414062 190.742188 157.210938 190.59375 156.992188 C 190.472656 156.8125 190.363281 156.621094 190.253906 156.433594 C 190.113281 156.203125 189.972656 155.992188 189.84375 155.761719 C 189.730469 155.5625 189.640625 155.351562 189.550781 155.140625 C 189.433594 154.910156 189.3125 154.679688 189.210938 154.441406 C 189.121094 154.230469 189.050781 154 188.972656 153.78125 C 188.882812 153.539062 188.792969 153.308594 188.710938 153.070312 C 188.640625 152.828125 188.589844 152.589844 188.53125 152.347656 C 188.460938 152.109375 188.390625 151.867188 188.339844 151.628906 C 188.292969 151.378906 188.261719 151.117188 188.230469 150.867188 C 188.191406 150.628906 188.140625 150.386719 188.121094 150.136719 C 188.089844 149.878906 188.089844 149.605469 188.082031 149.347656 C 188.070312 149.105469 188.039062 148.867188 188.039062 148.625 L 188.039062 105.824219 C 188.039062 93.464844 177.984375 83.40625 165.625 83.40625 C 165.503906 83.40625 165.375 83.40625 165.253906 83.414062 L 165.253906 0 L 165.703125 0 C 224.628906 0 272.578125 47.949219 272.578125 106.875 Z M 272.578125 148.765625 " style=" stroke:none;fill-rule:nonzero;fill:rgb(21.568627%,23.529412%,25.490196%);fill-opacity:1;" />
<path d="M 330.5 225.457031 L 330.5 490.511719 C 330.5 502.363281 320.859375 512 309.011719 512 L 21.488281 512 C 9.636719 512 0 502.363281 0 490.511719 L 0 225.457031 C 0 213.605469 9.636719 203.96875 21.488281 203.96875 L 309.011719 203.96875 C 320.859375 203.96875 330.5 213.605469 330.5 225.457031 Z M 330.5 225.457031 " style=" stroke:none;fill-rule:nonzero;fill:rgb(100%,76.862745%,46.666667%);fill-opacity:1;" />
<path d="M 330.5 225.457031 L 330.5 490.511719 C 330.5 502.363281 320.859375 512 309.011719 512 L 165.699219 512 L 165.699219 203.96875 L 309.011719 203.96875 C 320.859375 203.96875 330.5 213.605469 330.5 225.457031 Z M 330.5 225.457031 " style=" stroke:none;fill-rule:nonzero;fill:rgb(100%,56.862745%,0%);fill-opacity:1;" />
<path d="M 210.78125 334.191406 C 210.78125 354.035156 198.007812 370.949219 180.253906 377.164062 L 180.253906 420.078125 C 180.253906 428.222656 173.78125 434.839844 165.695312 435.078125 C 165.542969 435.089844 165.394531 435.089844 165.242188 435.089844 C 156.957031 435.089844 150.230469 428.375 150.230469 420.078125 L 150.230469 377.164062 C 132.488281 370.949219 119.71875 354.035156 119.71875 334.191406 C 119.71875 309.089844 140.144531 288.664062 165.242188 288.664062 L 165.695312 288.664062 C 190.59375 288.914062 210.78125 309.242188 210.78125 334.191406 Z M 210.78125 334.191406 " style=" stroke:none;fill-rule:nonzero;fill:rgb(100%,100%,100%);fill-opacity:1;" />
<path d="M 210.78125 334.191406 C 210.78125 354.035156 198.007812 370.949219 180.253906 377.164062 L 180.253906 420.078125 C 180.253906 428.222656 173.78125 434.839844 165.695312 435.078125 L 165.695312 288.664062 C 190.59375 288.914062 210.78125 309.242188 210.78125 334.191406 Z M 210.78125 334.191406 " style=" stroke:none;fill-rule:nonzero;fill:rgb(88.235294%,92.156863%,94.117647%);fill-opacity:1;" />
</g>
</svg>