<svg height="512pt" viewBox="-8 0 512 512.001" width="512pt" xmlns="http://www.w3.org/2000/svg"><path d="m485.171875 125.453125c-45.921875-19.378906-77.820313-62.839844-81.929687-113.273437-.5625-6.898438-6.386719-12.179688-13.3125-12.179688h-282.804688c-7 0-12.75 5.40625-13.328125 12.382812-4.179687 50.394532-36.113281 93.800782-82.042969 113.128907-7.777344 3.269531-12.488281 11.253906-11.660156 19.652343 6.066406 61.484376 42.261719 270.933594 245.722656 366.234376.847656.398437 1.777344.601562 2.714844.601562.933594 0 1.863281-.203125 2.710938-.601562 203.449218-95.296876 239.652343-304.730469 245.71875-366.226563.835937-8.453125-3.964844-16.414063-11.789063-19.71875zm0 0" fill="#75cff2"/><path d="m485.171875 125.453125c-45.921875-19.378906-77.820313-62.839844-81.929687-113.273437-.5625-6.898438-6.386719-12.179688-13.3125-12.179688h-44.085938c1.679688 54.757812 39.300781 122.289062 87.480469 142.621094 7.824219 3.304687 12.625 11.265625 11.789062 19.71875-5.660156 57.347656-37.527343 243.335937-206.785156 345.453125 2.472656 1.21875 4.960937 2.421875 7.488281 3.605469.847656.394531 1.773438.601562 2.710938.601562s1.867187-.207031 2.714844-.601562c203.449218-95.296876 239.652343-304.734376 245.71875-366.226563.835937-8.453125-3.964844-16.414063-11.789063-19.71875zm0 0" fill="#53b4e4"/><path d="m251.371094 471.085938c-1.777344.929687-3.910156.929687-5.691406 0-71.769532-37.539063-127.011719-95.113282-164.347657-171.351563-27.851562-56.875-39.003906-111.113281-43.394531-142.074219-.359375-2.523437.863281-5.023437 3.109375-6.242187 42.890625-23.234375 73.527344-63.441407 84.671875-110.640625.652344-2.761719 3.132812-4.703125 5.96875-4.703125h233.679688c2.835937 0 5.3125 1.941406 5.96875 4.703125 11.140624 47.195312 41.773437 87.402344 84.675781 110.644531 2.242187 1.214844 3.464843 3.714844 3.109375 6.238281-4.390625 30.957032-15.542969 85.207032-43.398438 142.082032-37.335937 76.230468-92.574218 133.800781-164.351562 171.34375zm0 0" fill="#ffe471"/><path d="m456.007812 151.421875c-42.898437-23.242187-73.53125-63.449219-84.675781-110.644531-.652343-2.761719-3.128906-4.703125-5.964843-4.703125h-51.847657c2.835938 0 5.3125 1.941406 5.964844 4.703125 11.144531 47.195312 41.773437 87.402344 84.675781 110.644531 2.246094 1.214844 3.46875 3.714844 3.109375 6.238281-4.386719 30.957032-15.539062 85.207032-43.394531 142.082032-33.226562 67.84375-80.648438 120.890624-141.273438 158.210937 7.496094 4.613281 15.183594 9 23.078126 13.132813 1.78125.929687 3.914062.929687 5.691406 0 71.777344-37.542969 127.015625-95.113282 164.351562-171.34375 27.855469-56.878907 39.007813-111.125 43.394532-142.082032.359374-2.523437-.863282-5.023437-3.109376-6.238281zm0 0" fill="#f2ca20"/><path d="m224.855469 341.621094c-5.175781 0-10.191407-1.949219-14.023438-5.503906l-76.722656-71.175782c-8.351563-7.746094-8.839844-20.792968-1.09375-29.140625 7.742187-8.347656 20.789063-8.835937 29.140625-1.09375l59.285156 55 99.589844-143.847656c6.488281-9.363281 19.328125-11.699219 28.695312-5.214844 9.359376 6.480469 11.695313 19.328125 5.214844 28.691407l-113.132812 163.402343c-3.402344 4.914063-8.773438 8.113281-14.714844 8.761719-.75.082031-1.496094.121094-2.238281.121094zm0 0" fill="#505264"/></svg>