<svg xmlns="http://www.w3.org/2000/svg" height="512pt" version="1.1" viewBox="0 0 512.00062 512" width="512pt">
<g id="surface1">
<path d="M 182.6875 385.28125 L 68.007812 499.367188 C 52.539062 514.839844 27.359375 514.890625 11.804688 499.488281 L 11.65625 499.339844 C -3.886719 483.796875 -3.886719 458.515625 11.660156 442.964844 L 126.414062 328.792969 C 132.273438 322.960938 141.753906 322.980469 147.597656 328.820312 L 147.625 328.851562 L 165.011719 346.277344 L 182.714844 364.039062 L 182.746094 364.066406 C 188.585938 369.941406 188.566406 379.4375 182.6875 385.28125 Z M 182.6875 385.28125 " style=" stroke:none;fill-rule:nonzero;fill:rgb(41.176471%,43.137255%,45.098039%);fill-opacity:1;" />
<path d="M 182.6875 385.28125 L 68.007812 499.367188 C 52.539062 514.839844 27.359375 514.890625 11.804688 499.488281 L 165.011719 346.28125 L 182.71875 364.042969 L 182.746094 364.070312 C 188.585938 369.941406 188.566406 379.4375 182.6875 385.28125 Z M 182.6875 385.28125 " style=" stroke:none;fill-rule:nonzero;fill:rgb(21.568627%,23.529412%,25.490196%);fill-opacity:1;" />
<path d="M 448.703125 368.921875 C 407.882812 409.742188 353.609375 432.226562 295.882812 432.226562 C 238.160156 432.226562 183.890625 409.746094 143.070312 368.929688 L 142.71875 368.574219 C 102.125 327.796875 79.773438 273.671875 79.773438 216.117188 C 79.773438 158.390625 102.257812 104.117188 143.078125 63.296875 C 183.890625 22.484375 238.164062 0 295.890625 0 C 353.445312 0 407.570312 22.351562 448.347656 62.945312 L 448.703125 63.296875 C 489.519531 104.117188 512 158.386719 512 216.109375 C 512 273.835938 489.515625 328.109375 448.703125 368.921875 Z M 448.703125 368.921875 " style=" stroke:none;fill-rule:nonzero;fill:rgb(88.235294%,92.156863%,94.117647%);fill-opacity:1;" />
<path d="M 448.703125 368.921875 C 407.882812 409.742188 353.609375 432.226562 295.882812 432.226562 C 238.160156 432.226562 183.890625 409.746094 143.070312 368.929688 L 142.71875 368.574219 L 448.351562 62.945312 L 448.703125 63.296875 C 489.523438 104.117188 512 158.386719 512 216.109375 C 512 273.835938 489.515625 328.109375 448.703125 368.921875 Z M 448.703125 368.921875 " style=" stroke:none;fill-rule:nonzero;fill:rgb(70.588235%,82.352941%,84.313725%);fill-opacity:1;" />
<path d="M 412.34375 332.5625 C 348.128906 396.78125 243.644531 396.773438 179.4375 332.5625 L 179.082031 332.210938 C 115.226562 267.972656 115.347656 163.757812 179.445312 99.664062 C 243.53125 35.574219 347.746094 35.453125 411.984375 99.308594 L 412.339844 99.664062 C 476.546875 163.871094 476.554688 268.355469 412.34375 332.5625 Z M 412.34375 332.5625 " style=" stroke:none;fill-rule:nonzero;fill:rgb(82.352941%,62.745098%,96.078431%);fill-opacity:1;" />
<path d="M 412.34375 332.5625 C 348.128906 396.78125 243.644531 396.773438 179.4375 332.5625 L 179.082031 332.210938 L 411.984375 99.308594 L 412.339844 99.664062 C 476.546875 163.871094 476.554688 268.355469 412.34375 332.5625 Z M 412.34375 332.5625 " style=" stroke:none;fill-rule:nonzero;fill:rgb(63.529412%,37.647059%,89.803922%);fill-opacity:1;" />
</g>
</svg>