<svg height="512pt" viewBox="0 -52 512.00001 512" width="512pt" xmlns="http://www.w3.org/2000/svg"><path d="m145.464844 68.226562h-145.464844v-55.730468c0-6.902344 5.597656-12.496094 12.496094-12.496094h132.96875zm0 0" fill="#aa4b21"/><path d="m145.464844 0h145.464844v68.226562h-145.464844zm0 0" fill="#8e3a16"/><path d="m436.390625 68.226562h-145.460937v-68.226562h132.964843c6.902344 0 12.496094 5.597656 12.496094 12.496094zm0 0" fill="#aa4b21"/><path d="m145.464844 341.132812h-132.96875c-6.898438 0-12.496094-5.597656-12.496094-12.5v-55.726562h145.464844zm0 0" fill="#aa4b21"/><path d="m145.464844 272.90625h145.464844v68.226562h-145.464844zm0 0" fill="#8e3a16"/><path d="m423.894531 341.132812h-132.964843v-68.226562h145.460937v55.726562c0 6.902344-5.59375 12.5-12.496094 12.5zm0 0" fill="#aa4b21"/><path d="m0 136.453125h145.464844v68.226563h-145.464844zm0 0" fill="#aa4b21"/><path d="m145.464844 136.453125h145.464844v68.226563h-145.464844zm0 0" fill="#8e3a16"/><path d="m290.929688 136.453125h145.460937v68.226563h-145.460937zm0 0" fill="#aa4b21"/><path d="m72.730469 68.226562h145.464843v68.226563h-145.464843zm0 0" fill="#aa4b21"/><g fill="#964117"><path d="m165.960938 68.226562v39.074219c0 8.265625-6.703126 14.96875-14.972657 14.96875h-78.257812v14.183594h145.464843v-68.226563zm0 0"/><path d="m93.230469 0v39.070312c0 8.269532-6.703125 14.972657-14.972657 14.972657h-78.257812v14.183593h145.464844v-68.226562zm0 0"/><path d="m93.230469 136.453125v39.070313c0 8.269531-6.703125 14.972656-14.972657 14.972656h-78.257812v14.183594h145.464844v-68.226563zm0 0"/><path d="m93.230469 272.90625v39.070312c0 8.269532-6.703125 14.972657-14.972657 14.972657h-78.257812v1.683593c0 6.902344 5.597656 12.5 12.496094 12.5h132.96875v-68.226562zm0 0"/><path d="m384.15625 272.90625v39.070312c0 8.269532-6.703125 14.972657-14.972656 14.972657h-78.253906v14.183593h132.964843c6.902344 0 12.496094-5.597656 12.496094-12.5v-55.726562zm0 0"/><path d="m384.15625 136.453125v39.070313c0 8.269531-6.703125 14.972656-14.972656 14.972656h-78.253906v14.183594h145.460937v-68.226563zm0 0"/><path d="m384.15625 0v39.070312c0 8.269532-6.703125 14.972657-14.972656 14.972657h-78.253906v14.183593h145.460937v-55.730468c0-6.902344-5.59375-12.496094-12.496094-12.496094zm0 0"/></g><path d="m218.195312 68.226562h145.464844v68.226563h-145.464844zm0 0" fill="#8e3a16"/><path d="m72.730469 204.679688h145.464843v68.226562h-145.464843zm0 0" fill="#aa4b21"/><path d="m218.195312 204.679688h145.464844v68.226562h-145.464844zm0 0" fill="#8e3a16"/><path d="m436.390625 68.226562h-72.730469v68.226563h72.730469zm0 0" fill="#aa4b21"/><path d="m436.390625 204.679688h-72.730469v68.226562h72.730469zm0 0" fill="#aa4b21"/><path d="m0 204.679688h72.730469v68.226562h-72.730469zm0 0" fill="#8e3a16"/><path d="m0 68.226562h72.730469v68.226563h-72.730469zm0 0" fill="#8e3a16"/><path d="m311.425781 68.226562v39.074219c0 8.265625-6.703125 14.96875-14.972656 14.96875h-78.257813v14.183594h145.464844v-68.226563zm0 0" fill="#843812"/><path d="m311.425781 204.679688v39.074218c0 8.265625-6.703125 14.96875-14.972656 14.96875h-78.257813v14.183594h145.464844v-68.226562zm0 0" fill="#843812"/><path d="m238.691406 0v39.070312c0 8.269532-6.703125 14.972657-14.96875 14.972657h-78.257812v14.183593h145.464844v-68.226562zm0 0" fill="#843812"/><path d="m238.691406 136.453125v39.070313c0 8.269531-6.703125 14.972656-14.96875 14.972656h-78.257812v14.183594h145.464844v-68.226563zm0 0" fill="#843812"/><path d="m238.691406 272.90625v39.070312c0 8.269532-6.703125 14.972657-14.96875 14.972657h-78.257812v14.183593h145.464844v-68.226562zm0 0" fill="#843812"/><path d="m165.960938 204.679688v39.074218c0 8.265625-6.703126 14.96875-14.972657 14.96875h-78.257812v14.183594h145.464843v-68.226562zm0 0" fill="#964117"/><path d="m384.15625 243.75c0 8.269531-6.703125 14.972656-14.972656 14.972656h-5.523438v14.183594h72.730469v-68.226562h-52.234375zm0 0" fill="#964117"/><path d="m384.15625 107.300781c0 8.265625-6.703125 14.96875-14.972656 14.96875h-5.523438v14.183594h72.730469v-68.226563h-52.234375zm0 0" fill="#964117"/><path d="m20.496094 107.300781c0 8.265625-6.703125 14.96875-14.96875 14.96875h-5.527344v14.183594h72.730469v-68.226563h-52.234375zm0 0" fill="#843812"/><path d="m20.496094 243.75c0 8.269531-6.703125 14.972656-14.96875 14.972656h-5.527344v14.183594h72.730469v-68.226562h-52.234375zm0 0" fill="#843812"/><path d="m512 298.335938c0 61.042968-49.484375 110.527343-110.527344 110.527343-61.046875 0-110.53125-49.484375-110.53125-110.527343 0-61.042969 49.484375-110.53125 110.53125-110.53125 61.042969 0 110.527344 49.488281 110.527344 110.53125zm0 0" fill="#f79f48"/><path d="m401.472656 187.804688c-8.753906 0-17.269531 1.019531-25.433594 2.941406 48.78125 11.488281 85.09375 55.296875 85.09375 107.589844 0 52.289062-36.3125 96.097656-85.09375 107.585937 8.164063 1.925781 16.679688 2.941406 25.433594 2.941406 61.042969 0 110.527344-49.484375 110.527344-110.527343 0-61.042969-49.484375-110.53125-110.527344-110.53125zm0 0" fill="#ef8229"/><path d="m457.585938 315.925781c-.964844-18.5625-10.671876-31.722656-15.894532-37.515625-1.078125-1.195312-3.089844-.425781-3.078125 1.183594.167969 24.917969-17.023437 23.203125-19.375 12.515625-3.167969-14.382813 13.820313-22.121094.300781-46.417969-5.652343-10.164062-16.007812-16.027344-21.480468-18.558594-1.371094-.632812-2.851563.609376-2.457032 2.0625 1.617188 5.960938 2.875 15.832032-1.683593 23.804688-10.757813 18.816406-44.640625 29.324219-48.375 67.097656-.019531.203125-.03125.40625-.046875.609375-.035156.179688-.050782.335938-.046875.464844 0 .019531.003906.042969.003906.066406-1.511719 20.257813 10.71875 33.316407 21.933594 41.015625 10.898437 7.484375 20.5625 8.398438 34.082031 8.894532 47.6875 0 56.785156-42.316407 56.117188-55.222657zm0 0" fill="#f43b45"/><path d="m418.140625 369.160156c11.898437-12.207031 12.542969-27.347656 12.40625-32.261718-.019531-.671876-.789063-1.042969-1.324219-.640626-3.6875 2.78125-14.582031 11.136719-29.953125 9.292969-13.464843-1.613281-17.335937-23.421875-18.191406-30.300781-.09375-.742188-1.03125-.992188-1.480469-.398438-5.054687 6.65625-22.496094 32.828126-1.546875 52.90625 7.097657 2.527344 14.398438 3.058594 23.417969 3.386719 6.1875.003907 11.722656-.714843 16.671875-1.984375zm0 0" fill="#ffe471"/></svg>