<svg height="512pt" viewBox="0 -36 512.00001 512" width="512pt" xmlns="http://www.w3.org/2000/svg"><path d="m442.855469 391.441406h-432.175781c-5.898438 0-10.679688-4.78125-10.679688-10.679687v-370.082031c0-5.898438 4.78125-10.679688 10.679688-10.679688h432.175781c5.898437 0 10.679687 4.78125 10.679687 10.679688v370.082031c0 5.898437-4.78125 10.679687-10.679687 10.679687zm0 0" fill="#ededed"/><path d="m442.855469 0h-41.160157v339.800781c0 15.070313-12.21875 27.285157-27.289062 27.285157h-374.40625v13.675781c0 5.898437 4.78125 10.679687 10.679688 10.679687h432.175781c5.898437 0 10.679687-4.78125 10.679687-10.679687v-370.082031c0-5.898438-4.78125-10.679688-10.679687-10.679688zm0 0" fill="#d6d6d6"/><path d="m344.683594 223.214844c0 65.121094-52.792969 117.914062-117.917969 117.914062-65.121094 0-117.914063-52.792968-117.914063-117.914062 0-65.125 52.792969-117.917969 117.914063-117.917969 65.125 0 117.917969 52.792969 117.917969 117.917969zm0 0" fill="#75cff2"/><path d="m226.765625 105.296875c-8.90625 0-17.578125.996094-25.917969 2.867187 52.652344 11.808594 91.996094 58.832032 91.996094 115.050782 0 56.214844-39.34375 103.238281-91.996094 115.050781 8.339844 1.871094 17.011719 2.863281 25.917969 2.863281 65.125 0 117.917969-52.792968 117.917969-117.914062 0-65.125-52.792969-117.917969-117.917969-117.917969zm0 0" fill="#53b4e4"/><path d="m287.421875 175.027344c14.242187-1.851563 27.910156-4.355469 40.703125-7.496094.769531-.1875 1.480469-.488281 2.128906-.875-2.570312-4.695312-5.453125-9.191406-8.617187-13.46875-11.984375 2.824219-24.734375 5.089844-38.023438 6.757812-6.761719-22.730468-17.125-40.773437-29.695312-51.5-8.71875-2.054687-17.808594-3.144531-27.152344-3.144531-9.289063 0-18.324219 1.078125-26.996094 3.109375-12.589843 10.71875-22.96875 28.777344-29.742187 51.535156-13.320313-1.671874-26.105469-3.945312-38.117188-6.78125-3.164062 4.28125-6.050781 8.78125-8.621094 13.476563.640626.378906 1.34375.671875 2.101563.859375 12.828125 3.15625 26.542969 5.671875 40.832031 7.53125-2.636718 12.535156-4.261718 26.140625-4.695312 40.457031h-52.417969c-.164063 2.558594-.257813 5.128907-.257813 7.726563s.09375 5.171875.257813 7.726562h52.421875c.519531 17.300782 2.785156 33.554688 6.46875 48.144532-13.175781 1.65625-25.875 3.863281-37.832031 6.613281-.988281.230469-1.882813.640625-2.667969 1.183593 2.949219 4.585938 6.207031 8.953126 9.746094 13.074219 11.179687-2.433593 22.992187-4.398437 35.242187-5.863281 6.707031 19.179688 16.125 34.429688 27.277344 43.929688 8.671875 2.03125 17.710937 3.109374 27 3.109374 9.347656 0 18.4375-1.09375 27.160156-3.148437 11.128907-9.5 20.53125-24.738281 27.234375-43.890625 12.210938 1.457031 23.996094 3.417969 35.144532 5.84375 3.542968-4.132812 6.808593-8.507812 9.761718-13.105469-.765625-.515625-1.632812-.910156-2.589844-1.132812-11.957031-2.75-24.65625-4.957031-37.832031-6.613281 3.683594-14.589844 5.949219-30.84375 6.472657-48.144532h52.308593c.164063-2.554687.257813-5.128906.257813-7.726562s-.09375-5.167969-.257813-7.726563h-52.308593c-.433594-14.320312-2.058594-27.921875-4.695313-40.460937zm-68.324219 156.9375c-9.503906-3.585938-18.730468-13.625-26.125-28.746094-1.660156-3.390625-3.183594-6.984375-4.601562-10.71875 10.066406-.828125 20.339844-1.332031 30.726562-1.5zm0-56.417969c-12.03125.1875-23.9375.808594-35.558594 1.859375-3.769531-14.183594-6.003906-29.964844-6.535156-46.464844h42.09375zm0-60.058594h-42.09375c.4375-13.5625 2.027344-26.628906 4.671875-38.730469 12.199219 1.148438 24.726563 1.835938 37.421875 2.03125zm0-52.152343c-11.324218-.183594-22.496094-.765626-33.398437-1.730469 2.085937-6.570313 4.507812-12.742188 7.273437-18.394531 7.394532-15.121094 16.621094-25.160157 26.125-28.746094zm15.453125-48.871094c9.503907 3.585937 18.726563 13.625 26.121094 28.746094 2.765625 5.652343 5.1875 11.824218 7.273437 18.394531-10.902343.964843-22.074218 1.546875-33.394531 1.730469zm26.121094 188.753906c-7.394531 15.121094-16.617187 25.160156-26.121094 28.742188v-40.960938c10.382813.167969 20.660157.671875 30.722657 1.5-1.417969 3.734375-2.941407 7.328125-4.601563 10.71875zm9.433594-25.8125c-11.617188-1.050781-23.523438-1.671875-35.554688-1.859375v-44.605469h42.09375c-.535156 16.5-2.765625 32.28125-6.539062 46.464844zm-35.554688-61.917969v-36.699219c12.695313-.195312 25.222657-.882812 37.417969-2.03125 2.644531 12.101563 4.234375 25.167969 4.675781 38.730469zm0 0" fill="#44a6cc"/><path d="m453.535156 10.679688c0-5.898438-4.78125-10.679688-10.679687-10.679688h-432.175781c-5.898438 0-10.679688 4.78125-10.679688 10.679688v55.59375h453.535156zm0 0" fill="#676a75"/><path d="m453.535156 66.273438v-55.59375c0-5.898438-4.78125-10.679688-10.679687-10.679688h-41.160157v66.273438zm0 0" fill="#454851"/><path d="m512 350.855469c0 49.054687-39.769531 88.824219-88.824219 88.824219-49.058593 0-88.828125-39.769532-88.828125-88.824219 0-49.058594 39.769532-88.828125 88.828125-88.828125 49.054688 0 88.824219 39.769531 88.824219 88.828125zm0 0" fill="#f79f48"/><path d="m423.175781 262.027344c-9.113281 0-17.902343 1.378906-26.175781 3.925781 36.28125 11.171875 62.652344 44.953125 62.652344 84.902344 0 39.945312-26.371094 73.726562-62.652344 84.898437 8.273438 2.550782 17.0625 3.925782 26.175781 3.925782 49.054688 0 88.824219-39.769532 88.824219-88.824219 0-49.058594-39.769531-88.828125-88.824219-88.828125zm0 0" fill="#ef8229"/><g fill="#676a75"><path d="m477.121094 359.28125h-28.875c-4.265625 0-7.722656-3.460938-7.722656-7.726562 0-4.269532 3.457031-7.726563 7.722656-7.726563h28.875c4.269531 0 7.726562 3.460937 7.726562 7.726563 0 4.265624-3.457031 7.726562-7.726562 7.726562zm0 0"/><path d="m398.164062 359.28125h-28.875c-4.265624 0-7.722656-3.460938-7.722656-7.726562 0-4.269532 3.457032-7.726563 7.722656-7.726563h28.875c4.269532 0 7.726563 3.460937 7.726563 7.726563 0 4.265624-3.457031 7.726562-7.726563 7.726562zm0 0"/><path d="m449.902344 343.773438c-3.019532 0-5.890625-1.78125-7.132813-4.742188-1.644531-3.9375.210938-8.464844 4.144531-10.113281l9.15625-3.828125c4.300782-1.800782 7.351563-5.785156 7.96875-10.40625l1.140626-8.570313c.566406-4.230469 4.46875-7.207031 8.679687-6.636719 4.230469.5625 7.203125 4.449219 6.640625 8.679688l-1.144531 8.570312c-1.339844 10.039063-7.972657 18.707032-17.320313 22.617188l-9.152344 3.832031c-.976562.40625-1.988281.597657-2.980468.597657zm0 0"/><path d="m396.511719 343.773438c-.996094 0-2.007813-.191407-2.980469-.597657l-9.15625-3.832031c-9.34375-3.910156-15.980469-12.578125-17.320312-22.617188l-1.085938-8.148437c-.5625-4.226563 2.40625-8.113281 6.636719-8.679687 4.230469-.5625 8.117187 2.410156 8.679687 6.636718l1.089844 8.148438c.613281 4.621094 3.667969 8.605468 7.964844 10.402344l9.15625 3.832031c3.9375 1.648437 5.792968 6.175781 4.144531 10.109375-1.238281 2.964844-4.109375 4.746094-7.128906 4.746094zm0 0"/><path d="m472.679688 400.867188c-3.816407 0-7.132813-2.820313-7.652344-6.707032l-.988282-7.429687c-.617187-4.617188-3.667968-8.605469-7.96875-10.402344l-9.15625-3.832031c-3.933593-1.648438-5.789062-6.175782-4.140624-10.109375 1.648437-3.9375 6.175781-5.792969 10.109374-4.144531l9.152344 3.832031c9.347656 3.90625 15.980469 12.574219 17.320313 22.617187l.992187 7.429688c.5625 4.226562-2.40625 8.113281-6.636718 8.679687-.347657.046875-.691407.066407-1.03125.066407zm0 0"/><path d="m373.734375 400.867188c-.339844 0-.683594-.019532-1.03125-.066407-4.230469-.566406-7.199219-4.453125-6.636719-8.679687l.988282-7.429688c1.339843-10.042968 7.976562-18.707031 17.320312-22.617187l9.15625-3.832031c3.933594-1.648438 8.460938.207031 10.109375 4.144531 1.648437 3.933593-.207031 8.460937-4.144531 10.109375l-9.15625 3.832031c-4.296875 1.800781-7.351563 5.785156-7.964844 10.402344l-.992188 7.429687c-.519531 3.886719-3.835937 6.707032-7.648437 6.707032zm0 0"/></g><path d="m435.207031 396.398438c-7.390625 4.417968-16.609375 4.417968-24.003906 0-12.089844-7.222657-19.492187-20.269532-19.492187-34.355469v-22.058594c0-11.726563 9.507812-21.230469 21.230468-21.230469h20.527344c11.726562 0 21.230469 9.503906 21.230469 21.230469v22.058594c0 14.085937-7.402344 27.132812-19.492188 34.355469zm0 0" fill="#f43b45"/><path d="m412.941406 318.753906h20.527344c4.785156 0 9.183594 1.601563 12.730469 4.269532.257812-1.386719.398437-2.808594.398437-4.269532 0-12.917968-10.472656-23.390625-23.390625-23.390625s-23.390625 10.472657-23.390625 23.390625c0 1.457032.140625 2.882813.398438 4.269532 3.546875-2.667969 7.945312-4.269532 12.726562-4.269532zm0 0" fill="#8c4949"/><path d="m332.921875 33.136719c0 4.292969-3.480469 7.773437-7.773437 7.773437-4.292969 0-7.773438-3.480468-7.773438-7.773437s3.480469-7.773438 7.773438-7.773438c4.292968 0 7.773437 3.480469 7.773437 7.773438zm0 0" fill="#f2ca20"/><path d="m372.71875 33.136719c0 4.292969-3.480469 7.773437-7.773438 7.773437-4.292968 0-7.773437-3.480468-7.773437-7.773437s3.480469-7.773438 7.773437-7.773438c4.292969 0 7.773438 3.480469 7.773438 7.773438zm0 0" fill="#f2ca20"/><path d="m412.511719 33.136719c0 4.292969-3.480469 7.773437-7.773438 7.773437s-7.769531-3.480468-7.769531-7.773437 3.476562-7.773438 7.769531-7.773438 7.773438 3.480469 7.773438 7.773438zm0 0" fill="#f2ca20"/><path d="m414.960938 339.984375v58.214844c5.335937 2.011719 11.226562 2 16.558593-.023438v-58.191406zm0 0" fill="#cf3735"/><path d="m433.46875 318.753906h-20.527344c-4.742187 0-9.121094 1.554688-12.652344 4.183594-7.3125 5.433594-3.492187 17.046875 5.621094 17.046875h34.609375c8.90625 0 12.980469-11.34375 5.933594-16.800781-3.589844-2.777344-8.09375-4.429688-12.984375-4.429688zm0 0" fill="#cf3735"/></svg>