<svg height="512pt" viewBox="-12 0 512 512.00054" width="512pt" xmlns="http://www.w3.org/2000/svg"><path d="m277.1875 371.523438 35.230469-33.320313c6.097656-5.769531 3.054687-16.019531-5.203125-17.523437-9.605469-1.898438-16.546875-13.007813-16.582032-22.796876l-.148437-43.628906-93.015625.320313.148438 43.628906c.035156 9.789063-6.832032 20.945313-16.425782 22.910156-8.246094 1.558594-11.21875 11.832031-5.082031 17.558594l35.460937 33.074219c18.5 17.261718 47.234376 17.164062 65.617188-.222656zm0 0" fill="#fae0c1"/><path d="m461.90625 385.292969c-5.015625-21.328125-21.703125-37.964844-43.046875-42.914063l-76.457031-19.496094-26.191406-6.074218c-1.523438-.351563-3.0625-.53125-4.597657-.542969-4.597656-.039063-9.128906 1.425781-12.871093 4.242187-32.601563 24.542969-77.472657 24.699219-110.242188.378907-1.230469-.914063-2.546875-1.679688-3.917969-2.296875-.082031-.039063-.167969-.070313-.253906-.109375-.851563-.367188-1.722656-.679688-2.613281-.933594-.402344-.113281-.808594-.21875-1.21875-.308594-1.605469-.355469-3.246094-.53125-4.898438-.507812-.765625.011719-1.535156.066406-2.300781.160156-.765625.097656-1.53125.234375-2.289063.417969l-26.152343 6.253906-76.320313 20.023438c-21.3125 5.09375-37.882812 21.84375-42.753906 43.210937l-25.503906 111.902344c-1.554688 6.828125 3.644531 13.324219 10.648437 13.300781h466.699219c7.003906-.023438 12.160156-8.164062 10.558594-14.980469zm0 0" fill="#cc966a"/><path d="m301.867188 318.558594c-1.089844.554687-2.136719 1.203125-3.128907 1.949218-32.601562 24.542969-77.46875 24.699219-110.238281.378907-.808594-.597657-1.652344-1.132813-2.527344-1.605469-.457031-.238281-5.160156 9.890625-2.398437 15.355469l60.664062 143.621093 60.664063-143.621093c2.894531-5.71875-1.84375-16.683594-3.035156-16.078125zm0 0" fill="#ededed"/><path d="m273.445312 367.652344-29.207031-28.636719-29.207031 28.636719 14.78125 7.015625h28.851562zm0 0" fill="#274354"/><path d="m162.085938 145.773438-10.335938.035156c-3.746094.015625-7.191406 1.292968-9.933594 3.425781-4.761718 3.710937-6.835937 9.925781-5.738281 15.859375l4.136719 22.34375c3.210937 16.554688 22.070312 8.921875 22.070312 8.921875zm0 0" fill="#efd0af"/><path d="m327.511719 145.21875 10.335937-.035156c3.746094-.011719 7.199219 1.238281 9.957032 3.355468 4.789062 3.675782 6.90625 9.878907 5.847656 15.820313l-3.984375 22.367187c-3.09375 16.582032-22.007813 9.074219-22.007813 9.074219zm0 0" fill="#efd0af"/><path d="m301.8125 62.054688c-13.484375-12.382813-32.417969-23.164063-57.378906-23.378907-24.960938.382813-43.820313 11.296875-57.21875 23.773438-17.09375 15.914062-26.300782 39.492187-26.21875 63.789062l.011718 2.933594h.023438l.289062 84.691406c.554688 23.617188 16.914063 39.914063 31.125 53.910157 13.078126 12.878906 27.910157 28.085937 52.875 28.300781 24.957032-.386719 39.6875-15.699219 52.675782-28.664063 14.113281-14.09375 30.359375-30.503906 30.753906-54.125l-.292969-84.691406h.023438l-.011719-2.933594c-.085938-24.296875-9.457031-47.808594-26.65625-63.605468zm0 0" fill="#fae0c1"/><path d="m328.453125 128.597656h.023437l-.007812-2.9375c-.085938-24.296875-9.453125-47.808594-26.65625-63.605468-7.039062-6.464844-15.566406-12.492188-25.660156-16.808594l.261718 168.042968c-.390624 23.617188-16.636718 40.027344-30.753906 54.121094-7.699218 7.683594-16.011718 16.195313-26.699218 21.933594 7.449218 3.988281 16.039062 6.640625 26.355468 6.730469 24.960938-.386719 39.6875-15.699219 52.675782-28.667969 14.117187-14.089844 30.363281-30.5 30.753906-54.121094zm0 0" fill="#efd0af"/><path d="m407.480469 123.480469c-.058594-16.882813-72.910157-33.566407-162.894531-33.371094v-.003906c-.15625 0-.308594 0-.460938.003906-.15625 0-.308594 0-.464844 0-89.984375.425781-162.71875 17.609375-162.660156 34.492187.089844 26.207032 72.957031 47.214844 162.941406 47.050782h.460938.464844v-.003906c89.980468-.453126 162.703124-21.964844 162.613281-48.167969zm0 0" fill="#525467"/><path d="m367.09375 102.046875c-.289062 26.113281-72.863281 47.507813-162.613281 47.964844-.15625.003906-.308594 0-.460938 0-.15625.003906-.308593.003906-.464843.003906v-.003906c-46.554688.085937-88.53125-5.496094-118.214844-14.535157 16.9375 20.90625 81.484375 36.316407 158.601562 36.175782h.460938.460937v-.003906c89.984375-.457032 162.707031-21.964844 162.617188-48.167969-.027344-7.71875-15.261719-15.394531-40.386719-21.433594zm0 0" fill="#454851"/><path d="m331.578125 103.9375-20.378906-86.96875c-3.109375-13.269531-17.425781-20.535156-29.972657-15.210938l-29.632812 12.574219c-5.511719 2.335938-11.738281 2.328125-17.242188-.03125l-27.789062-11.917969c-12.613281-5.410156-27.042969 1.945313-30.082031 15.328126 0 0-20.175781 88.164062-20.175781 88.84375.039062 10.785156 39.410156 19.390624 87.941406 19.222656 48.53125-.164063 87.84375-9.042969 87.804687-19.828125-.003906-.679688-.164062-1.351563-.472656-2.011719zm0 0" fill="#676a75"/><path d="m244.246094 125.777344c48.53125-.164063 87.839844-9.042969 87.804687-19.828125-.003906-.679688-.164062-1.351563-.472656-2.015625l-20.378906-86.964844c-3.109375-13.269531-17.425781-20.535156-29.972657-15.210938l-27.734374 11.769532 19.722656 84.164062c1.625 6.945313-3.414063 13.714844-10.539063 14.074219-5.945312.304687-12.109375.472656-18.429687.496094-41.960938.144531-77.070313-6.269531-85.835938-14.976563l-.0625.019532c-1.257812 5.578124-2.042968 9.117187-2.042968 9.25.039062 10.785156 39.410156 19.390624 87.941406 19.222656zm0 0" fill="#454851"/><path d="m370.121094 296.691406c-14.402344-11.035156-51.230469-33.394531-61.910156-39.828125-3.367188 3.691407-6.851563 7.183594-10.21875 10.546875-2.402344 2.398438-4.863282 4.875-7.4375 7.324219l.078124 23.148437c0 .101563.003907.207032.003907.308594 0 .035156 0 .070313.003906.109375 0 .070313.003906.140625.003906.210938.253907 7.6875 4.671875 16.042969 11.222657 20.046875 1.191406-.605469 5.929687 10.359375 3.035156 16.078125l-60.664063 143.621093 108.152344-91.6875-18.746094-25.011718 38.492188-48.835938c3.917969-4.972656 3.011719-12.183594-2.015625-16.03125zm0 0" fill="#a37c52"/><path d="m244.238281 478.257812-60.660156-143.621093c-2.765625-5.464844 1.941406-15.601563 2.398437-15.355469 6.816407-3.902344 11.410157-12.523438 11.632813-20.414062 0-.082032.003906-.164063.003906-.246094.003907-.035156.003907-.066406.003907-.101563 0-.105469 0-.210937 0-.316406l-.085938-25.445313c-1.734375-1.675781-3.425781-3.347656-5.085938-4.984374-3.703124-3.644532-7.542968-7.445313-11.21875-11.488282-9.214843 5.542969-47.996093 29.011719-62.871093 40.40625-5.027344 3.847656-5.933594 11.058594-2.015625 16.03125l38.492187 48.835938-18.746093 25.011718zm0 0" fill="#a37c52"/><path d="m258.667969 374.667969h-28.855469l-6.628906 53.734375 21.054687 49.855468 21.058594-49.855468zm0 0" fill="#2a4d5e"/><path d="m304.902344 334.636719c2.851562-5.636719-1.703125-16.359375-2.976563-16.097657-1.109375.554688-2.175781 1.210938-3.183593 1.96875-16.109376 12.125-35.210938 18.289063-54.367188 18.496094-.046875 0-.09375.003906-.136719.003906v.007813l41.589844 40.777344zm0 0" fill="#bebebe"/><path d="m185.976562 319.28125c-.460937-.238281-5.164062 9.894531-2.398437 15.355469l19.070313 45.15625 41.589843-40.777344v-.007813c-19.574219.1875-39.195312-5.84375-55.738281-18.121093-.808594-.597657-1.652344-1.132813-2.523438-1.605469zm0 0" fill="#bebebe"/><path d="m301.878906 318.5625c-6.738281-4.109375-11.21875-12.820312-11.246094-20.679688l-.078124-23.144531c-10.6875 10.164063-23.320313 19.824219-41.742188 21.179688l.039062 23.355469c.023438 6.746093 3.328126 14.117187 8.523438 18.671874 14.671875-2.25 28.914062-8.0625 41.367188-17.4375.992187-.746093 2.042968-1.394531 3.136718-1.945312zm0 0" fill="#efd0af"/><path d="m362.785156 475.773438h-47.539062c-2.421875 0-4.390625-1.964844-4.390625-4.390626v-18.347656c0-2.425781 1.964843-4.390625 4.390625-4.390625h47.539062c2.421875 0 4.390625 1.964844 4.390625 4.390625v18.347656c0 2.425782-1.964843 4.390626-4.390625 4.390626zm0 0" fill="#f79f48"/><path d="m394.761719 410.707031c-.886719-4.171875-4.992188-6.828125-9.164063-5.949219-4.175781.886719-6.839844 4.992188-5.949218 9.164063l20.914062 98.078125h15.796875zm0 0" fill="#a37c52"/><path d="m88.183594 511.734375 20.054687-96.878906c.859375-4.179688-1.832031-8.265625-6.011719-9.121094-4.183593-.859375-8.265624 1.832031-9.125 6.011719l-20.707031 100.042968zm0 0" fill="#a37c52"/><path d="m488.183594 497.019531-26.277344-111.726562c-5.015625-21.328125-21.703125-37.964844-43.046875-42.914063l-58.367187-14.882812-26.847657 34.0625 2.203125 2.9375 34.769532 8.867187c21.34375 4.949219 38.03125 21.585938 43.046874 42.914063l22.472657 95.722656h41.492187c7-.023438 12.15625-8.164062 10.554688-14.980469zm0 0" fill="#b7825a"/></svg>