<svg xmlns="http://www.w3.org/2000/svg" height="511pt" version="1.1" viewBox="0 0 511.99962 511" width="511pt">
<g id="surface1">
<path d="M 504.964844 248.871094 L 481.167969 277.320312 L 499.410156 310.425781 C 503.304688 317.480469 504.105469 325.925781 501.625 333.589844 C 499.132812 341.257812 493.519531 347.609375 486.222656 351.042969 L 452.140625 367.035156 L 455.332031 404.539062 C 456.59375 419.390625 446.34375 432.859375 431.496094 435.890625 L 430.824219 436.03125 L 428.933594 436.230469 L 389.117188 437.03125 L 376.765625 472.597656 C 374.136719 480.203125 368.390625 486.457031 361.027344 489.726562 C 353.660156 493.011719 345.183594 493.089844 337.761719 489.96875 L 303.066406 475.339844 L 277.328125 502.808594 C 271.695312 508.820312 264.019531 511.921875 256.234375 511.992188 C 256.152344 512.003906 256.0625 512.003906 255.984375 512.003906 C 249.75 512.003906 243.464844 510.050781 238.089844 506.078125 L 237.511719 505.660156 L 236.089844 504.378906 L 208.882812 475.339844 L 174.1875 489.96875 C 166.753906 493.089844 158.277344 493.011719 150.910156 489.726562 C 143.554688 486.457031 137.8125 480.210938 135.171875 472.585938 L 122.832031 437.03125 L 85.195312 436.28125 C 77.128906 436.121094 69.414062 432.589844 64.03125 426.605469 C 58.636719 420.609375 55.9375 412.566406 56.617188 404.539062 L 59.808594 367.035156 L 25.726562 351.042969 C 12.234375 344.707031 5.691406 329.085938 10.496094 314.71875 L 10.714844 314.066406 L 11.484375 312.316406 L 30.769531 277.320312 L 6.980469 248.871094 C -2.675781 237.59375 -2.273438 220.753906 7.933594 209.605469 L 8.421875 209.066406 L 10.183594 207.535156 L 40.574219 183.886719 L 29.628906 147.753906 C 25.246094 133.28125 32.289062 118.3125 46.378906 112.148438 L 47.050781 111.859375 L 48.851562 111.265625 L 87.636719 102.210938 L 92.320312 64.855469 C 93.320312 56.859375 97.632812 49.554688 104.160156 44.820312 C 110.671875 40.089844 118.949219 38.238281 126.863281 39.75 L 163.839844 46.84375 L 183.304688 14.621094 C 187.476562 7.726562 194.390625 2.8125 202.277344 1.132812 C 210.152344 -0.539062 218.46875 1.140625 225.074219 5.746094 L 255.972656 27.257812 L 256.234375 27.078125 L 288.054688 4.902344 C 288.90625 4.3125 289.828125 3.785156 290.789062 3.34375 C 304.605469 -3.050781 320.878906 1.792969 328.632812 14.621094 L 348.105469 46.84375 L 385.074219 39.75 C 392.988281 38.226562 401.273438 40.078125 407.796875 44.820312 C 414.304688 49.542969 418.625 56.851562 419.625 64.855469 L 424.308594 102.199219 L 460.964844 110.765625 C 468.820312 112.597656 475.625 117.652344 479.65625 124.625 C 483.691406 131.613281 484.652344 140.039062 482.320312 147.753906 L 471.363281 183.898438 L 500.503906 206.574219 C 506.875 211.445312 511 218.800781 511.839844 226.777344 C 512.679688 234.753906 510.167969 242.789062 504.964844 248.871094 Z M 504.964844 248.871094 " style=" stroke:none;fill-rule:nonzero;fill:rgb(100%,50.588235%,42.352941%);fill-opacity:1;" />
<path d="M 504.964844 248.871094 L 481.167969 277.320312 L 499.410156 310.425781 C 503.304688 317.480469 504.105469 325.925781 501.625 333.589844 C 499.132812 341.257812 493.519531 347.609375 486.222656 351.042969 L 452.140625 367.035156 L 455.332031 404.539062 C 456.59375 419.390625 446.34375 432.859375 431.496094 435.890625 L 430.824219 436.03125 L 428.933594 436.230469 L 389.117188 437.03125 L 376.765625 472.597656 C 374.136719 480.203125 368.390625 486.457031 361.027344 489.726562 C 353.660156 493.011719 345.183594 493.089844 337.761719 489.96875 L 303.066406 475.339844 L 277.328125 502.808594 C 271.695312 508.820312 264.019531 511.921875 256.234375 511.992188 L 256.234375 27.078125 L 288.054688 4.902344 C 288.90625 4.3125 289.828125 3.785156 290.789062 3.34375 C 304.605469 -3.050781 320.878906 1.792969 328.632812 14.621094 L 348.105469 46.84375 L 385.074219 39.75 C 392.988281 38.226562 401.273438 40.078125 407.796875 44.820312 C 414.304688 49.542969 418.625 56.851562 419.625 64.855469 L 424.308594 102.199219 L 460.964844 110.765625 C 468.820312 112.597656 475.625 117.652344 479.65625 124.625 C 483.691406 131.613281 484.652344 140.039062 482.320312 147.753906 L 471.363281 183.898438 L 500.503906 206.574219 C 506.875 211.445312 511 218.800781 511.839844 226.777344 C 512.679688 234.753906 510.167969 242.789062 504.964844 248.871094 Z M 504.964844 248.871094 " style=" stroke:none;fill-rule:nonzero;fill:rgb(93.72549%,24.313725%,20.784314%);fill-opacity:1;" />
<path d="M 383.496094 256.25 C 383.496094 326.398438 326.539062 383.5 256.449219 383.75 L 256 383.75 C 185.703125 383.75 128.5 326.550781 128.5 256.25 C 128.5 185.953125 185.703125 128.753906 256 128.753906 L 256.449219 128.753906 C 326.539062 129.003906 383.496094 186.101562 383.496094 256.25 Z M 383.496094 256.25 " style=" stroke:none;fill-rule:nonzero;fill:rgb(100%,100%,100%);fill-opacity:1;" />
<path d="M 383.496094 256.25 C 383.496094 326.398438 326.539062 383.5 256.449219 383.75 L 256.449219 128.753906 C 326.539062 129.003906 383.496094 186.101562 383.496094 256.25 Z M 383.496094 256.25 " style=" stroke:none;fill-rule:nonzero;fill:rgb(88.235294%,92.156863%,94.117647%);fill-opacity:1;" />
<path d="M 301.984375 283.558594 C 307.839844 289.414062 307.839844 298.921875 301.984375 304.785156 C 299.054688 307.71875 295.210938 309.179688 291.367188 309.179688 C 287.527344 309.179688 283.683594 307.71875 280.75 304.785156 L 256.453125 280.476562 L 232.148438 304.785156 C 229.214844 307.71875 225.371094 309.179688 221.53125 309.179688 C 217.6875 309.179688 213.855469 307.71875 210.921875 304.785156 C 205.058594 298.921875 205.058594 289.414062 210.921875 283.558594 L 235.21875 259.253906 L 210.921875 234.945312 C 205.058594 229.09375 205.058594 219.585938 210.921875 213.722656 C 216.777344 207.859375 226.285156 207.859375 232.148438 213.722656 L 256.453125 238.027344 L 280.75 213.722656 C 286.613281 207.859375 296.121094 207.859375 301.984375 213.722656 C 307.839844 219.585938 307.839844 229.09375 301.984375 234.945312 L 277.679688 259.253906 Z M 301.984375 283.558594 " style=" stroke:none;fill-rule:nonzero;fill:rgb(70.588235%,82.352941%,84.313725%);fill-opacity:1;" />
<path d="M 301.984375 283.558594 C 307.839844 289.414062 307.839844 298.921875 301.984375 304.785156 C 299.054688 307.71875 295.210938 309.179688 291.367188 309.179688 C 287.527344 309.179688 283.683594 307.71875 280.75 304.785156 L 256.453125 280.476562 L 256.453125 238.027344 L 280.75 213.722656 C 286.613281 207.859375 296.121094 207.859375 301.984375 213.722656 C 307.839844 219.585938 307.839844 229.09375 301.984375 234.945312 L 277.679688 259.253906 Z M 301.984375 283.558594 " style=" stroke:none;fill-rule:nonzero;fill:rgb(43.529412%,64.705882%,66.666667%);fill-opacity:1;" />
</g>
</svg>