<svg height="512pt" viewBox="0 -32 512.001 512" width="512pt" xmlns="http://www.w3.org/2000/svg"><path d="m250.464844 43.042969-27.519532-35.832031c-3.492187-4.542969-8.898437-7.210938-14.628906-7.210938h-166.675781c-10.1875 0-18.445313 8.257812-18.445313 18.445312v278.933594h465.609376v-228.683594c0-10.1875-8.257813-18.445312-18.445313-18.445312h-205.269531c-5.730469 0-11.136719-2.664062-14.625-7.207031zm0 0" fill="#f79f48"/><path d="m265.089844 50.25c-5.730469 0-11.136719-2.664062-14.625-7.210938l-27.519532-35.828124c-3.492187-4.546876-8.898437-7.210938-14.628906-7.210938h-42.800781l35.53125 46.261719c1.929687 2.515625 4.921875 3.988281 8.09375 3.988281zm0 0" fill="#ef8229"/><path d="m470.359375 50.25h-33.449219v247.125h51.894532v-228.679688c0-10.1875-8.257813-18.445312-18.445313-18.445312zm0 0" fill="#ef8229"/><path d="m445.511719 418.191406h-379.023438c-5.277343 0-9.558593-4.277344-9.558593-9.558594v-312.582031c0-5.28125 4.28125-9.5625 9.558593-9.5625h379.023438c5.277343 0 9.558593 4.28125 9.558593 9.5625v312.582031c0 5.28125-4.28125 9.558594-9.558593 9.558594zm0 0" fill="#ededed"/><path d="m497.964844 448.703125h-483.929688c-7.75 0-14.035156-6.285156-14.035156-14.035156v-270.867188c0-7.75 6.285156-14.035156 14.035156-14.035156h483.929688c7.75 0 14.035156 6.28125 14.035156 14.035156v270.867188c0 7.75-6.285156 14.035156-14.035156 14.035156zm0 0" fill="#ffe471"/><g fill="#676a75"><path d="m349.703125 313.242188h-38.96875c-4.265625 0-7.726563-3.457032-7.726563-7.726563 0-4.265625 3.460938-7.726563 7.726563-7.726563h38.96875c4.269531 0 7.726563 3.460938 7.726563 7.726563 0 4.269531-3.457032 7.726563-7.726563 7.726563zm0 0"/><path d="m201.265625 313.242188h-38.96875c-4.265625 0-7.726563-3.457032-7.726563-7.726563 0-4.265625 3.460938-7.726563 7.726563-7.726563h38.96875c4.265625 0 7.726563 3.460938 7.726563 7.726563 0 4.269531-3.460938 7.726563-7.726563 7.726563zm0 0"/><path d="m302.394531 286.292969c-3.019531 0-5.890625-1.785157-7.128906-4.746094-1.648437-3.9375.207031-8.460937 4.144531-10.109375l15.910156-6.660156c9.332032-3.90625 15.960938-12.558594 17.296876-22.585938l3.546874-26.605468c.5625-4.230469 4.453126-7.207032 8.679688-6.636719 4.226562.5625 7.199219 4.449219 6.636719 8.679687l-3.546875 26.601563c-2.058594 15.449219-12.269532 28.785156-26.648438 34.800781l-15.910156 6.660156c-.976562.40625-1.984375.601563-2.980469.601563zm0 0"/><path d="m209.605469 286.292969c-.996094 0-2.003907-.195313-2.980469-.601563l-15.910156-6.660156c-14.378906-6.015625-24.589844-19.351562-26.648438-34.800781l-3.546875-26.601563c-.566406-4.230468 2.40625-8.117187 6.636719-8.679687 4.226562-.574219 8.113281 2.40625 8.679688 6.636719l3.546874 26.605468c1.335938 10.023438 7.964844 18.679688 17.296876 22.585938l15.910156 6.660156c3.9375 1.648438 5.792968 6.171875 4.144531 10.109375-1.238281 2.960937-4.109375 4.746094-7.128906 4.746094zm0 0"/><path d="m343.8125 399.210938c-3.8125 0-7.128906-2.824219-7.648438-6.707032l-3.546874-26.601562c-1.335938-10.027344-7.964844-18.683594-17.296876-22.589844l-15.910156-6.660156c-3.9375-1.648438-5.792968-6.171875-4.144531-10.109375s6.175781-5.789063 10.109375-4.144531l15.910156 6.65625c14.378906 6.019531 24.589844 19.355468 26.652344 34.804687l3.542969 26.601563c.566406 4.230468-2.40625 8.117187-6.636719 8.679687-.347656.046875-.691406.070313-1.03125.070313zm0 0"/><path d="m168.1875 399.210938c-.339844 0-.683594-.023438-1.03125-.070313-4.230469-.5625-7.203125-4.449219-6.636719-8.679687l3.546875-26.601563c2.058594-15.449219 12.269532-28.785156 26.648438-34.800781l15.910156-6.660156c3.9375-1.644532 8.464844.207031 10.109375 4.144531 1.648437 3.9375-.207031 8.464843-4.144531 10.113281l-15.910156 6.65625c-9.332032 3.90625-15.960938 12.5625-17.296876 22.589844l-3.546874 26.601562c-.519532 3.882813-3.835938 6.707032-7.648438 6.707032zm0 0"/></g><path d="m497.964844 149.765625h-37.855469v298.9375h37.855469c7.75 0 14.035156-6.285156 14.035156-14.035156v-270.867188c0-7.75-6.285156-14.035156-14.035156-14.035156zm0 0" fill="#f2ca20"/><path d="m216.167969 255.777344c6.140625-4.566406 13.753906-7.269532 21.996093-7.269532h35.675782c8.308594 0 15.976562 2.746094 22.140625 7.382813.441406-2.394531.671875-4.859375.671875-7.382813 0-22.449218-18.203125-40.648437-40.652344-40.648437s-40.652344 18.199219-40.652344 40.648437c0 2.523438.230469 4.988282.671875 7.382813.046875-.039063.097657-.074219.148438-.113281zm0 0" fill="#8c4949"/><path d="m276.859375 383.457031c-12.847656 7.675781-28.871094 7.675781-41.71875 0-21.011719-12.554687-33.875-35.230469-33.875-59.707031v-38.34375c0-20.378906 16.519531-36.898438 36.898437-36.898438h35.675782c20.375 0 36.894531 16.519532 36.894531 36.898438v38.34375c0 24.476562-12.863281 47.152344-33.875 59.707031zm0 0" fill="#f43b45"/><path d="m273.835938 248.507812h-35.675782c-8.238281 0-15.851562 2.703126-21.992187 7.269532-12.707031 9.449218-6.066407 29.628906 9.769531 29.628906h60.148438c15.484374 0 22.558593-19.71875 10.316406-29.195312-6.238282-4.828126-14.066406-7.703126-22.566406-7.703126zm0 0" fill="#cf3735"/><path d="m455.070312 149.765625v-53.71875c0-5.277344-4.28125-9.558594-9.558593-9.558594h-42.332031v63.273438h51.890624zm0 0" fill="#d6d6d6"/><path d="m263.5 285.40625h-15v103.1875c4.953125.960938 10.046875.960938 15 0zm0 0" fill="#cf3735"/></svg>