<svg xmlns="http://www.w3.org/2000/svg" height="512pt" version="1.1" viewBox="0 0 512 512" width="512pt">
<g id="surface1">
<path d="M 512 23.480469 L 512 488.519531 C 512 501.46875 501.460938 512 488.519531 512 L 23.46875 512 C 10.53125 512 0 501.46875 0 488.519531 L 0 23.480469 C 0 10.53125 10.53125 0 23.46875 0 L 488.519531 0 C 501.460938 0 512 10.53125 512 23.480469 Z M 512 23.480469 " style=" stroke:none;fill-rule:nonzero;fill:rgb(100%,50.588235%,42.352941%);fill-opacity:1;" />
<path d="M 512 23.480469 L 512 488.519531 C 512 501.46875 501.460938 512 488.519531 512 L 256 512 L 256 0 L 488.519531 0 C 501.460938 0 512 10.53125 512 23.480469 Z M 512 23.480469 " style=" stroke:none;fill-rule:nonzero;fill:rgb(93.72549%,24.313725%,20.784314%);fill-opacity:1;" />
<path d="M 512 153.660156 L 512 123.660156 L 347.539062 123.660156 L 347.539062 0 L 317.539062 0 L 317.539062 123.660156 L 148.03125 123.660156 L 148.03125 0 L 118.03125 0 L 118.03125 123.660156 L 0 123.660156 L 0 153.660156 L 240.761719 153.660156 L 240.761719 244.660156 L 0 244.660156 L 0 274.660156 L 138.03125 274.660156 L 138.03125 364.890625 L 0 364.890625 L 0 394.890625 L 151.480469 394.890625 C 151.988281 394.941406 152.511719 394.96875 153.03125 394.96875 C 153.550781 394.96875 154.070312 394.941406 154.578125 394.890625 L 240.761719 394.890625 L 240.761719 512 L 270.761719 512 L 270.761719 394.890625 L 380.988281 394.890625 C 381.5 394.941406 382.019531 394.96875 382.539062 394.96875 C 383.070312 394.96875 383.578125 394.941406 384.089844 394.890625 L 512 394.890625 L 512 364.890625 L 397.539062 364.890625 L 397.539062 274.660156 L 512 274.660156 L 512 244.660156 L 270.761719 244.660156 L 270.761719 153.660156 Z M 367.539062 274.660156 L 367.539062 364.890625 L 168.03125 364.890625 L 168.03125 274.660156 Z M 367.539062 274.660156 " style=" stroke:none;fill-rule:nonzero;fill:rgb(100%,76.862745%,46.666667%);fill-opacity:1;" />
<path d="M 270.761719 153.660156 L 270.761719 244.660156 L 512 244.660156 L 512 274.660156 L 397.539062 274.660156 L 397.539062 364.890625 L 512 364.890625 L 512 394.890625 L 384.089844 394.890625 C 383.578125 394.941406 383.070312 394.96875 382.539062 394.96875 C 382.019531 394.96875 381.5 394.941406 380.988281 394.890625 L 270.761719 394.890625 L 270.761719 512 L 256 512 L 256 364.890625 L 367.539062 364.890625 L 367.539062 274.660156 L 256 274.660156 L 256 123.660156 L 317.539062 123.660156 L 317.539062 0 L 347.539062 0 L 347.539062 123.660156 L 512 123.660156 L 512 153.660156 Z M 270.761719 153.660156 " style=" stroke:none;fill-rule:nonzero;fill:rgb(100%,56.862745%,0%);fill-opacity:1;" />
</g>
</svg>