<svg height="512pt" viewBox="0 -17 512.0002 512" width="512pt" xmlns="http://www.w3.org/2000/svg"><path d="m474.015625 309.800781-103.152344 69.035157-30.742187-1.726563-1.203125-12.097656c-1.792969-18.011719-15.660157-32.46875-33.582031-35.003907l-109.0625-9.558593c-10.6875-1.511719-33.167969-13.398438-50.792969-23.507813-16.710938-9.585937-35.589844-14.746094-54.851563-14.90625l-55.449218-.457031v135.554687l156.953124 59.4375c5.933594 1.675782 12.164063 2.175782 18.25 1.214844.035157-.007812.074219-.015625.109376-.019531l158.015624-22.777344c12.171876-1.941406 23.617188-7.070312 33.171876-14.859375l102.125-91.855468c9.167968-8.136719 10.867187-21.816407 3.96875-31.949219-7.542969-11.089844-22.625-14.003907-33.757813-6.523438zm0 0" fill="#fae0c1"/><path d="m507.773438 316.320312c-.679688-1.003906-1.429688-1.9375-2.226563-2.804687l-103.867187 76.277344c-9.554688 7.792969-21 12.917969-33.171876 14.863281l-158.015624 22.777344c-.039063.003906-.074219.011718-.109376.015625-6.089843.964843-12.320312.460937-18.25-1.214844l-156.957031-59.433594v50.332031l156.957031 59.433594c5.929688 1.675782 12.160157 2.179688 18.25 1.214844.035157-.003906.070313-.011719.109376-.015625l158.015624-22.777344c12.171876-1.945312 23.617188-7.070312 33.171876-14.863281l102.125-91.851562c9.167968-8.140626 10.867187-21.816407 3.96875-31.953126zm0 0" fill="#efd0af"/><path d="m75.867188 463.917969h-65.199219c-5.890625 0-10.667969-4.773438-10.667969-10.664063v-199.070312c0-5.890625 4.777344-10.667969 10.667969-10.667969h65.199219c5.890624 0 10.667968 4.777344 10.667968 10.667969v199.070312c0 5.890625-4.777344 10.664063-10.667968 10.664063zm0 0" fill="#f43b45"/><path d="m75.867188 243.515625h-39.578126v220.402344h39.578126c5.890624 0 10.667968-4.773438 10.667968-10.664063v-199.070312c0-5.890625-4.777344-10.667969-10.667968-10.667969zm0 0" fill="#cf3735"/><path d="m388.289062 69.902344c-25.765624-10.695313-43.761718-34.917969-46.222656-63.128906-.339844-3.859376-3.617187-6.7968755-7.492187-6.773438l-158.277344.929688c-3.917969.023437-7.121094 3.066406-7.421875 6.972656-2.171875 28.21875-19.902344 52.617187-45.546875 63.585937-4.339844 1.855469-6.949219 6.339844-6.460937 11.035157 3.597656 34.394531 24.542968 151.496093 138.730468 204.167968.472656.21875.996094.332032 1.519532.328125.523437-.003906 1.042968-.121093 1.515624-.34375 113.554688-54.003906 133.128907-171.339843 136.320313-205.777343.441406-4.734376-2.273437-9.175782-6.664063-10.996094zm0 0" fill="#75cff2"/><path d="m388.289062 69.902344c-25.765624-10.695313-43.761718-34.917969-46.222656-63.128906-.339844-3.859376-3.617187-6.7968755-7.492187-6.773438l-43.125.253906c.050781 30.9375 18.753906 58.101563 46.457031 69.625 4.402344 1.832032 7.15625 6.269532 6.714844 11.019532-2.960938 31.929687-20.019532 135.109374-112.992188 193.015624 7.5 4.574219 15.46875 8.855469 23.964844 12.777344.476562.21875 1 .332032 1.523438.328125.523437-.003906 1.042968-.121093 1.515624-.347656 113.554688-54.003906 133.128907-171.335937 136.320313-205.773437.441406-4.734376-2.273437-9.175782-6.664063-10.996094zm0 0" fill="#53b4e4"/><path d="m254.914062 254.085938c-78.132812-42.40625-100.792968-121.0625-107.289062-159.65625-.277344-1.652344.457031-3.316407 1.882812-4.199219 21.226563-13.160157 36.726563-33.597657 43.722657-57.429688.515625-1.753906 2.132812-2.957031 3.960937-2.964843l116.816406-.6875c1.828126-.011719 3.457032 1.171874 3.996094 2.921874 7.273438 23.742188 23.011719 43.996094 44.394532 56.910157 1.433593.867187 2.1875 2.519531 1.929687 4.175781-6.039063 38.671875-27.765625 117.589844-105.402344 160.90625-1.242187.691406-2.765625.699219-4.011719.023438zm0 0" fill="#e1e0de"/><path d="m362.398438 88.980469c-21.382813-12.914063-37.121094-33.167969-44.394532-56.910157-.535156-1.75-2.167968-2.929687-3.996094-2.921874l-47.101562.277343c6.890625 24.882813 22.992188 46.167969 45.164062 59.558594 1.433594.863281 2.183594 2.515625 1.925782 4.164063-5.398438 34.566406-23.332032 101.292968-82.53125 146.003906 7.203125 5.335937 15 10.347656 23.449218 14.933594 1.246094.675781 2.769532.667968 4.011719-.023438 77.636719-43.3125 99.363281-122.234375 105.402344-160.902344.261719-1.65625-.496094-3.3125-1.929687-4.179687zm0 0" fill="#d6d6d6"/><path d="m61.457031 414.949219c0 10.828125-8.78125 19.609375-19.609375 19.609375-10.832031 0-19.609375-8.78125-19.609375-19.609375 0-10.832031 8.777344-19.609375 19.609375-19.609375 10.828125 0 19.609375 8.777344 19.609375 19.609375zm0 0" fill="#d6d6d6"/><path d="m252.40625 177.949219c2.492188-.011719 4.964844-1.1875 6.441406-3.414063l51.421875-77.609375c2.359375-3.558593 1.386719-8.351562-2.171875-10.710937-3.554687-2.355469-8.351562-1.382813-10.707031 2.175781l-46.339844 69.933594-25.75-24.449219c-3.097656-2.9375-7.984375-2.8125-10.925781.285156-2.9375 3.09375-2.808594 7.984375.285156 10.921875 0 0 32.417969 30.78125 32.429688 30.789063 1.484375 1.410156 3.40625 2.089844 5.316406 2.078125zm0 0" fill="#505264"/><path d="m339.238281 368.234375-158.472656 10.574219c-.105469-.003906-.207031-.011719-.296875-.019532-4.914062-.445312-9.355469-2.769531-12.507812-6.546874-2.84375-3.410157-7.914063-3.871094-11.320313-1.027344-3.410156 2.84375-3.867187 7.914062-1.027344 11.324218 5.902344 7.074219 14.214844 11.429688 23.417969 12.261719.390625.035157.78125.0625 1.113281.074219.238281.011719.476563.015625.714844.015625.089844 0 .273437 0 .359375-.003906.078125-.003907.152344-.007813.226562-.011719l158.671876-17.792969zm0 0" fill="#efd0af"/></svg>