<svg height="512pt" viewBox="0 -83 512.00002 512" width="512pt" xmlns="http://www.w3.org/2000/svg"><path d="m465.027344 301.824219h-454.050782c-6.0625 0-10.976562-4.914063-10.976562-10.976563v-279.871094c0-6.0625 4.914062-10.976562 10.976562-10.976562h454.050782c6.0625 0 10.976562 4.914062 10.976562 10.976562v279.871094c0 6.0625-4.914062 10.976563-10.976562 10.976563zm0 0" fill="#f469ca"/><path d="m465.027344 0h-40.261719v273.511719h-424.765625v17.335937c0 6.0625 4.914062 10.976563 10.976562 10.976563h454.050782c6.0625 0 10.976562-4.914063 10.976562-10.976563v-279.871094c0-6.0625-4.914062-10.976562-10.976562-10.976562zm0 0" fill="#ea57b6"/><path d="m0 49.753906h476.003906v55.398438h-476.003906zm0 0" fill="#676a75"/><path d="m465.027344 0h-40.261719v273.511719h-424.765625v17.335937c0 6.0625 4.914062 10.976563 10.976562 10.976563h454.050782c6.0625 0 10.976562-4.914063 10.976562-10.976563v-279.871094c0-6.0625-4.914062-10.976562-10.976562-10.976562zm0 0" fill="#ea57b6"/><path d="m424.765625 49.753906h51.238281v55.398438h-51.238281zm0 0" fill="#454851"/><path d="m512 268.761719c0 42.929687-34.804688 77.734375-77.734375 77.734375-42.933594 0-77.734375-34.804688-77.734375-77.734375 0-42.933594 34.800781-77.734375 77.734375-77.734375 42.929687 0 77.734375 34.800781 77.734375 77.734375zm0 0" fill="#f79f48"/><path d="m434.265625 191.027344c-9.09375 0-17.816406 1.574218-25.925781 4.445312 30.179687 10.675782 51.808594 39.453125 51.808594 73.289063 0 33.839843-21.628907 62.609375-51.808594 73.289062 8.109375 2.871094 16.832031 4.445313 25.925781 4.445313 42.933594 0 77.734375-34.800782 77.734375-77.734375 0-42.933594-34.804688-77.734375-77.734375-77.734375zm0 0" fill="#ef8229"/><path d="m113.703125 240.582031c0 18.1875-14.742187 32.929688-32.929687 32.929688s-32.929688-14.742188-32.929688-32.929688 14.742188-32.933593 32.929688-32.933593 32.929687 14.746093 32.929687 32.933593zm0 0" fill="#e1e0de"/><path d="m159.109375 240.582031c0 18.1875-14.742187 32.929688-32.929687 32.929688s-32.933594-14.742188-32.933594-32.929688 14.746094-32.933593 32.933594-32.933593 32.929687 14.746093 32.929687 32.933593zm0 0" fill="#bebebe"/><path d="m159.109375 133.996094h-111.265625c-4.269531 0-7.726562 3.460937-7.726562 7.726562s3.457031 7.726563 7.726562 7.726563h111.265625c4.269531 0 7.726563-3.460938 7.726563-7.726563s-3.457032-7.726562-7.726563-7.726562zm0 0" fill="#75cff2"/><path d="m159.109375 165.160156h-111.265625c-4.269531 0-7.726562 3.457032-7.726562 7.726563 0 4.265625 3.457031 7.726562 7.726562 7.726562h111.265625c4.269531 0 7.726563-3.460937 7.726563-7.726562 0-4.269531-3.457032-7.726563-7.726563-7.726563zm0 0" fill="#75cff2"/><path d="m418.148438 262.511719v-18.925781c0-8.890626 7.230468-16.121094 16.117187-16.121094 8.890625 0 16.121094 7.230468 16.121094 16.121094v18.925781h15.453125v-18.925781c0-17.410157-14.164063-31.574219-31.574219-31.574219-17.40625 0-31.570313 14.164062-31.570313 31.574219v18.925781zm0 0" fill="#e1e0de"/><path d="m469.058594 312.027344h-69.585938c-1.898437 0-3.4375-1.539063-3.4375-3.4375v-49.765625c0-1.898438 1.539063-3.4375 3.4375-3.4375h69.585938c1.898437 0 3.4375 1.539062 3.4375 3.4375v49.765625c0 1.898437-1.539063 3.4375-3.4375 3.4375zm0 0" fill="#ffe471"/></svg>