<svg xmlns="http://www.w3.org/2000/svg" height="512pt" version="1.1" viewBox="0 0 512 512" width="512pt">
<g id="surface1">
<path d="M 511.839844 17.710938 L 511.839844 494.289062 C 511.839844 504.050781 503.890625 512 494.128906 512 L 243.730469 512 C 233.96875 512 226.019531 504.050781 226.019531 494.289062 L 226.019531 17.710938 C 226.019531 7.941406 233.96875 0 243.730469 0 L 494.128906 0 C 503.890625 0 511.839844 7.941406 511.839844 17.710938 Z M 511.839844 17.710938 " style=" stroke:none;fill-rule:nonzero;fill:rgb(70.588235%,82.352941%,84.313725%);fill-opacity:1;" />
<path d="M 511.839844 17.710938 L 511.839844 494.289062 C 511.839844 504.050781 503.890625 512 494.128906 512 L 369.378906 512 L 369.378906 0 L 494.128906 0 C 503.890625 0 511.839844 7.941406 511.839844 17.710938 Z M 511.839844 17.710938 " style=" stroke:none;fill-rule:nonzero;fill:rgb(43.529412%,64.705882%,66.666667%);fill-opacity:1;" />
<path d="M 423.929688 150.429688 C 423.929688 181.050781 399.691406 206.109375 369.378906 207.421875 C 368.550781 207.460938 367.71875 207.480469 366.878906 207.480469 L 17.339844 207.480469 C 7.78125 207.480469 0 199.710938 0 190.148438 L 0 110.710938 C 0 101.148438 7.78125 93.378906 17.339844 93.378906 L 366.878906 93.378906 C 367.71875 93.378906 368.550781 93.398438 369.378906 93.441406 C 399.691406 94.75 423.929688 119.808594 423.929688 150.429688 Z M 423.929688 150.429688 " style=" stroke:none;fill-rule:nonzero;fill:rgb(88.235294%,92.156863%,94.117647%);fill-opacity:1;" />
<path d="M 414.425781 317.523438 C 414.425781 337.355469 401.664062 354.253906 383.925781 360.464844 L 383.925781 403.34375 C 383.925781 411.484375 377.453125 418.09375 369.375 418.335938 C 369.226562 418.34375 369.074219 418.34375 368.925781 418.34375 C 360.644531 418.34375 353.925781 411.636719 353.925781 403.34375 L 353.925781 360.464844 C 336.195312 354.253906 323.433594 337.355469 323.433594 317.523438 C 323.433594 292.445312 343.84375 272.035156 368.925781 272.035156 L 369.375 272.035156 C 394.253906 272.285156 414.425781 292.59375 414.425781 317.523438 Z M 414.425781 317.523438 " style=" stroke:none;fill-rule:nonzero;fill:rgb(100%,100%,100%);fill-opacity:1;" />
<path d="M 414.425781 317.523438 C 414.425781 337.355469 401.664062 354.253906 383.925781 360.464844 L 383.925781 403.34375 C 383.925781 411.484375 377.453125 418.09375 369.375 418.335938 L 369.375 272.035156 C 394.253906 272.285156 414.425781 292.59375 414.425781 317.523438 Z M 414.425781 317.523438 " style=" stroke:none;fill-rule:nonzero;fill:rgb(88.235294%,92.156863%,94.117647%);fill-opacity:1;" />
<path d="M 423.929688 150.429688 C 423.929688 181.050781 399.691406 206.109375 369.378906 207.421875 L 369.378906 93.441406 C 399.691406 94.75 423.929688 119.808594 423.929688 150.429688 Z M 423.929688 150.429688 " style=" stroke:none;fill-rule:nonzero;fill:rgb(70.588235%,82.352941%,84.313725%);fill-opacity:1;" />
</g>
</svg>