<svg xmlns="http://www.w3.org/2000/svg" height="512pt" version="1.1" viewBox="0 -32 512 512" width="512pt">
<g id="surface1">
<path d="M 512 16.871094 L 512 430.53125 C 512 439.839844 504.429688 447.410156 495.128906 447.410156 L 16.871094 447.410156 C 7.570312 447.410156 0 439.839844 0 430.53125 L 0 16.871094 C 0 7.570312 7.570312 0 16.871094 0 L 495.128906 0 C 504.429688 0 512 7.570312 512 16.871094 Z M 512 16.871094 " style=" stroke:none;fill-rule:nonzero;fill:rgb(60.392157%,90.196078%,96.862745%);fill-opacity:1;" />
<path d="M 512 16.871094 L 512 430.53125 C 512 439.839844 504.429688 447.410156 495.128906 447.410156 L 255.941406 447.410156 L 255.941406 0 L 495.128906 0 C 504.429688 0 512 7.570312 512 16.871094 Z M 512 16.871094 " style=" stroke:none;fill-rule:nonzero;fill:rgb(18.431373%,75.294118%,94.117647%);fill-opacity:1;" />
<path d="M 512 16.871094 L 512 114.160156 L 0 114.160156 L 0 16.871094 C 0 7.570312 7.570312 0 16.871094 0 L 495.128906 0 C 504.429688 0 512 7.570312 512 16.871094 Z M 512 16.871094 " style=" stroke:none;fill-rule:nonzero;fill:rgb(88.235294%,92.156863%,94.117647%);fill-opacity:1;" />
<path d="M 68.738281 72.082031 C 68.25 72.082031 67.761719 72.054688 67.269531 72.003906 C 66.78125 71.953125 66.289062 71.882812 65.808594 71.78125 C 65.328125 71.691406 64.859375 71.570312 64.390625 71.421875 C 63.921875 71.28125 63.460938 71.113281 63.011719 70.933594 C 62.550781 70.742188 62.109375 70.53125 61.679688 70.304688 C 61.25 70.074219 60.820312 69.824219 60.421875 69.554688 C 60.011719 69.28125 59.609375 68.984375 59.230469 68.671875 C 58.851562 68.363281 58.480469 68.03125 58.140625 67.683594 C 55.339844 64.894531 53.738281 61.03125 53.738281 57.082031 C 53.738281 56.59375 53.769531 56.09375 53.820312 55.601562 C 53.871094 55.121094 53.941406 54.632812 54.039062 54.152344 C 54.128906 53.675781 54.25 53.191406 54.398438 52.722656 C 54.539062 52.261719 54.710938 51.792969 54.890625 51.34375 C 55.078125 50.894531 55.289062 50.441406 55.519531 50.011719 C 55.75 49.582031 56 49.160156 56.269531 48.753906 C 56.539062 48.34375 56.839844 47.941406 57.148438 47.570312 C 57.460938 47.191406 57.789062 46.820312 58.140625 46.472656 C 58.480469 46.121094 58.851562 45.789062 59.230469 45.480469 C 59.609375 45.171875 60.011719 44.882812 60.421875 44.613281 C 60.820312 44.34375 61.25 44.082031 61.679688 43.851562 C 62.109375 43.621094 62.550781 43.410156 63.011719 43.230469 C 63.460938 43.042969 63.921875 42.871094 64.390625 42.730469 C 64.859375 42.59375 65.328125 42.472656 65.808594 42.371094 C 66.289062 42.273438 66.78125 42.203125 67.269531 42.152344 C 68.25 42.050781 69.238281 42.050781 70.21875 42.152344 C 70.699219 42.203125 71.191406 42.273438 71.671875 42.371094 C 72.148438 42.472656 72.628906 42.59375 73.101562 42.730469 C 73.558594 42.871094 74.03125 43.042969 74.480469 43.230469 C 74.929688 43.410156 75.378906 43.621094 75.808594 43.851562 C 76.238281 44.082031 76.660156 44.34375 77.070312 44.613281 C 77.480469 44.882812 77.878906 45.171875 78.25 45.480469 C 78.628906 45.792969 79 46.121094 79.351562 46.472656 C 79.699219 46.820312 80.03125 47.191406 80.339844 47.570312 C 80.648438 47.941406 80.941406 48.34375 81.210938 48.753906 C 81.480469 49.160156 81.738281 49.582031 81.96875 50.011719 C 82.199219 50.441406 82.410156 50.894531 82.589844 51.34375 C 82.78125 51.792969 82.949219 52.261719 83.089844 52.722656 C 83.230469 53.191406 83.351562 53.671875 83.449219 54.152344 C 83.550781 54.632812 83.621094 55.121094 83.671875 55.601562 C 83.71875 56.09375 83.738281 56.59375 83.738281 57.082031 C 83.738281 61.03125 82.140625 64.894531 79.351562 67.683594 C 79 68.03125 78.628906 68.363281 78.25 68.671875 C 77.878906 68.984375 77.480469 69.28125 77.070312 69.554688 C 76.660156 69.824219 76.238281 70.074219 75.808594 70.304688 C 75.378906 70.53125 74.929688 70.742188 74.480469 70.933594 C 74.03125 71.113281 73.558594 71.28125 73.101562 71.421875 C 72.628906 71.570312 72.148438 71.691406 71.671875 71.78125 C 71.191406 71.882812 70.699219 71.953125 70.21875 72.003906 C 69.730469 72.054688 69.230469 72.082031 68.738281 72.082031 Z M 68.738281 72.082031 " style=" stroke:none;fill-rule:nonzero;fill:rgb(41.176471%,43.137255%,45.098039%);fill-opacity:1;" />
<path d="M 118.738281 72.082031 C 118.25 72.082031 117.761719 72.054688 117.269531 72.003906 C 116.78125 71.953125 116.289062 71.882812 115.808594 71.78125 C 115.328125 71.691406 114.859375 71.570312 114.390625 71.421875 C 113.921875 71.28125 113.460938 71.113281 113.011719 70.933594 C 112.558594 70.742188 112.109375 70.53125 111.679688 70.304688 C 111.25 70.074219 110.820312 69.824219 110.421875 69.554688 C 110.011719 69.28125 109.609375 68.984375 109.230469 68.671875 C 108.851562 68.363281 108.480469 68.03125 108.140625 67.683594 C 105.351562 64.894531 103.738281 61.03125 103.738281 57.082031 C 103.738281 56.59375 103.769531 56.09375 103.820312 55.601562 C 103.871094 55.121094 103.941406 54.632812 104.039062 54.152344 C 104.128906 53.675781 104.261719 53.191406 104.398438 52.722656 C 104.539062 52.261719 104.710938 51.792969 104.890625 51.34375 C 105.078125 50.894531 105.289062 50.441406 105.519531 50.011719 C 105.75 49.582031 106 49.160156 106.269531 48.753906 C 106.539062 48.34375 106.839844 47.941406 107.148438 47.570312 C 107.460938 47.191406 107.789062 46.820312 108.140625 46.472656 C 108.480469 46.121094 108.851562 45.789062 109.230469 45.480469 C 109.609375 45.171875 110.011719 44.882812 110.421875 44.613281 C 110.820312 44.34375 111.25 44.082031 111.679688 43.851562 C 112.109375 43.621094 112.558594 43.410156 113.011719 43.230469 C 113.460938 43.042969 113.921875 42.871094 114.390625 42.730469 C 114.859375 42.59375 115.328125 42.472656 115.808594 42.371094 C 116.289062 42.273438 116.78125 42.203125 117.269531 42.152344 C 118.25 42.050781 119.238281 42.050781 120.21875 42.152344 C 120.710938 42.203125 121.191406 42.273438 121.679688 42.371094 C 122.148438 42.472656 122.628906 42.59375 123.101562 42.730469 C 123.570312 42.871094 124.03125 43.042969 124.480469 43.230469 C 124.929688 43.410156 125.378906 43.621094 125.808594 43.851562 C 126.238281 44.082031 126.660156 44.34375 127.070312 44.613281 C 127.480469 44.882812 127.878906 45.171875 128.25 45.480469 C 128.640625 45.792969 129 46.121094 129.351562 46.472656 C 129.699219 46.820312 130.03125 47.191406 130.339844 47.570312 C 130.648438 47.941406 130.941406 48.34375 131.210938 48.753906 C 131.480469 49.160156 131.738281 49.582031 131.96875 50.011719 C 132.199219 50.441406 132.410156 50.894531 132.589844 51.34375 C 132.78125 51.792969 132.949219 52.261719 133.089844 52.722656 C 133.230469 53.191406 133.351562 53.671875 133.449219 54.152344 C 133.550781 54.632812 133.621094 55.121094 133.671875 55.601562 C 133.71875 56.09375 133.738281 56.59375 133.738281 57.082031 C 133.738281 61.03125 132.140625 64.894531 129.351562 67.683594 C 129 68.03125 128.640625 68.363281 128.25 68.671875 C 127.878906 68.984375 127.480469 69.28125 127.070312 69.554688 C 126.660156 69.824219 126.238281 70.074219 125.808594 70.304688 C 125.378906 70.53125 124.929688 70.742188 124.480469 70.933594 C 124.03125 71.113281 123.570312 71.28125 123.101562 71.421875 C 122.628906 71.570312 122.148438 71.691406 121.679688 71.78125 C 121.191406 71.882812 120.710938 71.953125 120.21875 72.003906 C 119.730469 72.054688 119.230469 72.082031 118.738281 72.082031 Z M 118.738281 72.082031 " style=" stroke:none;fill-rule:nonzero;fill:rgb(41.176471%,43.137255%,45.098039%);fill-opacity:1;" />
<path d="M 168.738281 72.082031 C 168.25 72.082031 167.761719 72.054688 167.269531 72.003906 C 166.78125 71.953125 166.289062 71.882812 165.808594 71.78125 C 165.328125 71.691406 164.859375 71.570312 164.390625 71.421875 C 163.921875 71.28125 163.460938 71.113281 163.011719 70.933594 C 162.558594 70.742188 162.109375 70.53125 161.679688 70.304688 C 161.25 70.074219 160.820312 69.824219 160.421875 69.554688 C 160.011719 69.28125 159.609375 68.984375 159.230469 68.671875 C 158.851562 68.363281 158.480469 68.03125 158.140625 67.683594 C 155.339844 64.894531 153.738281 61.03125 153.738281 57.082031 C 153.738281 56.59375 153.769531 56.09375 153.820312 55.601562 C 153.871094 55.121094 153.941406 54.632812 154.039062 54.152344 C 154.128906 53.675781 154.25 53.191406 154.398438 52.722656 C 154.539062 52.261719 154.710938 51.792969 154.890625 51.34375 C 155.078125 50.894531 155.289062 50.441406 155.519531 50.011719 C 155.75 49.582031 156 49.160156 156.269531 48.753906 C 156.539062 48.34375 156.839844 47.941406 157.148438 47.570312 C 157.460938 47.191406 157.789062 46.820312 158.140625 46.472656 C 161.269531 43.332031 165.78125 41.710938 170.21875 42.152344 C 170.699219 42.203125 171.191406 42.273438 171.671875 42.371094 C 172.148438 42.472656 172.628906 42.59375 173.101562 42.730469 C 173.558594 42.871094 174.03125 43.042969 174.480469 43.230469 C 174.929688 43.410156 175.378906 43.621094 175.808594 43.851562 C 176.238281 44.082031 176.660156 44.34375 177.070312 44.613281 C 177.480469 44.882812 177.878906 45.171875 178.25 45.480469 C 178.640625 45.792969 179 46.121094 179.351562 46.472656 C 179.699219 46.820312 180.03125 47.191406 180.339844 47.570312 C 180.648438 47.941406 180.941406 48.34375 181.21875 48.753906 C 181.480469 49.160156 181.738281 49.582031 181.96875 50.011719 C 182.199219 50.441406 182.410156 50.894531 182.589844 51.34375 C 182.78125 51.792969 182.949219 52.261719 183.089844 52.722656 C 183.230469 53.191406 183.351562 53.671875 183.449219 54.152344 C 183.550781 54.632812 183.621094 55.121094 183.671875 55.601562 C 183.71875 56.09375 183.738281 56.59375 183.738281 57.082031 C 183.738281 61.03125 182.140625 64.894531 179.351562 67.683594 C 179 68.03125 178.640625 68.363281 178.25 68.671875 C 177.878906 68.984375 177.480469 69.28125 177.070312 69.554688 C 176.660156 69.824219 176.238281 70.074219 175.808594 70.304688 C 175.378906 70.53125 174.929688 70.742188 174.480469 70.933594 C 174.03125 71.113281 173.558594 71.28125 173.101562 71.421875 C 172.628906 71.570312 172.148438 71.691406 171.671875 71.78125 C 171.191406 71.882812 170.699219 71.953125 170.21875 72.003906 C 169.730469 72.054688 169.230469 72.082031 168.738281 72.082031 Z M 168.738281 72.082031 " style=" stroke:none;fill-rule:nonzero;fill:rgb(41.176471%,43.137255%,45.098039%);fill-opacity:1;" />
<path d="M 66.910156 316.695312 L 66.910156 229.0625 C 66.910156 226.949219 67.964844 225.34375 70.078125 224.242188 C 72.191406 223.136719 74.71875 222.585938 77.65625 222.585938 C 80.597656 222.585938 83.121094 223.140625 85.238281 224.242188 C 87.347656 225.34375 88.40625 226.949219 88.40625 229.0625 L 88.40625 262.820312 L 115.824219 262.820312 L 115.824219 229.0625 C 115.824219 226.949219 116.882812 225.34375 118.996094 224.242188 C 121.105469 223.136719 123.632812 222.585938 126.574219 222.585938 C 129.511719 222.585938 132.039062 223.140625 134.152344 224.242188 C 136.265625 225.34375 137.320312 226.949219 137.320312 229.0625 L 137.320312 316.695312 C 137.320312 318.808594 136.265625 320.441406 134.152344 321.589844 C 132.039062 322.738281 129.511719 323.3125 126.574219 323.3125 C 123.632812 323.3125 121.109375 322.738281 118.996094 321.589844 C 116.882812 320.441406 115.824219 318.8125 115.824219 316.695312 L 115.824219 279.355469 L 88.40625 279.355469 L 88.40625 316.695312 C 88.40625 318.808594 87.347656 320.441406 85.238281 321.589844 C 83.121094 322.738281 80.597656 323.3125 77.65625 323.3125 C 74.71875 323.3125 72.191406 322.738281 70.078125 321.589844 C 67.964844 320.441406 66.910156 318.808594 66.910156 316.695312 Z M 66.910156 316.695312 " style=" stroke:none;fill-rule:nonzero;fill:rgb(100%,100%,100%);fill-opacity:1;" />
<path d="M 145.863281 231.824219 C 145.863281 229.324219 146.414062 227.160156 147.515625 225.332031 C 148.617188 223.503906 150.222656 222.585938 152.335938 222.585938 L 211.863281 222.585938 C 213.972656 222.585938 215.582031 223.503906 216.683594 225.332031 C 217.785156 227.160156 218.339844 229.324219 218.339844 231.824219 C 218.339844 234.503906 217.761719 236.753906 216.613281 238.585938 C 215.464844 240.414062 213.882812 241.324219 211.863281 241.324219 L 192.847656 241.324219 L 192.847656 316.652344 C 192.847656 318.777344 191.789062 320.421875 189.679688 321.578125 C 187.5625 322.734375 185.039062 323.308594 182.101562 323.308594 C 179.160156 323.308594 176.632812 322.734375 174.519531 321.578125 C 172.40625 320.421875 171.351562 318.777344 171.351562 316.652344 L 171.351562 241.324219 L 152.335938 241.324219 C 150.316406 241.324219 148.730469 240.414062 147.585938 238.585938 C 146.433594 236.753906 145.863281 234.503906 145.863281 231.824219 Z M 145.863281 231.824219 " style=" stroke:none;fill-rule:nonzero;fill:rgb(100%,100%,100%);fill-opacity:1;" />
<path d="M 296.878906 225.328125 C 295.769531 223.5 294.171875 222.589844 292.050781 222.589844 L 232.53125 222.589844 C 230.421875 222.589844 228.808594 223.5 227.710938 225.328125 C 226.601562 227.160156 226.050781 229.328125 226.050781 231.820312 C 226.050781 234.5 226.628906 236.75 227.78125 238.578125 C 228.921875 240.410156 230.511719 241.328125 232.53125 241.328125 L 251.539062 241.328125 L 251.539062 316.648438 C 251.539062 318.78125 252.601562 320.421875 254.710938 321.578125 C 255.109375 321.789062 255.519531 321.988281 255.941406 322.160156 C 257.789062 322.929688 259.898438 323.308594 262.289062 323.308594 C 265.230469 323.308594 267.761719 322.730469 269.871094 321.578125 C 271.980469 320.421875 273.039062 318.78125 273.039062 316.648438 L 273.039062 241.328125 L 292.050781 241.328125 C 294.070312 241.328125 295.660156 240.410156 296.808594 238.578125 C 297.960938 236.75 298.53125 234.5 298.53125 231.820312 C 298.53125 229.328125 297.980469 227.160156 296.878906 225.328125 Z M 296.878906 225.328125 " style=" stroke:none;fill-rule:nonzero;fill:rgb(100%,100%,100%);fill-opacity:1;" />
<path d="M 307.070312 316.695312 L 307.070312 229.0625 C 307.070312 227.320312 307.804688 225.804688 309.277344 224.515625 C 310.746094 223.230469 312.675781 222.585938 315.0625 222.585938 L 343.585938 222.585938 C 353.414062 222.585938 361.292969 225.136719 367.214844 230.234375 C 373.140625 235.332031 376.105469 243.347656 376.105469 254.277344 L 376.105469 254.964844 C 376.105469 265.898438 373.003906 273.960938 366.804688 279.148438 C 360.601562 284.339844 352.402344 286.933594 342.207031 286.933594 L 328.566406 286.933594 L 328.566406 316.695312 C 328.566406 318.808594 327.511719 320.4375 325.398438 321.585938 C 323.285156 322.738281 320.757812 323.308594 317.820312 323.308594 C 314.878906 323.308594 312.351562 322.738281 310.242188 321.585938 C 308.128906 320.441406 307.070312 318.808594 307.070312 316.695312 Z M 328.566406 270.398438 L 342.207031 270.398438 C 350.476562 270.398438 354.609375 265.808594 354.609375 256.621094 L 354.609375 255.105469 C 354.609375 245.921875 350.476562 241.324219 342.207031 241.324219 L 328.566406 241.324219 Z M 328.566406 270.398438 " style=" stroke:none;fill-rule:nonzero;fill:rgb(88.235294%,92.156863%,94.117647%);fill-opacity:1;" />
<path d="M 380.648438 306.777344 C 380.648438 304.203125 381.589844 301.632812 383.472656 299.058594 C 385.355469 296.488281 387.539062 295.203125 390.019531 295.203125 C 391.394531 295.203125 392.933594 295.761719 394.636719 296.871094 C 396.335938 297.988281 397.894531 299.222656 399.320312 300.574219 C 400.742188 301.929688 402.742188 303.164062 405.3125 304.277344 C 407.882812 305.394531 410.59375 305.949219 413.441406 305.949219 C 417.027344 305.949219 420.148438 305.191406 422.8125 303.675781 C 425.476562 302.160156 426.808594 299.886719 426.808594 296.855469 C 426.808594 293.824219 425.316406 291.160156 422.332031 288.863281 C 419.34375 286.570312 415.71875 284.476562 411.445312 282.59375 C 407.175781 280.714844 402.878906 278.597656 398.5625 276.257812 C 394.242188 273.914062 390.59375 270.585938 387.609375 266.265625 C 384.621094 261.949219 383.132812 256.808594 383.132812 250.835938 C 383.132812 241.097656 386.574219 233.816406 393.464844 228.992188 C 400.355469 224.171875 408.667969 221.761719 418.40625 221.761719 C 420.792969 221.761719 423.296875 221.902344 425.914062 222.1875 C 428.53125 222.472656 431.472656 223.015625 434.730469 223.820312 C 437.992188 224.628906 440.65625 225.925781 442.722656 227.726562 C 444.789062 229.523438 445.824219 231.703125 445.824219 234.253906 C 445.824219 236.683594 445.066406 239.199219 443.550781 241.816406 C 442.035156 244.429688 439.945312 245.734375 437.28125 245.734375 C 436.179688 245.734375 433.835938 244.863281 430.253906 243.117188 C 426.671875 241.375 422.722656 240.5 418.40625 240.5 C 413.808594 240.5 410.367188 241.304688 408.070312 242.910156 C 405.773438 244.519531 404.628906 246.472656 404.628906 248.769531 C 404.628906 250.882812 405.707031 252.8125 407.863281 254.554688 C 410.023438 256.300781 412.710938 257.792969 415.925781 259.03125 C 419.140625 260.273438 422.652344 261.882812 426.46875 263.855469 C 430.277344 265.832031 433.789062 267.988281 437.007812 270.332031 C 440.222656 272.675781 442.910156 275.960938 445.070312 280.183594 C 447.226562 284.410156 448.308594 289.234375 448.308594 294.652344 C 448.308594 304.125 445.136719 311.5 438.800781 316.777344 C 432.460938 322.050781 424.148438 324.691406 413.859375 324.691406 C 404.949219 324.691406 397.1875 322.851562 390.574219 319.179688 C 383.957031 315.503906 380.648438 311.371094 380.648438 306.777344 Z M 380.648438 306.777344 " style=" stroke:none;fill-rule:nonzero;fill:rgb(88.235294%,92.156863%,94.117647%);fill-opacity:1;" />
<path d="M 298.53125 231.820312 C 298.53125 234.5 297.960938 236.75 296.808594 238.578125 C 295.660156 240.410156 294.070312 241.328125 292.050781 241.328125 L 273.039062 241.328125 L 273.039062 316.648438 C 273.039062 318.78125 271.980469 320.421875 269.871094 321.578125 C 267.761719 322.730469 265.230469 323.308594 262.289062 323.308594 C 259.898438 323.308594 257.789062 322.929688 255.941406 322.160156 L 255.941406 222.589844 L 292.050781 222.589844 C 294.171875 222.589844 295.769531 223.5 296.878906 225.328125 C 297.980469 227.160156 298.53125 229.328125 298.53125 231.820312 Z M 298.53125 231.820312 " style=" stroke:none;fill-rule:nonzero;fill:rgb(88.235294%,92.156863%,94.117647%);fill-opacity:1;" />
<path d="M 512 16.871094 L 512 114.160156 L 255.941406 114.160156 L 255.941406 0 L 495.128906 0 C 504.429688 0 512 7.570312 512 16.871094 Z M 512 16.871094 " style=" stroke:none;fill-rule:nonzero;fill:rgb(70.588235%,82.352941%,84.313725%);fill-opacity:1;" />
</g>
</svg>