<svg height="512pt" viewBox="0 -32 512.001 512" width="512pt" xmlns="http://www.w3.org/2000/svg"><path d="m250.464844 43.042969-27.519532-35.832031c-3.492187-4.542969-8.898437-7.210938-14.628906-7.210938h-166.675781c-10.1875 0-18.445313 8.257812-18.445313 18.445312v278.933594h465.609376v-228.683594c0-10.1875-8.257813-18.445312-18.445313-18.445312h-205.269531c-5.730469 0-11.136719-2.664062-14.625-7.207031zm0 0" fill="#f79f48"/><path d="m265.089844 50.25c-5.730469 0-11.136719-2.664062-14.625-7.210938l-27.519532-35.828124c-3.492187-4.546876-8.898437-7.210938-14.628906-7.210938h-42.53125l35.53125 46.261719c1.929688 2.515625 4.921875 3.988281 8.09375 3.988281zm0 0" fill="#ef8229"/><path d="m470.359375 50.25h-33.175781v247.125h51.621094v-228.679688c0-10.1875-8.257813-18.445312-18.445313-18.445312zm0 0" fill="#ef8229"/><path d="m445.511719 418.191406h-379.023438c-5.277343 0-9.558593-4.277344-9.558593-9.558594v-312.582031c0-5.28125 4.28125-9.5625 9.558593-9.5625h379.023438c5.277343 0 9.558593 4.28125 9.558593 9.5625v312.582031c0 5.28125-4.28125 9.558594-9.558593 9.558594zm0 0" fill="#ededed"/><path d="m497.964844 448.703125h-483.929688c-7.75 0-14.035156-6.285156-14.035156-14.035156v-270.867188c0-7.75 6.285156-14.035156 14.035156-14.035156h483.929688c7.75 0 14.035156 6.28125 14.035156 14.035156v270.867188c0 7.75-6.285156 14.035156-14.035156 14.035156zm0 0" fill="#ffe471"/><path d="m208.320312 293.121094v-34.976563c0-26.292969 21.390626-47.679687 47.679688-47.679687s47.679688 21.386718 47.679688 47.679687v34.976563h15.453124v-34.976563c0-34.8125-28.320312-63.132812-63.132812-63.132812s-63.132812 28.320312-63.132812 63.132812v34.976563zm0 0" fill="#bebebe"/><path d="m497.964844 149.765625h-37.855469v298.9375h37.855469c7.75 0 14.035156-6.285156 14.035156-14.035156v-270.867188c0-7.75-6.285156-14.035156-14.035156-14.035156zm0 0" fill="#f2ca20"/><path d="m325.636719 404.0625h-139.273438c-3.796875 0-6.878906-3.082031-6.878906-6.882812v-99.601563c0-3.796875 3.082031-6.878906 6.878906-6.878906h139.273438c3.796875 0 6.878906 3.078125 6.878906 6.878906v99.601563c0 3.800781-3.082031 6.882812-6.878906 6.882812zm0 0" fill="#f79f48"/><path d="m325.636719 290.699219h-45.015625v113.363281h45.015625c3.796875 0 6.878906-3.078125 6.878906-6.878906v-99.605469c0-3.796875-3.082031-6.878906-6.878906-6.878906zm0 0" fill="#ef8229"/><path d="m455.070312 149.765625v-53.71875c0-5.277344-4.28125-9.558594-9.558593-9.558594h-42.332031v63.277344zm0 0" fill="#d6d6d6"/><g fill="#ffe471"><path d="m220.074219 370.3125c4.269531 0 7.726562-3.457031 7.726562-7.726562v-23.710938c0-4.265625-3.457031-7.726562-7.726562-7.726562-4.265625 0-7.722657 3.460937-7.722657 7.726562v23.710938c-.003906 4.269531 3.457032 7.726562 7.722657 7.726562zm0 0"/><path d="m256 370.3125c4.265625 0 7.726562-3.457031 7.726562-7.726562v-23.710938c0-4.265625-3.460937-7.726562-7.726562-7.726562s-7.726562 3.460937-7.726562 7.726562v23.710938c0 4.269531 3.460937 7.726562 7.726562 7.726562zm0 0"/><path d="m291.925781 370.3125c4.265625 0 7.722657-3.457031 7.722657-7.726562v-23.710938c0-4.265625-3.457032-7.726562-7.722657-7.726562-4.269531 0-7.726562 3.460937-7.726562 7.726562v23.710938c0 4.269531 3.457031 7.726562 7.726562 7.726562zm0 0"/></g></svg>