<svg height="512pt" viewBox="-104 0 512 512.001" width="512pt" xmlns="http://www.w3.org/2000/svg"><path d="m210.960938 205.914062v-193.367187c0-6.929687-5.617188-12.546875-12.546876-12.546875h-154.382812c-6.929688 0-12.546875 5.617188-12.546875 12.546875v193.367187zm0 0" fill="#d6d6d6"/><path d="m198.414062 0h-39.304687v205.914062h51.851563v-193.367187c0-6.929687-5.617188-12.546875-12.546876-12.546875zm0 0" fill="#bebebe"/><path d="m225.496094 488.820312h-208.546875c-9.359375 0-16.949219-7.585937-16.949219-16.949218v-330.207032c0-9.359374 7.589844-16.945312 16.949219-16.945312h208.546875c9.359375 0 16.949218 7.585938 16.949218 16.945312v330.207032c-.003906 9.363281-7.589843 16.949218-16.949218 16.949218zm0 0" fill="#f43b45"/><path d="m225.496094 124.71875h-34.90625v364.101562h34.90625c9.359375 0 16.949218-7.585937 16.949218-16.949218v-330.207032c-.003906-9.359374-7.589843-16.945312-16.949218-16.945312zm0 0" fill="#cf3735"/><path d="m177.84375 452.25h-113.773438c-6.417968 0-11.621093-5.203125-11.621093-11.621094v-20.84375c0-6.417968 5.203125-11.621094 11.621093-11.621094h113.773438c6.417969 0 11.621094 5.203126 11.621094 11.621094v20.84375c0 6.417969-5.203125 11.621094-11.621094 11.621094zm0 0" fill="#bebebe"/><path d="m71.082031 57.980469h100.28125c4.617188 0 8.359375-3.742188 8.359375-8.363281v-49.617188h-117.003906v49.617188c0 4.621093 3.746094 8.363281 8.363281 8.363281zm0 0" fill="#f79f48"/><path d="m127.871094 0v57.980469h43.492187c4.617188 0 8.359375-3.742188 8.359375-8.363281v-49.617188zm0 0" fill="#ef8229"/><path d="m304.648438 423.300781c0 48.988281-39.714844 88.699219-88.703126 88.699219-48.988281 0-88.699218-39.710938-88.699218-88.699219s39.710937-88.699219 88.699218-88.699219c48.988282 0 88.703126 39.710938 88.703126 88.699219zm0 0" fill="#75cff2"/><path d="m215.945312 334.601562c-9.019531 0-17.722656 1.355469-25.925781 3.859376 36.339844 11.089843 62.773438 44.875 62.773438 84.839843 0 39.96875-26.433594 73.75-62.773438 84.839844 8.203125 2.503906 16.90625 3.859375 25.925781 3.859375 48.988282 0 88.703126-39.710938 88.703126-88.699219s-39.714844-88.699219-88.703126-88.699219zm0 0" fill="#53b4e4"/><path d="m134.300781 0h15.453125v57.980469h-15.453125zm0 0" fill="#ffe471"/><path d="m92.6875 0h15.453125v57.980469h-15.453125zm0 0" fill="#ffe471"/><path d="m223.671875 377.820312v-12.390624c0-4.269532-3.457031-7.726563-7.726563-7.726563-4.265624 0-7.726562 3.457031-7.726562 7.726563v12.390624zm0 0" fill="#2a4d5e"/><path d="m241.632812 451.53125c-4.265624 0-7.722656 3.460938-7.722656 7.726562v4.847657c0 2.820312-2.296875 5.117187-5.121094 5.117187-2.820312 0-5.117187-2.296875-5.117187-5.117187v-58.214844h-15.453125v58.214844c0 11.34375 9.230469 20.570312 20.570312 20.570312 11.34375 0 20.570313-9.226562 20.570313-20.570312v-4.847657c.003906-4.265624-3.457031-7.726562-7.726563-7.726562zm0 0" fill="#2a4d5e"/><path d="m272.675781 413.789062c1.191407 0 2.035157-1.148437 1.707031-2.292968-7.222656-25.242188-30.648437-39.933594-58.4375-39.933594-27.789062 0-51.214843 14.691406-58.433593 39.933594-.328125 1.144531.515625 2.292968 1.707031 2.292968zm0 0" fill="#f43b45"/></svg>