<svg xmlns="http://www.w3.org/2000/svg" height="512pt" version="1.1" viewBox="0 -43 512 512" width="512pt">
<g id="surface1">
<path d="M 502.101562 282.371094 L 481.578125 303.089844 L 502.101562 323.808594 C 515.269531 337.101562 515.269531 358.730469 502.101562 372.019531 L 457.699219 416.851562 C 451.359375 423.238281 442.589844 426.910156 433.621094 426.910156 L 78.398438 426.910156 C 69.421875 426.910156 60.648438 423.238281 54.320312 416.851562 L 9.910156 372.03125 C 3.519531 365.578125 0 357.019531 0 347.921875 C 0 338.808594 3.519531 330.25 9.910156 323.800781 L 30.429688 303.089844 L 9.910156 282.390625 C 3.519531 275.941406 0 267.378906 0 258.28125 C 0 249.171875 3.519531 240.609375 9.910156 234.160156 L 30.429688 213.460938 L 9.910156 192.75 C 3.519531 186.308594 0 177.738281 0 168.640625 C 0 159.539062 3.519531 150.980469 9.898438 144.53125 L 30.429688 123.808594 L 9.910156 103.101562 C 3.519531 96.660156 0 88.089844 0 78.988281 C 0 69.878906 3.519531 61.320312 9.910156 54.871094 L 54.320312 10.050781 C 60.648438 3.660156 69.421875 0 78.390625 0 L 433.621094 0 C 442.601562 0 451.378906 3.671875 457.710938 10.058594 L 502.101562 54.878906 C 508.488281 61.339844 512 69.898438 512 78.988281 C 512 88.078125 508.488281 96.640625 502.109375 103.089844 L 481.578125 123.808594 L 502.101562 144.53125 C 515.261719 157.820312 515.261719 179.449219 502.101562 192.75 L 481.589844 213.460938 L 502.089844 234.148438 C 508.480469 240.601562 512 249.160156 512 258.261719 C 512 267.359375 508.488281 275.921875 502.101562 282.371094 Z M 502.101562 282.371094 " style=" stroke:none;fill-rule:nonzero;fill:rgb(82.352941%,62.745098%,96.078431%);fill-opacity:1;" />
<path d="M 502.101562 282.371094 L 481.578125 303.089844 L 502.101562 323.808594 C 515.269531 337.101562 515.269531 358.730469 502.101562 372.019531 L 457.699219 416.851562 C 451.359375 423.238281 442.589844 426.910156 433.621094 426.910156 L 255.988281 426.910156 L 255.988281 0 L 433.621094 0 C 442.601562 0 451.378906 3.671875 457.710938 10.058594 L 502.101562 54.878906 C 508.488281 61.339844 512 69.898438 512 78.988281 C 512 88.078125 508.488281 96.640625 502.109375 103.089844 L 481.578125 123.808594 L 502.101562 144.53125 C 515.261719 157.820312 515.261719 179.449219 502.101562 192.75 L 481.589844 213.460938 L 502.089844 234.148438 C 508.480469 240.601562 512 249.160156 512 258.261719 C 512 267.359375 508.488281 275.921875 502.101562 282.371094 Z M 502.101562 282.371094 " style=" stroke:none;fill-rule:nonzero;fill:rgb(63.529412%,37.647059%,89.803922%);fill-opacity:1;" />
<path d="M 414.261719 213.449219 C 414.261719 300.710938 343.261719 371.710938 256 371.710938 L 255.988281 371.710938 C 168.730469 371.699219 97.75 300.710938 97.75 213.449219 C 97.75 126.191406 168.730469 55.210938 255.988281 55.199219 L 256 55.199219 C 343.261719 55.199219 414.261719 126.191406 414.261719 213.449219 Z M 414.261719 213.449219 " style=" stroke:none;fill-rule:nonzero;fill:rgb(100%,100%,100%);fill-opacity:1;" />
<path d="M 414.261719 213.449219 C 414.261719 300.710938 343.261719 371.710938 256 371.710938 L 255.988281 371.710938 L 255.988281 55.199219 L 256 55.199219 C 343.261719 55.199219 414.261719 126.191406 414.261719 213.449219 Z M 414.261719 213.449219 " style=" stroke:none;fill-rule:nonzero;fill:rgb(88.235294%,92.156863%,94.117647%);fill-opacity:1;" />
<path d="M 354.851562 213.449219 C 354.851562 267.960938 310.511719 312.300781 256 312.308594 L 255.988281 312.308594 C 201.480469 312.308594 157.128906 267.960938 157.128906 213.449219 C 157.128906 158.941406 201.480469 114.601562 255.988281 114.601562 L 256 114.601562 C 310.511719 114.609375 354.851562 158.941406 354.851562 213.449219 Z M 354.851562 213.449219 " style=" stroke:none;fill-rule:nonzero;fill:rgb(88.235294%,92.156863%,94.117647%);fill-opacity:1;" />
<path d="M 354.851562 213.449219 C 354.851562 267.960938 310.511719 312.300781 256 312.308594 L 256 114.601562 C 310.511719 114.609375 354.851562 158.941406 354.851562 213.449219 Z M 354.851562 213.449219 " style=" stroke:none;fill-rule:nonzero;fill:rgb(70.588235%,82.352941%,84.313725%);fill-opacity:1;" />
</g>
</svg>