<svg height="511pt" viewBox="0 0 511.99954 511" width="511pt" xmlns="http://www.w3.org/2000/svg"><path d="m303.472656 72.703125 4.398438 14.765625 21.367187-5.976562c6.335938 13.359374 20.386719 12.496093 26.230469 10.605468l24.15625-7.792968c9.394531-3.03125 15.347656-11.835938 15.199219-21.230469l12.363281-.433594c-1.730469 8.65625 3.171875 16.410156 6.460938 19.695313l17.929687 17.972656c5.273437 5.289062 12.597656 7.316406 19.449219 6.082031l-.433594 12.324219c-12.425781-.539063-18.988281 9.996094-20.738281 15.382812l-7.875 24.132813c-3.296875 10.109375 1.171875 20.914062 10.113281 25.929687l-7.601562 27.589844 14.667968 4.707031 7.570313-27.492187c10.171875 1.265625 20.378906-4.882813 23.664062-14.9375l7.871094-24.132813c3.570313-10.9375-1.960937-22.699219-12.410156-27.046875l.9375-26.6875c11.425781-9.675781 9.289062-23.335937.839843-31.8125l-17.929687-17.972656c-8.539063-8.5625-21.398437-10.128906-31.53125.472656l-27.402344.960938c-4.476562-10-16.128906-15.398438-26.773437-11.96875l-24.160156 7.792968c-10.023438 3.234376-16.128907 13.042969-15.085938 23.125zm160.152344 72.414063-7.871094 24.132812c-2.0625 6.089844-6.578125 4.726562-8.242187 4.183594l-6.707031-2.1875c-1.660157-.542969-6.496094-1.855469-4.1875-8.238282l7.875-24.132812c1.121093-3.421875 4.8125-5.304688 8.238281-4.1875l6.710937 2.1875c3.425782 1.121094 5.300782 4.816406 4.183594 8.242188zm-39.0625-82.898438 4.996094-4.984375c2.550781-2.542969 6.699218-2.539063 9.242187.011719l17.925781 17.972656c4.492188 4.597656 1.226563 8.007812-.011718 9.242188l-4.992188 4.984374c-1.238281 1.230469-4.605468 4.945313-9.242187-.011718l-17.929688-17.972656c-2.539062-2.554688-2.539062-6.695313.011719-9.242188zm-80-3.933594 24.15625-7.792968c6.140625-1.902344 7.691406 2.554687 8.226562 4.214843l2.167969 6.71875c.535157 1.660157 2.3125 6.347657-4.214843 8.222657l-24.160157 7.792968c-3.429687 1.101563-7.117187-.785156-8.226562-4.210937 0-.003907 0-.003907 0-.003907l-2.164063-6.714843c-1.105468-3.429688.785156-7.117188 4.214844-8.226563zm0 0" fill="#bebebe"/><path d="m42.109375 226.105469c-14.273437-14.9375-24.527344-32.621094-30.464844-52.566407-9.898437-33.21875-6.261719-68.304687 10.230469-98.789062 16.492188-30.488281 43.871094-52.726562 77.089844-62.621094 46.914062-13.976562 97.089844-.65625 130.941406 34.753906 14.277344 14.933594 24.527344 32.621094 30.46875 52.566407 20.425781 68.574219-18.746094 140.984375-87.320312 161.410156-46.914063 13.972656-97.089844.65625-130.941407-34.753906-.003906 0 0 0-.003906 0zm169.046875-161.339844c-27.089844-28.339844-67.25-39-104.796875-27.816406-26.589844 7.921875-48.503906 25.722656-61.703125 50.125-13.203125 24.398437-16.109375 52.480469-8.191406 79.070312 4.753906 15.960938 12.964844 30.121094 24.394531 42.078125 27.09375 28.34375 67.25 39 104.800781 27.816406 26.589844-7.921874 48.503906-25.722656 61.703125-50.125 13.203125-24.398437 16.109375-52.480468 8.191407-79.070312-4.753907-15.960938-12.964844-30.117188-24.398438-42.078125zm0 0" fill="#bebebe"/><path d="m229.597656 108.617188 11.371094 38.011718c4.679688 15.640625 21.808594 23.847656 36.929688 17.695313l40.757812-16.582031c5.4375-2.199219 8.308594-8.171876 6.636719-13.792969l-29.460938-98.898438c-1.675781-5.621093-7.347656-9.046875-13.101562-7.910156l-53.363281 10.53125c-34.15625-32.15625-84.054688-45.832031-132.179688-31.5-64.257812 19.144531-103.796875 81.5625-96.273438 145.945313 1.382813 11.828124 12.078126 19.699218 23.644532 16.863281 9.472656-2.320313 15.632812-11.320313 14.476562-20.90625-5.59375-46.363281 22.828125-91.386719 69.097656-105.167969 51.6875-15.394531 106.070313 14.023438 121.464844 65.710938zm0 0" fill="#676a75"/><path d="m313.089844 92.992188-78.597656 31.980468 6.476562 21.65625c4.679688 15.636719 21.808594 23.847656 36.929688 17.695313l40.757812-16.585938c5.4375-2.199219 8.308594-8.167969 6.636719-13.789062zm0 0" fill="#454851"/><path d="m403.175781 510.316406c-20.390625 3.351563-40.773437 1.828125-60.589843-4.527344-33.003907-10.585937-59.910157-33.394531-75.765626-64.21875-15.851562-30.824218-18.75-65.976562-8.164062-98.984374 14.953125-46.613282 54.273438-80.507813 102.613281-88.457032 20.386719-3.351562 40.769531-1.828125 60.585938 4.527344 68.132812 21.855469 105.785156 95.066406 83.929687 163.199219-14.949218 46.613281-54.269531 80.511719-102.609375 88.457031zm-37.734375-230.617187c-38.6875 6.363281-70.15625 33.492187-82.121094 70.800781-8.476562 26.414062-6.15625 54.554688 6.535157 79.226562 12.6875 24.671876 34.222656 42.925782 60.640625 51.398438 15.859375 5.089844 32.179687 6.308594 48.503906 3.621094 38.6875-6.359375 70.15625-33.488282 82.125-70.796875 8.472656-26.421875 6.152344-54.554688-6.535156-79.226563s-34.226563-42.925781-60.644532-51.402344c-15.855468-5.085937-32.175781-6.304687-48.503906-3.621093zm0 0" fill="#bebebe"/><path d="m412.046875 289.238281 37.796875 12.074219c15.546875 4.964844 31.996094-4.539062 35.453125-20.492188l9.320313-43.003906c1.257812-5.726562-2.050782-11.46875-7.632813-13.261718l-98.265625-31.519532c-5.582031-1.792968-11.613281.957032-13.925781 6.347656l-21.433594 49.992188c-45.824219 10.035156-85.285156 43.5-100.621094 91.316406-20.476562 63.847656 8.71875 131.71875 66.109375 161.859375 10.542969 5.535157 23.078125 1.148438 27.269532-9.996093 3.433593-9.132813-.519532-19.296876-9.082032-23.753907-41.429687-21.558593-62.542968-70.433593-47.796875-116.40625 16.46875-51.351562 71.457031-79.628906 122.808594-63.15625zm0 0" fill="#676a75"/><path d="m486.984375 224.554688-39.921875-12.804688-17.976562 82.929688 20.757812 6.632812c15.546875 4.964844 31.992188-4.539062 35.449219-20.492188l9.324219-43c1.257812-5.730468-2.050782-11.472656-7.632813-13.265624zm0 0" fill="#454851"/><g fill="#fff"><path d="m254.910156 99.871094c-2.046875-6.851563 1.84375-14.066406 8.695313-16.113282l6.914062-2.070312c6.847657-2.046875 14.0625 1.84375 16.113281 8.695312 2.046876 6.847657-1.84375 14.0625-8.695312 16.113282l-6.914062 2.066406c-6.847657 2.050781-14.0625-1.84375-16.113282-8.691406zm0 0"/><path d="m419.121094 263.40625c-6.8125-2.175781-10.570313-9.460938-8.394532-16.273438l2.195313-6.871093c2.175781-6.8125 9.460937-10.570313 16.273437-8.394531 6.8125 2.175781 10.570313 9.460937 8.394532 16.273437l-2.199219 6.871094c-2.175781 6.8125-9.460937 10.570312-16.269531 8.394531zm0 0"/></g></svg>