<svg xmlns="http://www.w3.org/2000/svg" height="512pt" version="1.1" viewBox="0 -32 512 512" width="512pt">
<g id="surface1">
<path d="M 512 16.871094 L 512 430.53125 C 512 439.839844 504.429688 447.410156 495.128906 447.410156 L 16.871094 447.410156 C 7.570312 447.410156 0 439.839844 0 430.53125 L 0 16.871094 C 0 7.570312 7.570312 0 16.871094 0 L 495.128906 0 C 504.429688 0 512 7.570312 512 16.871094 Z M 512 16.871094 " style=" stroke:none;fill-rule:nonzero;fill:rgb(60.392157%,90.196078%,96.862745%);fill-opacity:1;" />
<path d="M 512 16.871094 L 512 430.53125 C 512 439.839844 504.429688 447.410156 495.128906 447.410156 L 255.941406 447.410156 L 255.941406 0 L 495.128906 0 C 504.429688 0 512 7.570312 512 16.871094 Z M 512 16.871094 " style=" stroke:none;fill-rule:nonzero;fill:rgb(18.431373%,75.294118%,94.117647%);fill-opacity:1;" />
<path d="M 512 16.871094 L 512 114.160156 L 0 114.160156 L 0 16.871094 C 0 7.570312 7.570312 0 16.871094 0 L 495.128906 0 C 504.429688 0 512 7.570312 512 16.871094 Z M 512 16.871094 " style=" stroke:none;fill-rule:nonzero;fill:rgb(88.235294%,92.156863%,94.117647%);fill-opacity:1;" />
<path d="M 68.738281 72.082031 C 68.25 72.082031 67.761719 72.054688 67.269531 72.003906 C 66.78125 71.953125 66.289062 71.882812 65.808594 71.78125 C 65.328125 71.691406 64.859375 71.570312 64.390625 71.421875 C 63.921875 71.28125 63.460938 71.113281 63.011719 70.933594 C 62.550781 70.742188 62.109375 70.53125 61.679688 70.304688 C 61.25 70.074219 60.820312 69.824219 60.421875 69.554688 C 60.011719 69.28125 59.609375 68.984375 59.230469 68.671875 C 58.851562 68.363281 58.480469 68.03125 58.140625 67.683594 C 55.339844 64.894531 53.738281 61.03125 53.738281 57.082031 C 53.738281 56.59375 53.769531 56.09375 53.820312 55.601562 C 53.871094 55.121094 53.941406 54.632812 54.039062 54.152344 C 54.128906 53.675781 54.25 53.191406 54.398438 52.722656 C 54.539062 52.261719 54.710938 51.792969 54.890625 51.34375 C 55.078125 50.894531 55.289062 50.441406 55.519531 50.011719 C 55.75 49.582031 56 49.160156 56.269531 48.753906 C 56.539062 48.34375 56.839844 47.941406 57.148438 47.570312 C 57.460938 47.191406 57.789062 46.820312 58.140625 46.472656 C 58.480469 46.121094 58.851562 45.789062 59.230469 45.480469 C 59.609375 45.171875 60.011719 44.882812 60.421875 44.613281 C 60.820312 44.34375 61.25 44.082031 61.679688 43.851562 C 62.109375 43.621094 62.550781 43.410156 63.011719 43.230469 C 63.460938 43.042969 63.921875 42.871094 64.390625 42.730469 C 64.859375 42.59375 65.328125 42.472656 65.808594 42.371094 C 66.289062 42.273438 66.78125 42.203125 67.269531 42.152344 C 68.25 42.050781 69.238281 42.050781 70.21875 42.152344 C 70.699219 42.203125 71.191406 42.273438 71.671875 42.371094 C 72.148438 42.472656 72.628906 42.59375 73.101562 42.730469 C 73.558594 42.871094 74.03125 43.042969 74.480469 43.230469 C 74.929688 43.410156 75.378906 43.621094 75.808594 43.851562 C 76.238281 44.082031 76.660156 44.34375 77.070312 44.613281 C 77.480469 44.882812 77.878906 45.171875 78.25 45.480469 C 78.628906 45.792969 79 46.121094 79.351562 46.472656 C 79.699219 46.820312 80.03125 47.191406 80.339844 47.570312 C 80.648438 47.941406 80.941406 48.34375 81.210938 48.753906 C 81.480469 49.160156 81.738281 49.582031 81.96875 50.011719 C 82.199219 50.441406 82.410156 50.894531 82.589844 51.34375 C 82.78125 51.792969 82.949219 52.261719 83.089844 52.722656 C 83.230469 53.191406 83.351562 53.671875 83.449219 54.152344 C 83.550781 54.632812 83.621094 55.121094 83.671875 55.601562 C 83.71875 56.09375 83.738281 56.59375 83.738281 57.082031 C 83.738281 61.03125 82.140625 64.894531 79.351562 67.683594 C 79 68.03125 78.628906 68.363281 78.25 68.671875 C 77.878906 68.984375 77.480469 69.28125 77.070312 69.554688 C 76.660156 69.824219 76.238281 70.074219 75.808594 70.304688 C 75.378906 70.53125 74.929688 70.742188 74.480469 70.933594 C 74.03125 71.113281 73.558594 71.28125 73.101562 71.421875 C 72.628906 71.570312 72.148438 71.691406 71.671875 71.78125 C 71.191406 71.882812 70.699219 71.953125 70.21875 72.003906 C 69.730469 72.054688 69.230469 72.082031 68.738281 72.082031 Z M 68.738281 72.082031 " style=" stroke:none;fill-rule:nonzero;fill:rgb(41.176471%,43.137255%,45.098039%);fill-opacity:1;" />
<path d="M 118.738281 72.082031 C 118.25 72.082031 117.761719 72.054688 117.269531 72.003906 C 116.78125 71.953125 116.289062 71.882812 115.808594 71.78125 C 115.328125 71.691406 114.859375 71.570312 114.390625 71.421875 C 113.921875 71.28125 113.460938 71.113281 113.011719 70.933594 C 112.558594 70.742188 112.109375 70.53125 111.679688 70.304688 C 111.25 70.074219 110.820312 69.824219 110.421875 69.554688 C 110.011719 69.28125 109.609375 68.984375 109.230469 68.671875 C 108.851562 68.363281 108.480469 68.03125 108.140625 67.683594 C 105.351562 64.894531 103.738281 61.03125 103.738281 57.082031 C 103.738281 56.59375 103.769531 56.09375 103.820312 55.601562 C 103.871094 55.121094 103.941406 54.632812 104.039062 54.152344 C 104.128906 53.675781 104.261719 53.191406 104.398438 52.722656 C 104.539062 52.261719 104.710938 51.792969 104.890625 51.34375 C 105.078125 50.894531 105.289062 50.441406 105.519531 50.011719 C 105.75 49.582031 106 49.160156 106.269531 48.753906 C 106.539062 48.34375 106.839844 47.941406 107.148438 47.570312 C 107.460938 47.191406 107.789062 46.820312 108.140625 46.472656 C 108.480469 46.121094 108.851562 45.789062 109.230469 45.480469 C 109.609375 45.171875 110.011719 44.882812 110.421875 44.613281 C 110.820312 44.34375 111.25 44.082031 111.679688 43.851562 C 112.109375 43.621094 112.558594 43.410156 113.011719 43.230469 C 113.460938 43.042969 113.921875 42.871094 114.390625 42.730469 C 114.859375 42.59375 115.328125 42.472656 115.808594 42.371094 C 116.289062 42.273438 116.78125 42.203125 117.269531 42.152344 C 118.25 42.050781 119.238281 42.050781 120.21875 42.152344 C 120.710938 42.203125 121.191406 42.273438 121.679688 42.371094 C 122.148438 42.472656 122.628906 42.59375 123.101562 42.730469 C 123.570312 42.871094 124.03125 43.042969 124.480469 43.230469 C 124.929688 43.410156 125.378906 43.621094 125.808594 43.851562 C 126.238281 44.082031 126.660156 44.34375 127.070312 44.613281 C 127.480469 44.882812 127.878906 45.171875 128.25 45.480469 C 128.640625 45.792969 129 46.121094 129.351562 46.472656 C 129.699219 46.820312 130.03125 47.191406 130.339844 47.570312 C 130.648438 47.941406 130.941406 48.34375 131.210938 48.753906 C 131.480469 49.160156 131.738281 49.582031 131.96875 50.011719 C 132.199219 50.441406 132.410156 50.894531 132.589844 51.34375 C 132.78125 51.792969 132.949219 52.261719 133.089844 52.722656 C 133.230469 53.191406 133.351562 53.671875 133.449219 54.152344 C 133.550781 54.632812 133.621094 55.121094 133.671875 55.601562 C 133.71875 56.09375 133.738281 56.59375 133.738281 57.082031 C 133.738281 61.03125 132.140625 64.894531 129.351562 67.683594 C 129 68.03125 128.640625 68.363281 128.25 68.671875 C 127.878906 68.984375 127.480469 69.28125 127.070312 69.554688 C 126.660156 69.824219 126.238281 70.074219 125.808594 70.304688 C 125.378906 70.53125 124.929688 70.742188 124.480469 70.933594 C 124.03125 71.113281 123.570312 71.28125 123.101562 71.421875 C 122.628906 71.570312 122.148438 71.691406 121.679688 71.78125 C 121.191406 71.882812 120.710938 71.953125 120.21875 72.003906 C 119.730469 72.054688 119.230469 72.082031 118.738281 72.082031 Z M 118.738281 72.082031 " style=" stroke:none;fill-rule:nonzero;fill:rgb(41.176471%,43.137255%,45.098039%);fill-opacity:1;" />
<path d="M 168.738281 72.082031 C 168.25 72.082031 167.761719 72.054688 167.269531 72.003906 C 166.78125 71.953125 166.289062 71.882812 165.808594 71.78125 C 165.328125 71.691406 164.859375 71.570312 164.390625 71.421875 C 163.921875 71.28125 163.460938 71.113281 163.011719 70.933594 C 162.558594 70.742188 162.109375 70.53125 161.679688 70.304688 C 161.25 70.074219 160.820312 69.824219 160.421875 69.554688 C 160.011719 69.28125 159.609375 68.984375 159.230469 68.671875 C 158.851562 68.363281 158.480469 68.03125 158.140625 67.683594 C 155.339844 64.894531 153.738281 61.03125 153.738281 57.082031 C 153.738281 56.59375 153.769531 56.09375 153.820312 55.601562 C 153.871094 55.121094 153.941406 54.632812 154.039062 54.152344 C 154.128906 53.675781 154.25 53.191406 154.398438 52.722656 C 154.539062 52.261719 154.710938 51.792969 154.890625 51.34375 C 155.078125 50.894531 155.289062 50.441406 155.519531 50.011719 C 155.75 49.582031 156 49.160156 156.269531 48.753906 C 156.539062 48.34375 156.839844 47.941406 157.148438 47.570312 C 157.460938 47.191406 157.789062 46.820312 158.140625 46.472656 C 161.269531 43.332031 165.78125 41.710938 170.21875 42.152344 C 170.699219 42.203125 171.191406 42.273438 171.671875 42.371094 C 172.148438 42.472656 172.628906 42.59375 173.101562 42.730469 C 173.558594 42.871094 174.03125 43.042969 174.480469 43.230469 C 174.929688 43.410156 175.378906 43.621094 175.808594 43.851562 C 176.238281 44.082031 176.660156 44.34375 177.070312 44.613281 C 177.480469 44.882812 177.878906 45.171875 178.25 45.480469 C 178.640625 45.792969 179 46.121094 179.351562 46.472656 C 179.699219 46.820312 180.03125 47.191406 180.339844 47.570312 C 180.648438 47.941406 180.941406 48.34375 181.21875 48.753906 C 181.480469 49.160156 181.738281 49.582031 181.96875 50.011719 C 182.199219 50.441406 182.410156 50.894531 182.589844 51.34375 C 182.78125 51.792969 182.949219 52.261719 183.089844 52.722656 C 183.230469 53.191406 183.351562 53.671875 183.449219 54.152344 C 183.550781 54.632812 183.621094 55.121094 183.671875 55.601562 C 183.71875 56.09375 183.738281 56.59375 183.738281 57.082031 C 183.738281 61.03125 182.140625 64.894531 179.351562 67.683594 C 179 68.03125 178.640625 68.363281 178.25 68.671875 C 177.878906 68.984375 177.480469 69.28125 177.070312 69.554688 C 176.660156 69.824219 176.238281 70.074219 175.808594 70.304688 C 175.378906 70.53125 174.929688 70.742188 174.480469 70.933594 C 174.03125 71.113281 173.558594 71.28125 173.101562 71.421875 C 172.628906 71.570312 172.148438 71.691406 171.671875 71.78125 C 171.191406 71.882812 170.699219 71.953125 170.21875 72.003906 C 169.730469 72.054688 169.230469 72.082031 168.738281 72.082031 Z M 168.738281 72.082031 " style=" stroke:none;fill-rule:nonzero;fill:rgb(41.176471%,43.137255%,45.098039%);fill-opacity:1;" />
<path d="M 512 16.871094 L 512 114.160156 L 255.941406 114.160156 L 255.941406 0 L 495.128906 0 C 504.429688 0 512 7.570312 512 16.871094 Z M 512 16.871094 " style=" stroke:none;fill-rule:nonzero;fill:rgb(70.588235%,82.352941%,84.313725%);fill-opacity:1;" />
<path d="M 360.671875 219.578125 L 350.089844 281.261719 L 340.601562 336.640625 C 339.789062 341.378906 337.058594 345.679688 333.109375 348.441406 L 267.710938 394.21875 C 264.25 396.640625 260.179688 397.941406 255.941406 397.960938 L 255.839844 397.960938 C 251.570312 397.960938 247.46875 396.671875 243.96875 394.21875 L 179.550781 349.121094 C 177.261719 347.519531 175.339844 345.511719 173.851562 343.160156 C 172.351562 340.800781 171.351562 338.210938 170.878906 335.449219 L 161.589844 281.261719 L 151.359375 221.578125 C 150.539062 216.789062 151.449219 211.851562 153.929688 207.671875 C 156.390625 203.5 160.28125 200.320312 164.871094 198.71875 L 248.941406 169.621094 C 251.148438 168.851562 253.488281 168.46875 255.839844 168.46875 L 255.941406 168.46875 C 258.25 168.480469 260.558594 168.859375 262.761719 169.628906 L 348.71875 199.390625 C 357.148438 202.300781 362.171875 210.789062 360.671875 219.578125 Z M 360.671875 219.578125 " style=" stroke:none;fill-rule:nonzero;fill:rgb(100%,100%,100%);fill-opacity:1;" />
<path d="M 360.671875 219.578125 L 340.601562 336.640625 C 339.789062 341.378906 337.058594 345.679688 333.109375 348.441406 L 267.710938 394.21875 C 264.25 396.640625 260.179688 397.941406 255.941406 397.960938 L 255.941406 168.46875 C 258.25 168.480469 260.558594 168.859375 262.761719 169.628906 L 348.71875 199.390625 C 357.148438 202.300781 362.171875 210.789062 360.671875 219.578125 Z M 360.671875 219.578125 " style=" stroke:none;fill-rule:nonzero;fill:rgb(88.235294%,92.156863%,94.117647%);fill-opacity:1;" />
<path d="M 360.671875 219.578125 L 350.089844 281.261719 L 255.839844 281.261719 L 255.839844 168.46875 L 255.941406 168.46875 C 258.25 168.480469 260.558594 168.859375 262.761719 169.628906 L 348.71875 199.390625 C 357.148438 202.300781 362.171875 210.789062 360.671875 219.578125 Z M 360.671875 219.578125 " style=" stroke:none;fill-rule:nonzero;fill:rgb(93.72549%,24.313725%,20.784314%);fill-opacity:1;" />
<path d="M 255.839844 281.261719 L 255.839844 397.960938 C 251.570312 397.960938 247.46875 396.671875 243.96875 394.21875 L 179.550781 349.121094 C 177.261719 347.519531 175.339844 345.511719 173.851562 343.160156 C 172.351562 340.800781 171.351562 338.210938 170.878906 335.449219 L 161.589844 281.261719 Z M 255.839844 281.261719 " style=" stroke:none;fill-rule:nonzero;fill:rgb(100%,50.588235%,42.352941%);fill-opacity:1;" />
</g>
</svg>