<svg height="512pt" viewBox="-29 0 512 512.00063" width="512pt" xmlns="http://www.w3.org/2000/svg"><path d="m159.945312 333.191406c-10.472656 0-21.09375-4.105468-27.335937-18.300781-.042969-.09375-.082031-.191406-.121094-.285156l-24.183593-61.660157c-1.554688-3.960937.386718-8.433593 4.339843-10.003906l96.886719-38.445312c1.910156-.761719 4.046875-.722656 5.929688.097656 1.886718.816406 3.367187 2.355469 4.117187 4.269531l18.929687 48.410157c9.230469 23.269531-2.203124 49.757812-25.511718 59.007812l-26.707032 10.597656c-5.628906 2.234375-15.910156 6.3125-26.34375 6.3125zm-13.132812-24.386718c5.429688 12.15625 16.503906 10.566406 33.773438 3.710937l26.707031-10.597656c15.390625-6.105469 22.941406-23.59375 16.835937-38.980469l-16.117187-41.214844-82.511719 32.746094zm0 0" fill="#454851"/><path d="m187.359375 295.132812c-.519531 0-1.042969-.050781-1.570313-.160156l-9.761718-2.015625c-5.453125-1.125-9.933594-4.886719-11.988282-10.0625l-9.097656-22.921875c-1.574218-3.96875.367188-8.460937 4.332032-10.03125 3.964843-1.574218 8.457031.363282 10.03125 4.328125l9.097656 22.925781c.128906.324219.410156.558594.75.628907l9.757812 2.015625c4.179688.863281 6.867188 4.949218 6.003906 9.128906-.75 3.652344-3.96875 6.164062-7.554687 6.164062zm0 0" fill="#aaacad"/><path d="m391.414062.558594-28.878906 11.460937c-1.667968.660157-3.058594 1.867188-3.949218 3.425781l-22.90625 40.066407 74.339843-29.5-8.339843-21.019531c-1.613282-4.058594-6.207032-6.042969-10.265626-4.433594zm0 0" fill="#676a75"/><path d="m15.429688 217.320312 53.015624 1.769532c5.371094.179687 10.585938-1.789063 14.496094-5.476563l5.199219-4.898437c11.695313-11.027344 4.21875-30.695313-11.851563-31.167969-6.042968-.179687-11.914062 2.050781-16.316406 6.199219l-7.488281 7.0625c-3.167969 2.984375-7.394531 4.578125-11.742187 4.417968l-24.515626-.886718c-6.375-.230469-11.71875 4.773437-11.90625 11.148437-.183593 6.332031 4.78125 11.617188 11.109376 11.832031zm0 0" fill="#8f9496"/><path d="m429.082031 110.242188-172.460937 68.4375-11.980469-30.191407 176.390625-70 10.421875 26.261719c.863281 2.171875-.199219 4.632812-2.371094 5.492188zm0 0" fill="#454851"/><path d="m448.597656 76.933594-200.742187 79.660156-25.3125-63.789062 200.738281-79.660157c4.378906-1.738281 9.339844.402344 11.078125 4.78125l19.019531 47.929688c1.738282 4.378906-.402344 9.339843-4.78125 11.078125zm0 0" fill="#bebebe"/><path d="m437.394531 25.578125-208.667969 82.808594 19.128907 48.207031 200.742187-79.660156c4.378906-1.738282 6.519532-6.699219 4.78125-11.078125zm0 0" fill="#aaacad"/><path d="m266.738281 215.605469-220.027343 87.316406-19.40625-48.902344 3.179687-2.125c32.761719-21.875 48.925781-61.261719 41.3125-99.597656-.535156-2.695313.890625-5.394531 3.445313-6.40625l156.925781-62.277344c3.769531-1.496093 8.035156.347657 9.53125 4.113281l38.433593 96.859376c4.867188 12.265624-1.128906 26.152343-13.394531 31.019531zm0 0" fill="#676a75"/><path d="m280.136719 184.585938-10.769531-27.132813c-.839844.457031-1.714844.875-2.628907 1.234375l-210.242187 83.433594c14.1875 26.414062 46.222656 38.574218 74.753906 27.25l135.488281-53.765625c12.265625-4.867188 18.261719-18.753907 13.398438-31.019531zm0 0" fill="#454851"/><path d="m237.84375 197.832031-96.148438 38.15625c-3.765624 1.492188-8.023437-.347656-9.515624-4.109375l-24.5-61.734375c-1.492188-3.765625.347656-8.023437 4.109374-9.519531l96.152344-38.152344c3.761719-1.496094 8.019532.34375 9.515625 4.105469l24.496094 61.738281c1.492187 3.761719-.34375 8.019532-4.109375 9.515625zm0 0" fill="#bebebe"/><path d="m207.9375 122.472656-56.699219 22.5c-6.9375 2.753906-10.332031 10.605469-7.578125 17.542969s10.609375 10.328125 17.542969 7.578125l63.515625-25.207031-7.265625-18.308594c-1.492187-3.761719-5.75-5.601563-9.515625-4.105469zm0 0" fill="#aaacad"/><path d="m171.175781 195.210938 63.515625-25.203126-9.96875-25.121093-63.515625 25.207031c-6.9375 2.753906-10.332031 10.605469-7.578125 17.542969s10.609375 10.328125 17.546875 7.574219zm0 0" fill="#8f9496"/><path d="m163.597656 212.757812c2.753906 6.9375 10.609375 10.328126 17.546875 7.574219l56.699219-22.5c3.765625-1.492187 5.601562-5.753906 4.109375-9.515625l-7.265625-18.308594-63.511719 25.207032c-6.9375 2.75-10.328125 10.605468-7.578125 17.542968zm0 0" fill="#aaacad"/><path d="m53.597656 235.925781-1.511718-3.789062c-6.058594 7.507812-13.285157 14.207031-21.601563 19.757812l-3.695313 3.058594c-37.457031 67.066406-27.410156 189.53125-18.511718 236.753906 2.660156 14.109375 16.652344 23.058594 30.570312 19.519531l75.480469-19.1875c13.265625-3.371093 21.3125-16.824218 18.007813-30.101562l-20.625-82.886719c-13.089844-53.597656 36.371093-67.265625 36.371093-67.265625l-16.832031-42.414062c-30.679688 12.175781-65.421875-2.789063-77.652344-33.445313zm0 0" fill="#a04917"/><path d="m148.082031 311.78125-10.496093-26.441406-42.972657 13.160156s-49.460937 13.671875-36.367187 67.269531l23.023437 92.539063c1.976563 7.941406-2.835937 15.984375-10.765625 18l-62.140625 15.792968c2.847657 13.878907 16.699219 22.628907 30.480469 19.125l75.484375-19.1875c13.261719-3.371093 21.308594-16.824218 18.003906-30.105468l-20.621093-82.882813c-13.089844-53.597656 36.371093-67.269531 36.371093-67.269531zm0 0" fill="#8a3f14"/></svg>