<svg xmlns="http://www.w3.org/2000/svg" height="512pt" version="1.1" viewBox="-26 0 512 512.00001" width="512pt">
<g id="surface1">
<path d="M 401.53125 130.101562 L 401.53125 340.800781 C 401.53125 435.195312 324.726562 512 230.332031 512 C 135.941406 512 59.136719 435.195312 59.136719 340.800781 L 59.136719 130.101562 Z M 401.53125 130.101562 " style=" stroke:none;fill-rule:nonzero;fill:rgb(70.588235%,82.352941%,84.313725%);fill-opacity:1;" />
<path d="M 401.53125 130.101562 L 401.53125 340.800781 C 401.53125 435.195312 324.726562 512 230.332031 512 L 230.332031 130.101562 Z M 401.53125 130.101562 " style=" stroke:none;fill-rule:nonzero;fill:rgb(43.529412%,64.705882%,66.666667%);fill-opacity:1;" />
<path d="M 337.136719 347.023438 C 337.136719 405.917969 289.230469 453.824219 230.332031 453.824219 C 171.4375 453.824219 123.53125 405.917969 123.53125 347.023438 C 123.53125 288.128906 171.4375 240.21875 230.332031 240.21875 C 289.230469 240.21875 337.136719 288.128906 337.136719 347.023438 Z M 337.136719 347.023438 " style=" stroke:none;fill-rule:nonzero;fill:rgb(100%,100%,100%);fill-opacity:1;" />
<path d="M 337.136719 347.023438 C 337.136719 405.917969 289.230469 453.824219 230.332031 453.824219 L 230.332031 240.21875 C 289.230469 240.21875 337.136719 288.128906 337.136719 347.023438 Z M 337.136719 347.023438 " style=" stroke:none;fill-rule:nonzero;fill:rgb(88.235294%,92.156863%,94.117647%);fill-opacity:1;" />
<path d="M 285.742188 398.414062 C 285.742188 428.964844 260.882812 453.824219 230.332031 453.824219 C 199.785156 453.824219 174.921875 428.964844 174.921875 398.414062 C 174.921875 367.855469 199.785156 343.007812 230.332031 343.007812 C 260.882812 343.007812 285.742188 367.855469 285.742188 398.414062 Z M 285.742188 398.414062 " style=" stroke:none;fill-rule:nonzero;fill:rgb(60.392157%,90.196078%,96.862745%);fill-opacity:1;" />
<path d="M 324.347656 201.066406 C 324.347656 209.371094 317.625 216.089844 309.320312 216.089844 L 151.34375 216.089844 C 143.042969 216.089844 136.320312 209.371094 136.320312 201.066406 C 136.320312 192.773438 143.042969 186.042969 151.34375 186.042969 L 309.320312 186.042969 C 317.625 186.042969 324.347656 192.773438 324.347656 201.066406 Z M 324.347656 201.066406 " style=" stroke:none;fill-rule:nonzero;fill:rgb(100%,100%,100%);fill-opacity:1;" />
<path d="M 460.667969 17.46875 L 460.667969 142.152344 C 460.667969 151.777344 452.835938 159.617188 443.199219 159.617188 L 17.46875 159.617188 C 7.832031 159.617188 0 151.777344 0 142.152344 L 0 17.46875 C 0 7.84375 7.832031 0 17.46875 0 L 443.199219 0 C 452.835938 0 460.667969 7.84375 460.667969 17.46875 Z M 460.667969 17.46875 " style=" stroke:none;fill-rule:nonzero;fill:rgb(41.176471%,43.137255%,45.098039%);fill-opacity:1;" />
<path d="M 309.320312 216.089844 L 230.332031 216.089844 L 230.332031 186.042969 L 309.320312 186.042969 C 317.625 186.042969 324.347656 192.773438 324.347656 201.066406 C 324.347656 209.371094 317.625 216.089844 309.320312 216.089844 Z M 309.320312 216.089844 " style=" stroke:none;fill-rule:nonzero;fill:rgb(88.235294%,92.156863%,94.117647%);fill-opacity:1;" />
<path d="M 285.742188 398.414062 C 285.742188 428.964844 260.882812 453.824219 230.332031 453.824219 L 230.332031 343.007812 C 260.882812 343.007812 285.742188 367.855469 285.742188 398.414062 Z M 285.742188 398.414062 " style=" stroke:none;fill-rule:nonzero;fill:rgb(18.431373%,75.294118%,94.117647%);fill-opacity:1;" />
<path d="M 460.667969 17.46875 L 460.667969 142.152344 C 460.667969 151.777344 452.835938 159.617188 443.199219 159.617188 L 230.332031 159.617188 L 230.332031 0 L 443.199219 0 C 452.835938 0 460.667969 7.84375 460.667969 17.46875 Z M 460.667969 17.46875 " style=" stroke:none;fill-rule:nonzero;fill:rgb(21.568627%,23.529412%,25.490196%);fill-opacity:1;" />
</g>
</svg>