<svg xmlns="http://www.w3.org/2000/svg" height="511pt" version="1.1" viewBox="0 -56 511.99977 511" width="511pt">
<g id="surface1">
<path d="M 511.886719 217.082031 C 511.09375 224.371094 506.34375 230.511719 499.472656 233.101562 L 435.558594 257.265625 L 443.199219 261.964844 C 453.707031 268.695312 460.941406 279.105469 463.570312 291.296875 C 466.199219 303.488281 463.898438 315.960938 457.089844 326.421875 L 439.40625 353.585938 C 425.546875 374.867188 396.871094 381.058594 375.480469 367.375 L 312.984375 327.410156 L 289.832031 312.359375 L 255.996094 290.347656 L 244.078125 282.597656 L 223.195312 318.289062 C 220.203125 323.402344 215.011719 326.863281 209.183594 327.691406 L 94.691406 348.734375 L 94.691406 381.597656 C 94.691406 391.308594 86.789062 399.199219 77.078125 399.199219 L 17.613281 399.199219 C 7.902344 399.199219 0 391.308594 0 381.597656 L 0 232.78125 C 0 223.070312 7.902344 215.167969 17.613281 215.167969 L 77.078125 215.167969 C 86.789062 215.167969 94.691406 223.070312 94.691406 232.78125 L 94.691406 257.304688 L 164.9375 244.003906 L 170.378906 234.832031 L 83.398438 181.226562 C 79.058594 178.40625 76.089844 174.066406 75.019531 169.003906 C 73.949219 163.945312 74.90625 158.773438 77.726562 154.433594 L 172.21875 9.289062 C 178.039062 0.347656 190.058594 -2.195312 199 3.628906 L 255.996094 40.191406 L 503.195312 198.769531 C 509.34375 202.769531 512.675781 209.789062 511.886719 217.082031 Z M 511.886719 217.082031 " style=" stroke:none;fill-rule:nonzero;fill:rgb(88.235294%,92.156863%,94.117647%);fill-opacity:1;" />
<path d="M 511.886719 217.082031 C 511.09375 224.371094 506.34375 230.511719 499.472656 233.101562 L 435.558594 257.265625 L 443.199219 261.964844 C 453.707031 268.695312 460.941406 279.105469 463.570312 291.296875 C 466.199219 303.488281 463.898438 315.960938 457.089844 326.421875 L 439.40625 353.585938 C 425.546875 374.867188 396.871094 381.058594 375.480469 367.375 L 312.984375 327.410156 L 289.832031 312.359375 L 255.996094 290.347656 L 255.996094 40.191406 L 503.195312 198.769531 C 509.34375 202.769531 512.675781 209.789062 511.886719 217.082031 Z M 511.886719 217.082031 " style=" stroke:none;fill-rule:nonzero;fill:rgb(70.588235%,82.352941%,84.313725%);fill-opacity:1;" />
<path d="M 94.691406 232.78125 L 94.691406 381.597656 C 94.691406 391.308594 86.789062 399.199219 77.078125 399.199219 L 17.613281 399.199219 C 7.902344 399.199219 0 391.308594 0 381.597656 L 0 232.78125 C 0 223.070312 7.902344 215.167969 17.613281 215.167969 L 77.078125 215.167969 C 86.789062 215.167969 94.691406 223.070312 94.691406 232.78125 Z M 94.691406 232.78125 " style=" stroke:none;fill-rule:nonzero;fill:rgb(41.176471%,43.137255%,45.098039%);fill-opacity:1;" />
<path d="M 457.089844 326.421875 L 439.40625 353.585938 C 425.546875 374.867188 396.871094 381.058594 375.480469 367.375 L 312.984375 327.410156 L 289.832031 312.359375 L 435.558594 257.265625 L 443.199219 261.964844 C 453.707031 268.695312 460.941406 279.105469 463.570312 291.296875 C 466.199219 303.488281 463.898438 315.960938 457.089844 326.421875 Z M 457.089844 326.421875 " style=" stroke:none;fill-rule:nonzero;fill:rgb(18.431373%,75.294118%,94.117647%);fill-opacity:1;" />
<path d="M 94.691406 232.78125 L 94.691406 381.597656 C 94.691406 391.308594 86.789062 399.199219 77.078125 399.199219 L 47.34375 399.199219 L 47.34375 215.167969 L 77.078125 215.167969 C 86.789062 215.167969 94.691406 223.070312 94.691406 232.78125 Z M 94.691406 232.78125 " style=" stroke:none;fill-rule:nonzero;fill:rgb(21.568627%,23.529412%,25.490196%);fill-opacity:1;" />
</g>
</svg>