<svg height="512pt" viewBox="-65 0 511 512" width="512pt" xmlns="http://www.w3.org/2000/svg"><path d="m300.890625 264.71875v-109.738281c0-60.738281-49.414063-110.152344-110.152344-110.152344s-110.152343 49.414063-110.152343 110.152344v109.738281h-44.824219v-109.738281c0-85.457031 69.519531-154.980469 154.976562-154.980469 85.453125 0 154.976563 69.523438 154.976563 154.980469v109.738281zm0 0" fill="#bebebe"/><path d="m363.871094 512h-346.265625c-9.449219 0-17.105469-7.65625-17.105469-17.105469v-247.640625c0-9.449218 7.65625-17.105468 17.105469-17.105468h346.265625c9.445312 0 17.105468 7.65625 17.105468 17.105468v247.640625c0 9.449219-7.660156 17.105469-17.105468 17.105469zm0 0" fill="#676a75"/><path d="m363.871094 230.148438h-34.777344v248.511718c0 4.929688-3.996094 8.921875-8.921875 8.921875h-319.671875v7.3125c0 9.449219 7.65625 17.105469 17.105469 17.105469h346.265625c9.445312 0 17.105468-7.65625 17.105468-17.105469v-247.640625c0-9.449218-7.660156-17.105468-17.105468-17.105468zm0 0" fill="#454851"/><path d="m297.09375 371.074219c0 58.738281-47.617188 106.355469-106.355469 106.355469s-106.355469-47.617188-106.355469-106.355469 47.617188-106.355469 106.355469-106.355469 106.355469 47.617188 106.355469 106.355469zm0 0" fill="#ffe471"/><path d="m190.738281 264.71875c-8.949219 0-17.636719 1.109375-25.941406 3.191406 46.199219 11.582032 80.414063 53.375 80.414063 103.164063 0 49.789062-34.214844 91.582031-80.414063 103.164062 8.304687 2.078125 16.992187 3.191407 25.941406 3.191407 58.738281 0 106.355469-47.617188 106.355469-106.355469s-47.617188-106.355469-106.355469-106.355469zm0 0" fill="#f2ca20"/><path d="m190.890625 434.625c2.410156 0 4.816406-1.769531 4.816406-3.695312v-5.460938c17.347657-2.40625 29.230469-13.328125 29.230469-33.082031 0-21.84375-15.257812-28.910157-29.230469-34.050781v-32.601563c11.242188.800781 15.417969 5.941406 19.273438 5.941406 4.820312 0 7.066406-6.101562 7.066406-9.152343 0-7.871094-15.417969-11.242188-26.339844-11.5625v-4.339844c0-1.925782-2.40625-3.691406-4.816406-3.691406-2.730469 0-4.65625 1.765624-4.65625 3.691406v4.660156c-15.257813 1.605469-30.515625 9.636719-30.515625 29.871094 0 20.558594 16.058594 26.339844 30.515625 31.480468v37.738282c-16.382813-1.285156-20.71875-12.523438-26.019531-12.523438-4.015625 0-7.386719 5.296875-7.386719 9.152344 0 7.871094 13.488281 18.628906 33.402344 18.953125v4.976563c.003906 1.925781 1.929687 3.695312 4.660156 3.695312zm3.855469-58.460938c7.867187 3.371094 14.132812 7.871094 14.132812 17.988282 0 9.152344-5.460937 14.292968-14.132812 15.898437zm-22.96875-36.617187c0-8.351563 6.425781-12.367187 15.417968-13.492187v29.230468c-8.511718-3.210937-15.417968-6.585937-15.417968-15.738281zm0 0" fill="#f79f48"/><g fill="#bebebe"><path d="m55.976562 320.394531c0-4.269531-3.457031-7.726562-7.722656-7.726562h-47.753906v15.453125h47.75c4.269531 0 7.726562-3.460938 7.726562-7.726563zm0 0"/><path d="m55.976562 364.867188c0-4.269532-3.457031-7.726563-7.722656-7.726563h-47.753906v15.453125h47.75c4.269531 0 7.726562-3.460938 7.726562-7.726562zm0 0"/><path d="m55.976562 409.339844c0-4.269532-3.457031-7.726563-7.722656-7.726563h-47.753906v15.453125h47.75c4.269531-.003906 7.726562-3.460937 7.726562-7.726562zm0 0"/><path d="m325.496094 409.339844c0 4.265625 3.460937 7.722656 7.726562 7.722656h47.753906v-15.453125h-47.753906c-4.265625.003906-7.726562 3.460937-7.726562 7.730469zm0 0"/><path d="m325.496094 364.867188c0 4.265624 3.460937 7.726562 7.726562 7.726562h47.753906v-15.453125h-47.753906c-4.265625 0-7.726562 3.457031-7.726562 7.726563zm0 0"/><path d="m325.496094 320.394531c0 4.265625 3.460937 7.726563 7.726562 7.726563h47.753906v-15.453125h-47.753906c-4.265625 0-7.726562 3.460937-7.726562 7.726562zm0 0"/></g></svg>