<svg xmlns="http://www.w3.org/2000/svg" height="512pt" version="1.1" viewBox="0 0 512 512" width="512pt">
<g id="surface1">
<path d="M 512 46.101562 L 512 465.898438 C 512 491.320312 491.320312 512 465.898438 512 L 46.101562 512 C 20.679688 512 0 491.320312 0 465.898438 L 0 46.101562 C 0 20.679688 20.679688 0 46.101562 0 L 465.898438 0 C 491.320312 0 512 20.679688 512 46.101562 Z M 512 46.101562 " style=" stroke:none;fill-rule:nonzero;fill:rgb(88.235294%,92.156863%,94.117647%);fill-opacity:1;" />
<path d="M 512 46.101562 L 512 465.898438 C 512 491.320312 491.320312 512 465.898438 512 L 255.941406 512 L 255.941406 0 L 465.898438 0 C 491.320312 0 512 20.679688 512 46.101562 Z M 512 46.101562 " style=" stroke:none;fill-rule:nonzero;fill:rgb(70.588235%,82.352941%,84.313725%);fill-opacity:1;" />
<path d="M 443.398438 88.890625 L 443.398438 423.109375 C 443.398438 434.300781 434.300781 443.398438 423.109375 443.398438 L 88.890625 443.398438 C 77.699219 443.398438 68.601562 434.300781 68.601562 423.109375 L 68.601562 88.890625 C 68.601562 77.710938 77.699219 68.609375 88.890625 68.609375 L 423.109375 68.609375 C 434.300781 68.609375 443.398438 77.710938 443.398438 88.890625 Z M 443.398438 88.890625 " style=" stroke:none;fill-rule:nonzero;fill:rgb(100%,100%,100%);fill-opacity:1;" />
<path d="M 443.398438 88.890625 L 443.398438 423.109375 C 443.398438 434.300781 434.300781 443.398438 423.109375 443.398438 L 255.941406 443.398438 L 255.941406 68.609375 L 423.109375 68.609375 C 434.300781 68.609375 443.398438 77.710938 443.398438 88.890625 Z M 443.398438 88.890625 " style=" stroke:none;fill-rule:nonzero;fill:rgb(88.235294%,92.156863%,94.117647%);fill-opacity:1;" />
<path d="M 354.859375 256 C 354.859375 310.429688 310.640625 354.730469 256.238281 354.859375 L 256 354.859375 C 201.488281 354.859375 157.140625 310.511719 157.140625 256 C 157.140625 201.488281 201.488281 157.148438 256 157.148438 L 256.238281 157.148438 C 310.640625 157.28125 354.859375 201.570312 354.859375 256 Z M 354.859375 256 " style=" stroke:none;fill-rule:nonzero;fill:rgb(60.392157%,90.196078%,96.862745%);fill-opacity:1;" />
<path d="M 137.988281 143.601562 L 137.988281 204.640625 C 137.988281 213.660156 130.648438 221 121.621094 221 L 0 221 L 0 127.238281 L 121.621094 127.238281 C 130.648438 127.238281 137.988281 134.578125 137.988281 143.601562 Z M 137.988281 143.601562 " style=" stroke:none;fill-rule:nonzero;fill:rgb(70.588235%,82.352941%,84.313725%);fill-opacity:1;" />
<path d="M 137.988281 307.359375 L 137.988281 368.398438 C 137.988281 377.421875 130.648438 384.761719 121.621094 384.761719 L 0 384.761719 L 0 291 L 121.621094 291 C 130.648438 291 137.988281 298.339844 137.988281 307.359375 Z M 137.988281 307.359375 " style=" stroke:none;fill-rule:nonzero;fill:rgb(70.588235%,82.352941%,84.313725%);fill-opacity:1;" />
<path d="M 354.859375 256 C 354.859375 310.429688 310.640625 354.730469 256.238281 354.859375 L 256.238281 157.148438 C 310.640625 157.28125 354.859375 201.570312 354.859375 256 Z M 354.859375 256 " style=" stroke:none;fill-rule:nonzero;fill:rgb(18.431373%,75.294118%,94.117647%);fill-opacity:1;" />
</g>
</svg>