<svg height="512pt" viewBox="-6 0 512 512.00008" width="512pt" xmlns="http://www.w3.org/2000/svg"><path d="m499.796875 497.320312-26.226563-123.484374c-5.007812-23.578126-22.046874-42.0625-43.960937-47.683594l-103.691406-30.152344c-8.253907 13.546875-143.503907 13.546875-151.753907 0l-103.691406 30.152344c-21.914062 5.625-38.953125 24.105468-43.960937 47.683594l-26.226563 123.484374c-1.601562 7.535157 3.75 14.707032 10.949219 14.679688h477.613281c7.199219.027344 12.550782-7.144531 10.949219-14.679688zm0 0" fill="#2a4d5e"/><path d="m285.21875 350.402344 44.363281-30.191406c6.730469-6.367188 3.367188-17.679688-5.742187-19.339844-10.601563-2.089844-23.746094-14.351563-23.78125-25.15625l-.164063-48.144532-51.324219.175782-51.324218.179687.167968 48.144531c.035157 10.800782-13.023437 23.117188-23.605468 25.28125-9.101563 1.722657-12.382813 13.058594-5.609375 19.375l44.609375 29.925782c20.417968 19.042968 52.125 18.933594 72.410156-.25zm0 0" fill="#fae0c1"/><path d="m318.355469 300.871094c-10.597657-2.089844-18.261719-14.351563-18.296875-25.15625l-.042969-12.085938c-8.148437 7.832032-17.292969 15.484375-28.867187 20.0625l.039062 23.449219c.039062 10.804687 13.183594 23.066406 23.78125 25.160156 1.375.25 2.617188.722657 3.714844 1.363281 14-7.167968 25.414062-13.453124 25.414062-13.453124 6.730469-6.367188 3.371094-17.679688-5.742187-19.339844zm0 0" fill="#efd0af"/><path d="m322.214844 226.433594c-4.757813 5.585937-9.90625 10.75-14.820313 15.65625-2.40625 2.402344-4.867187 4.875-7.425781 7.332031l.089844 26.292969c.035156 10.804687 7.699218 23.066406 18.300781 25.15625 9.109375 1.660156 12.46875 12.976562 5.742187 19.339844 0 0-61.371093 33.792968-74.058593 34.066406-13.339844.292968-76.363281-33.546875-76.363281-33.546875-6.773438-6.320313-3.492188-17.65625 5.609374-19.378907 10.585938-2.164062 18.164063-14.476562 18.125-25.28125l-.09375-27.320312c-2.191406-2.101562-4.316406-4.207031-6.402343-6.257812-5.109375-5.035157-10.472657-10.34375-15.402344-16.109376-36.582031 10.90625-60.753906 29.738282-60.753906 51.148438 0 33.738281 61.398437 98.023438 135.414062 98.023438 74.011719 0 132.609375-64.285157 132.609375-98.023438 0-21.375-24.09375-40.179688-60.570312-51.097656zm0 0" fill="#1e3744"/><path d="m157.417969 125.039062-11.40625.039063c-4.132813.011719-7.933594 1.421875-10.960938 3.777344-5.257812 4.09375-7.546875 10.953125-6.332031 17.503906l4.5625 24.652344c3.542969 18.269531 24.355469 9.84375 24.355469 9.84375zm0 0" fill="#efd0af"/><path d="m339.964844 124.425781 11.410156-.039062c4.132812-.015625 7.945312 1.367187 10.988281 3.703125 5.28125 4.054687 7.617188 10.898437 6.449219 17.457031l-4.394531 24.683594c-3.414063 18.296875-24.289063 10.011719-24.289063 10.011719zm0 0" fill="#efd0af"/><path d="m311.609375 29.730469c-14.882813-13.664063-35.777344-25.566407-63.324219-25.800781-27.542968.425781-48.351562 12.46875-63.140625 26.234374-18.859375 17.5625-29.023437 43.578126-28.929687 70.390626l.011718 3.242187h.023438l.324219 93.457031c.609375 26.0625 18.660156 44.046875 34.34375 59.488282 14.433593 14.210937 30.800781 30.996093 58.347656 31.230468 27.542969-.425781 43.796875-17.320312 58.128906-31.632812 15.578125-15.550782 33.503907-33.65625 33.9375-59.722656l-.324219-93.457032h.027344l-.011718-3.238281c-.09375-26.816406-10.433594-52.761719-29.414063-70.191406zm0 0" fill="#fae0c1"/><path d="m341.007812 103.15625h.027344l-.011718-3.238281c-.09375-26.8125-10.433594-52.757813-29.414063-70.1875-7.167969-6.582031-15.734375-12.75-25.761719-17.40625l.007813 90.832031h-.027344l.324219 93.460938c-.433594 26.066406-18.359375 44.171874-33.9375 59.722656-8.800782 8.789062-18.332032 18.542968-30.75 24.871094 7.921875 4.027343 17 6.671874 27.800781 6.761718 27.542969-.425781 43.796875-17.320312 58.128906-31.632812 15.578125-15.550782 33.503907-33.65625 33.9375-59.722656zm0 0" fill="#efd0af"/><path d="m290.839844 0h-81.597656c-38.421876 0-69.566407 31.144531-69.566407 69.566406v46.316406c0 5.707032 3.902344 10.652344 9.445313 12.027344 4.664062 1.15625 10.222656 3.40625 14.632812 7.769532 1.960938 1.941406 5.296875.523437 5.296875-2.238282v-48.3125c0-14.605468 14.035157-25.113281 28.046875-20.996094l25.675782 7.542969c17.042968 5.003907 35.152343 5.074219 52.234374.203125l28.140626-8.027344c13.976562-3.988281 27.882812 6.507813 27.882812 21.039063v48.550781c0 2.761719 3.335938 4.179688 5.296875 2.238282 4.410156-4.363282 9.96875-6.613282 14.632813-7.769532 5.539062-1.375 9.445312-6.316406 9.445312-12.027344v-46.316406c0-38.421875-31.148438-69.566406-69.566406-69.566406zm0 0" fill="#f8ad3b"/><path d="m290.839844 0h-55.179688c36.347656 0 66.183594 27.875 69.296875 63.414062 13.34375-2.636718 26.074219 7.570313 26.074219 21.476563v48.550781c0 2.761719 3.335938 4.179688 5.296875 2.238282 4.410156-4.363282 9.96875-6.613282 14.632813-7.769532 5.539062-1.375 9.445312-6.316406 9.445312-12.027344v-46.316406c0-38.421875-31.148438-69.566406-69.566406-69.566406zm0 0" fill="#f79f48"/><path d="m341.320312 193.964844-77.820312-20.355469c-8.824219-2.308594-18.09375-2.308594-26.917969 0l-80.019531 20.925781.011719 2.71875c.609375 26.0625 18.660156 44.046875 34.34375 59.488282 14.433593 14.210937 30.800781 30.996093 58.347656 31.230468 27.542969-.425781 43.796875-17.320312 58.128906-31.632812 15.578125-15.550782 33.503907-33.65625 33.9375-59.722656zm0 0" fill="#676a75"/><path d="m286.089844 179.519531.0625 17.097657c-.433594 26.066406-18.359375 44.171874-33.9375 59.722656-8.800782 8.789062-18.332032 18.542968-30.75 24.871094 7.921875 4.027343 17 6.671874 27.800781 6.761718 27.542969-.425781 43.796875-17.320312 58.128906-31.632812 15.578125-15.550782 33.503907-33.65625 33.9375-59.722656l-.011719-2.652344zm0 0" fill="#454851"/><path d="m499.796875 497.320312-26.226563-123.484374c-5.007812-23.578126-22.046874-42.0625-43.960937-47.683594l-58.453125-16.996094c-7.976562 12.273438-19.746094 24.976562-34.320312 35.945312l41.613281 12.84375c21.914062 5.621094 38.953125 24.105469 43.960937 47.679688l22.558594 106.210938 43.878906.164062c7.199219.027344 12.550782-7.144531 10.949219-14.679688zm0 0" fill="#214451"/><g fill="#1e3744"><path d="m94.441406 511.691406 19.304688-100.789062c.785156-4.113282-1.90625-8.082032-6.019532-8.871094-4.109374-.789062-8.082031 1.90625-8.867187 6.019531l-19.863281 103.699219zm0 0"/><path d="m402.738281 406.9375c-.816406-4.109375-4.800781-6.777344-8.910156-5.960938-4.105469.8125-6.773437 4.800782-5.957031 8.90625l20.179687 101.820313 15.464844.054687zm0 0"/></g></svg>