<svg height="512pt" viewBox="-26 0 512 512" width="512pt" xmlns="http://www.w3.org/2000/svg"><path d="m320.769531 284.105469c-4.257812 0-7.707031-3.449219-7.707031-7.703125v-268.695313c0-4.257812 3.449219-7.707031 7.707031-7.707031 4.257813 0 7.707031 3.449219 7.707031 7.707031v268.695313c0 4.253906-3.453124 7.703125-7.707031 7.703125zm0 0" fill="#2a4d5e"/><path d="m190.441406 212.875-142.390625 79.890625v212.972656c0 3.457031 2.804688 6.261719 6.261719 6.261719h272.257812c3.457032 0 6.261719-2.804688 6.261719-6.261719v-212.976562zm0 0" fill="#ededed"/><path d="m280.460938 263.378906v248.621094h46.113281c3.457031 0 6.257812-2.800781 6.257812-6.261719v-212.976562zm0 0" fill="#d6d6d6"/><path d="m375.597656 300.144531-180.574218-101.308593c-2.847657-1.597657-6.316407-1.597657-9.160157 0l-180.578125 101.308593c-5.042968 2.832031-6.789062 9.242188-3.875 14.238281l10.835938 18.5625c2.84375 4.875 9.074218 6.570313 13.996094 3.808594l159.621093-89.554687c2.84375-1.59375 6.3125-1.59375 9.15625 0l159.621094 89.554687c4.921875 2.761719 11.152344 1.066406 13.996094-3.808594l10.835937-18.5625c2.914063-4.996093 1.167969-11.40625-3.875-14.238281zm0 0" fill="#f43b45"/><path d="m375.597656 300.144531-34.558594-19.386719-21.261718 36.4375 34.863281 19.558594c4.925781 2.761719 11.152344 1.066406 13.996094-3.808594l10.835937-18.5625c2.914063-4.996093 1.167969-11.40625-3.875-14.238281zm0 0" fill="#cf3735"/><path d="m174.074219 512v-135.410156c0-3.503906-2.839844-6.347656-6.34375-6.347656h-69.003907c-3.503906 0-6.347656 2.84375-6.347656 6.347656v135.410156zm0 0" fill="#676a75"/><path d="m167.730469 370.242188h-46.066407v141.757812h52.410157v-135.410156c0-3.503906-2.839844-6.347656-6.34375-6.347656zm0 0" fill="#454851"/><path d="m284.246094 431.820312h-73.460938c-2.320312 0-4.199218-1.882812-4.199218-4.203124v-53.171876c0-2.320312 1.878906-4.203124 4.199218-4.203124h73.460938c2.320312 0 4.199218 1.882812 4.199218 4.203124v53.171876c0 2.320312-1.878906 4.203124-4.199218 4.203124zm0 0" fill="#75cff2"/><path d="m284.246094 370.242188h-48.253906v61.578124h48.253906c2.320312 0 4.199218-1.882812 4.199218-4.203124v-53.171876c0-2.320312-1.878906-4.203124-4.199218-4.203124zm0 0" fill="#53b4e4"/><path d="m320.769531 14.808594c-77.3125 0-139.984375 62.671875-139.984375 139.980468 0 .367188.003906.734376.007813 1.101563.019531 1.941406 2.046875 3.203125 3.792969 2.359375 11.964843-5.773438 50.808593-21.367188 83.695312.867188.914062.617187 2.117188.566406 3.023438-.066407 15.019531-10.570312 32.914062-14.941406 49.464843-15.5 16.550781.554688 34.445313 4.929688 49.46875 15.5.902344.632813 2.105469.683594 3.019531.066407 32.886719-22.234376 71.730469-6.640626 83.695313-.867188 1.746094.84375 3.777344-.417969 3.792969-2.359375.003906-.367187.007812-.734375.007812-1.101563-.003906-77.308593-62.675781-139.980468-139.984375-139.980468zm0 0" fill="#f8ad3b"/><path d="m320.769531 14.808594c-.363281 0-.722656.003906-1.082031.003906 49.625 22.785156 85.289062 76.390625 88.082031 132.859375 21.796875-1.273437 41.308594 6.777344 49.179688 10.578125 1.75.84375 3.777343-.414062 3.796875-2.359375.003906-.367187.003906-.730469.003906-1.101563 0-77.308593-62.671875-139.980468-139.980469-139.980468zm0 0" fill="#f79f48"/><path d="m153.804688 455.863281c4.253906 0 7.703124-3.449219 7.703124-7.707031v-16.339844c0-4.253906-3.449218-7.703125-7.703124-7.703125-4.257813 0-7.707032 3.449219-7.707032 7.703125v16.339844c0 4.257812 3.449219 7.707031 7.707032 7.707031zm0 0" fill="#ededed"/><path d="m308.070312 15.386719c-10.015624 8.257812-18.242187 18.835937-24.066406 31.09375-9.214844 19.386719-12.984375 34.167969-13.304687 35.472656-8.125 30.992187-8.867188 61.285156-8.792969 73.355469 2.140625 1.125 4.273438 2.386718 6.375 3.808594.914062.617187 2.117188.570312 3.023438-.066407 1.960937-1.378906 3.972656-2.648437 6.023437-3.824219-.050781-11.234374.660156-40.332031 8.292969-69.417968.007812-.042969.019531-.085938.03125-.128906.035156-.140626 3.492187-14.117188 12.269531-32.582032 5.40625-11.371094 13.238281-20.992187 22.824219-28.082031 41.011718 30.777344 43.515625 109.8125 43.457031 130.207031 2.054687 1.175782 4.070313 2.445313 6.035156 3.828125.902344.632813 2.105469.683594 3.019531.066407 2.105469-1.421876 4.230469-2.683594 6.375-3.808594.054688-9.707032-.421874-31.207032-4.835937-55.421875-7.132813-39.140625-21.042969-67.492188-41.398437-84.507813-4.160157-.371094-8.371094-.570312-12.628907-.570312-4.28125 0-8.515625.203125-12.699219.578125zm0 0" fill="#e58d3e"/></svg>