<svg xmlns="http://www.w3.org/2000/svg" height="512pt" version="1.1" viewBox="0 -25 512.00002 512" width="512pt">
<g id="surface1">
<path d="M 481.308594 184.074219 C 470.816406 132.804688 442.683594 86.128906 402.109375 52.636719 C 361.113281 18.8125 309.257812 0.128906 256.019531 0 L 255.46875 0 C 145.367188 0 50.203125 78.320312 29.203125 186.234375 L 29.632812 276.953125 C 40.121094 328.222656 68.246094 374.898438 108.832031 408.390625 C 149.964844 442.335938 202.042969 461.027344 255.46875 461.027344 L 256.019531 461.027344 C 365.902344 460.769531 460.777344 382.519531 481.738281 274.773438 Z M 256.019531 335.492188 C 255.839844 335.5 255.648438 335.5 255.46875 335.5 C 197.484375 335.5 150.476562 288.496094 150.476562 230.519531 C 150.476562 172.53125 197.484375 125.527344 255.46875 125.527344 C 255.648438 125.527344 255.839844 125.527344 256.019531 125.535156 C 313.746094 125.824219 360.453125 172.710938 360.453125 230.519531 C 360.453125 288.316406 313.746094 335.203125 256.019531 335.492188 Z M 256.019531 335.492188 " style=" stroke:none;fill-rule:nonzero;fill:rgb(100%,89.411765%,46.666667%);fill-opacity:1;" />
<path d="M 481.738281 274.773438 C 460.777344 382.519531 365.902344 460.769531 256.019531 461.027344 L 256.019531 335.492188 C 313.746094 335.203125 360.453125 288.316406 360.453125 230.519531 C 360.453125 172.710938 313.746094 125.824219 256.019531 125.535156 L 256.019531 0 C 309.257812 0.128906 361.113281 18.8125 402.109375 52.636719 C 442.683594 86.128906 470.816406 132.804688 481.308594 184.074219 Z M 481.738281 274.773438 " style=" stroke:none;fill-rule:nonzero;fill:rgb(100%,80.392157%,0%);fill-opacity:1;" />
<path d="M 171.414062 174.097656 L 18.480469 174.097656 C 8.292969 174.097656 0 182.390625 0 192.582031 L 0 268.417969 C 0 278.609375 8.292969 286.898438 18.480469 286.898438 L 171.414062 286.898438 C 181.601562 286.898438 189.894531 278.609375 189.894531 268.417969 L 189.894531 192.582031 C 189.894531 182.390625 181.601562 174.097656 171.414062 174.097656 Z M 171.414062 174.097656 " style=" stroke:none;fill-rule:nonzero;fill:rgb(100%,76.862745%,46.666667%);fill-opacity:1;" />
<path d="M 493.519531 174.113281 L 340.589844 174.113281 C 330.398438 174.113281 322.105469 182.402344 322.105469 192.59375 L 322.105469 268.433594 C 322.105469 278.621094 330.398438 286.914062 340.589844 286.914062 L 493.519531 286.914062 C 503.707031 286.914062 512 278.625 512 268.433594 L 512 192.59375 C 512 182.402344 503.710938 174.113281 493.519531 174.113281 Z M 493.519531 174.113281 " style=" stroke:none;fill-rule:nonzero;fill:rgb(100%,56.862745%,0%);fill-opacity:1;" />
</g>
</svg>