<svg height="512pt" viewBox="0 -36 512.00001 512" width="512pt" xmlns="http://www.w3.org/2000/svg"><path d="m442.855469 391.441406h-432.175781c-5.898438 0-10.679688-4.78125-10.679688-10.679687v-370.082031c0-5.898438 4.78125-10.679688 10.679688-10.679688h432.175781c5.898437 0 10.679687 4.78125 10.679687 10.679688v370.082031c0 5.898437-4.78125 10.679687-10.679687 10.679687zm0 0" fill="#ededed"/><path d="m442.855469 0h-41.160157v339.800781c0 15.070313-12.21875 27.285157-27.289062 27.285157h-374.40625v13.675781c0 5.898437 4.78125 10.679687 10.679688 10.679687h432.175781c5.898437 0 10.679687-4.78125 10.679687-10.679687v-370.082031c0-5.898438-4.78125-10.679688-10.679687-10.679688zm0 0" fill="#d6d6d6"/><path d="m344.683594 223.214844c0 65.121094-52.792969 117.914062-117.917969 117.914062-65.121094 0-117.914063-52.792968-117.914063-117.914062 0-65.125 52.792969-117.917969 117.914063-117.917969 65.125 0 117.917969 52.792969 117.917969 117.917969zm0 0" fill="#75cff2"/><path d="m226.765625 105.296875c-8.90625 0-17.578125.996094-25.917969 2.867187 52.652344 11.808594 91.996094 58.832032 91.996094 115.050782 0 56.214844-39.34375 103.238281-91.996094 115.050781 8.339844 1.871094 17.011719 2.863281 25.917969 2.863281 65.125 0 117.917969-52.792968 117.917969-117.914062 0-65.125-52.792969-117.917969-117.917969-117.917969zm0 0" fill="#53b4e4"/><path d="m453.535156 10.679688c0-5.898438-4.78125-10.679688-10.679687-10.679688h-432.175781c-5.898438 0-10.679688 4.78125-10.679688 10.679688v55.59375h453.535156zm0 0" fill="#676a75"/><path d="m453.535156 66.273438v-55.59375c0-5.898438-4.78125-10.679688-10.679687-10.679688h-41.160157v66.273438zm0 0" fill="#454851"/><g fill="#f2ca20"><path d="m332.921875 33.136719c0 4.292969-3.480469 7.773437-7.773437 7.773437-4.292969 0-7.773438-3.480468-7.773438-7.773437s3.480469-7.773438 7.773438-7.773438c4.292968 0 7.773437 3.480469 7.773437 7.773438zm0 0"/><path d="m372.71875 33.136719c0 4.292969-3.480469 7.773437-7.773438 7.773437-4.292968 0-7.773437-3.480468-7.773437-7.773437s3.480469-7.773438 7.773437-7.773438c4.292969 0 7.773438 3.480469 7.773438 7.773438zm0 0"/><path d="m412.511719 33.136719c0 4.292969-3.480469 7.773437-7.773438 7.773437s-7.769531-3.480468-7.769531-7.773437 3.476562-7.773438 7.769531-7.773438 7.773438 3.480469 7.773438 7.773438zm0 0"/></g><path d="m287.351562 175.039062c14.238282-1.851562 27.902344-4.355468 40.691407-7.496093.796875-.195313 1.53125-.507813 2.195312-.914063-2.566406-4.6875-5.445312-9.175781-8.601562-13.445312-12.003907 2.828125-24.777344 5.101562-38.089844 6.773437-6.773437-22.765625-17.160156-40.828125-29.757813-51.542969-8.679687-2.035156-17.722656-3.117187-27.023437-3.117187-9.296875 0-18.34375 1.082031-27.023437 3.117187-12.597657 10.714844-22.980469 28.777344-29.753907 51.542969-13.3125-1.671875-26.085937-3.941406-38.089843-6.773437-3.167969 4.28125-6.050782 8.78125-8.621094 13.476562.632812.375 1.328125.667969 2.082031.851563 12.828125 3.15625 26.535156 5.671875 40.824219 7.527343-2.636719 12.535157-4.261719 26.132813-4.695313 40.449219h-52.378906c-.164063 2.554688-.257813 5.128907-.257813 7.726563s.09375 5.171875.257813 7.726562h52.378906c.523438 17.292969 2.785157 33.542969 6.46875 48.128906-13.171875 1.65625-25.867187 3.863282-37.820312 6.609376-.984375.226562-1.871094.636718-2.652344 1.175781 2.945313 4.585937 6.207031 8.957031 9.742187 13.078125 11.171876-2.433594 22.976563-4.398438 35.21875-5.859375 6.710938 19.1875 16.136719 34.445312 27.296876 43.941406 8.679687 2.035156 17.726562 3.113281 27.023437 3.113281 9.300781 0 18.347656-1.078125 27.027344-3.113281 11.160156-9.496094 20.585937-24.753906 27.296875-43.941406 12.242187 1.460937 24.046875 3.425781 35.21875 5.859375 3.535156-4.121094 6.796875-8.492188 9.742187-13.078125-.78125-.539063-1.671875-.949219-2.652343-1.175781-11.953126-2.746094-24.648438-4.953126-37.820313-6.609376 3.683594-14.585937 5.945313-30.835937 6.46875-48.128906h52.378906c.164063-2.554687.257813-5.128906.257813-7.726562s-.09375-5.171875-.257813-7.726563h-52.378906c-.433594-14.316406-2.058594-27.914062-4.695313-40.449219zm-68.3125 156.894532c-9.5-3.585938-18.71875-13.621094-26.113281-28.734375-1.65625-3.390625-3.183593-6.980469-4.597656-10.714844 10.058594-.828125 20.332031-1.332031 30.710937-1.5zm0-56.402344c-12.027343.1875-23.925781.8125-35.542968 1.859375-3.769532-14.179687-6.003906-29.953125-6.535156-46.449219h42.078124zm0-60.042969h-42.078124c.4375-13.558593 2.027343-26.621093 4.671874-38.71875 12.191407 1.152344 24.714844 1.835938 37.40625 2.03125zm0-52.140625c-11.316406-.183594-22.484374-.765625-33.382812-1.726562 2.082031-6.570313 4.503906-12.742188 7.269531-18.390625 7.394531-15.117188 16.613281-25.152344 26.113281-28.734375zm15.453126-48.851562c9.503906 3.582031 18.722656 13.617187 26.113281 28.734375 2.765625 5.648437 5.1875 11.820312 7.273437 18.386719-10.898437.964843-22.066406 1.546874-33.386718 1.726562zm26.113281 188.703125c-7.390625 15.113281-16.609375 25.148437-26.113281 28.734375v-40.949219c10.382812.167969 20.652343.671875 30.710937 1.5-1.414063 3.734375-2.9375 7.324219-4.597656 10.714844zm9.433593-25.808594c-11.617187-1.046875-23.519531-1.671875-35.546874-1.859375v-44.589844h42.082031c-.535157 16.496094-2.765625 32.269532-6.535157 46.449219zm-35.546874-61.902344v-36.6875c12.691406-.195312 25.214843-.878906 37.40625-2.03125 2.648437 12.097657 4.234374 25.160157 4.675781 38.71875zm0 0" fill="#44a6cc"/><path d="m512 350.855469c0 49.054687-39.769531 88.824219-88.824219 88.824219-49.058593 0-88.828125-39.769532-88.828125-88.824219 0-49.058594 39.769532-88.828125 88.828125-88.828125 49.054688 0 88.824219 39.769531 88.824219 88.828125zm0 0" fill="#a4d852"/><path d="m423.175781 262.027344c-9.113281 0-17.902343 1.378906-26.175781 3.925781 36.28125 11.171875 62.652344 44.953125 62.652344 84.902344 0 39.945312-26.371094 73.726562-62.652344 84.898437 8.273438 2.550782 17.0625 3.925782 26.175781 3.925782 49.054688 0 88.824219-39.769532 88.824219-88.824219 0-49.058594-39.769531-88.828125-88.824219-88.828125zm0 0" fill="#97c63e"/><path d="m449.5625 344.574219c-4.269531 0-7.726562-3.457031-7.726562-7.722657v-18.6875c0-10.289062-8.371094-18.660156-18.660157-18.660156-10.292969 0-18.664062 8.371094-18.664062 18.660156v18.6875c0 4.265626-3.457031 7.722657-7.726563 7.722657-4.265625 0-7.726562-3.457031-7.726562-7.722657v-18.6875c0-18.808593 15.304687-34.113281 34.117187-34.113281 18.808594 0 34.113281 15.304688 34.113281 34.113281v18.6875c0 4.265626-3.460937 7.722657-7.726562 7.722657zm0 0" fill="#ededed"/><path d="m461.886719 399.871094h-77.425781c-2.109376 0-3.824219-1.710938-3.824219-3.824219v-55.371094c0-2.113281 1.710937-3.828125 3.824219-3.828125h77.425781c2.109375 0 3.824219 1.714844 3.824219 3.828125v55.371094c0 2.113281-1.714844 3.824219-3.824219 3.824219zm0 0" fill="#f79f48"/><path d="m399.195312 380.703125c-4.269531 0-7.726562-3.460937-7.726562-7.726563v-11.292968c0-4.269532 3.460938-7.726563 7.726562-7.726563 4.265626 0 7.726563 3.460938 7.726563 7.726563v11.292968c0 4.265626-3.457031 7.726563-7.726563 7.726563zm0 0" fill="#ffe471"/><path d="m422.824219 380.703125c-4.265625 0-7.726563-3.460937-7.726563-7.726563v-11.292968c0-4.269532 3.460938-7.726563 7.726563-7.726563 4.269531 0 7.726562 3.460938 7.726562 7.726563v11.292968c0 4.265626-3.457031 7.726563-7.726562 7.726563zm0 0" fill="#ffe471"/><path d="m446.453125 380.703125c-4.265625 0-7.722656-3.460937-7.722656-7.726563v-11.292968c0-4.269532 3.457031-7.726563 7.722656-7.726563 4.269531 0 7.726563 3.460938 7.726563 7.726563v11.292968c0 4.265626-3.457032 7.726563-7.726563 7.726563zm0 0" fill="#ffe471"/></svg>