<svg xmlns="http://www.w3.org/2000/svg" height="512pt" version="1.1" viewBox="0 -61 512 512" width="512pt">
<g id="surface1">
<path d="M 445.128906 204.109375 C 428.621094 239.570312 402.488281 269.671875 369.570312 291.078125 C 335.769531 313.070312 296.5 324.699219 256 324.699219 C 215.5 324.699219 176.21875 313.070312 142.429688 291.078125 C 109.511719 269.671875 83.378906 239.570312 66.839844 204.039062 C 64.011719 197.921875 64.019531 190.960938 66.871094 184.921875 C 83.378906 149.460938 109.511719 119.359375 142.429688 97.949219 C 176.21875 75.960938 215.5 64.328125 256 64.328125 C 296.5 64.328125 335.769531 75.960938 369.578125 97.949219 C 402.488281 119.359375 428.621094 149.460938 445.160156 184.988281 L 445.171875 185.019531 C 447.988281 191.109375 447.980469 198.070312 445.128906 204.109375 Z M 445.128906 204.109375 " style=" stroke:none;fill-rule:nonzero;fill:rgb(88.235294%,92.156863%,94.117647%);fill-opacity:1;" />
<path d="M 445.128906 204.109375 C 428.621094 239.570312 402.488281 269.671875 369.570312 291.078125 C 335.769531 313.070312 296.5 324.699219 256 324.699219 L 256 64.328125 C 296.5 64.328125 335.769531 75.960938 369.578125 97.949219 C 402.488281 119.359375 428.621094 149.460938 445.160156 184.988281 L 445.171875 185.019531 C 447.988281 191.109375 447.980469 198.070312 445.128906 204.109375 Z M 445.128906 204.109375 " style=" stroke:none;fill-rule:nonzero;fill:rgb(70.588235%,82.352941%,84.313725%);fill-opacity:1;" />
<path d="M 342.648438 194.519531 C 342.648438 242.289062 303.78125 281.160156 256 281.160156 C 208.21875 281.160156 169.351562 242.289062 169.351562 194.519531 C 169.351562 146.738281 208.21875 107.859375 256 107.859375 C 303.78125 107.859375 342.648438 146.738281 342.648438 194.519531 Z M 342.648438 194.519531 " style=" stroke:none;fill-rule:nonzero;fill:rgb(60.392157%,90.196078%,96.862745%);fill-opacity:1;" />
<path d="M 342.648438 194.519531 C 342.648438 242.289062 303.78125 281.160156 256 281.160156 L 256 107.859375 C 303.78125 107.859375 342.648438 146.738281 342.648438 194.519531 Z M 342.648438 194.519531 " style=" stroke:none;fill-rule:nonzero;fill:rgb(18.431373%,75.294118%,94.117647%);fill-opacity:1;" />
<path d="M 495.128906 390.882812 L 395.632812 390.882812 C 387.347656 390.882812 380.632812 384.164062 380.632812 375.882812 C 380.632812 367.597656 387.347656 360.882812 395.632812 360.882812 L 482 360.882812 L 482 281.441406 C 482 273.15625 488.714844 266.441406 497 266.441406 C 505.285156 266.441406 512 273.15625 512 281.441406 L 512 374.007812 C 512 383.3125 504.429688 390.882812 495.128906 390.882812 Z M 495.128906 390.882812 " style=" stroke:none;fill-rule:nonzero;fill:rgb(21.568627%,23.529412%,25.490196%);fill-opacity:1;" />
<path d="M 114.613281 390.882812 L 16.871094 390.882812 C 7.570312 390.882812 0 383.3125 0 374.007812 L 0 281.441406 C 0 273.15625 6.714844 266.441406 15 266.441406 C 23.285156 266.441406 30 273.15625 30 281.441406 L 30 360.878906 L 114.613281 360.878906 C 122.894531 360.878906 129.613281 367.597656 129.613281 375.878906 C 129.613281 384.164062 122.898438 390.882812 114.613281 390.882812 Z M 114.613281 390.882812 " style=" stroke:none;fill-rule:nonzero;fill:rgb(41.176471%,43.137255%,45.098039%);fill-opacity:1;" />
<path d="M 15 124.441406 C 6.714844 124.441406 0 117.722656 0 109.441406 L 0 16.871094 C 0 7.566406 7.570312 0 16.871094 0 L 116.367188 0 C 124.652344 0 131.367188 6.714844 131.367188 15 C 131.367188 23.285156 124.652344 30 116.367188 30 L 30 30 L 30 109.441406 C 30 117.722656 23.285156 124.441406 15 124.441406 Z M 15 124.441406 " style=" stroke:none;fill-rule:nonzero;fill:rgb(41.176471%,43.137255%,45.098039%);fill-opacity:1;" />
<path d="M 497 124.441406 C 488.714844 124.441406 482 117.722656 482 109.441406 L 482 30 L 397.386719 30 C 389.105469 30 382.386719 23.285156 382.386719 15 C 382.386719 6.714844 389.105469 0 397.386719 0 L 495.128906 0 C 504.429688 0 512 7.566406 512 16.871094 L 512 109.441406 C 512 117.722656 505.285156 124.441406 497 124.441406 Z M 495.128906 30 L 495.136719 30 Z M 495.128906 30 " style=" stroke:none;fill-rule:nonzero;fill:rgb(21.568627%,23.529412%,25.490196%);fill-opacity:1;" />
<path d="M 512 194.519531 C 512 202.800781 505.28125 209.519531 497 209.519531 L 15 209.519531 C 6.71875 209.519531 0 202.800781 0 194.519531 C 0 186.230469 6.71875 179.519531 15 179.519531 L 497 179.519531 C 505.28125 179.519531 512 186.230469 512 194.519531 Z M 512 194.519531 " style=" stroke:none;fill-rule:nonzero;fill:rgb(100%,50.588235%,42.352941%);fill-opacity:1;" />
<path d="M 512 194.519531 C 512 202.800781 505.28125 209.519531 497 209.519531 L 256 209.519531 L 256 179.519531 L 497 179.519531 C 505.28125 179.519531 512 186.230469 512 194.519531 Z M 512 194.519531 " style=" stroke:none;fill-rule:nonzero;fill:rgb(93.72549%,24.313725%,20.784314%);fill-opacity:1;" />
</g>
</svg>