<svg height="511pt" viewBox="-41 0 511 511.99969" width="511pt" xmlns="http://www.w3.org/2000/svg"><path d="m222.789062 32.519531v-24.910156c0-4.203125-3.40625-7.609375-7.609374-7.609375-4.203126 0-7.613282 3.40625-7.613282 7.609375v24.910156zm0 0" fill="#214451"/><path d="m207.566406 223.015625h15.222656v190.542969h-15.222656zm0 0" fill="#214451"/><path d="m215.179688 28.222656c-118.566407 0-214.679688 96.117188-214.679688 214.679688 0 .5625.003906 1.125.007812 1.6875.027344 2.976562 3.140626 4.910156 5.820313 3.617187 18.347656-8.855469 77.917969-32.765625 128.351563 1.328125 1.40625.949219 3.25.871094 4.636718-.101562 23.039063-16.207032 50.480469-22.914063 75.863282-23.769532 25.378906.855469 52.824218 7.5625 75.863281 23.769532 1.386719.972656 3.230469 1.050781 4.632812.101562 50.433594-34.09375 110.007813-10.183594 128.351563-1.328125 2.683594 1.296875 5.792968-.636719 5.824218-3.617187.003907-.5625.007813-1.125.007813-1.6875 0-118.5625-96.117187-214.679688-214.679687-214.679688zm0 0" fill="#f43b45"/><path d="m215.179688 28.222656c-.246094 0-.492188.007813-.738282.007813 91.359375 22.992187 159.15625 107.78125 163.242188 205.351562 20.871094 3.351563 37.9375 10.566407 46.34375 14.625 2.683594 1.296875 5.792968-.636719 5.824218-3.617187.003907-.5625.007813-1.125.007813-1.6875 0-118.5625-96.117187-214.679688-214.679687-214.679688zm0 0" fill="#cf3735"/><path d="m136.878906 250.199219c.851563.003906 1.707032-.253907 2.4375-.765625 23.039063-16.207032 50.480469-22.914063 75.863282-23.769532 25.378906.855469 52.820312 7.5625 75.863281 23.769532.726562.511718 1.582031.769531 2.433593.765625.027344-.636719 7.089844-167.960938-78.296874-221.976563-85.386719 54.015625-78.328126 221.339844-78.300782 221.976563zm0 0" fill="#ededed"/><path d="m215.179688 28.222656c32.605468 66.960938 31.183593 159.859375 28.601562 200.964844 16.425781 3.578125 32.71875 10.015625 47.261719 20.246094.726562.511718 1.582031.769531 2.433593.765625.027344-.636719 7.089844-167.960938-78.296874-221.976563zm0 0" fill="#d6d6d6"/><path d="m271.277344 443.578125c-7.035156.128906-12.539063 6.164063-12.539063 13.199219v13.828125c0 8.277343-6.347656 15.410156-14.617187 15.820312-8.835938.433594-16.164063-6.628906-16.164063-15.371093v-65.914063c0-3.007813-2.4375-5.445313-5.445312-5.445313h-14.664063c-3.007812 0-5.445312 2.4375-5.445312 5.445313v65.144531c0 22.359375 17.605468 41.175782 39.957031 41.703125 23.027344.542969 41.9375-18.027343 41.9375-40.933593v-14.699219c-.003906-7.136719-5.855469-12.910157-13.019531-12.777344zm0 0" fill="#a04917"/></svg>