<svg width="357" height="339" xmlns="http://www.w3.org/2000/svg">
 <g>
  <title>Layer 1</title>
  <g stroke="null" id="svg_12">
   <path stroke-dasharray="5,2,2,2,2,2" fill="#0F9D58" stroke="null" id="svg_10" d="m102.17904,274.18519c-15.80062,0 -28.58475,12.92778 -28.58475,28.7284s12.78413,28.72839 28.58475,28.72839s28.72839,-12.92778 28.72839,-28.72839s-12.92777,-28.7284 -28.72839,-28.7284zm-86.18518,-229.82713l0,28.72839l28.7284,0l51.7111,109.02425l-19.39166,35.19228c-2.29827,4.02197 -3.59105,8.76216 -3.59105,13.78963c0,15.80061 12.92777,28.72839 28.72839,28.72839l172.37035,0l0,-28.72839l-166.33739,0c-2.01098,0 -3.59105,-1.58007 -3.59105,-3.59105l0.43093,-1.72371l12.92778,-23.41363l107.01326,0c10.77314,0 20.25351,-5.88932 25.13734,-14.79513l51.42382,-93.22363c1.14914,-2.01098 1.7237,-4.4529 1.7237,-6.89481c0,-7.90031 -6.46388,-14.3642 -14.36419,-14.3642l-212.44646,0l-13.50234,-28.72839l-46.97092,0l-0.00001,0zm229.82714,229.82713c-15.80062,0 -28.58475,12.92778 -28.58475,28.7284s12.78413,28.72839 28.58475,28.72839s28.72839,-12.92778 28.72839,-28.72839s-12.92778,-28.7284 -28.72839,-28.7284z"/>
   <path stroke-dasharray="5,2,2,2,2,2" stroke="null" id="svg_11" fill="none" d="m1.62967,15.62967l344.7407,0l0,344.7407l-344.7407,0l0,-344.7407z"/>
  </g>
  <ellipse stroke="null" ry="123.615626" rx="100.132466" id="svg_22" cy="80.798128" cx="264.632466" fill-opacity="null" stroke-opacity="null" stroke-width="1.5" fill="#fff"/>
  <path stroke="null" id="svg_4" fill="#0F9D58" d="m251.370362,20.827202l-64.777772,28.790114l0,43.185192c0,39.946291 27.638521,77.301473 64.777772,86.370352c37.139251,-9.06888 64.777772,-46.424061 64.777772,-86.370363l0,-43.185182l-64.777772,-28.790114zm0,79.100856l50.382715,0c-3.814697,29.653824 -23.607905,56.068759 -50.382715,64.345922l0,-64.273949l-50.382715,0l0,-41.025921l50.382715,-22.384317l0,63.338266z"/>
  <path stroke="null" id="svg_5" fill="none" d="m164.999999,18.629668l172.740726,0l0,172.740726l-172.740726,0l0,-172.740726z"/>
 </g>
</svg>
