<svg height="512pt" viewBox="0 0 512 512" width="512pt" xmlns="http://www.w3.org/2000/svg"><path d="m512 256c0 141.386719-114.613281 256-256 256s-256-114.613281-256-256 114.613281-256 256-256 256 114.613281 256 256zm0 0" fill="#ffd400"/><path d="m100.253906 302.507812 204.78125 204.78125c117.925782-22.878906 206.964844-126.675781 206.964844-251.289062 0-1.808594-.03125-3.605469-.066406-5.40625l-132.707032-132.703125zm0 0" fill="#fdba12"/><path d="m355.472656 312.132812h-230.402344c-20.332031 0-36.816406-16.484374-36.816406-36.820312v-129.304688c0-20.332031 16.484375-36.816406 36.816406-36.816406h230.402344c20.332032 0 36.816406 16.484375 36.816406 36.816406v129.304688c0 20.335938-16.484374 36.820312-36.816406 36.820312zm0 0" fill="#4a7aff"/><path d="m355.472656 109.191406h-118.710937v202.941406h118.707031c20.335938 0 36.820312-16.484374 36.820312-36.820312v-129.304688c0-20.332031-16.484374-36.816406-36.816406-36.816406zm0 0" fill="#2864f0"/><path d="m88.253906 151.972656h304.035156v58.6875h-304.035156zm0 0" fill="#414952"/><path d="m236.761719 151.972656h155.527343v58.6875h-155.527343zm0 0" fill="#333940"/><path d="m109.308594 265.011719h82.679687v20.238281h-82.679687zm0 0" fill="#a3d4ff"/><path d="m109.308594 238.125h50.300781v15.324219h-50.300781zm0 0" fill="#a3d4ff"/><path d="m400.574219 372.125-52.964844 29.425781-52.964844-29.425781c-18.652343-10.363281-30.21875-30.019531-30.21875-51.355469v-110.675781l83.183594-17.3125 83.183594 17.3125v110.671875c0 21.339844-11.566407 40.996094-30.21875 51.359375zm0 0" fill="#09ce67"/><path d="m347.609375 192.78125v208.769531l52.964844-29.425781c18.652343-10.363281 30.222656-30.019531 30.222656-51.355469v-110.675781zm0 0" fill="#1aad5c"/><path d="m347.609375 418.273438-60.066406-33.367188c-23.277344-12.933594-37.738281-37.507812-37.738281-64.136719v-122.566406l97.804687-20.355469 97.804687 20.355469v122.566406c0 26.628907-14.460937 51.203125-37.738281 64.136719zm-68.5625-196.289063v98.785156c0 16.015625 8.695313 30.796875 22.695313 38.574219l45.867187 25.480469 45.863281-25.480469c14.003906-7.777344 22.699219-22.558594 22.699219-38.574219v-98.785156l-68.5625-14.269531zm0 0" fill="#fff"/><path d="m347.609375 177.847656v29.867188l68.566406 14.269531v98.785156c0 16.015625-8.699219 30.796875-22.699219 38.574219l-45.867187 25.480469v33.449219l60.066406-33.367188c23.277344-12.933594 37.738281-37.507812 37.738281-64.136719v-122.566406zm0 0" fill="#e9edf5"/></svg>