<svg id="Layer_1" data-name="Layer 1" xmlns="http://www.w3.org/2000/svg" xmlns:xlink="http://www.w3.org/1999/xlink" viewBox="0 0 2315.29 1080"><defs><clipPath id="clip-path" transform="translate(3)"><path id="Path_1" data-name="Path 1" d="M489.34,0S636,466.13,1021.89,574.18,1485,828.88,1485,828.88s54,100.34,297.15,177.52l8.1,2.56c137.43,56.5,129.7,21.24,126.65,36.47C1913.81,1060.84,1921.06,0,1921.06,0Z" style="fill:none"/></clipPath><linearGradient id="linear-gradient" x1="1701.86" y1="-326.05" x2="436.92" y2="1150.64" gradientUnits="userSpaceOnUse"><stop offset="0" stop-color="#00dd80" stop-opacity="0.74"/><stop offset="1" stop-color="#00aa63"/></linearGradient><linearGradient id="linear-gradient-2" x1="1.77" y1="1081.18" x2="1.33" y2="1080.56" gradientTransform="matrix(1431.73, 0, 0, -1045.6, -866.73, 1130525.93)" gradientUnits="userSpaceOnUse"><stop offset="0" stop-color="#00dd80" stop-opacity="0.74"/><stop offset="1" stop-color="#00aa63"/></linearGradient></defs><title>bg_0</title><rect id="canvas_background" data-name="canvas background" x="765.78" y="321.5" width="440" height="519" style="fill:none"/><g style="clip-path:url(#clip-path)"><rect width="1920" height="1080" style="opacity:0;fill:url(#linear-gradient)"/><path id="svg_1" data-name="svg 1" d="M2270.48,689c-25,73.9-62.76,138.16-112.31,191-56.4,60.1-130.24,107.87-219.49,141.94a64.62,64.62,0,0,1-9.06,2.7,62.31,62.31,0,0,1-12.27,1.41h-.81a62.59,62.59,0,0,1-13.09-1.41,66.09,66.09,0,0,1-9-2.68c-89.35-34-163.29-81.75-219.75-141.86-49.56-52.81-87.34-117-112.29-190.93-45.36-134.37-42.78-282.39-40.7-401.34l0-1.83c.41-9.82.68-20.14.83-31.53.76-55.94,41.51-102.21,92.76-105.33,106.87-6.51,189.54-44.55,260.17-119.7l.62-.62c11.73-11.74,26.51-17.5,41.22-17.26,14.18.2,28.3,6,39.61,17.26l.61.62c70.65,75.15,153.32,113.19,260.18,119.7,51.26,3.12,92,49.39,92.76,105.33.15,11.47.42,21.77.84,31.53l0,.78C2313.44,405.9,2316,554.21,2270.48,689Z" transform="translate(3)" style="fill:#00dd80"/><path id="svg_2" data-name="svg 2" d="M2270.48,689c-25,73.9-62.76,138.16-112.31,191-56.4,60.1-130.24,107.87-219.49,141.94a64.62,64.62,0,0,1-9.06,2.7,62.31,62.31,0,0,1-12.27,1.41V11.51c14.18.2,28.3,6,39.61,17.26l.61.62c70.65,75.14,153.32,113.19,260.18,119.7,51.26,3.12,92,49.39,92.76,105.33.15,11.47.42,21.77.84,31.53l0,.78C2313.44,405.9,2316,554.21,2270.48,689Z" transform="translate(3)" style="fill:#00aa63"/><path id="svg_3" data-name="svg 3" d="M2148.17,518.75c0,139.11-103.48,252.35-230.82,252.84h-.82c-127.72,0-231.65-113.43-231.65-252.84s103.93-252.84,231.65-252.84h.82C2044.69,266.41,2148.17,379.65,2148.17,518.75Z" transform="translate(3)" style="fill:#fff"/><path id="svg_4" data-name="svg 4" d="M2148.17,518.75c0,139.11-103.48,252.35-230.82,252.84V265.91C2044.69,266.41,2148.17,379.65,2148.17,518.75Z" transform="translate(3)" style="fill:#e1ebf0"/><g id="svg_18" data-name="svg 18"><path id="svg_20" data-name="svg 20" d="M1843.47,644.24c-16.81,0-30.42,15-30.42,33.36S1826.66,711,1843.47,711,1874,696,1874,677.6,1860.29,644.24,1843.47,644.24Zm-91.71-266.95v33.37h30.57l55,126.63-20.64,40.88a34.62,34.62,0,0,0-3.82,16c0,18.36,13.76,33.37,30.57,33.37H2026.9V594.18h-177a4,4,0,0,1-3.82-4.17l.46-2,13.76-27.19h113.87c11.47,0,21.56-6.85,26.75-17.19l54.73-108.28a17.51,17.51,0,0,0,1.83-8c0-9.17-6.88-16.68-15.29-16.68H1816.11l-14.37-33.37Zm244.57,267c-16.82,0-30.42,15-30.42,33.36s13.6,33.37,30.42,33.37,30.57-15,30.57-33.37S2013.14,644.24,1996.33,644.24Z" transform="translate(3)" style="fill:#0f9d58"/><path id="svg_19" data-name="svg 19" d="M1736.47,343.92h366.86V744.34H1736.47Z" transform="translate(3)" style="fill:none"/></g></g><path id="Path_1-2" data-name="Path 1" d="M493.16,0s146.65,466.13,532.55,574.18,463.1,254.7,463.1,254.7,54,100.34,297.15,177.52l8.1,2.56c137.43,56.5,129.7,21.24,126.65,36.47C1917.63,1060.84,1919.89,1,1919.89,1Z" transform="translate(3)" style="fill:url(#linear-gradient-2)"/></svg>