<?xml version="1.0" standalone="no"?>
<!DOCTYPE svg PUBLIC "-//W3C//DTD SVG 20010904//EN"
 "http://www.w3.org/TR/2001/REC-SVG-20010904/DTD/svg10.dtd">
<svg version="1.0" xmlns="http://www.w3.org/2000/svg"
 width="1034.000000pt" height="1034.000000pt" viewBox="0 0 1034.000000 1034.000000"
 preserveAspectRatio="xMidYMid meet">
<metadata>
Created by potrace 1.11, written by Peter Selinger 2001-2013
</metadata>
<g transform="translate(0.000000,1034.000000) scale(0.100000,-0.100000)"
fill="#000000" stroke="none">
<path d="M5069 10336 c-2 -2 -17 -6 -34 -9 -85 -14 -215 -74 -284 -132 -29
-24 -120 -107 -171 -155 -48 -45 -127 -112 -204 -173 -34 -27 -76 -60 -93 -74
-18 -14 -95 -68 -170 -119 -76 -52 -143 -97 -149 -101 -5 -5 -26 -16 -45 -27
-19 -10 -50 -28 -69 -39 -19 -11 -69 -38 -110 -59 -41 -22 -79 -43 -85 -47 -5
-4 -39 -20 -75 -35 -36 -15 -83 -37 -104 -48 -74 -37 -433 -167 -506 -183 -8
-2 -60 -15 -115 -30 -55 -14 -109 -28 -120 -31 -11 -2 -31 -6 -45 -10 -14 -3
-38 -7 -55 -10 -16 -3 -37 -7 -45 -10 -8 -3 -33 -8 -55 -10 -22 -3 -47 -8 -55
-11 -8 -3 -33 -7 -54 -9 -22 -3 -51 -6 -65 -9 -22 -4 -74 -11 -146 -20 -123
-15 -156 -18 -202 -19 -29 -1 -53 -3 -53 -6 0 -3 -21 -5 -48 -6 -133 -2 -280
-28 -387 -70 -76 -31 -155 -69 -155 -76 0 -5 -5 -8 -10 -8 -15 0 -120 -71
-120 -81 0 -5 -6 -9 -13 -9 -28 0 -203 -199 -256 -290 -83 -143 -137 -313
-147 -460 -3 -52 -14 -451 -20 -720 -4 -212 -4 -191 -4 -275 0 -36 0 -71 0
-77 0 -7 1 -38 2 -69 1 -30 -2 -60 -5 -66 -4 -7 -4 -14 1 -17 8 -5 7 -79 -2
-103 -3 -7 -2 -13 2 -13 9 0 8 -52 -1 -67 -4 -6 -4 -13 0 -16 3 -4 7 -93 9
-199 2 -106 6 -247 9 -313 3 -66 7 -174 10 -240 3 -66 8 -140 11 -165 2 -25 7
-74 9 -110 3 -36 7 -83 9 -105 3 -22 8 -69 11 -105 3 -36 8 -83 11 -105 3 -22
7 -58 9 -80 9 -81 21 -169 30 -225 4 -19 8 -51 11 -70 9 -60 11 -72 28 -170
24 -133 23 -130 35 -180 5 -24 8 -46 6 -49 -3 -2 -1 -9 5 -16 5 -6 11 -26 14
-45 7 -50 15 -88 31 -142 8 -27 11 -48 8 -48 -3 0 0 -7 7 -15 7 -8 10 -15 7
-15 -2 0 4 -33 15 -72 11 -40 26 -98 34 -128 8 -30 23 -80 34 -110 10 -30 21
-66 24 -80 2 -14 14 -50 26 -80 12 -30 23 -59 24 -65 8 -38 64 -185 77 -201 5
-6 6 -14 2 -17 -3 -4 -1 -12 5 -20 6 -7 18 -35 28 -62 9 -28 21 -53 28 -57 6
-4 8 -8 4 -8 -9 0 130 -301 149 -322 9 -10 13 -18 10 -18 -4 0 3 -17 15 -37
11 -21 39 -72 61 -113 22 -41 45 -82 53 -90 7 -8 12 -17 12 -20 -1 -12 272
-434 291 -450 3 -3 35 -43 71 -90 35 -47 68 -86 72 -88 4 -2 8 -8 8 -12 0 -8
57 -74 118 -138 12 -12 22 -25 22 -29 0 -20 409 -421 507 -495 15 -12 30 -25
33 -29 6 -8 116 -96 155 -124 15 -11 35 -28 44 -37 8 -10 21 -18 27 -18 7 0
14 -4 16 -9 6 -18 378 -271 397 -271 6 0 11 -4 11 -10 0 -5 6 -10 14 -10 8 0
16 -4 18 -8 3 -9 267 -162 348 -202 25 -12 52 -28 60 -35 8 -8 17 -13 20 -13
3 0 86 -39 185 -87 99 -48 186 -88 193 -88 6 0 12 -4 12 -9 0 -4 3 -7 8 -6 4
1 25 -6 47 -16 60 -27 279 -117 290 -120 6 -1 26 -9 45 -17 19 -9 64 -26 100
-38 36 -13 74 -27 85 -31 73 -31 188 -56 252 -55 29 0 53 -4 53 -8 0 -5 4 -6
9 -3 5 3 31 8 57 10 78 7 211 46 359 106 140 56 177 70 190 70 8 0 15 5 15 10
0 6 6 10 14 10 14 0 73 24 156 63 25 11 47 21 50 22 10 2 87 38 258 121 95 46
177 84 182 84 6 0 10 4 10 8 0 5 36 26 80 48 44 21 80 42 80 46 0 5 5 8 12 8
11 0 308 177 318 190 3 4 21 15 40 26 19 10 39 23 45 27 5 4 53 38 105 75 87
60 254 186 306 229 11 10 41 34 65 55 178 148 441 403 554 538 6 8 34 40 60
70 26 30 57 66 69 80 40 48 202 265 267 360 165 240 345 568 469 855 24 55 51
119 62 142 10 24 18 49 18 56 0 7 5 18 12 25 7 7 8 12 4 12 -5 0 -4 6 2 13 6
7 18 35 27 62 9 28 19 57 22 65 4 8 7 18 8 23 2 4 4 9 5 12 1 3 3 8 5 13 1 4
4 14 8 22 5 13 53 168 102 330 15 52 75 291 82 329 2 14 13 67 25 116 11 50
22 101 23 115 2 14 4 25 5 25 4 0 11 41 11 60 0 11 4 36 9 55 8 31 16 78 26
145 1 11 3 20 4 20 1 0 3 18 5 40 1 22 7 69 13 105 13 77 20 133 27 215 3 33
8 71 10 84 2 13 7 62 11 109 3 47 7 94 9 104 2 11 7 67 10 126 4 59 8 127 11
152 8 93 16 352 18 552 0 115 3 208 6 208 8 0 4 85 -4 98 -4 7 -3 12 2 12 5 0
9 13 8 30 -1 16 -4 30 -8 30 -4 0 -3 14 2 30 5 19 5 28 -1 25 -7 -5 0 25 11
45 2 3 -2 15 -9 28 -7 13 -8 22 -2 22 7 0 7 9 1 25 -6 15 -6 26 1 30 5 4 7 11
3 16 -10 17 -12 59 -2 65 4 3 5 10 2 16 -10 15 -10 98 -1 98 5 0 5 5 1 12 -4
7 -9 118 -10 248 -5 454 -15 635 -39 735 -9 33 -18 70 -20 81 -24 107 -142
312 -240 417 -162 174 -395 301 -610 332 -11 2 -20 4 -20 5 0 3 -174 19 -274
25 -40 2 -89 7 -110 10 -20 2 -54 7 -76 9 -122 14 -190 23 -190 26 0 1 -11 3
-25 5 -49 6 -95 14 -120 19 -14 3 -41 9 -60 12 -19 4 -44 9 -55 11 -11 2 -31
6 -44 9 -13 3 -51 12 -85 20 -34 9 -72 18 -86 21 -14 2 -32 7 -40 10 -8 3 -24
8 -35 10 -11 2 -27 6 -35 10 -13 5 -29 9 -65 17 -5 1 -14 4 -20 7 -5 4 -48 19
-95 34 -316 103 -697 293 -970 483 -36 25 -78 55 -95 66 -16 12 -32 23 -35 26
-3 3 -21 17 -40 30 -19 13 -37 27 -40 30 -3 3 -43 37 -90 75 -100 82 -126 104
-191 166 -48 45 -120 110 -156 139 -27 23 -129 80 -150 85 -10 2 -38 11 -63
20 -41 16 -259 32 -271 21z"/>
</g>
</svg>
