<svg xmlns="http://www.w3.org/2000/svg" xmlns:xlink="http://www.w3.org/1999/xlink" width="1920" height="909.31" viewBox="0 0 1920 909.31">
  <defs>
    <linearGradient id="linear-gradient" x1="0.5" x2="0.5" y2="1" gradientUnits="objectBoundingBox">
      <stop offset="0" stop-color="#00dd80" stop-opacity="0.737"/>
      <stop offset="1" stop-color="#00aa63"/>
    </linearGradient>
  </defs>
  <path id="Subtraction_1" data-name="Subtraction 1" d="M2271,1870H351V1085l.123-.019c5.655-.834,57.58-8.47,138.338-19.4,49.971-6.766,101.127-13.464,152.047-19.909,63.652-8.056,127.095-15.735,188.566-22.822,156.49-18.043,301.369-32.42,430.612-42.731,76.736-6.122,148.739-10.86,214.009-14.082,71.793-3.544,137.216-5.341,194.451-5.341,29.237,0,58.125.47,85.861,1.4,26.535.886,52.715,2.214,77.813,3.945,23.942,1.652,47.53,3.714,70.111,6.13,21.458,2.3,42.572,4.971,62.755,7.951,69.826,10.31,131.862,24.687,184.387,42.731a581.716,581.716,0,0,1,57.059,22.822,372.677,372.677,0,0,1,37.328,19.909,208.5,208.5,0,0,1,20.366,14.082A76.431,76.431,0,0,1,2271,1085v785Z" transform="translate(-351 -960.692)" fill="url(#linear-gradient)"/>
</svg>
